<svg width="255" height="60" viewBox="0 0 255 60" fill="none" xmlns="http://www.w3.org/2000/svg">
<path d="M24.9036 24.3939L24.9033 29.4168V29.4168V29.4752C24.9033 29.5918 24.9184 29.7048 24.9466 29.8125L24.8988 30.6303L24.8962 30.6742C24.885 30.8659 24.8103 31.0335 24.6842 31.1598L26.1268 30.2149C26.0445 30.2014 25.9624 30.1722 25.8806 30.1277L25.4844 29.9119V29.4752V29.4168V24.3939M24.9036 24.3939V24.3938L25.194 24.3939L25.4844 24.3939M24.9036 24.3939C24.9036 24.5543 25.0338 24.6843 25.194 24.6843C25.3544 24.6843 25.4844 24.554 25.4844 24.3939M24.9036 24.3939H25.194H25.4844M19.2833 23.9449L19.2833 23.9449L19.2833 23.9449ZM19.2833 23.9449C19.0703 24.316 18.5586 24.4545 18.1849 24.2399L19.2833 23.9449ZM17.8522 24.8176L17.8516 24.8172C17.5772 24.6588 17.3794 24.3994 17.2976 24.0954L17.2974 24.0949L17.2974 24.0948L17.297 24.0933C17.2304 23.8428 17.2473 23.5807 17.3431 23.3432V23.1486C17.1722 23.4436 17.1265 23.7878 17.2149 24.117C17.3028 24.4459 17.5141 24.7208 17.8095 24.8921L17.8522 24.8176ZM25.0957 31.571L25.1558 31.631L25.0957 31.571L25.095 31.5717C24.8442 31.822 24.5077 31.9601 24.1545 31.9601C24.1545 31.9601 24.1545 31.9601 24.1545 31.9601C23.6743 31.9601 23.2532 31.7049 23.0194 31.323C22.9954 31.3353 22.9711 31.3471 22.9465 31.3586L25.0957 31.571ZM17.9195 23.4836C17.8377 23.6253 17.8166 23.7867 17.8587 23.944C17.8587 23.944 17.8588 23.9441 17.8588 23.9441L17.8588 23.9443L17.859 23.9449C17.9007 24.1012 17.9992 24.2308 18.142 24.3142C18.142 24.3143 18.1421 24.3143 18.1421 24.3143L17.9195 23.4836Z" fill="#4CAF4F" stroke="#4CAF4F" stroke-width="1.33333"/>
<path d="M16.1252 36.7918C15.9467 36.8993 15.7158 36.8413 15.6091 36.663C15.5021 36.4849 15.5601 36.2537 15.7379 36.1468L16.1252 36.7918ZM11.7469 32.4271C11.7615 32.4007 11.7752 32.3761 11.7879 32.3532C11.8391 32.2609 11.8738 32.1984 11.8878 32.1733L11.9636 32.2132C11.9167 32.2976 11.8708 32.3803 11.8257 32.4615C11.7993 32.4516 11.773 32.4402 11.7469 32.4271ZM22.1554 34.7211C22.3076 34.6297 22.415 34.4851 22.4579 34.3133C22.5007 34.1418 22.4741 33.9635 22.3829 33.8113L22.1554 34.7211Z" fill="#4CAF4F" stroke="#4CAF4F" stroke-width="1.33333"/>
<path d="M27.8527 34.0933C27.7587 34.035 27.6732 33.966 27.5976 33.888L26.8782 33.5117L26.8782 33.5116L26.8381 33.4907C26.7243 33.4311 26.6083 33.4029 26.4965 33.4026L27.8527 34.0933ZM26.1717 32.862C26.1718 32.862 26.1719 32.8619 26.1721 32.8619L26.2275 33.0842L26.2275 33.0842L26.3126 33.4256L26.3125 33.4256L26.1717 32.862ZM30.3872 39.7857C30.387 39.7856 30.3869 39.7855 30.3867 39.7854L30.3872 39.7857ZM25.845 36.1872L25.8464 36.188L25.845 36.1872Z" fill="#4CAF4F" stroke="#4CAF4F" stroke-width="1.33333"/>
<g clip-path="url(#clip0_16_1406)">
<path d="M65.3423 24.4205V21.0298L73.8438 7.63636H76.767V12.3295H75.0369L69.6776 20.8111V20.9702H81.7585V24.4205H65.3423ZM75.1165 28V23.3864L75.196 21.8849V7.63636H79.233V28H75.1165ZM92.4425 28.2784C91.3951 28.2718 90.3842 28.0961 89.4098 27.7514C88.442 27.4067 87.5736 26.8466 86.8047 26.071C86.0357 25.2955 85.4259 24.268 84.9751 22.9886C84.531 21.7093 84.3089 20.1383 84.3089 18.2756C84.3156 16.5653 84.5111 15.0374 84.8956 13.6918C85.2867 12.3395 85.8435 11.1927 86.5661 10.2514C87.2952 9.31013 88.1669 8.59422 89.1811 8.10369C90.1953 7.60653 91.3322 7.35795 92.5916 7.35795C93.9505 7.35795 95.1503 7.62311 96.1911 8.15341C97.2318 8.67708 98.067 9.38968 98.6967 10.2912C99.3331 11.1927 99.7176 12.2036 99.8501 13.3239H95.6044C95.4387 12.6146 95.0907 12.0578 94.5604 11.6534C94.0301 11.2491 93.3738 11.0469 92.5916 11.0469C91.2659 11.0469 90.2583 11.6236 89.5689 12.777C88.8861 13.9304 88.5381 15.4981 88.5249 17.4801H88.6641C88.969 16.8769 89.38 16.3632 89.897 15.9389C90.4207 15.508 91.014 15.1799 91.6768 14.9545C92.3464 14.7225 93.0523 14.6065 93.7947 14.6065C95.0012 14.6065 96.075 14.8916 97.0163 15.4616C97.9576 16.0251 98.7 16.8007 99.2436 17.7884C99.7872 18.776 100.059 19.9062 100.059 21.179C100.059 22.5578 99.7375 23.7841 99.0945 24.858C98.4581 25.9318 97.5665 26.7737 96.4197 27.3835C95.2796 27.9867 93.9538 28.285 92.4425 28.2784ZM92.4226 24.8977C93.0855 24.8977 93.6787 24.7386 94.2024 24.4205C94.7261 24.1023 95.1371 23.6714 95.4354 23.1278C95.7337 22.5843 95.8828 21.9744 95.8828 21.2983C95.8828 20.6222 95.7337 20.0156 95.4354 19.4787C95.1437 18.9418 94.7393 18.5142 94.2223 18.196C93.7053 17.8778 93.1153 17.7188 92.4524 17.7188C91.9553 17.7188 91.4946 17.8116 91.0703 17.9972C90.6527 18.1828 90.2848 18.4413 89.9666 18.7727C89.6551 19.1042 89.4098 19.4886 89.2308 19.9261C89.0518 20.357 88.9624 20.8177 88.9624 21.3082C88.9624 21.9645 89.1115 22.5644 89.4098 23.108C89.7147 23.6515 90.1257 24.0857 90.6428 24.4105C91.1664 24.7353 91.7597 24.8977 92.4226 24.8977ZM106.907 25.2159L106.798 26.3097C106.712 27.1847 106.546 28.0563 106.301 28.9247C106.062 29.7997 105.81 30.5919 105.545 31.3011C105.287 32.0104 105.078 32.5672 104.919 32.9716H102.174C102.274 32.5805 102.41 32.0336 102.582 31.331C102.754 30.6349 102.917 29.8527 103.069 28.9844C103.222 28.116 103.318 27.2311 103.358 26.3295L103.407 25.2159H106.907ZM117.611 28.2784C116.126 28.2784 114.804 28.0232 113.644 27.5128C112.49 26.9957 111.579 26.2865 110.909 25.3849C110.247 24.4768 109.905 23.4295 109.885 22.2429H114.221C114.247 22.7401 114.409 23.1776 114.708 23.5554C115.013 23.9266 115.417 24.215 115.921 24.4205C116.425 24.6259 116.991 24.7287 117.621 24.7287C118.277 24.7287 118.857 24.6127 119.361 24.3807C119.865 24.1487 120.259 23.8272 120.544 23.4162C120.829 23.0052 120.972 22.5312 120.972 21.9943C120.972 21.4508 120.819 20.9702 120.515 20.5526C120.216 20.1283 119.785 19.7969 119.222 19.5582C118.665 19.3196 118.002 19.2003 117.233 19.2003H115.334V16.0384H117.233C117.883 16.0384 118.456 15.9257 118.953 15.7003C119.457 15.4749 119.848 15.1634 120.127 14.7656C120.405 14.3613 120.544 13.8906 120.544 13.3537C120.544 12.8433 120.422 12.3958 120.176 12.0114C119.938 11.6203 119.6 11.3153 119.162 11.0966C118.731 10.8778 118.228 10.7685 117.651 10.7685C117.068 10.7685 116.534 10.8745 116.05 11.0866C115.566 11.2921 115.178 11.5871 114.887 11.9716C114.595 12.3561 114.439 12.8068 114.419 13.3239H110.293C110.313 12.1506 110.648 11.1165 111.297 10.2216C111.947 9.3267 112.822 8.62737 113.922 8.12358C115.029 7.61316 116.279 7.35795 117.671 7.35795C119.076 7.35795 120.306 7.61316 121.36 8.12358C122.414 8.634 123.232 9.32339 123.816 10.1918C124.406 11.0535 124.697 12.0213 124.691 13.0952C124.697 14.2353 124.343 15.1866 123.627 15.9489C122.917 16.7112 121.993 17.1951 120.853 17.4006V17.5597C122.351 17.7519 123.491 18.2723 124.273 19.1207C125.062 19.9626 125.453 21.0166 125.446 22.2827C125.453 23.4427 125.118 24.4735 124.442 25.375C123.773 26.2765 122.848 26.9858 121.668 27.5028C120.488 28.0199 119.136 28.2784 117.611 28.2784ZM128.541 28V24.8977L135.79 18.1861C136.406 17.5895 136.923 17.0526 137.341 16.5753C137.765 16.098 138.087 15.6307 138.305 15.1733C138.524 14.7093 138.634 14.2088 138.634 13.6719C138.634 13.0753 138.498 12.5616 138.226 12.1307C137.954 11.6932 137.583 11.3584 137.112 11.1264C136.642 10.8878 136.108 10.7685 135.511 10.7685C134.888 10.7685 134.345 10.8944 133.881 11.1463C133.417 11.3982 133.059 11.7595 132.807 12.2301C132.555 12.7008 132.429 13.2609 132.429 13.9105H128.342C128.342 12.5781 128.644 11.4214 129.247 10.4403C129.85 9.45928 130.696 8.70028 131.783 8.16335C132.87 7.62642 134.123 7.35795 135.541 7.35795C137 7.35795 138.269 7.61648 139.349 8.13352C140.437 8.64394 141.282 9.35322 141.885 10.2614C142.488 11.1695 142.79 12.2102 142.79 13.3835C142.79 14.1525 142.637 14.9115 142.332 15.6605C142.034 16.4096 141.5 17.2415 140.732 18.1562C139.963 19.0644 138.879 20.1548 137.48 21.4276L134.507 24.3409V24.4801H143.058V28H128.541ZM153.775 28.2784C152.243 28.2784 150.881 28.0298 149.688 27.5327C148.501 27.0289 147.57 26.3428 146.894 25.4744C146.218 24.6061 145.88 23.6217 145.88 22.5213C145.88 21.6728 146.072 20.8939 146.456 20.1847C146.847 19.4688 147.378 18.8755 148.047 18.4048C148.717 17.9276 149.466 17.6226 150.294 17.4901V17.3509C149.207 17.1321 148.326 16.6051 147.65 15.7699C146.973 14.928 146.635 13.9503 146.635 12.8366C146.635 11.7827 146.944 10.8447 147.56 10.0227C148.176 9.19413 149.022 8.54451 150.096 8.07386C151.176 7.59659 152.402 7.35795 153.775 7.35795C155.147 7.35795 156.37 7.59659 157.444 8.07386C158.524 8.55114 159.373 9.20407 159.989 10.0327C160.605 10.8546 160.917 11.7893 160.924 12.8366C160.917 13.9569 160.572 14.9347 159.89 15.7699C159.207 16.6051 158.332 17.1321 157.265 17.3509V17.4901C158.08 17.6226 158.819 17.9276 159.482 18.4048C160.151 18.8755 160.682 19.4688 161.073 20.1847C161.471 20.8939 161.673 21.6728 161.679 22.5213C161.673 23.6217 161.331 24.6061 160.655 25.4744C159.979 26.3428 159.044 27.0289 157.851 27.5327C156.665 28.0298 155.306 28.2784 153.775 28.2784ZM153.775 25.1165C154.457 25.1165 155.054 24.9938 155.564 24.7486C156.075 24.4967 156.472 24.152 156.757 23.7145C157.049 23.2704 157.195 22.7599 157.195 22.1832C157.195 21.5933 157.046 21.0729 156.748 20.6222C156.449 20.1648 156.045 19.8068 155.534 19.5483C155.024 19.2831 154.437 19.1506 153.775 19.1506C153.118 19.1506 152.532 19.2831 152.015 19.5483C151.498 19.8068 151.09 20.1648 150.792 20.6222C150.5 21.0729 150.354 21.5933 150.354 22.1832C150.354 22.7599 150.497 23.2704 150.782 23.7145C151.067 24.152 151.468 24.4967 151.985 24.7486C152.502 24.9938 153.098 25.1165 153.775 25.1165ZM153.775 16.0185C154.345 16.0185 154.852 15.9025 155.296 15.6705C155.74 15.4384 156.088 15.117 156.34 14.706C156.592 14.295 156.718 13.821 156.718 13.2841C156.718 12.7538 156.592 12.2898 156.34 11.892C156.088 11.4877 155.743 11.1728 155.306 10.9474C154.868 10.7154 154.358 10.5994 153.775 10.5994C153.198 10.5994 152.687 10.7154 152.243 10.9474C151.799 11.1728 151.451 11.4877 151.199 11.892C150.954 12.2898 150.831 12.7538 150.831 13.2841C150.831 13.821 150.957 14.295 151.209 14.706C151.461 15.117 151.809 15.4384 152.253 15.6705C152.697 15.9025 153.204 16.0185 153.775 16.0185Z" fill="#4D4D4D"/>
<path d="M74.7727 46H73.3636C73.2803 45.5947 73.1345 45.2386 72.9261 44.9318C72.7216 44.625 72.4716 44.3674 72.1761 44.1591C71.8845 43.947 71.5606 43.7879 71.2045 43.6818C70.8485 43.5758 70.4773 43.5227 70.0909 43.5227C69.3864 43.5227 68.7481 43.7008 68.1761 44.0568C67.608 44.4129 67.1553 44.9375 66.8182 45.6307C66.4848 46.3239 66.3182 47.1742 66.3182 48.1818C66.3182 49.1894 66.4848 50.0398 66.8182 50.733C67.1553 51.4261 67.608 51.9508 68.1761 52.3068C68.7481 52.6629 69.3864 52.8409 70.0909 52.8409C70.4773 52.8409 70.8485 52.7879 71.2045 52.6818C71.5606 52.5758 71.8845 52.4186 72.1761 52.2102C72.4716 51.9981 72.7216 51.7386 72.9261 51.4318C73.1345 51.1212 73.2803 50.7652 73.3636 50.3636H74.7727C74.6667 50.9583 74.4735 51.4905 74.1932 51.9602C73.9129 52.4299 73.5644 52.8295 73.1477 53.1591C72.7311 53.4848 72.2633 53.733 71.7443 53.9034C71.2292 54.0739 70.678 54.1591 70.0909 54.1591C69.0985 54.1591 68.2159 53.9167 67.4432 53.4318C66.6705 52.947 66.0625 52.2576 65.6193 51.3636C65.1761 50.4697 64.9545 49.4091 64.9545 48.1818C64.9545 46.9545 65.1761 45.8939 65.6193 45C66.0625 44.1061 66.6705 43.4167 67.4432 42.9318C68.2159 42.447 69.0985 42.2045 70.0909 42.2045C70.678 42.2045 71.2292 42.2898 71.7443 42.4602C72.2633 42.6307 72.7311 42.8807 73.1477 43.2102C73.5644 43.536 73.9129 43.9337 74.1932 44.4034C74.4735 44.8693 74.6667 45.4015 74.7727 46ZM78.2088 42.3636V54H76.8679V42.3636H78.2088ZM86.1648 50.4318V45.2727H87.5057V54H86.1648V52.5227H86.0739C85.8693 52.9659 85.5511 53.3428 85.1193 53.6534C84.6875 53.9602 84.142 54.1136 83.483 54.1136C82.9375 54.1136 82.4527 53.9943 82.0284 53.7557C81.6042 53.5133 81.2708 53.1496 81.0284 52.6648C80.786 52.1761 80.6648 51.5606 80.6648 50.8182V45.2727H82.0057V50.7273C82.0057 51.3636 82.1837 51.8712 82.5398 52.25C82.8996 52.6288 83.358 52.8182 83.9148 52.8182C84.2481 52.8182 84.5871 52.733 84.9318 52.5625C85.2803 52.392 85.572 52.1307 85.8068 51.7784C86.0455 51.4261 86.1648 50.9773 86.1648 50.4318ZM90.1435 54V42.3636H91.4844V46.6591H91.598C91.6965 46.5076 91.8329 46.3144 92.0071 46.0795C92.1851 45.8409 92.4389 45.6288 92.7685 45.4432C93.1018 45.2538 93.5526 45.1591 94.1207 45.1591C94.8556 45.1591 95.5033 45.3428 96.0639 45.7102C96.6245 46.0777 97.062 46.5985 97.3764 47.2727C97.6908 47.947 97.848 48.7424 97.848 49.6591C97.848 50.5833 97.6908 51.3845 97.3764 52.0625C97.062 52.7367 96.6264 53.2595 96.0696 53.6307C95.5128 53.9981 94.8707 54.1818 94.1435 54.1818C93.5829 54.1818 93.134 54.089 92.7969 53.9034C92.4598 53.714 92.2003 53.5 92.0185 53.2614C91.8366 53.0189 91.6965 52.8182 91.598 52.6591H91.4389V54H90.1435ZM91.4616 49.6364C91.4616 50.2955 91.5582 50.8769 91.7514 51.3807C91.9446 51.8807 92.2268 52.2727 92.598 52.5568C92.9692 52.8371 93.4238 52.9773 93.9616 52.9773C94.5223 52.9773 94.9901 52.8295 95.3651 52.5341C95.7438 52.2348 96.0279 51.8333 96.2173 51.3295C96.4105 50.822 96.5071 50.2576 96.5071 49.6364C96.5071 49.0227 96.4124 48.4697 96.223 47.9773C96.0374 47.4811 95.7552 47.089 95.3764 46.8011C95.0014 46.5095 94.5298 46.3636 93.9616 46.3636C93.4162 46.3636 92.9579 46.5019 92.5866 46.7784C92.2154 47.0511 91.9351 47.4337 91.7457 47.9261C91.5563 48.4148 91.4616 48.9848 91.4616 49.6364ZM106.081 47.2273L104.876 47.5682C104.801 47.3674 104.689 47.1723 104.541 46.983C104.397 46.7898 104.2 46.6307 103.95 46.5057C103.7 46.3807 103.38 46.3182 102.99 46.3182C102.456 46.3182 102.011 46.4413 101.655 46.6875C101.303 46.9299 101.126 47.2386 101.126 47.6136C101.126 47.947 101.248 48.2102 101.49 48.4034C101.732 48.5966 102.111 48.7576 102.626 48.8864L103.922 49.2045C104.702 49.3939 105.284 49.6837 105.666 50.0739C106.049 50.4602 106.24 50.9583 106.24 51.5682C106.24 52.0682 106.096 52.5152 105.808 52.9091C105.524 53.303 105.126 53.6136 104.615 53.8409C104.104 54.0682 103.509 54.1818 102.831 54.1818C101.941 54.1818 101.204 53.9886 100.621 53.6023C100.037 53.2159 99.6681 52.6515 99.5128 51.9091L100.786 51.5909C100.907 52.0606 101.136 52.4129 101.473 52.6477C101.814 52.8826 102.259 53 102.808 53C103.433 53 103.929 52.8674 104.297 52.6023C104.668 52.3333 104.854 52.0114 104.854 51.6364C104.854 51.3333 104.748 51.0795 104.536 50.875C104.323 50.6667 103.998 50.5114 103.558 50.4091L102.104 50.0682C101.304 49.8788 100.717 49.5852 100.342 49.1875C99.9711 48.786 99.7855 48.2841 99.7855 47.6818C99.7855 47.1894 99.9238 46.7538 100.2 46.375C100.481 45.9962 100.861 45.6989 101.342 45.483C101.827 45.267 102.376 45.1591 102.99 45.1591C103.854 45.1591 104.532 45.3485 105.024 45.7273C105.52 46.1061 105.873 46.6061 106.081 47.2273Z" fill="#717171"/>
</g>
<defs>
<clipPath id="clip0_16_1406">
<rect width="191" height="60" fill="white" transform="translate(64)"/>
</clipPath>
</defs>
</svg>
