<svg width="350" height="209" viewBox="0 0 350 209" fill="none" xmlns="http://www.w3.org/2000/svg">
<g filter="url(#filter0_d_22_901)">
<rect x="16.5" y="8.39905" width="317" height="176" rx="8" fill="#F5F7FA" shape-rendering="crispEdges"/>
<path d="M86.5998 35.7613H83.9435C83.8678 35.3257 83.7281 34.9398 83.5245 34.6036C83.3209 34.2627 83.0676 33.9739 82.7646 33.7371C82.4615 33.5004 82.1159 33.3228 81.7276 33.2044C81.3441 33.0813 80.9298 33.0198 80.4847 33.0198C79.694 33.0198 78.9933 33.2186 78.3825 33.6164C77.7717 34.0094 77.2934 34.587 76.9478 35.3493C76.6022 36.1069 76.4293 37.0326 76.4293 38.1263C76.4293 39.239 76.6022 40.1765 76.9478 40.9388C77.2982 41.6964 77.7764 42.2693 78.3825 42.6576C78.9933 43.0411 79.6916 43.2329 80.4776 43.2329C80.9132 43.2329 81.3204 43.176 81.6992 43.0624C82.0827 42.944 82.426 42.7712 82.729 42.5439C83.0368 42.3167 83.2949 42.0373 83.5032 41.7059C83.7163 41.3744 83.863 40.9956 83.9435 40.5695L86.5998 40.5837C86.5004 41.275 86.2849 41.9237 85.9535 42.5297C85.6268 43.1358 85.1983 43.6708 84.668 44.1348C84.1377 44.5941 83.5174 44.954 82.8072 45.2144C82.0969 45.4701 81.3086 45.5979 80.4421 45.5979C79.1637 45.5979 78.0226 45.302 77.0188 44.7101C76.015 44.1183 75.2243 43.2636 74.6467 42.1462C74.069 41.0288 73.7802 39.6888 73.7802 38.1263C73.7802 36.5591 74.0714 35.2191 74.6538 34.1064C75.2362 32.989 76.0292 32.1344 77.033 31.5425C78.0368 30.9507 79.1732 30.6547 80.4421 30.6547C81.2518 30.6547 82.0046 30.7684 82.7006 30.9956C83.3967 31.2229 84.0169 31.5567 84.5614 31.9971C85.1059 32.4327 85.5534 32.9677 85.9038 33.6022C86.2589 34.2319 86.4909 34.9516 86.5998 35.7613ZM88.8991 45.399V34.49H91.392V36.3081H91.5057C91.7045 35.6784 92.0455 35.1931 92.5284 34.8522C93.0161 34.5065 93.5724 34.3337 94.1974 34.3337C94.3395 34.3337 94.4981 34.3408 94.6733 34.355C94.8532 34.3645 95.0024 34.3811 95.1207 34.4047V36.7698C95.0118 36.7319 94.839 36.6988 94.6023 36.6704C94.3703 36.6372 94.1454 36.6206 93.9276 36.6206C93.4588 36.6206 93.0374 36.7224 92.6634 36.926C92.294 37.1249 92.0028 37.4019 91.7898 37.757C91.5767 38.1121 91.4702 38.5217 91.4702 38.9857V45.399H88.8991ZM101.209 45.6121C100.115 45.6121 99.1708 45.3848 98.3754 44.9303C97.5846 44.471 96.9762 43.8223 96.5501 42.9843C96.1239 42.1415 95.9109 41.1495 95.9109 40.0084C95.9109 38.8863 96.1239 37.9014 96.5501 37.0539C96.9809 36.2016 97.5823 35.5387 98.354 35.0652C99.1258 34.587 100.033 34.3479 101.074 34.3479C101.747 34.3479 102.381 34.4568 102.978 34.6746C103.579 34.8877 104.109 35.2191 104.569 35.6689C105.033 36.1187 105.397 36.6917 105.662 37.3877C105.927 38.079 106.06 38.9028 106.06 39.8593V40.6476H97.1183V38.9147H103.596C103.591 38.4222 103.484 37.9843 103.276 37.6008C103.068 37.2125 102.776 36.9071 102.402 36.6846C102.033 36.462 101.602 36.3508 101.11 36.3508C100.584 36.3508 100.123 36.4786 99.7248 36.7343C99.3271 36.9852 99.0169 37.3167 98.7944 37.7286C98.5766 38.1358 98.4653 38.5832 98.4606 39.0709V40.5837C98.4606 41.2182 98.5766 41.7627 98.8086 42.2172C99.0406 42.667 99.3649 43.0127 99.7816 43.2542C100.198 43.4909 100.686 43.6093 101.245 43.6093C101.619 43.6093 101.957 43.5572 102.26 43.453C102.563 43.3441 102.826 43.1855 103.049 42.9772C103.271 42.7688 103.439 42.5108 103.553 42.203L105.953 42.4729C105.802 43.1074 105.513 43.6614 105.087 44.1348C104.666 44.6036 104.126 44.9682 103.468 45.2286C102.81 45.4843 102.057 45.6121 101.209 45.6121ZM111.374 45.6192C110.683 45.6192 110.06 45.4961 109.506 45.2499C108.957 44.999 108.522 44.6296 108.2 44.1419C107.882 43.6543 107.724 43.0529 107.724 42.338C107.724 41.7224 107.837 41.2134 108.065 40.811C108.292 40.4085 108.602 40.0865 108.995 39.8451C109.388 39.6036 109.831 39.4213 110.323 39.2982C110.82 39.1704 111.334 39.078 111.864 39.0212C112.504 38.9549 113.022 38.8957 113.42 38.8436C113.817 38.7868 114.106 38.7016 114.286 38.588C114.471 38.4696 114.563 38.2873 114.563 38.0411V37.9985C114.563 37.4634 114.405 37.0491 114.087 36.7556C113.77 36.462 113.313 36.3152 112.717 36.3152C112.087 36.3152 111.587 36.4526 111.218 36.7272C110.853 37.0018 110.607 37.3261 110.479 37.7002L108.079 37.3593C108.268 36.6964 108.581 36.1424 109.016 35.6973C109.452 35.2475 109.985 34.9114 110.614 34.6888C111.244 34.4615 111.94 34.3479 112.702 34.3479C113.228 34.3479 113.751 34.4095 114.272 34.5326C114.793 34.6557 115.269 34.8593 115.7 35.1434C116.13 35.4227 116.476 35.8039 116.737 36.2868C117.002 36.7698 117.134 37.3735 117.134 38.0979V45.399H114.663V43.9005H114.577C114.421 44.2035 114.201 44.4876 113.917 44.7527C113.638 45.0132 113.285 45.2239 112.859 45.3848C112.437 45.5411 111.942 45.6192 111.374 45.6192ZM112.042 43.73C112.558 43.73 113.005 43.6282 113.384 43.4246C113.763 43.2163 114.054 42.9417 114.258 42.6008C114.466 42.2598 114.57 41.8882 114.57 41.4857V40.2002C114.49 40.2665 114.353 40.328 114.158 40.3848C113.969 40.4417 113.756 40.4914 113.519 40.534C113.282 40.5766 113.048 40.6145 112.816 40.6476C112.584 40.6808 112.383 40.7092 112.212 40.7329C111.829 40.7849 111.486 40.8702 111.183 40.9885C110.879 41.1069 110.64 41.2726 110.465 41.4857C110.29 41.694 110.202 41.9639 110.202 42.2954C110.202 42.7688 110.375 43.1263 110.721 43.3678C111.067 43.6093 111.507 43.73 112.042 43.73ZM125.167 34.49V36.4786H118.896V34.49H125.167ZM120.444 31.8763H123.015V42.1178C123.015 42.4634 123.067 42.7286 123.171 42.9133C123.28 43.0932 123.422 43.2163 123.597 43.2826C123.772 43.3489 123.967 43.382 124.18 43.382C124.341 43.382 124.487 43.3702 124.62 43.3465C124.757 43.3228 124.862 43.3015 124.933 43.2826L125.366 45.2925C125.228 45.3399 125.032 45.3919 124.776 45.4488C124.525 45.5056 124.218 45.5387 123.853 45.5482C123.209 45.5671 122.629 45.4701 122.113 45.257C121.597 45.0392 121.187 44.703 120.884 44.2485C120.586 43.7939 120.439 43.2258 120.444 42.5439V31.8763ZM127.317 45.399V34.49H129.888V45.399H127.317ZM128.61 32.9417C128.203 32.9417 127.852 32.8067 127.559 32.5368C127.265 32.2622 127.118 31.9331 127.118 31.5496C127.118 31.1614 127.265 30.8323 127.559 30.5624C127.852 30.2878 128.203 30.1505 128.61 30.1505C129.022 30.1505 129.372 30.2878 129.661 30.5624C129.954 30.8323 130.101 31.1614 130.101 31.5496C130.101 31.9331 129.954 32.2622 129.661 32.5368C129.372 32.8067 129.022 32.9417 128.61 32.9417ZM135.103 39.007V45.399H132.532V34.49H134.989V36.3436H135.117C135.368 35.7329 135.768 35.2475 136.317 34.8877C136.871 34.5278 137.556 34.3479 138.37 34.3479C139.123 34.3479 139.779 34.5089 140.337 34.8309C140.901 35.1528 141.336 35.6192 141.644 36.23C141.957 36.8408 142.111 37.5818 142.106 38.453V45.399H139.535V38.8508C139.535 38.1216 139.345 37.551 138.967 37.1391C138.593 36.7272 138.074 36.5212 137.411 36.5212C136.961 36.5212 136.561 36.6206 136.211 36.8195C135.865 37.0136 135.593 37.2954 135.394 37.6647C135.2 38.034 135.103 38.4814 135.103 39.007ZM149.464 49.7172C148.54 49.7172 147.747 49.5918 147.085 49.3408C146.422 49.0946 145.889 48.7632 145.487 48.3465C145.084 47.9298 144.805 47.4682 144.648 46.9615L146.964 46.4005C147.068 46.6135 147.219 46.8242 147.418 47.0326C147.617 47.2456 147.885 47.4208 148.221 47.5581C148.562 47.7002 148.99 47.7712 149.506 47.7712C150.236 47.7712 150.839 47.5937 151.317 47.2385C151.796 46.8882 152.035 46.3105 152.035 45.5056V43.4388H151.907C151.774 43.704 151.58 43.9762 151.325 44.2556C151.074 44.5349 150.74 44.7693 150.323 44.9587C149.911 45.1481 149.393 45.2428 148.768 45.2428C147.93 45.2428 147.17 45.0463 146.488 44.6533C145.811 44.2556 145.271 43.6637 144.869 42.8777C144.471 42.087 144.272 41.0974 144.272 39.909C144.272 38.7111 144.471 37.7002 144.869 36.8763C145.271 36.0477 145.813 35.4204 146.495 34.9942C147.177 34.5633 147.937 34.3479 148.775 34.3479C149.414 34.3479 149.94 34.4568 150.352 34.6746C150.768 34.8877 151.1 35.1457 151.346 35.4488C151.592 35.7471 151.779 36.0288 151.907 36.2939H152.049V34.49H154.585V45.5766C154.585 46.5094 154.362 47.2812 153.917 47.8919C153.472 48.5027 152.863 48.9597 152.092 49.2627C151.32 49.5657 150.444 49.7172 149.464 49.7172ZM149.485 43.2258C150.03 43.2258 150.494 43.0932 150.877 42.828C151.261 42.5629 151.552 42.1817 151.751 41.6846C151.95 41.1874 152.049 40.5908 152.049 39.8948C152.049 39.2082 151.95 38.6069 151.751 38.0908C151.557 37.5747 151.268 37.1746 150.884 36.8905C150.505 36.6017 150.039 36.4573 149.485 36.4573C148.912 36.4573 148.434 36.6064 148.05 36.9047C147.667 37.203 147.378 37.6126 147.184 38.1334C146.99 38.6495 146.893 39.2366 146.893 39.8948C146.893 40.5624 146.99 41.1472 147.184 41.649C147.383 42.1462 147.674 42.5345 148.058 42.8138C148.446 43.0884 148.922 43.2258 149.485 43.2258ZM170.199 34.8522C170.133 34.2319 169.853 33.749 169.361 33.4033C168.873 33.0577 168.239 32.8848 167.457 32.8848C166.908 32.8848 166.437 32.9677 166.044 33.1334C165.651 33.2991 165.35 33.524 165.142 33.8081C164.934 34.0922 164.827 34.4166 164.822 34.7812C164.822 35.0842 164.891 35.347 165.028 35.5695C165.17 35.792 165.362 35.9814 165.604 36.1377C165.845 36.2892 166.113 36.417 166.406 36.5212C166.7 36.6254 166.996 36.713 167.294 36.784L168.658 37.1249C169.207 37.2527 169.735 37.4256 170.241 37.6434C170.753 37.8612 171.21 38.1358 171.612 38.4672C172.019 38.7987 172.341 39.1988 172.578 39.6675C172.815 40.1363 172.933 40.6855 172.933 41.3152C172.933 42.1675 172.715 42.918 172.28 43.5667C171.844 44.2106 171.214 44.7149 170.391 45.0794C169.571 45.4393 168.58 45.6192 167.415 45.6192C166.283 45.6192 165.301 45.444 164.467 45.0937C163.639 44.7433 162.99 44.2319 162.521 43.5596C162.057 42.8872 161.806 42.0681 161.768 41.1022H164.361C164.399 41.6088 164.555 42.0302 164.83 42.3664C165.104 42.7026 165.462 42.9535 165.902 43.1192C166.347 43.2849 166.844 43.3678 167.393 43.3678C167.966 43.3678 168.468 43.2826 168.899 43.1121C169.335 42.9369 169.676 42.6954 169.922 42.3877C170.168 42.0752 170.294 41.7106 170.298 41.2939C170.294 40.9151 170.182 40.6026 169.964 40.3564C169.747 40.1055 169.441 39.8972 169.048 39.7314C168.66 39.561 168.205 39.4095 167.685 39.2769L166.03 38.8508C164.832 38.543 163.885 38.0766 163.189 37.4516C162.498 36.8219 162.152 35.9862 162.152 34.9445C162.152 34.0875 162.384 33.337 162.848 32.6931C163.317 32.0491 163.954 31.5496 164.759 31.1945C165.563 30.8347 166.475 30.6547 167.493 30.6547C168.525 30.6547 169.429 30.8347 170.206 31.1945C170.987 31.5496 171.6 32.0444 172.045 32.6789C172.491 33.3086 172.72 34.033 172.734 34.8522H170.199ZM180.616 34.49V36.4786H174.345V34.49H180.616ZM175.893 31.8763H178.464V42.1178C178.464 42.4634 178.516 42.7286 178.62 42.9133C178.729 43.0932 178.871 43.2163 179.047 43.2826C179.222 43.3489 179.416 43.382 179.629 43.382C179.79 43.382 179.937 43.3702 180.069 43.3465C180.207 43.3228 180.311 43.3015 180.382 43.2826L180.815 45.2925C180.678 45.3399 180.481 45.3919 180.225 45.4488C179.975 45.5056 179.667 45.5387 179.302 45.5482C178.658 45.5671 178.078 45.4701 177.562 45.257C177.046 45.0392 176.636 44.703 176.333 44.2485C176.035 43.7939 175.888 43.2258 175.893 42.5439V31.8763ZM182.766 45.399V34.49H185.259V36.3081H185.373C185.572 35.6784 185.913 35.1931 186.396 34.8522C186.883 34.5065 187.44 34.3337 188.065 34.3337C188.207 34.3337 188.365 34.3408 188.54 34.355C188.72 34.3645 188.87 34.3811 188.988 34.4047V36.7698C188.879 36.7319 188.706 36.6988 188.469 36.6704C188.237 36.6372 188.013 36.6206 187.795 36.6206C187.326 36.6206 186.905 36.7224 186.531 36.926C186.161 37.1249 185.87 37.4019 185.657 37.757C185.444 38.1121 185.337 38.5217 185.337 38.9857V45.399H182.766ZM195.076 45.6121C193.983 45.6121 193.038 45.3848 192.243 44.9303C191.452 44.471 190.843 43.8223 190.417 42.9843C189.991 42.1415 189.778 41.1495 189.778 40.0084C189.778 38.8863 189.991 37.9014 190.417 37.0539C190.848 36.2016 191.449 35.5387 192.221 35.0652C192.993 34.587 193.9 34.3479 194.941 34.3479C195.614 34.3479 196.248 34.4568 196.845 34.6746C197.446 34.8877 197.976 35.2191 198.436 35.6689C198.9 36.1187 199.264 36.6917 199.529 37.3877C199.795 38.079 199.927 38.9028 199.927 39.8593V40.6476H190.985V38.9147H197.463C197.458 38.4222 197.351 37.9843 197.143 37.6008C196.935 37.2125 196.644 36.9071 196.27 36.6846C195.9 36.462 195.469 36.3508 194.977 36.3508C194.451 36.3508 193.99 36.4786 193.592 36.7343C193.194 36.9852 192.884 37.3167 192.662 37.7286C192.444 38.1358 192.333 38.5832 192.328 39.0709V40.5837C192.328 41.2182 192.444 41.7627 192.676 42.2172C192.908 42.667 193.232 43.0127 193.649 43.2542C194.065 43.4909 194.553 43.6093 195.112 43.6093C195.486 43.6093 195.824 43.5572 196.127 43.453C196.431 43.3441 196.693 43.1855 196.916 42.9772C197.138 42.7688 197.306 42.5108 197.42 42.203L199.821 42.4729C199.669 43.1074 199.38 43.6614 198.954 44.1348C198.533 44.6036 197.993 44.9682 197.335 45.2286C196.677 45.4843 195.924 45.6121 195.076 45.6121ZM205.241 45.6192C204.55 45.6192 203.928 45.4961 203.374 45.2499C202.824 44.999 202.389 44.6296 202.067 44.1419C201.75 43.6543 201.591 43.0529 201.591 42.338C201.591 41.7224 201.705 41.2134 201.932 40.811C202.159 40.4085 202.469 40.0865 202.862 39.8451C203.255 39.6036 203.698 39.4213 204.19 39.2982C204.688 39.1704 205.201 39.078 205.732 39.0212C206.371 38.9549 206.889 38.8957 207.287 38.8436C207.685 38.7868 207.973 38.7016 208.153 38.588C208.338 38.4696 208.43 38.2873 208.43 38.0411V37.9985C208.43 37.4634 208.272 37.0491 207.955 36.7556C207.637 36.462 207.18 36.3152 206.584 36.3152C205.954 36.3152 205.455 36.4526 205.085 36.7272C204.721 37.0018 204.474 37.3261 204.347 37.7002L201.946 37.3593C202.135 36.6964 202.448 36.1424 202.884 35.6973C203.319 35.2475 203.852 34.9114 204.482 34.6888C205.111 34.4615 205.807 34.3479 206.57 34.3479C207.095 34.3479 207.618 34.4095 208.139 34.5326C208.66 34.6557 209.136 34.8593 209.567 35.1434C209.998 35.4227 210.343 35.8039 210.604 36.2868C210.869 36.7698 211.001 37.3735 211.001 38.0979V45.399H208.53V43.9005H208.445C208.288 44.2035 208.068 44.4876 207.784 44.7527C207.505 45.0132 207.152 45.2239 206.726 45.3848C206.304 45.5411 205.81 45.6192 205.241 45.6192ZM205.909 43.73C206.425 43.73 206.873 43.6282 207.251 43.4246C207.63 43.2163 207.921 42.9417 208.125 42.6008C208.333 42.2598 208.438 41.8882 208.438 41.4857V40.2002C208.357 40.2665 208.22 40.328 208.026 40.3848C207.836 40.4417 207.623 40.4914 207.386 40.534C207.15 40.5766 206.915 40.6145 206.683 40.6476C206.451 40.6808 206.25 40.7092 206.08 40.7329C205.696 40.7849 205.353 40.8702 205.05 40.9885C204.747 41.1069 204.508 41.2726 204.332 41.4857C204.157 41.694 204.07 41.9639 204.07 42.2954C204.07 42.7688 204.242 43.1263 204.588 43.3678C204.934 43.6093 205.374 43.73 205.909 43.73ZM213.587 45.399V34.49H216.044V36.3436H216.172C216.399 35.7186 216.776 35.231 217.301 34.8806C217.827 34.5255 218.454 34.3479 219.183 34.3479C219.922 34.3479 220.545 34.5278 221.051 34.8877C221.563 35.2428 221.922 35.7281 222.131 36.3436H222.244C222.486 35.7376 222.893 35.2546 223.466 34.8948C224.044 34.5302 224.728 34.3479 225.518 34.3479C226.522 34.3479 227.341 34.6651 227.976 35.2996C228.61 35.9341 228.928 36.8597 228.928 38.0766V45.399H226.349V38.4743C226.349 37.7972 226.17 37.3025 225.81 36.99C225.45 36.6727 225.009 36.5141 224.489 36.5141C223.868 36.5141 223.383 36.7082 223.033 37.0965C222.687 37.48 222.514 37.9795 222.514 38.5951V45.399H219.993V38.3678C219.993 37.8044 219.822 37.3545 219.482 37.0184C219.145 36.6822 218.705 36.5141 218.161 36.5141C217.791 36.5141 217.455 36.6088 217.152 36.7982C216.849 36.9829 216.607 37.2456 216.428 37.5865C216.248 37.9227 216.158 38.3157 216.158 38.7655V45.399H213.587ZM234.107 30.8536V45.399H231.536V30.8536H234.107ZM236.751 45.399V34.49H239.322V45.399H236.751ZM238.043 32.9417C237.636 32.9417 237.286 32.8067 236.992 32.5368C236.699 32.2622 236.552 31.9331 236.552 31.5496C236.552 31.1614 236.699 30.8323 236.992 30.5624C237.286 30.2878 237.636 30.1505 238.043 30.1505C238.455 30.1505 238.806 30.2878 239.094 30.5624C239.388 30.8323 239.535 31.1614 239.535 31.5496C239.535 31.9331 239.388 32.2622 239.094 32.5368C238.806 32.8067 238.455 32.9417 238.043 32.9417ZM244.537 39.007V45.399H241.966V34.49H244.423V36.3436H244.551C244.802 35.7329 245.202 35.2475 245.751 34.8877C246.305 34.5278 246.989 34.3479 247.804 34.3479C248.556 34.3479 249.212 34.5089 249.771 34.8309C250.334 35.1528 250.77 35.6192 251.078 36.23C251.39 36.8408 251.544 37.5818 251.539 38.453V45.399H248.968V38.8508C248.968 38.1216 248.779 37.551 248.4 37.1391C248.026 36.7272 247.508 36.5212 246.845 36.5212C246.395 36.5212 245.995 36.6206 245.645 36.8195C245.299 37.0136 245.027 37.2954 244.828 37.6647C244.634 38.034 244.537 38.4814 244.537 39.007ZM258.983 45.6121C257.889 45.6121 256.944 45.3848 256.149 44.9303C255.358 44.471 254.75 43.8223 254.324 42.9843C253.897 42.1415 253.684 41.1495 253.684 40.0084C253.684 38.8863 253.897 37.9014 254.324 37.0539C254.754 36.2016 255.356 35.5387 256.127 35.0652C256.899 34.587 257.806 34.3479 258.848 34.3479C259.52 34.3479 260.154 34.4568 260.751 34.6746C261.352 34.8877 261.883 35.2191 262.342 35.6689C262.806 36.1187 263.171 36.6917 263.436 37.3877C263.701 38.079 263.833 38.9028 263.833 39.8593V40.6476H254.892V38.9147H261.369C261.364 38.4222 261.258 37.9843 261.049 37.6008C260.841 37.2125 260.55 36.9071 260.176 36.6846C259.806 36.462 259.376 36.3508 258.883 36.3508C258.358 36.3508 257.896 36.4786 257.498 36.7343C257.1 36.9852 256.79 37.3167 256.568 37.7286C256.35 38.1358 256.239 38.5832 256.234 39.0709V40.5837C256.234 41.2182 256.35 41.7627 256.582 42.2172C256.814 42.667 257.138 43.0127 257.555 43.2542C257.972 43.4909 258.459 43.6093 259.018 43.6093C259.392 43.6093 259.731 43.5572 260.034 43.453C260.337 43.3441 260.6 43.1855 260.822 42.9772C261.045 42.7688 261.213 42.5108 261.326 42.203L263.727 42.4729C263.575 43.1074 263.287 43.6614 262.86 44.1348C262.439 44.6036 261.899 44.9682 261.241 45.2286C260.583 45.4843 259.83 45.6121 258.983 45.6121ZM270.057 45.5908C269.2 45.5908 268.433 45.3706 267.756 44.9303C267.079 44.49 266.544 43.8508 266.151 43.0127C265.758 42.1746 265.561 41.1566 265.561 39.9587C265.561 38.7466 265.76 37.7239 266.158 36.8905C266.56 36.0525 267.102 35.4204 267.784 34.9942C268.466 34.5633 269.226 34.3479 270.064 34.3479C270.703 34.3479 271.229 34.4568 271.641 34.6746C272.053 34.8877 272.379 35.1457 272.621 35.4488C272.862 35.7471 273.049 36.0288 273.182 36.2939H273.288V30.8536H275.866V45.399H273.338V43.6803H273.182C273.049 43.9454 272.857 44.2272 272.607 44.5255C272.356 44.819 272.024 45.07 271.612 45.2783C271.2 45.4866 270.682 45.5908 270.057 45.5908ZM270.774 43.4814C271.319 43.4814 271.783 43.3347 272.166 43.0411C272.55 42.7428 272.841 42.3285 273.04 41.7982C273.239 41.2679 273.338 40.65 273.338 39.9445C273.338 39.239 273.239 38.6258 273.04 38.105C272.846 37.5842 272.557 37.1794 272.173 36.8905C271.795 36.6017 271.328 36.4573 270.774 36.4573C270.201 36.4573 269.723 36.6064 269.339 36.9047C268.956 37.203 268.667 37.615 268.473 38.1405C268.279 38.6661 268.182 39.2674 268.182 39.9445C268.182 40.6263 268.279 41.2347 268.473 41.7698C268.672 42.3001 268.963 42.7191 269.347 43.0269C269.735 43.3299 270.211 43.4814 270.774 43.4814ZM43.2067 62.8522C43.1404 62.2319 42.861 61.749 42.3686 61.4033C41.8809 61.0577 41.2464 60.8848 40.4652 60.8848C39.916 60.8848 39.4448 60.9677 39.0518 61.1334C38.6589 61.2991 38.3582 61.524 38.1499 61.8081C37.9415 62.0922 37.835 62.4166 37.8303 62.7812C37.8303 63.0842 37.8989 63.347 38.0362 63.5695C38.1783 63.792 38.37 63.9814 38.6115 64.1377C38.853 64.2892 39.1205 64.417 39.4141 64.5212C39.7076 64.6254 40.0036 64.713 40.3018 64.784L41.6655 65.1249C42.2147 65.2527 42.7427 65.4256 43.2493 65.6434C43.7607 65.8612 44.2176 66.1358 44.62 66.4672C45.0272 66.7987 45.3492 67.1988 45.5859 67.6675C45.8227 68.1363 45.9411 68.6855 45.9411 69.3152C45.9411 70.1675 45.7232 70.918 45.2876 71.5667C44.852 72.2106 44.2223 72.7149 43.3984 73.0794C42.5793 73.4393 41.5874 73.6192 40.4226 73.6192C39.291 73.6192 38.3085 73.444 37.4751 73.0937C36.6465 72.7433 35.9979 72.2319 35.5291 71.5596C35.0651 70.8872 34.8142 70.0681 34.7763 69.1022H37.3686C37.4065 69.6088 37.5627 70.0302 37.8374 70.3664C38.112 70.7026 38.4695 70.9535 38.9098 71.1192C39.3549 71.2849 39.852 71.3678 40.4013 71.3678C40.9742 71.3678 41.4761 71.2826 41.907 71.1121C42.3426 70.9369 42.6835 70.6954 42.9297 70.3877C43.1759 70.0752 43.3014 69.7106 43.3061 69.2939C43.3014 68.9151 43.1901 68.6026 42.9723 68.3564C42.7545 68.1055 42.4491 67.8972 42.0561 67.7314C41.6679 67.561 41.2133 67.4095 40.6925 67.2769L39.0376 66.8508C37.8397 66.543 36.8928 66.0766 36.1967 65.4516C35.5054 64.8219 35.1598 63.9862 35.1598 62.9445C35.1598 62.0875 35.3918 61.337 35.8558 60.6931C36.3246 60.0491 36.9614 59.5496 37.7663 59.1945C38.5713 58.8347 39.4827 58.6547 40.5007 58.6547C41.5329 58.6547 42.4373 58.8347 43.2138 59.1945C43.995 59.5496 44.6082 60.0444 45.0533 60.6789C45.4983 61.3086 45.728 62.033 45.7422 62.8522H43.2067ZM51.3157 73.6192C50.6244 73.6192 50.0018 73.4961 49.4478 73.2499C48.8986 72.999 48.4629 72.6296 48.141 72.1419C47.8237 71.6543 47.6651 71.0529 47.6651 70.338C47.6651 69.7224 47.7788 69.2134 48.006 68.811C48.2333 68.4085 48.5434 68.0865 48.9364 67.8451C49.3294 67.6036 49.7721 67.4213 50.2646 67.2982C50.7617 67.1704 51.2754 67.078 51.8058 67.0212C52.445 66.9549 52.9634 66.8957 53.3612 66.8436C53.7589 66.7868 54.0477 66.7016 54.2276 66.588C54.4123 66.4696 54.5046 66.2873 54.5046 66.0411V65.9985C54.5046 65.4634 54.346 65.0491 54.0288 64.7556C53.7115 64.462 53.2546 64.3152 52.658 64.3152C52.0283 64.3152 51.5288 64.4526 51.1594 64.7272C50.7949 65.0018 50.5487 65.3261 50.4208 65.7002L48.0202 65.3593C48.2096 64.6964 48.5221 64.1424 48.9577 63.6973C49.3933 63.2475 49.926 62.9114 50.5558 62.6888C51.1855 62.4615 51.8815 62.3479 52.6438 62.3479C53.1694 62.3479 53.6926 62.4095 54.2134 62.5326C54.7343 62.6557 55.2101 62.8593 55.641 63.1434C56.0719 63.4227 56.4175 63.8039 56.6779 64.2868C56.9431 64.7698 57.0756 65.3735 57.0756 66.0979V73.399H54.604V71.9005H54.5188C54.3626 72.2035 54.1424 72.4876 53.8583 72.7527C53.579 73.0132 53.2262 73.2239 52.8001 73.3848C52.3787 73.5411 51.8839 73.6192 51.3157 73.6192ZM51.9833 71.73C52.4994 71.73 52.9469 71.6282 53.3256 71.4246C53.7044 71.2163 53.9956 70.9417 54.1992 70.6008C54.4076 70.2598 54.5117 69.8882 54.5117 69.4857V68.2002C54.4312 68.2665 54.2939 68.328 54.0998 68.3848C53.9104 68.4417 53.6973 68.4914 53.4606 68.534C53.2238 68.5766 52.9895 68.6145 52.7575 68.6476C52.5254 68.6808 52.3242 68.7092 52.1538 68.7329C51.7702 68.7849 51.427 68.8702 51.1239 68.9885C50.8209 69.1069 50.5818 69.2726 50.4066 69.4857C50.2314 69.694 50.1438 69.9639 50.1438 70.2954C50.1438 70.7688 50.3166 71.1263 50.6623 71.3678C51.0079 71.6093 51.4483 71.73 51.9833 71.73ZM65.1864 62.49V64.4786H58.7376V62.49H65.1864ZM60.3498 73.399V61.4601C60.3498 60.7262 60.5013 60.1154 60.8043 59.6277C61.1121 59.1401 61.524 58.7755 62.0401 58.534C62.5562 58.2925 63.1291 58.1718 63.7589 58.1718C64.204 58.1718 64.5993 58.2073 64.945 58.2783C65.2906 58.3493 65.5463 58.4133 65.712 58.4701L65.2006 60.4587C65.0917 60.4256 64.9544 60.3924 64.7887 60.3593C64.623 60.3214 64.4383 60.3025 64.2347 60.3025C63.7565 60.3025 63.418 60.4185 63.2191 60.6505C63.025 60.8777 62.9279 61.2044 62.9279 61.6306V73.399H60.3498ZM71.6193 73.6121C70.5256 73.6121 69.581 73.3848 68.7855 72.9303C67.9948 72.471 67.3864 71.8223 66.9602 70.9843C66.5341 70.1415 66.321 69.1495 66.321 68.0084C66.321 66.8863 66.5341 65.9014 66.9602 65.0539C67.3911 64.2016 67.9924 63.5387 68.7642 63.0652C69.536 62.587 70.4427 62.3479 71.4844 62.3479C72.1567 62.3479 72.7912 62.4568 73.3878 62.6746C73.9891 62.8877 74.5194 63.2191 74.9787 63.6689C75.4427 64.1187 75.8073 64.6917 76.0724 65.3877C76.3376 66.079 76.4702 66.9028 76.4702 67.8593V68.6476H67.5284V66.9147H74.0057C74.0009 66.4222 73.8944 65.9843 73.6861 65.6008C73.4777 65.2125 73.1866 64.9071 72.8125 64.6846C72.4432 64.462 72.0123 64.3508 71.5199 64.3508C70.9943 64.3508 70.5327 64.4786 70.1349 64.7343C69.7372 64.9852 69.4271 65.3167 69.2045 65.7286C68.9867 66.1358 68.8755 66.5832 68.8707 67.0709V68.5837C68.8707 69.2182 68.9867 69.7627 69.2188 70.2172C69.4508 70.667 69.7751 71.0127 70.1918 71.2542C70.6084 71.4909 71.0961 71.6093 71.6548 71.6093C72.0289 71.6093 72.3674 71.5572 72.6705 71.453C72.9735 71.3441 73.2363 71.1855 73.4588 70.9772C73.6813 70.7688 73.8494 70.5108 73.9631 70.203L76.3636 70.4729C76.2121 71.1074 75.9233 71.6614 75.4972 72.1348C75.0758 72.6036 74.536 72.9682 73.8778 73.2286C73.2197 73.4843 72.4669 73.6121 71.6193 73.6121ZM83.3896 77.7172C82.4663 77.7172 81.6732 77.5918 81.0103 77.3408C80.3474 77.0946 79.8147 76.7632 79.4123 76.3465C79.0098 75.9298 78.7305 75.4682 78.5742 74.9615L80.8896 74.4005C80.9937 74.6135 81.1452 74.8242 81.3441 75.0326C81.543 75.2456 81.8105 75.4208 82.1467 75.5581C82.4876 75.7002 82.9161 75.7712 83.4322 75.7712C84.1613 75.7712 84.765 75.5937 85.2433 75.2385C85.7215 74.8882 85.9606 74.3105 85.9606 73.5056V71.4388H85.8327C85.7002 71.704 85.506 71.9762 85.2504 72.2556C84.9994 72.5349 84.6656 72.7693 84.2489 72.9587C83.837 73.1481 83.3185 73.2428 82.6935 73.2428C81.8555 73.2428 81.0955 73.0463 80.4137 72.6533C79.7366 72.2556 79.1969 71.6637 78.7944 70.8777C78.3967 70.087 78.1978 69.0974 78.1978 67.909C78.1978 66.7111 78.3967 65.7002 78.7944 64.8763C79.1969 64.0477 79.739 63.4204 80.4208 62.9942C81.1026 62.5633 81.8626 62.3479 82.7006 62.3479C83.3398 62.3479 83.8654 62.4568 84.2773 62.6746C84.694 62.8877 85.0254 63.1457 85.2717 63.4488C85.5179 63.7471 85.7049 64.0288 85.8327 64.2939H85.9748V62.49H88.5103V73.5766C88.5103 74.5094 88.2878 75.2812 87.8427 75.8919C87.3976 76.5027 86.7892 76.9597 86.0174 77.2627C85.2456 77.5657 84.3697 77.7172 83.3896 77.7172ZM83.4109 71.2258C83.9554 71.2258 84.4194 71.0932 84.8029 70.828C85.1864 70.5629 85.4776 70.1817 85.6765 69.6846C85.8754 69.1874 85.9748 68.5908 85.9748 67.8948C85.9748 67.2082 85.8754 66.6069 85.6765 66.0908C85.4824 65.5747 85.1935 65.1746 84.81 64.8905C84.4312 64.6017 83.9648 64.4573 83.4109 64.4573C82.838 64.4573 82.3597 64.6064 81.9762 64.9047C81.5927 65.203 81.3039 65.6126 81.1097 66.1334C80.9156 66.6495 80.8185 67.2366 80.8185 67.8948C80.8185 68.5624 80.9156 69.1472 81.1097 69.649C81.3086 70.1462 81.5998 70.5345 81.9833 70.8138C82.3716 71.0884 82.8474 71.2258 83.4109 71.2258ZM98.0984 68.811V62.49H100.669V73.399H98.1765V71.4601H98.0629C97.8166 72.0709 97.4118 72.5704 96.8484 72.9587C96.2897 73.347 95.6007 73.5411 94.7816 73.5411C94.0666 73.5411 93.4345 73.3825 92.8853 73.0652C92.3408 72.7433 91.9147 72.2769 91.6069 71.6661C91.2991 71.0506 91.1452 70.3072 91.1452 69.436V62.49H93.7163V69.0383C93.7163 69.7295 93.9057 70.2788 94.2844 70.686C94.6632 71.0932 95.1604 71.2968 95.7759 71.2968C96.1547 71.2968 96.5217 71.2044 96.8768 71.0198C97.2319 70.8351 97.5231 70.5605 97.7504 70.1959C97.9824 69.8266 98.0984 69.365 98.0984 68.811ZM106.452 73.6192C105.761 73.6192 105.138 73.4961 104.585 73.2499C104.035 72.999 103.6 72.6296 103.278 72.1419C102.96 71.6543 102.802 71.0529 102.802 70.338C102.802 69.7224 102.915 69.2134 103.143 68.811C103.37 68.4085 103.68 68.0865 104.073 67.8451C104.466 67.6036 104.909 67.4213 105.401 67.2982C105.898 67.1704 106.412 67.078 106.942 67.0212C107.582 66.9549 108.1 66.8957 108.498 66.8436C108.896 66.7868 109.184 66.7016 109.364 66.588C109.549 66.4696 109.641 66.2873 109.641 66.0411V65.9985C109.641 65.4634 109.483 65.0491 109.165 64.7556C108.848 64.462 108.391 64.3152 107.795 64.3152C107.165 64.3152 106.665 64.4526 106.296 64.7272C105.932 65.0018 105.685 65.3261 105.558 65.7002L103.157 65.3593C103.346 64.6964 103.659 64.1424 104.094 63.6973C104.53 63.2475 105.063 62.9114 105.692 62.6888C106.322 62.4615 107.018 62.3479 107.781 62.3479C108.306 62.3479 108.829 62.4095 109.35 62.5326C109.871 62.6557 110.347 62.8593 110.778 63.1434C111.209 63.4227 111.554 63.8039 111.815 64.2868C112.08 64.7698 112.212 65.3735 112.212 66.0979V73.399H109.741V71.9005H109.656C109.499 72.2035 109.279 72.4876 108.995 72.7527C108.716 73.0132 108.363 73.2239 107.937 73.3848C107.515 73.5411 107.021 73.6192 106.452 73.6192ZM107.12 71.73C107.636 71.73 108.084 71.6282 108.462 71.4246C108.841 71.2163 109.132 70.9417 109.336 70.6008C109.544 70.2598 109.648 69.8882 109.648 69.4857V68.2002C109.568 68.2665 109.431 68.328 109.237 68.3848C109.047 68.4417 108.834 68.4914 108.597 68.534C108.361 68.5766 108.126 68.6145 107.894 68.6476C107.662 68.6808 107.461 68.7092 107.29 68.7329C106.907 68.7849 106.564 68.8702 106.261 68.9885C105.958 69.1069 105.719 69.2726 105.543 69.4857C105.368 69.694 105.281 69.9639 105.281 70.2954C105.281 70.7688 105.453 71.1263 105.799 71.3678C106.145 71.6093 106.585 71.73 107.12 71.73ZM114.798 73.399V62.49H117.29V64.3081H117.404C117.603 63.6784 117.944 63.1931 118.427 62.8522C118.915 62.5065 119.471 62.3337 120.096 62.3337C120.238 62.3337 120.397 62.3408 120.572 62.355C120.752 62.3645 120.901 62.3811 121.019 62.4047V64.7698C120.91 64.7319 120.737 64.6988 120.501 64.6704C120.269 64.6372 120.044 64.6206 119.826 64.6206C119.357 64.6206 118.936 64.7224 118.562 64.926C118.192 65.1249 117.901 65.4019 117.688 65.757C117.475 66.1121 117.369 66.5217 117.369 66.9857V73.399H114.798ZM126.326 73.5908C125.469 73.5908 124.702 73.3706 124.025 72.9303C123.348 72.49 122.813 71.8508 122.42 71.0127C122.027 70.1746 121.831 69.1566 121.831 67.9587C121.831 66.7466 122.029 65.7239 122.427 64.8905C122.83 64.0525 123.372 63.4204 124.054 62.9942C124.735 62.5633 125.495 62.3479 126.333 62.3479C126.973 62.3479 127.498 62.4568 127.91 62.6746C128.322 62.8877 128.649 63.1457 128.89 63.4488C129.132 63.7471 129.319 64.0288 129.451 64.2939H129.558V58.8536H132.136V73.399H129.608V71.6803H129.451C129.319 71.9454 129.127 72.2272 128.876 72.5255C128.625 72.819 128.294 73.07 127.882 73.2783C127.47 73.4866 126.951 73.5908 126.326 73.5908ZM127.044 71.4814C127.588 71.4814 128.052 71.3347 128.436 71.0411C128.819 70.7428 129.11 70.3285 129.309 69.7982C129.508 69.2679 129.608 68.65 129.608 67.9445C129.608 67.239 129.508 66.6258 129.309 66.105C129.115 65.5842 128.826 65.1794 128.443 64.8905C128.064 64.6017 127.598 64.4573 127.044 64.4573C126.471 64.4573 125.993 64.6064 125.609 64.9047C125.225 65.203 124.937 65.615 124.743 66.1405C124.548 66.6661 124.451 67.2674 124.451 67.9445C124.451 68.6263 124.548 69.2347 124.743 69.7698C124.941 70.3001 125.233 70.7191 125.616 71.0269C126.004 71.3299 126.48 71.4814 127.044 71.4814ZM134.876 73.399V62.49H137.447V73.399H134.876ZM136.168 60.9417C135.761 60.9417 135.411 60.8067 135.117 60.5368C134.824 60.2622 134.677 59.9331 134.677 59.5496C134.677 59.1614 134.824 58.8323 135.117 58.5624C135.411 58.2878 135.761 58.1505 136.168 58.1505C136.58 58.1505 136.931 58.2878 137.219 58.5624C137.513 58.8323 137.66 59.1614 137.66 59.5496C137.66 59.9331 137.513 60.2622 137.219 60.5368C136.931 60.8067 136.58 60.9417 136.168 60.9417ZM142.662 67.007V73.399H140.091V62.49H142.548V64.3436H142.676C142.927 63.7329 143.327 63.2475 143.876 62.8877C144.43 62.5278 145.114 62.3479 145.929 62.3479C146.681 62.3479 147.337 62.5089 147.896 62.8309C148.459 63.1528 148.895 63.6192 149.203 64.23C149.515 64.8408 149.669 65.5818 149.664 66.453V73.399H147.093V66.8508C147.093 66.1216 146.904 65.551 146.525 65.1391C146.151 64.7272 145.633 64.5212 144.97 64.5212C144.52 64.5212 144.12 64.6206 143.77 64.8195C143.424 65.0136 143.152 65.2954 142.953 65.6647C142.759 66.034 142.662 66.4814 142.662 67.007ZM157.022 77.7172C156.099 77.7172 155.306 77.5918 154.643 77.3408C153.98 77.0946 153.448 76.7632 153.045 76.3465C152.643 75.9298 152.363 75.4682 152.207 74.9615L154.522 74.4005C154.627 74.6135 154.778 74.8242 154.977 75.0326C155.176 75.2456 155.443 75.4208 155.779 75.5581C156.12 75.7002 156.549 75.7712 157.065 75.7712C157.794 75.7712 158.398 75.5937 158.876 75.2385C159.354 74.8882 159.593 74.3105 159.593 73.5056V71.4388H159.466C159.333 71.704 159.139 71.9762 158.883 72.2556C158.632 72.5349 158.298 72.7693 157.882 72.9587C157.47 73.1481 156.951 73.2428 156.326 73.2428C155.488 73.2428 154.728 73.0463 154.047 72.6533C153.369 72.2556 152.83 71.6637 152.427 70.8777C152.029 70.087 151.831 69.0974 151.831 67.909C151.831 66.7111 152.029 65.7002 152.427 64.8763C152.83 64.0477 153.372 63.4204 154.054 62.9942C154.735 62.5633 155.495 62.3479 156.333 62.3479C156.973 62.3479 157.498 62.4568 157.91 62.6746C158.327 62.8877 158.658 63.1457 158.904 63.4488C159.151 63.7471 159.338 64.0288 159.466 64.2939H159.608V62.49H162.143V73.5766C162.143 74.5094 161.921 75.2812 161.475 75.8919C161.03 76.5027 160.422 76.9597 159.65 77.2627C158.878 77.5657 158.002 77.7172 157.022 77.7172ZM157.044 71.2258C157.588 71.2258 158.052 71.0932 158.436 70.828C158.819 70.5629 159.11 70.1817 159.309 69.6846C159.508 69.1874 159.608 68.5908 159.608 67.8948C159.608 67.2082 159.508 66.6069 159.309 66.0908C159.115 65.5747 158.826 65.1746 158.443 64.8905C158.064 64.6017 157.598 64.4573 157.044 64.4573C156.471 64.4573 155.993 64.6064 155.609 64.9047C155.225 65.203 154.937 65.6126 154.743 66.1334C154.548 66.6495 154.451 67.2366 154.451 67.8948C154.451 68.5624 154.548 69.1472 154.743 69.649C154.941 70.1462 155.233 70.5345 155.616 70.8138C156.004 71.0884 156.48 71.2258 157.044 71.2258ZM169.853 73.399V58.8536H175.307C176.425 58.8536 177.362 59.0619 178.12 59.4786C178.882 59.8953 179.457 60.4682 179.846 61.1973C180.239 61.9218 180.435 62.7456 180.435 63.6689C180.435 64.6017 180.239 65.4303 179.846 66.1547C179.453 66.8792 178.873 67.4497 178.105 67.8664C177.338 68.2783 176.394 68.4843 175.272 68.4843H171.657V66.3181H174.917C175.57 66.3181 176.105 66.2044 176.522 65.9772C176.938 65.7499 177.246 65.4374 177.445 65.0397C177.649 64.6419 177.75 64.185 177.75 63.6689C177.75 63.1528 177.649 62.6983 177.445 62.3053C177.246 61.9123 176.936 61.6069 176.515 61.3891C176.098 61.1666 175.56 61.0553 174.902 61.0553H172.488V73.399H169.853ZM182.61 73.399V62.49H185.103V64.3081H185.217C185.415 63.6784 185.756 63.1931 186.239 62.8522C186.727 62.5065 187.283 62.3337 187.908 62.3337C188.05 62.3337 188.209 62.3408 188.384 62.355C188.564 62.3645 188.713 62.3811 188.832 62.4047V64.7698C188.723 64.7319 188.55 64.6988 188.313 64.6704C188.081 64.6372 187.856 64.6206 187.638 64.6206C187.17 64.6206 186.748 64.7224 186.374 64.926C186.005 65.1249 185.714 65.4019 185.501 65.757C185.288 66.1121 185.181 66.5217 185.181 66.9857V73.399H182.61ZM194.849 73.6121C193.784 73.6121 192.86 73.3777 192.079 72.909C191.298 72.4402 190.692 71.7845 190.261 70.9417C189.835 70.0989 189.622 69.114 189.622 67.9871C189.622 66.8602 189.835 65.873 190.261 65.0255C190.692 64.1779 191.298 63.5198 192.079 63.051C192.86 62.5823 193.784 62.3479 194.849 62.3479C195.914 62.3479 196.838 62.5823 197.619 63.051C198.4 63.5198 199.004 64.1779 199.43 65.0255C199.861 65.873 200.076 66.8602 200.076 67.9871C200.076 69.114 199.861 70.0989 199.43 70.9417C199.004 71.7845 198.4 72.4402 197.619 72.909C196.838 73.3777 195.914 73.6121 194.849 73.6121ZM194.863 71.5525C195.441 71.5525 195.924 71.3938 196.312 71.0766C196.7 70.7546 196.989 70.3238 197.179 69.784C197.373 69.2442 197.47 68.6429 197.47 67.98C197.47 67.3124 197.373 66.7087 197.179 66.1689C196.989 65.6244 196.7 65.1912 196.312 64.8692C195.924 64.5472 195.441 64.3863 194.863 64.3863C194.271 64.3863 193.779 64.5472 193.386 64.8692C192.998 65.1912 192.707 65.6244 192.512 66.1689C192.323 66.7087 192.228 67.3124 192.228 67.98C192.228 68.6429 192.323 69.2442 192.512 69.784C192.707 70.3238 192.998 70.7546 193.386 71.0766C193.779 71.3938 194.271 71.5525 194.863 71.5525ZM207.017 73.6121C205.928 73.6121 204.993 73.373 204.212 72.8948C203.435 72.4166 202.836 71.7561 202.415 70.9133C201.998 70.0657 201.79 69.0903 201.79 67.9871C201.79 66.8792 202.003 65.9014 202.429 65.0539C202.855 64.2016 203.456 63.5387 204.233 63.0652C205.014 62.587 205.938 62.3479 207.003 62.3479C207.888 62.3479 208.672 62.5113 209.354 62.838C210.04 63.1599 210.587 63.6169 210.994 64.2087C211.402 64.7958 211.634 65.4824 211.69 66.2684H209.233C209.134 65.7428 208.897 65.3048 208.523 64.9544C208.153 64.5993 207.659 64.4218 207.038 64.4218C206.513 64.4218 206.051 64.5638 205.653 64.8479C205.256 65.1273 204.946 65.5297 204.723 66.0553C204.505 66.5809 204.396 67.2106 204.396 67.9445C204.396 68.6879 204.505 69.3271 204.723 69.8621C204.941 70.3924 205.246 70.802 205.639 71.0908C206.037 71.3749 206.503 71.5169 207.038 71.5169C207.417 71.5169 207.756 71.4459 208.054 71.3039C208.357 71.1571 208.61 70.9464 208.814 70.6718C209.018 70.3972 209.157 70.0633 209.233 69.6704H211.69C211.629 70.4421 211.402 71.1263 211.009 71.7229C210.616 72.3148 210.08 72.7788 209.403 73.115C208.726 73.4464 207.931 73.6121 207.017 73.6121ZM218.631 73.6121C217.537 73.6121 216.593 73.3848 215.797 72.9303C215.007 72.471 214.398 71.8223 213.972 70.9843C213.546 70.1415 213.333 69.1495 213.333 68.0084C213.333 66.8863 213.546 65.9014 213.972 65.0539C214.403 64.2016 215.004 63.5387 215.776 63.0652C216.548 62.587 217.454 62.3479 218.496 62.3479C219.168 62.3479 219.803 62.4568 220.4 62.6746C221.001 62.8877 221.531 63.2191 221.99 63.6689C222.454 64.1187 222.819 64.6917 223.084 65.3877C223.349 66.079 223.482 66.9028 223.482 67.8593V68.6476H214.54V66.9147H221.017C221.013 66.4222 220.906 65.9843 220.698 65.6008C220.489 65.2125 220.198 64.9071 219.824 64.6846C219.455 64.462 219.024 64.3508 218.532 64.3508C218.006 64.3508 217.544 64.4786 217.147 64.7343C216.749 64.9852 216.439 65.3167 216.216 65.7286C215.998 66.1358 215.887 66.5832 215.882 67.0709V68.5837C215.882 69.2182 215.998 69.7627 216.23 70.2172C216.462 70.667 216.787 71.0127 217.203 71.2542C217.62 71.4909 218.108 71.6093 218.667 71.6093C219.041 71.6093 219.379 71.5572 219.682 71.453C219.985 71.3441 220.248 71.1855 220.471 70.9772C220.693 70.7688 220.861 70.5108 220.975 70.203L223.375 70.4729C223.224 71.1074 222.935 71.6614 222.509 72.1348C222.087 72.6036 221.548 72.9682 220.89 73.2286C220.231 73.4843 219.479 73.6121 218.631 73.6121ZM234.279 65.3735L231.935 65.6292C231.869 65.3924 231.753 65.1699 231.587 64.9615C231.426 64.7532 231.209 64.5851 230.934 64.4573C230.659 64.3294 230.323 64.2655 229.925 64.2655C229.39 64.2655 228.941 64.3815 228.576 64.6135C228.216 64.8455 228.039 65.1462 228.043 65.5155C228.039 65.8328 228.155 66.0908 228.391 66.2897C228.633 66.4885 229.031 66.6519 229.585 66.7797L231.445 67.1775C232.478 67.4 233.245 67.7527 233.746 68.2357C234.253 68.7186 234.509 69.3508 234.513 70.132C234.509 70.8186 234.308 71.4246 233.91 71.9502C233.517 72.471 232.97 72.8782 232.269 73.1718C231.568 73.4653 230.763 73.6121 229.854 73.6121C228.519 73.6121 227.444 73.3328 226.63 72.774C225.816 72.2106 225.33 71.427 225.174 70.4232L227.681 70.1817C227.795 70.6741 228.036 71.0458 228.406 71.2968C228.775 71.5477 229.255 71.6732 229.847 71.6732C230.458 71.6732 230.948 71.5477 231.317 71.2968C231.692 71.0458 231.879 70.7357 231.879 70.3664C231.879 70.0539 231.758 69.7958 231.516 69.5922C231.28 69.3886 230.91 69.2324 230.408 69.1235L228.548 68.7329C227.501 68.5151 226.727 68.1481 226.225 67.632C225.723 67.1112 225.475 66.453 225.479 65.6576C225.475 64.9852 225.657 64.4028 226.026 63.9104C226.4 63.4133 226.919 63.0297 227.582 62.7598C228.249 62.4852 229.019 62.3479 229.89 62.3479C231.168 62.3479 232.174 62.6202 232.908 63.1647C233.647 63.7092 234.104 64.4454 234.279 65.3735ZM245.256 65.3735L242.912 65.6292C242.846 65.3924 242.73 65.1699 242.564 64.9615C242.403 64.7532 242.185 64.5851 241.911 64.4573C241.636 64.3294 241.3 64.2655 240.902 64.2655C240.367 64.2655 239.917 64.3815 239.553 64.6135C239.193 64.8455 239.015 65.1462 239.02 65.5155C239.015 65.8328 239.131 66.0908 239.368 66.2897C239.609 66.4885 240.007 66.6519 240.561 66.7797L242.422 67.1775C243.454 67.4 244.221 67.7527 244.723 68.2357C245.23 68.7186 245.485 69.3508 245.49 70.132C245.485 70.8186 245.284 71.4246 244.886 71.9502C244.493 72.471 243.946 72.8782 243.246 73.1718C242.545 73.4653 241.74 73.6121 240.831 73.6121C239.496 73.6121 238.421 73.3328 237.607 72.774C236.792 72.2106 236.307 71.427 236.151 70.4232L238.658 70.1817C238.771 70.6741 239.013 71.0458 239.382 71.2968C239.751 71.5477 240.232 71.6732 240.824 71.6732C241.435 71.6732 241.925 71.5477 242.294 71.2968C242.668 71.0458 242.855 70.7357 242.855 70.3664C242.855 70.0539 242.734 69.7958 242.493 69.5922C242.256 69.3886 241.887 69.2324 241.385 69.1235L239.524 68.7329C238.478 68.5151 237.704 68.1481 237.202 67.632C236.7 67.1112 236.451 66.453 236.456 65.6576C236.451 64.9852 236.634 64.4028 237.003 63.9104C237.377 63.4133 237.895 63.0297 238.558 62.7598C239.226 62.4852 239.995 62.3479 240.866 62.3479C242.145 62.3479 243.151 62.6202 243.885 63.1647C244.624 63.7092 245.08 64.4454 245.256 65.3735ZM252.44 73.6121C251.346 73.6121 250.401 73.3848 249.606 72.9303C248.815 72.471 248.207 71.8223 247.781 70.9843C247.354 70.1415 247.141 69.1495 247.141 68.0084C247.141 66.8863 247.354 65.9014 247.781 65.0539C248.211 64.2016 248.813 63.5387 249.585 63.0652C250.356 62.587 251.263 62.3479 252.305 62.3479C252.977 62.3479 253.612 62.4568 254.208 62.6746C254.809 62.8877 255.34 63.2191 255.799 63.6689C256.263 64.1187 256.628 64.6917 256.893 65.3877C257.158 66.079 257.29 66.9028 257.29 67.8593V68.6476H248.349V66.9147H254.826C254.821 66.4222 254.715 65.9843 254.506 65.6008C254.298 65.2125 254.007 64.9071 253.633 64.6846C253.263 64.462 252.833 64.3508 252.34 64.3508C251.815 64.3508 251.353 64.4786 250.955 64.7343C250.558 64.9852 250.247 65.3167 250.025 65.7286C249.807 66.1358 249.696 66.5832 249.691 67.0709V68.5837C249.691 69.2182 249.807 69.7627 250.039 70.2172C250.271 70.667 250.595 71.0127 251.012 71.2542C251.429 71.4909 251.916 71.6093 252.475 71.6093C252.849 71.6093 253.188 71.5572 253.491 71.453C253.794 71.3441 254.057 71.1855 254.279 70.9772C254.502 70.7688 254.67 70.5108 254.783 70.203L257.184 70.4729C257.032 71.1074 256.744 71.6614 256.317 72.1348C255.896 72.6036 255.356 72.9682 254.698 73.2286C254.04 73.4843 253.287 73.6121 252.44 73.6121ZM268.088 65.3735L265.744 65.6292C265.678 65.3924 265.562 65.1699 265.396 64.9615C265.235 64.7532 265.017 64.5851 264.743 64.4573C264.468 64.3294 264.132 64.2655 263.734 64.2655C263.199 64.2655 262.749 64.3815 262.385 64.6135C262.025 64.8455 261.847 65.1462 261.852 65.5155C261.847 65.8328 261.963 66.0908 262.2 66.2897C262.441 66.4885 262.839 66.6519 263.393 66.7797L265.254 67.1775C266.286 67.4 267.053 67.7527 267.555 68.2357C268.062 68.7186 268.317 69.3508 268.322 70.132C268.317 70.8186 268.116 71.4246 267.718 71.9502C267.325 72.471 266.779 72.8782 266.078 73.1718C265.377 73.4653 264.572 73.6121 263.663 73.6121C262.328 73.6121 261.253 73.3328 260.439 72.774C259.624 72.2106 259.139 71.427 258.983 70.4232L261.49 70.1817C261.603 70.6741 261.845 71.0458 262.214 71.2968C262.583 71.5477 263.064 71.6732 263.656 71.6732C264.267 71.6732 264.757 71.5477 265.126 71.2968C265.5 71.0458 265.687 70.7357 265.687 70.3664C265.687 70.0539 265.566 69.7958 265.325 69.5922C265.088 69.3886 264.719 69.2324 264.217 69.1235L262.356 68.7329C261.31 68.5151 260.536 68.1481 260.034 67.632C259.532 67.1112 259.283 66.453 259.288 65.6576C259.283 64.9852 259.466 64.4028 259.835 63.9104C260.209 63.4133 260.727 63.0297 261.39 62.7598C262.058 62.4852 262.827 62.3479 263.699 62.3479C264.977 62.3479 265.983 62.6202 266.717 63.1647C267.456 63.7092 267.913 64.4454 268.088 65.3735ZM277.654 73.399L274.572 62.49H277.193L279.11 70.1604H279.21L281.17 62.49H283.762L285.723 70.1178H285.829L287.718 62.49H290.346L287.257 73.399H284.579L282.534 66.0269H282.385L280.339 73.399H277.654ZM292.141 73.399V62.49H294.712V73.399H292.141ZM293.434 60.9417C293.027 60.9417 292.676 60.8067 292.383 60.5368C292.089 60.2622 291.942 59.9331 291.942 59.5496C291.942 59.1614 292.089 58.8323 292.383 58.5624C292.676 58.2878 293.027 58.1505 293.434 58.1505C293.846 58.1505 294.196 58.2878 294.485 58.5624C294.779 58.8323 294.925 59.1614 294.925 59.5496C294.925 59.9331 294.779 60.2622 294.485 60.5368C294.196 60.8067 293.846 60.9417 293.434 60.9417ZM302.804 62.49V64.4786H296.532V62.49H302.804ZM298.081 59.8763H300.652V70.1178C300.652 70.4634 300.704 70.7286 300.808 70.9133C300.917 71.0932 301.059 71.2163 301.234 71.2826C301.409 71.3489 301.603 71.382 301.816 71.382C301.977 71.382 302.124 71.3702 302.257 71.3465C302.394 71.3228 302.498 71.3015 302.569 71.2826L303.002 73.2925C302.865 73.3399 302.669 73.3919 302.413 73.4488C302.162 73.5056 301.854 73.5387 301.49 73.5482C300.846 73.5671 300.266 73.4701 299.75 73.257C299.234 73.0392 298.824 72.703 298.521 72.2485C298.223 71.7939 298.076 71.2258 298.081 70.5439V59.8763ZM307.759 67.007V73.399H305.188V58.8536H307.702V64.3436H307.83C308.086 63.7281 308.481 63.2428 309.016 62.8877C309.556 62.5278 310.243 62.3479 311.076 62.3479C311.834 62.3479 312.494 62.5065 313.058 62.8238C313.621 63.141 314.057 63.605 314.364 64.2158C314.677 64.8266 314.833 65.5723 314.833 66.453V73.399H312.262V66.8508C312.262 66.1169 312.073 65.5463 311.694 65.1391C311.32 64.7272 310.794 64.5212 310.117 64.5212C309.663 64.5212 309.255 64.6206 308.896 64.8195C308.54 65.0136 308.261 65.2954 308.058 65.6647C307.859 66.034 307.759 66.4814 307.759 67.007ZM151.219 94.1263C151.219 95.6936 150.925 97.0359 150.338 98.1533C149.756 99.266 148.96 100.118 147.952 100.71C146.948 101.302 145.809 101.598 144.536 101.598C143.262 101.598 142.121 101.302 141.112 100.71C140.109 100.114 139.313 99.2589 138.726 98.1462C138.144 97.0288 137.852 95.6888 137.852 94.1263C137.852 92.5591 138.144 91.2191 138.726 90.1064C139.313 88.989 140.109 88.1344 141.112 87.5425C142.121 86.9507 143.262 86.6547 144.536 86.6547C145.809 86.6547 146.948 86.9507 147.952 87.5425C148.96 88.1344 149.756 88.989 150.338 90.1064C150.925 91.2191 151.219 92.5591 151.219 94.1263ZM148.57 94.1263C148.57 93.0231 148.397 92.0927 148.051 91.3351C147.71 90.5728 147.237 89.9975 146.631 89.6093C146.025 89.2163 145.326 89.0198 144.536 89.0198C143.745 89.0198 143.047 89.2163 142.441 89.6093C141.834 89.9975 141.359 90.5728 141.013 91.3351C140.672 92.0927 140.502 93.0231 140.502 94.1263C140.502 95.2295 140.672 96.1623 141.013 96.9246C141.359 97.6822 141.834 98.2575 142.441 98.6505C143.047 99.0387 143.745 99.2329 144.536 99.2329C145.326 99.2329 146.025 99.0387 146.631 98.6505C147.237 98.2575 147.71 97.6822 148.051 96.9246C148.397 96.1623 148.57 95.2295 148.57 94.1263ZM156.167 95.007V101.399H153.596V90.49H156.054V92.3436H156.182C156.433 91.7329 156.833 91.2475 157.382 90.8877C157.936 90.5278 158.62 90.3479 159.434 90.3479C160.187 90.3479 160.843 90.5089 161.402 90.8309C161.965 91.1528 162.401 91.6192 162.709 92.23C163.021 92.8408 163.175 93.5818 163.17 94.453V101.399H160.599V94.8508C160.599 94.1216 160.41 93.551 160.031 93.1391C159.657 92.7272 159.139 92.5212 158.476 92.5212C158.026 92.5212 157.626 92.6206 157.275 92.8195C156.93 93.0136 156.657 93.2954 156.459 93.6647C156.265 94.034 156.167 94.4814 156.167 95.007ZM170.613 101.612C169.52 101.612 168.575 101.385 167.78 100.93C166.989 100.471 166.381 99.8223 165.954 98.9843C165.528 98.1415 165.315 97.1495 165.315 96.0084C165.315 94.8863 165.528 93.9014 165.954 93.0539C166.385 92.2016 166.987 91.5387 167.758 91.0652C168.53 90.587 169.437 90.3479 170.479 90.3479C171.151 90.3479 171.785 90.4568 172.382 90.6746C172.983 90.8877 173.514 91.2191 173.973 91.6689C174.437 92.1187 174.801 92.6917 175.067 93.3877C175.332 94.079 175.464 94.9028 175.464 95.8593V96.6476H166.523V94.9147H173C172.995 94.4222 172.889 93.9843 172.68 93.6008C172.472 93.2125 172.181 92.9071 171.807 92.6846C171.437 92.462 171.006 92.3508 170.514 92.3508C169.988 92.3508 169.527 92.4786 169.129 92.7343C168.731 92.9852 168.421 93.3167 168.199 93.7286C167.981 94.1358 167.87 94.5832 167.865 95.0709V96.5837C167.865 97.2182 167.981 97.7627 168.213 98.2172C168.445 98.667 168.769 99.0127 169.186 99.2542C169.603 99.4909 170.09 99.6093 170.649 99.6093C171.023 99.6093 171.362 99.5572 171.665 99.453C171.968 99.3441 172.23 99.1855 172.453 98.9772C172.675 98.7688 172.844 98.5108 172.957 98.203L175.358 98.4729C175.206 99.1074 174.917 99.6614 174.491 100.135C174.07 100.604 173.53 100.968 172.872 101.229C172.214 101.484 171.461 101.612 170.613 101.612ZM177.753 101.399V86.8536H183.208C184.325 86.8536 185.262 87.0477 186.02 87.436C186.782 87.8242 187.358 88.3687 187.746 89.0695C188.139 89.7655 188.335 90.5776 188.335 91.5056C188.335 92.4383 188.137 93.248 187.739 93.9346C187.346 94.6164 186.766 95.1443 185.999 95.5184C185.232 95.8877 184.289 96.0723 183.172 96.0723H179.287V93.8848H182.817C183.47 93.8848 184.005 93.7949 184.422 93.615C184.839 93.4303 185.146 93.1628 185.345 92.8124C185.549 92.4573 185.651 92.0217 185.651 91.5056C185.651 90.9895 185.549 90.5491 185.345 90.1846C185.142 89.8152 184.832 89.5359 184.415 89.3465C183.998 89.1524 183.461 89.0553 182.803 89.0553H180.388V101.399H177.753ZM185.267 94.8081L188.868 101.399H185.928L182.391 94.8081H185.267ZM195.32 101.612C194.227 101.612 193.282 101.385 192.487 100.93C191.696 100.471 191.088 99.8223 190.661 98.9843C190.235 98.1415 190.022 97.1495 190.022 96.0084C190.022 94.8863 190.235 93.9014 190.661 93.0539C191.092 92.2016 191.694 91.5387 192.465 91.0652C193.237 90.587 194.144 90.3479 195.186 90.3479C195.858 90.3479 196.492 90.4568 197.089 90.6746C197.69 90.8877 198.221 91.2191 198.68 91.6689C199.144 92.1187 199.508 92.6917 199.774 93.3877C200.039 94.079 200.171 94.9028 200.171 95.8593V96.6476H191.23V94.9147H197.707C197.702 94.4222 197.596 93.9843 197.387 93.6008C197.179 93.2125 196.888 92.9071 196.514 92.6846C196.144 92.462 195.713 92.3508 195.221 92.3508C194.695 92.3508 194.234 92.4786 193.836 92.7343C193.438 92.9852 193.128 93.3167 192.906 93.7286C192.688 94.1358 192.577 94.5832 192.572 95.0709V96.5837C192.572 97.2182 192.688 97.7627 192.92 98.2172C193.152 98.667 193.476 99.0127 193.893 99.2542C194.31 99.4909 194.797 99.6093 195.356 99.6093C195.73 99.6093 196.069 99.5572 196.372 99.453C196.675 99.3441 196.937 99.1855 197.16 98.9772C197.383 98.7688 197.551 98.5108 197.664 98.203L200.065 98.4729C199.913 99.1074 199.624 99.6614 199.198 100.135C198.777 100.604 198.237 100.968 197.579 101.229C196.921 101.484 196.168 101.612 195.32 101.612ZM204.917 95.007V101.399H202.346V90.49H204.804V92.3436H204.932C205.183 91.7329 205.583 91.2475 206.132 90.8877C206.686 90.5278 207.37 90.3479 208.184 90.3479C208.937 90.3479 209.593 90.5089 210.152 90.8309C210.715 91.1528 211.151 91.6192 211.459 92.23C211.771 92.8408 211.925 93.5818 211.92 94.453V101.399H209.349V94.8508C209.349 94.1216 209.16 93.551 208.781 93.1391C208.407 92.7272 207.889 92.5212 207.226 92.5212C206.776 92.5212 206.376 92.6206 206.025 92.8195C205.68 93.0136 205.407 93.2954 205.209 93.6647C205.015 94.034 204.917 94.4814 204.917 95.007Z" fill="#717171"/>
<path d="M110.935 153.399V138.854H116.389C117.507 138.854 118.444 139.048 119.202 139.436C119.964 139.824 120.539 140.369 120.928 141.07C121.321 141.766 121.517 142.578 121.517 143.506C121.517 144.438 121.318 145.248 120.92 145.935C120.527 146.616 119.947 147.144 119.18 147.518C118.413 147.888 117.471 148.072 116.354 148.072H112.469V145.885H115.999C116.652 145.885 117.187 145.795 117.604 145.615C118.02 145.43 118.328 145.163 118.527 144.812C118.731 144.457 118.832 144.022 118.832 143.506C118.832 142.989 118.731 142.549 118.527 142.185C118.323 141.815 118.013 141.536 117.597 141.346C117.18 141.152 116.643 141.055 115.984 141.055H113.57V153.399H110.935ZM118.449 146.808L122.05 153.399H119.109L115.572 146.808H118.449ZM128.502 153.612C127.408 153.612 126.464 153.385 125.668 152.93C124.878 152.471 124.269 151.822 123.843 150.984C123.417 150.141 123.204 149.15 123.204 148.008C123.204 146.886 123.417 145.901 123.843 145.054C124.274 144.202 124.875 143.539 125.647 143.065C126.419 142.587 127.326 142.348 128.367 142.348C129.04 142.348 129.674 142.457 130.271 142.675C130.872 142.888 131.402 143.219 131.862 143.669C132.326 144.119 132.69 144.692 132.955 145.388C133.22 146.079 133.353 146.903 133.353 147.859V148.648H124.411V146.915H130.888C130.884 146.422 130.777 145.984 130.569 145.601C130.361 145.212 130.069 144.907 129.695 144.685C129.326 144.462 128.895 144.351 128.403 144.351C127.877 144.351 127.415 144.479 127.018 144.734C126.62 144.985 126.31 145.317 126.087 145.729C125.87 146.136 125.758 146.583 125.754 147.071V148.584C125.754 149.218 125.87 149.763 126.102 150.217C126.334 150.667 126.658 151.013 127.075 151.254C127.491 151.491 127.979 151.609 128.538 151.609C128.912 151.609 129.25 151.557 129.553 151.453C129.856 151.344 130.119 151.186 130.342 150.977C130.564 150.769 130.732 150.511 130.846 150.203L133.246 150.473C133.095 151.107 132.806 151.661 132.38 152.135C131.959 152.604 131.419 152.968 130.761 153.229C130.103 153.484 129.35 153.612 128.502 153.612ZM138.667 153.619C137.976 153.619 137.353 153.496 136.799 153.25C136.25 152.999 135.815 152.63 135.493 152.142C135.175 151.654 135.017 151.053 135.017 150.338C135.017 149.722 135.13 149.213 135.358 148.811C135.585 148.409 135.895 148.087 136.288 147.845C136.681 147.604 137.124 147.421 137.616 147.298C138.113 147.17 138.627 147.078 139.157 147.021C139.797 146.955 140.315 146.896 140.713 146.844C141.11 146.787 141.399 146.702 141.579 146.588C141.764 146.47 141.856 146.287 141.856 146.041V145.998C141.856 145.463 141.698 145.049 141.38 144.756C141.063 144.462 140.606 144.315 140.01 144.315C139.38 144.315 138.88 144.453 138.511 144.727C138.146 145.002 137.9 145.326 137.772 145.7L135.372 145.359C135.561 144.696 135.874 144.142 136.309 143.697C136.745 143.248 137.278 142.911 137.907 142.689C138.537 142.462 139.233 142.348 139.995 142.348C140.521 142.348 141.044 142.409 141.565 142.533C142.086 142.656 142.562 142.859 142.993 143.143C143.423 143.423 143.769 143.804 144.029 144.287C144.295 144.77 144.427 145.373 144.427 146.098V153.399H141.956V151.9H141.87C141.714 152.203 141.494 152.488 141.21 152.753C140.931 153.013 140.578 153.224 140.152 153.385C139.73 153.541 139.235 153.619 138.667 153.619ZM139.335 151.73C139.851 151.73 140.298 151.628 140.677 151.425C141.056 151.216 141.347 150.942 141.551 150.601C141.759 150.26 141.863 149.888 141.863 149.486V148.2C141.783 148.266 141.645 148.328 141.451 148.385C141.262 148.442 141.049 148.491 140.812 148.534C140.575 148.577 140.341 148.614 140.109 148.648C139.877 148.681 139.676 148.709 139.505 148.733C139.122 148.785 138.779 148.87 138.475 148.989C138.172 149.107 137.933 149.273 137.758 149.486C137.583 149.694 137.495 149.964 137.495 150.295C137.495 150.769 137.668 151.126 138.014 151.368C138.359 151.609 138.8 151.73 139.335 151.73ZM151.061 153.591C150.204 153.591 149.437 153.371 148.76 152.93C148.083 152.49 147.547 151.851 147.154 151.013C146.761 150.175 146.565 149.157 146.565 147.959C146.565 146.747 146.764 145.724 147.162 144.891C147.564 144.052 148.106 143.42 148.788 142.994C149.47 142.563 150.23 142.348 151.068 142.348C151.707 142.348 152.233 142.457 152.645 142.675C153.056 142.888 153.383 143.146 153.625 143.449C153.866 143.747 154.053 144.029 154.186 144.294H154.292V138.854H156.87V153.399H154.342V151.68H154.186C154.053 151.945 153.861 152.227 153.61 152.525C153.359 152.819 153.028 153.07 152.616 153.278C152.204 153.487 151.686 153.591 151.061 153.591ZM151.778 151.481C152.323 151.481 152.787 151.335 153.17 151.041C153.554 150.743 153.845 150.328 154.044 149.798C154.243 149.268 154.342 148.65 154.342 147.945C154.342 147.239 154.243 146.626 154.044 146.105C153.85 145.584 153.561 145.179 153.177 144.891C152.798 144.602 152.332 144.457 151.778 144.457C151.205 144.457 150.727 144.606 150.343 144.905C149.96 145.203 149.671 145.615 149.477 146.141C149.283 146.666 149.186 147.267 149.186 147.945C149.186 148.626 149.283 149.235 149.477 149.77C149.676 150.3 149.967 150.719 150.35 151.027C150.739 151.33 151.215 151.481 151.778 151.481ZM159.61 153.399V142.49H162.067V144.344H162.195C162.423 143.719 162.799 143.231 163.325 142.881C163.85 142.525 164.478 142.348 165.207 142.348C165.945 142.348 166.568 142.528 167.075 142.888C167.586 143.243 167.946 143.728 168.154 144.344H168.268C168.509 143.738 168.916 143.255 169.489 142.895C170.067 142.53 170.751 142.348 171.542 142.348C172.546 142.348 173.365 142.665 173.999 143.3C174.634 143.934 174.951 144.86 174.951 146.077V153.399H172.373V146.474C172.373 145.797 172.193 145.302 171.833 144.99C171.473 144.673 171.033 144.514 170.512 144.514C169.892 144.514 169.406 144.708 169.056 145.096C168.71 145.48 168.538 145.98 168.538 146.595V153.399H166.016V146.368C166.016 145.804 165.846 145.355 165.505 145.018C165.169 144.682 164.728 144.514 164.184 144.514C163.815 144.514 163.478 144.609 163.175 144.798C162.872 144.983 162.631 145.246 162.451 145.587C162.271 145.923 162.181 146.316 162.181 146.766V153.399H159.61ZM182.318 153.612C181.252 153.612 180.329 153.378 179.548 152.909C178.767 152.44 178.161 151.784 177.73 150.942C177.304 150.099 177.091 149.114 177.091 147.987C177.091 146.86 177.304 145.873 177.73 145.025C178.161 144.178 178.767 143.52 179.548 143.051C180.329 142.582 181.252 142.348 182.318 142.348C183.383 142.348 184.306 142.582 185.088 143.051C185.869 143.52 186.473 144.178 186.899 145.025C187.33 145.873 187.545 146.86 187.545 147.987C187.545 149.114 187.33 150.099 186.899 150.942C186.473 151.784 185.869 152.44 185.088 152.909C184.306 153.378 183.383 153.612 182.318 153.612ZM182.332 151.552C182.91 151.552 183.393 151.394 183.781 151.077C184.169 150.755 184.458 150.324 184.647 149.784C184.842 149.244 184.939 148.643 184.939 147.98C184.939 147.312 184.842 146.709 184.647 146.169C184.458 145.624 184.169 145.191 183.781 144.869C183.393 144.547 182.91 144.386 182.332 144.386C181.74 144.386 181.248 144.547 180.855 144.869C180.467 145.191 180.175 145.624 179.981 146.169C179.792 146.709 179.697 147.312 179.697 147.98C179.697 148.643 179.792 149.244 179.981 149.784C180.175 150.324 180.467 150.755 180.855 151.077C181.248 151.394 181.74 151.552 182.332 151.552ZM189.727 153.399V142.49H192.22V144.308H192.334C192.533 143.678 192.874 143.193 193.357 142.852C193.844 142.507 194.401 142.334 195.026 142.334C195.168 142.334 195.326 142.341 195.501 142.355C195.681 142.364 195.83 142.381 195.949 142.405V144.77C195.84 144.732 195.667 144.699 195.43 144.67C195.198 144.637 194.973 144.621 194.756 144.621C194.287 144.621 193.866 144.722 193.491 144.926C193.122 145.125 192.831 145.402 192.618 145.757C192.405 146.112 192.298 146.522 192.298 146.986V153.399H189.727ZM202.037 153.612C200.944 153.612 199.999 153.385 199.203 152.93C198.413 152.471 197.804 151.822 197.378 150.984C196.952 150.141 196.739 149.15 196.739 148.008C196.739 146.886 196.952 145.901 197.378 145.054C197.809 144.202 198.41 143.539 199.182 143.065C199.954 142.587 200.861 142.348 201.902 142.348C202.575 142.348 203.209 142.457 203.806 142.675C204.407 142.888 204.937 143.219 205.397 143.669C205.861 144.119 206.225 144.692 206.49 145.388C206.756 146.079 206.888 146.903 206.888 147.859V148.648H197.946V146.915H204.424C204.419 146.422 204.312 145.984 204.104 145.601C203.896 145.212 203.605 144.907 203.23 144.685C202.861 144.462 202.43 144.351 201.938 144.351C201.412 144.351 200.951 144.479 200.553 144.734C200.155 144.985 199.845 145.317 199.623 145.729C199.405 146.136 199.293 146.583 199.289 147.071V148.584C199.289 149.218 199.405 149.763 199.637 150.217C199.869 150.667 200.193 151.013 200.61 151.254C201.026 151.491 201.514 151.609 202.073 151.609C202.447 151.609 202.785 151.557 203.088 151.453C203.391 151.344 203.654 151.186 203.877 150.977C204.099 150.769 204.267 150.511 204.381 150.203L206.782 150.473C206.63 151.107 206.341 151.661 205.915 152.135C205.494 152.604 204.954 152.968 204.296 153.229C203.638 153.484 202.885 153.612 202.037 153.612Z" fill="#4CAF4F"/>
<path d="M232.5 150.399L235.793 147.106C236.183 146.716 236.183 146.082 235.793 145.692L232.5 142.399M235.5 146.399L221.5 146.399" stroke="#4CAF4F" stroke-width="1.5" stroke-linecap="round"/>
</g>
<defs>
<filter id="filter0_d_22_901" x="0.5" y="0.399048" width="349" height="208" filterUnits="userSpaceOnUse" color-interpolation-filters="sRGB">
<feFlood flood-opacity="0" result="BackgroundImageFix"/>
<feColorMatrix in="SourceAlpha" type="matrix" values="0 0 0 0 0 0 0 0 0 0 0 0 0 0 0 0 0 0 127 0" result="hardAlpha"/>
<feOffset dy="8"/>
<feGaussianBlur stdDeviation="8"/>
<feComposite in2="hardAlpha" operator="out"/>
<feColorMatrix type="matrix" values="0 0 0 0 0.670588 0 0 0 0 0.745098 0 0 0 0 0.819608 0 0 0 0.4 0"/>
<feBlend mode="normal" in2="BackgroundImageFix" result="effect1_dropShadow_22_901"/>
<feBlend mode="normal" in="SourceGraphic" in2="effect1_dropShadow_22_901" result="shape"/>
</filter>
</defs>
</svg>
