<svg width="191" height="60" viewBox="0 0 191 60" fill="none" xmlns="http://www.w3.org/2000/svg">
<g clip-path="url(#clip0_16_1385)">
<path d="M9.24716 28.2784C7.71591 28.2784 6.35369 28.0298 5.16051 27.5327C3.97396 27.0289 3.04261 26.3428 2.36648 25.4744C1.69034 24.6061 1.35227 23.6217 1.35227 22.5213C1.35227 21.6728 1.54451 20.8939 1.92898 20.1847C2.32008 19.4688 2.85038 18.8755 3.51989 18.4048C4.18939 17.9276 4.93845 17.6226 5.76705 17.4901V17.3509C4.67992 17.1321 3.7983 16.6051 3.12216 15.7699C2.44602 14.928 2.10795 13.9503 2.10795 12.8366C2.10795 11.7827 2.41619 10.8447 3.03267 10.0227C3.64915 9.19413 4.49432 8.54451 5.56818 8.07386C6.64867 7.59659 7.875 7.35795 9.24716 7.35795C10.6193 7.35795 11.8423 7.59659 12.9162 8.07386C13.9967 8.55114 14.8452 9.20407 15.4616 10.0327C16.0781 10.8546 16.3897 11.7893 16.3963 12.8366C16.3897 13.9569 16.045 14.9347 15.3622 15.7699C14.6795 16.6051 13.8045 17.1321 12.7372 17.3509V17.4901C13.5526 17.6226 14.2917 17.9276 14.9545 18.4048C15.6241 18.8755 16.1544 19.4688 16.5455 20.1847C16.9432 20.8939 17.1454 21.6728 17.152 22.5213C17.1454 23.6217 16.804 24.6061 16.1278 25.4744C15.4517 26.3428 14.517 27.0289 13.3239 27.5327C12.1373 28.0298 10.7784 28.2784 9.24716 28.2784ZM9.24716 25.1165C9.92992 25.1165 10.5265 24.9938 11.0369 24.7486C11.5473 24.4967 11.9451 24.152 12.2301 23.7145C12.5218 23.2704 12.6676 22.7599 12.6676 22.1832C12.6676 21.5933 12.5185 21.0729 12.2202 20.6222C11.9219 20.1648 11.5175 19.8068 11.0071 19.5483C10.4967 19.2831 9.91004 19.1506 9.24716 19.1506C8.59091 19.1506 8.00426 19.2831 7.48722 19.5483C6.97017 19.8068 6.5625 20.1648 6.2642 20.6222C5.97254 21.0729 5.8267 21.5933 5.8267 22.1832C5.8267 22.7599 5.96922 23.2704 6.25426 23.7145C6.5393 24.152 6.94034 24.4967 7.45739 24.7486C7.97443 24.9938 8.57102 25.1165 9.24716 25.1165ZM9.24716 16.0185C9.81724 16.0185 10.3243 15.9025 10.7685 15.6705C11.2126 15.4384 11.5606 15.117 11.8125 14.706C12.0644 14.295 12.1903 13.821 12.1903 13.2841C12.1903 12.7538 12.0644 12.2898 11.8125 11.892C11.5606 11.4877 11.2159 11.1728 10.7784 10.9474C10.3409 10.7154 9.83049 10.5994 9.24716 10.5994C8.67045 10.5994 8.16004 10.7154 7.71591 10.9474C7.27178 11.1728 6.92377 11.4877 6.67188 11.892C6.42661 12.2898 6.30398 12.7538 6.30398 13.2841C6.30398 13.821 6.42992 14.295 6.68182 14.706C6.93371 15.117 7.28172 15.4384 7.72585 15.6705C8.16998 15.9025 8.67708 16.0185 9.24716 16.0185ZM20.1623 28V24.8977L27.4109 18.1861C28.0273 17.5895 28.5444 17.0526 28.962 16.5753C29.3862 16.098 29.7077 15.6307 29.9265 15.1733C30.1452 14.7093 30.2546 14.2088 30.2546 13.6719C30.2546 13.0753 30.1187 12.5616 29.8469 12.1307C29.5752 11.6932 29.204 11.3584 28.7333 11.1264C28.2627 10.8878 27.729 10.7685 27.1325 10.7685C26.5094 10.7685 25.9658 10.8944 25.5018 11.1463C25.0378 11.3982 24.6798 11.7595 24.4279 12.2301C24.176 12.7008 24.0501 13.2609 24.0501 13.9105H19.9634C19.9634 12.5781 20.265 11.4214 20.8683 10.4403C21.4715 9.45928 22.3166 8.70028 23.4038 8.16335C24.4909 7.62642 25.7437 7.35795 27.1623 7.35795C28.6206 7.35795 29.89 7.61648 30.9705 8.13352C32.0576 8.64394 32.9028 9.35322 33.506 10.2614C34.1093 11.1695 34.4109 12.2102 34.4109 13.3835C34.4109 14.1525 34.2584 14.9115 33.9535 15.6605C33.6552 16.4096 33.1216 17.2415 32.3526 18.1562C31.5837 19.0644 30.4999 20.1548 29.1012 21.4276L26.1282 24.3409V24.4801H34.6793V28H20.1623ZM45.3956 28.2784C43.8643 28.2784 42.5021 28.0298 41.3089 27.5327C40.1224 27.0289 39.1911 26.3428 38.5149 25.4744C37.8388 24.6061 37.5007 23.6217 37.5007 22.5213C37.5007 21.6728 37.6929 20.8939 38.0774 20.1847C38.4685 19.4688 38.9988 18.8755 39.6683 18.4048C40.3378 17.9276 41.0869 17.6226 41.9155 17.4901V17.3509C40.8284 17.1321 39.9467 16.6051 39.2706 15.7699C38.5945 14.928 38.2564 13.9503 38.2564 12.8366C38.2564 11.7827 38.5646 10.8447 39.1811 10.0227C39.7976 9.19413 40.6428 8.54451 41.7166 8.07386C42.7971 7.59659 44.0234 7.35795 45.3956 7.35795C46.7678 7.35795 47.9908 7.59659 49.0646 8.07386C50.1451 8.55114 50.9936 9.20407 51.6101 10.0327C52.2266 10.8546 52.5381 11.7893 52.5447 12.8366C52.5381 13.9569 52.1934 14.9347 51.5107 15.7699C50.8279 16.6051 49.9529 17.1321 48.8857 17.3509V17.4901C49.701 17.6226 50.4401 17.9276 51.103 18.4048C51.7725 18.8755 52.3028 19.4688 52.6939 20.1847C53.0916 20.8939 53.2938 21.6728 53.3004 22.5213C53.2938 23.6217 52.9524 24.6061 52.2763 25.4744C51.6001 26.3428 50.6655 27.0289 49.4723 27.5327C48.2857 28.0298 46.9268 28.2784 45.3956 28.2784ZM45.3956 25.1165C46.0784 25.1165 46.675 24.9938 47.1854 24.7486C47.6958 24.4967 48.0935 24.152 48.3786 23.7145C48.6702 23.2704 48.8161 22.7599 48.8161 22.1832C48.8161 21.5933 48.6669 21.0729 48.3686 20.6222C48.0703 20.1648 47.666 19.8068 47.1555 19.5483C46.6451 19.2831 46.0585 19.1506 45.3956 19.1506C44.7393 19.1506 44.1527 19.2831 43.6357 19.5483C43.1186 19.8068 42.7109 20.1648 42.4126 20.6222C42.121 21.0729 41.9751 21.5933 41.9751 22.1832C41.9751 22.7599 42.1177 23.2704 42.4027 23.7145C42.6877 24.152 43.0888 24.4967 43.6058 24.7486C44.1229 24.9938 44.7195 25.1165 45.3956 25.1165ZM45.3956 16.0185C45.9657 16.0185 46.4728 15.9025 46.9169 15.6705C47.361 15.4384 47.709 15.117 47.9609 14.706C48.2128 14.295 48.3388 13.821 48.3388 13.2841C48.3388 12.7538 48.2128 12.2898 47.9609 11.892C47.709 11.4877 47.3643 11.1728 46.9268 10.9474C46.4893 10.7154 45.9789 10.5994 45.3956 10.5994C44.8189 10.5994 44.3085 10.7154 43.8643 10.9474C43.4202 11.1728 43.0722 11.4877 42.8203 11.892C42.575 12.2898 42.4524 12.7538 42.4524 13.2841C42.4524 13.821 42.5784 14.295 42.8303 14.706C43.0821 15.117 43.4302 15.4384 43.8743 15.6705C44.3184 15.9025 44.8255 16.0185 45.3956 16.0185ZM60.38 25.2159L60.2706 26.3097C60.1844 27.1847 60.0187 28.0563 59.7734 28.9247C59.5348 29.7997 59.2829 30.5919 59.0178 31.3011C58.7592 32.0104 58.5504 32.5672 58.3913 32.9716H55.647C55.7464 32.5805 55.8823 32.0336 56.0547 31.331C56.227 30.6349 56.3894 29.8527 56.5419 28.9844C56.6944 28.116 56.7905 27.2311 56.8303 26.3295L56.88 25.2159H60.38ZM70.9893 28.2784C69.4581 28.2784 68.0959 28.0298 66.9027 27.5327C65.7161 27.0289 64.7848 26.3428 64.1087 25.4744C63.4325 24.6061 63.0945 23.6217 63.0945 22.5213C63.0945 21.6728 63.2867 20.8939 63.6712 20.1847C64.0623 19.4688 64.5926 18.8755 65.2621 18.4048C65.9316 17.9276 66.6806 17.6226 67.5092 17.4901V17.3509C66.4221 17.1321 65.5405 16.6051 64.8643 15.7699C64.1882 14.928 63.8501 13.9503 63.8501 12.8366C63.8501 11.7827 64.1584 10.8447 64.7749 10.0227C65.3913 9.19413 66.2365 8.54451 67.3104 8.07386C68.3909 7.59659 69.6172 7.35795 70.9893 7.35795C72.3615 7.35795 73.5845 7.59659 74.6584 8.07386C75.7389 8.55114 76.5874 9.20407 77.2038 10.0327C77.8203 10.8546 78.1319 11.7893 78.1385 12.8366C78.1319 13.9569 77.7872 14.9347 77.1044 15.7699C76.4216 16.6051 75.5466 17.1321 74.4794 17.3509V17.4901C75.2947 17.6226 76.0339 17.9276 76.6967 18.4048C77.3662 18.8755 77.8965 19.4688 78.2876 20.1847C78.6854 20.8939 78.8875 21.6728 78.8942 22.5213C78.8875 23.6217 78.5462 24.6061 77.87 25.4744C77.1939 26.3428 76.2592 27.0289 75.0661 27.5327C73.8795 28.0298 72.5206 28.2784 70.9893 28.2784ZM70.9893 25.1165C71.6721 25.1165 72.2687 24.9938 72.7791 24.7486C73.2895 24.4967 73.6873 24.152 73.9723 23.7145C74.264 23.2704 74.4098 22.7599 74.4098 22.1832C74.4098 21.5933 74.2607 21.0729 73.9624 20.6222C73.6641 20.1648 73.2597 19.8068 72.7493 19.5483C72.2389 19.2831 71.6522 19.1506 70.9893 19.1506C70.3331 19.1506 69.7464 19.2831 69.2294 19.5483C68.7124 19.8068 68.3047 20.1648 68.0064 20.6222C67.7147 21.0729 67.5689 21.5933 67.5689 22.1832C67.5689 22.7599 67.7114 23.2704 67.9964 23.7145C68.2815 24.152 68.6825 24.4967 69.1996 24.7486C69.7166 24.9938 70.3132 25.1165 70.9893 25.1165ZM70.9893 16.0185C71.5594 16.0185 72.0665 15.9025 72.5107 15.6705C72.9548 15.4384 73.3028 15.117 73.5547 14.706C73.8066 14.295 73.9325 13.821 73.9325 13.2841C73.9325 12.7538 73.8066 12.2898 73.5547 11.892C73.3028 11.4877 72.9581 11.1728 72.5206 10.9474C72.0831 10.7154 71.5727 10.5994 70.9893 10.5994C70.4126 10.5994 69.9022 10.7154 69.4581 10.9474C69.014 11.1728 68.666 11.4877 68.4141 11.892C68.1688 12.2898 68.0462 12.7538 68.0462 13.2841C68.0462 13.821 68.1721 14.295 68.424 14.706C68.6759 15.117 69.0239 15.4384 69.468 15.6705C69.9122 15.9025 70.4193 16.0185 70.9893 16.0185ZM89.7198 28.2784C88.6725 28.2718 87.6616 28.0961 86.6871 27.7514C85.7193 27.4067 84.851 26.8466 84.082 26.071C83.3131 25.2955 82.7032 24.268 82.2525 22.9886C81.8084 21.7093 81.5863 20.1383 81.5863 18.2756C81.5929 16.5653 81.7885 15.0374 82.1729 13.6918C82.564 12.3395 83.1209 11.1927 83.8434 10.2514C84.5726 9.31013 85.4442 8.59422 86.4585 8.10369C87.4727 7.60653 88.6095 7.35795 89.869 7.35795C91.2279 7.35795 92.4277 7.62311 93.4684 8.15341C94.5091 8.67708 95.3443 9.38968 95.9741 10.2912C96.6104 11.1927 96.9949 12.2036 97.1275 13.3239H92.8817C92.716 12.6146 92.368 12.0578 91.8377 11.6534C91.3074 11.2491 90.6512 11.0469 89.869 11.0469C88.5432 11.0469 87.5356 11.6236 86.8462 12.777C86.1635 13.9304 85.8155 15.4981 85.8022 17.4801H85.9414C86.2463 16.8769 86.6573 16.3632 87.1744 15.9389C87.698 15.508 88.2913 15.1799 88.9542 14.9545C89.6237 14.7225 90.3297 14.6065 91.0721 14.6065C92.2785 14.6065 93.3524 14.8916 94.2937 15.4616C95.235 16.0251 95.9774 16.8007 96.521 17.7884C97.0645 18.776 97.3363 19.9062 97.3363 21.179C97.3363 22.5578 97.0148 23.7841 96.3718 24.858C95.7354 25.9318 94.8439 26.7737 93.6971 27.3835C92.5569 27.9867 91.2312 28.285 89.7198 28.2784ZM89.6999 24.8977C90.3628 24.8977 90.9561 24.7386 91.4798 24.4205C92.0034 24.1023 92.4144 23.6714 92.7127 23.1278C93.011 22.5843 93.1602 21.9744 93.1602 21.2983C93.1602 20.6222 93.011 20.0156 92.7127 19.4787C92.421 18.9418 92.0167 18.5142 91.4996 18.196C90.9826 17.8778 90.3926 17.7188 89.7298 17.7188C89.2326 17.7188 88.7719 17.8116 88.3477 17.9972C87.93 18.1828 87.5621 18.4413 87.244 18.7727C86.9324 19.1042 86.6871 19.4886 86.5082 19.9261C86.3292 20.357 86.2397 20.8177 86.2397 21.3082C86.2397 21.9645 86.3888 22.5644 86.6871 23.108C86.9921 23.6515 87.4031 24.0857 87.9201 24.4105C88.4438 24.7353 89.0371 24.8977 89.6999 24.8977ZM101.194 28L109.636 11.2955V11.1562H99.8022V7.63636H114.091V11.206L105.639 28H101.194Z" fill="#4D4D4D"/>
<path d="M1.40909 54V42.3636H8.43182V43.6136H2.81818V47.5455H8.06818V48.7955H2.81818V52.75H8.52273V54H1.40909ZM17.9261 45.2727L14.6989 54H13.3352L10.108 45.2727H11.5625L13.9716 52.2273H14.0625L16.4716 45.2727H17.9261ZM23.0426 54.1818C22.2017 54.1818 21.4763 53.9962 20.8665 53.625C20.2604 53.25 19.7926 52.7273 19.4631 52.0568C19.1373 51.3826 18.9744 50.5985 18.9744 49.7045C18.9744 48.8106 19.1373 48.0227 19.4631 47.3409C19.7926 46.6553 20.2509 46.1212 20.8381 45.7386C21.429 45.3523 22.1184 45.1591 22.9062 45.1591C23.3608 45.1591 23.8097 45.2348 24.2528 45.3864C24.696 45.5379 25.0994 45.7841 25.4631 46.125C25.8267 46.4621 26.1165 46.9091 26.3324 47.4659C26.5483 48.0227 26.6562 48.7083 26.6562 49.5227V50.0909H19.929V48.9318H25.2926C25.2926 48.4394 25.1941 48 24.9972 47.6136C24.804 47.2273 24.5275 46.9223 24.1676 46.6989C23.8116 46.4754 23.3911 46.3636 22.9062 46.3636C22.3722 46.3636 21.91 46.4962 21.5199 46.7614C21.1335 47.0227 20.8362 47.3636 20.6278 47.7841C20.4195 48.2045 20.3153 48.6553 20.3153 49.1364V49.9091C20.3153 50.5682 20.429 51.1269 20.6562 51.5852C20.8873 52.0398 21.2074 52.3864 21.6165 52.625C22.0256 52.8598 22.5009 52.9773 23.0426 52.9773C23.3949 52.9773 23.7131 52.928 23.9972 52.8295C24.285 52.7273 24.5331 52.5758 24.7415 52.375C24.9498 52.1705 25.1108 51.9167 25.2244 51.6136L26.5199 51.9773C26.3835 52.4167 26.1544 52.803 25.8324 53.1364C25.5104 53.4659 25.1127 53.7235 24.6392 53.9091C24.1657 54.0909 23.6335 54.1818 23.0426 54.1818ZM30.0369 48.75V54H28.696V45.2727H29.9915V46.6364H30.1051C30.3097 46.1932 30.6203 45.8371 31.0369 45.5682C31.4536 45.2955 31.9915 45.1591 32.6506 45.1591C33.2415 45.1591 33.7585 45.2803 34.2017 45.5227C34.6449 45.7614 34.9896 46.125 35.2358 46.6136C35.482 47.0985 35.6051 47.7121 35.6051 48.4545V54H34.2642V48.5455C34.2642 47.8598 34.0862 47.3258 33.7301 46.9432C33.3741 46.5568 32.8854 46.3636 32.2642 46.3636C31.8362 46.3636 31.4536 46.4564 31.1165 46.642C30.7831 46.8277 30.5199 47.0985 30.3267 47.4545C30.1335 47.8106 30.0369 48.2424 30.0369 48.75ZM41.8509 45.2727V46.4091H37.3281V45.2727H41.8509ZM38.6463 43.1818H39.9872V51.5C39.9872 51.8788 40.0421 52.1629 40.152 52.3523C40.2656 52.5379 40.4096 52.6629 40.5838 52.7273C40.7618 52.7879 40.9493 52.8182 41.1463 52.8182C41.294 52.8182 41.4152 52.8106 41.5099 52.7955C41.6046 52.7765 41.6804 52.7614 41.7372 52.75L42.0099 53.9545C41.919 53.9886 41.7921 54.0227 41.6293 54.0568C41.4664 54.0947 41.2599 54.1136 41.0099 54.1136C40.6312 54.1136 40.2599 54.0322 39.8963 53.8693C39.5365 53.7064 39.2372 53.4583 38.9986 53.125C38.7637 52.7917 38.6463 52.3712 38.6463 51.8636V43.1818ZM48.5497 54V42.3636H52.6179C53.4285 42.3636 54.0971 42.5038 54.6236 42.7841C55.1501 43.0606 55.5421 43.4337 55.7997 43.9034C56.0573 44.3693 56.1861 44.8864 56.1861 45.4545C56.1861 45.9545 56.0971 46.3674 55.919 46.6932C55.7448 47.0189 55.5137 47.2765 55.2259 47.4659C54.9418 47.6553 54.633 47.7955 54.2997 47.8864V48C54.6558 48.0227 55.0137 48.1477 55.3736 48.375C55.7334 48.6023 56.0346 48.928 56.277 49.3523C56.5194 49.7765 56.6406 50.2955 56.6406 50.9091C56.6406 51.4924 56.508 52.017 56.2429 52.483C55.9777 52.9489 55.5592 53.3182 54.9872 53.5909C54.4152 53.8636 53.6709 54 52.7543 54H48.5497ZM49.9588 52.75H52.7543C53.6747 52.75 54.3281 52.572 54.7145 52.2159C55.1046 51.8561 55.2997 51.4205 55.2997 50.9091C55.2997 50.5152 55.1993 50.1515 54.9986 49.8182C54.7978 49.4811 54.5118 49.2121 54.1406 49.0114C53.7694 48.8068 53.33 48.7045 52.8224 48.7045H49.9588V52.75ZM49.9588 47.4773H52.5724C52.9967 47.4773 53.3793 47.3939 53.7202 47.2273C54.0649 47.0606 54.3376 46.8258 54.5384 46.5227C54.7429 46.2197 54.8452 45.8636 54.8452 45.4545C54.8452 44.9432 54.6671 44.5095 54.3111 44.1534C53.955 43.7936 53.3906 43.6136 52.6179 43.6136H49.9588V47.4773ZM62.3196 54.1818C61.5317 54.1818 60.8404 53.9943 60.2457 53.6193C59.6548 53.2443 59.1927 52.7197 58.8594 52.0455C58.5298 51.3712 58.3651 50.5833 58.3651 49.6818C58.3651 48.7727 58.5298 47.9792 58.8594 47.3011C59.1927 46.6231 59.6548 46.0966 60.2457 45.7216C60.8404 45.3466 61.5317 45.1591 62.3196 45.1591C63.1075 45.1591 63.7969 45.3466 64.3878 45.7216C64.9825 46.0966 65.4446 46.6231 65.7741 47.3011C66.1075 47.9792 66.2741 48.7727 66.2741 49.6818C66.2741 50.5833 66.1075 51.3712 65.7741 52.0455C65.4446 52.7197 64.9825 53.2443 64.3878 53.6193C63.7969 53.9943 63.1075 54.1818 62.3196 54.1818ZM62.3196 52.9773C62.9181 52.9773 63.4105 52.8239 63.7969 52.517C64.1832 52.2102 64.4692 51.8068 64.6548 51.3068C64.8404 50.8068 64.9332 50.2652 64.9332 49.6818C64.9332 49.0985 64.8404 48.5549 64.6548 48.0511C64.4692 47.5473 64.1832 47.1402 63.7969 46.8295C63.4105 46.5189 62.9181 46.3636 62.3196 46.3636C61.7211 46.3636 61.2287 46.5189 60.8423 46.8295C60.456 47.1402 60.17 47.5473 59.9844 48.0511C59.7988 48.5549 59.706 49.0985 59.706 49.6818C59.706 50.2652 59.7988 50.8068 59.9844 51.3068C60.17 51.8068 60.456 52.2102 60.8423 52.517C61.2287 52.8239 61.7211 52.9773 62.3196 52.9773ZM71.8665 54.1818C71.0786 54.1818 70.3873 53.9943 69.7926 53.6193C69.2017 53.2443 68.7396 52.7197 68.4062 52.0455C68.0767 51.3712 67.9119 50.5833 67.9119 49.6818C67.9119 48.7727 68.0767 47.9792 68.4062 47.3011C68.7396 46.6231 69.2017 46.0966 69.7926 45.7216C70.3873 45.3466 71.0786 45.1591 71.8665 45.1591C72.6544 45.1591 73.3438 45.3466 73.9347 45.7216C74.5294 46.0966 74.9915 46.6231 75.321 47.3011C75.6544 47.9792 75.821 48.7727 75.821 49.6818C75.821 50.5833 75.6544 51.3712 75.321 52.0455C74.9915 52.7197 74.5294 53.2443 73.9347 53.6193C73.3438 53.9943 72.6544 54.1818 71.8665 54.1818ZM71.8665 52.9773C72.465 52.9773 72.9574 52.8239 73.3438 52.517C73.7301 52.2102 74.0161 51.8068 74.2017 51.3068C74.3873 50.8068 74.4801 50.2652 74.4801 49.6818C74.4801 49.0985 74.3873 48.5549 74.2017 48.0511C74.0161 47.5473 73.7301 47.1402 73.3438 46.8295C72.9574 46.5189 72.465 46.3636 71.8665 46.3636C71.268 46.3636 70.7756 46.5189 70.3892 46.8295C70.0028 47.1402 69.7169 47.5473 69.5312 48.0511C69.3456 48.5549 69.2528 49.0985 69.2528 49.6818C69.2528 50.2652 69.3456 50.8068 69.5312 51.3068C69.7169 51.8068 70.0028 52.2102 70.3892 52.517C70.7756 52.8239 71.268 52.9773 71.8665 52.9773ZM79.1179 50.8182L79.0952 49.1591H79.3679L83.1861 45.2727H84.8452L80.777 49.3864H80.6634L79.1179 50.8182ZM77.8679 54V42.3636H79.2088V54H77.8679ZM83.4134 54L80.0043 49.6818L80.9588 48.75L85.1179 54H83.4134ZM86.571 54V45.2727H87.9119V54H86.571ZM87.2528 43.8182C86.9915 43.8182 86.7661 43.7292 86.5767 43.5511C86.3911 43.3731 86.2983 43.1591 86.2983 42.9091C86.2983 42.6591 86.3911 42.4451 86.5767 42.267C86.7661 42.089 86.9915 42 87.2528 42C87.5142 42 87.7377 42.089 87.9233 42.267C88.1127 42.4451 88.2074 42.6591 88.2074 42.9091C88.2074 43.1591 88.1127 43.3731 87.9233 43.5511C87.7377 43.7292 87.5142 43.8182 87.2528 43.8182ZM91.7088 48.75V54H90.3679V45.2727H91.6634V46.6364H91.777C91.9815 46.1932 92.2921 45.8371 92.7088 45.5682C93.1255 45.2955 93.6634 45.1591 94.3224 45.1591C94.9134 45.1591 95.4304 45.2803 95.8736 45.5227C96.3168 45.7614 96.6615 46.125 96.9077 46.6136C97.1539 47.0985 97.277 47.7121 97.277 48.4545V54H95.9361V48.5455C95.9361 47.8598 95.758 47.3258 95.402 46.9432C95.0459 46.5568 94.5573 46.3636 93.9361 46.3636C93.508 46.3636 93.1255 46.4564 92.7884 46.642C92.455 46.8277 92.1918 47.0985 91.9986 47.4545C91.8054 47.8106 91.7088 48.2424 91.7088 48.75ZM103.25 57.4545C102.602 57.4545 102.045 57.3712 101.58 57.2045C101.114 57.0417 100.725 56.8258 100.415 56.5568C100.108 56.2917 99.8636 56.0076 99.6818 55.7045L100.75 54.9545C100.871 55.1136 101.025 55.2955 101.21 55.5C101.396 55.7083 101.65 55.8883 101.972 56.0398C102.297 56.1951 102.723 56.2727 103.25 56.2727C103.955 56.2727 104.536 56.1023 104.994 55.7614C105.453 55.4205 105.682 54.8864 105.682 54.1591V52.3864H105.568C105.47 52.5455 105.33 52.7424 105.148 52.9773C104.97 53.2083 104.712 53.4148 104.375 53.5966C104.042 53.7746 103.591 53.8636 103.023 53.8636C102.318 53.8636 101.686 53.697 101.125 53.3636C100.568 53.0303 100.127 52.5455 99.8011 51.9091C99.4792 51.2727 99.3182 50.5 99.3182 49.5909C99.3182 48.697 99.4754 47.9186 99.7898 47.2557C100.104 46.589 100.542 46.0739 101.102 45.7102C101.663 45.3428 102.311 45.1591 103.045 45.1591C103.614 45.1591 104.064 45.2538 104.398 45.4432C104.735 45.6288 104.992 45.8409 105.17 46.0795C105.352 46.3144 105.492 46.5076 105.591 46.6591H105.727V45.2727H107.023V54.25C107.023 55 106.852 55.6098 106.511 56.0795C106.174 56.553 105.72 56.8996 105.148 57.1193C104.58 57.3428 103.947 57.4545 103.25 57.4545ZM103.205 52.6591C103.742 52.6591 104.197 52.536 104.568 52.2898C104.939 52.0436 105.222 51.6894 105.415 51.2273C105.608 50.7652 105.705 50.2121 105.705 49.5682C105.705 48.9394 105.61 48.3845 105.42 47.9034C105.231 47.4223 104.951 47.0455 104.58 46.7727C104.208 46.5 103.75 46.3636 103.205 46.3636C102.636 46.3636 102.163 46.5076 101.784 46.7955C101.409 47.0833 101.127 47.4697 100.938 47.9545C100.752 48.4394 100.659 48.9773 100.659 49.5682C100.659 50.1742 100.754 50.7102 100.943 51.1761C101.136 51.6383 101.42 52.0019 101.795 52.267C102.174 52.5284 102.644 52.6591 103.205 52.6591ZM115.659 47.2273L114.455 47.5682C114.379 47.3674 114.267 47.1723 114.119 46.983C113.975 46.7898 113.778 46.6307 113.528 46.5057C113.278 46.3807 112.958 46.3182 112.568 46.3182C112.034 46.3182 111.589 46.4413 111.233 46.6875C110.881 46.9299 110.705 47.2386 110.705 47.6136C110.705 47.947 110.826 48.2102 111.068 48.4034C111.311 48.5966 111.689 48.7576 112.205 48.8864L113.5 49.2045C114.28 49.3939 114.862 49.6837 115.244 50.0739C115.627 50.4602 115.818 50.9583 115.818 51.5682C115.818 52.0682 115.674 52.5152 115.386 52.9091C115.102 53.303 114.705 53.6136 114.193 53.8409C113.682 54.0682 113.087 54.1818 112.409 54.1818C111.519 54.1818 110.782 53.9886 110.199 53.6023C109.616 53.2159 109.246 52.6515 109.091 51.9091L110.364 51.5909C110.485 52.0606 110.714 52.4129 111.051 52.6477C111.392 52.8826 111.837 53 112.386 53C113.011 53 113.508 52.8674 113.875 52.6023C114.246 52.3333 114.432 52.0114 114.432 51.6364C114.432 51.3333 114.326 51.0795 114.114 50.875C113.902 50.6667 113.576 50.5114 113.136 50.4091L111.682 50.0682C110.883 49.8788 110.295 49.5852 109.92 49.1875C109.549 48.786 109.364 48.2841 109.364 47.6818C109.364 47.1894 109.502 46.7538 109.778 46.375C110.059 45.9962 110.439 45.6989 110.92 45.483C111.405 45.267 111.955 45.1591 112.568 45.1591C113.432 45.1591 114.11 45.3485 114.602 45.7273C115.098 46.1061 115.451 46.6061 115.659 47.2273Z" fill="#717171"/>
</g>
<defs>
<clipPath id="clip0_16_1385">
<rect width="191" height="60" fill="white"/>
</clipPath>
</defs>
</svg>
