<svg width="37" height="31" viewBox="0 0 37 31" fill="none" xmlns="http://www.w3.org/2000/svg">
<path d="M0.500475 29.6471C0.500475 29.9592 0.753724 30.2128 1.06615 30.2128H35.5139C35.8259 30.2128 36.0796 29.9596 36.0796 29.6471C36.0796 29.3351 35.8263 29.0815 35.5139 29.0815H34.4682V12.8402C34.4682 12.5281 34.215 12.2745 33.9025 12.2745L24.6668 12.2749V0.565762C24.6668 0.367742 24.5635 0.184709 24.3946 0.0821389C24.2262 -0.0208145 24.0156 -0.0271258 23.8404 0.0639933L13.3401 5.53098C13.1527 5.62841 13.0359 5.8217 13.0359 6.03275V16.2604H2.87388C2.56186 16.2604 2.3082 16.5137 2.3082 16.8261V29.0816H1.06489C0.752866 29.0812 0.5 29.3344 0.5 29.6468L0.500475 29.6471ZM24.667 20.8422H33.3374V29.0819L24.667 29.0815V20.8422ZM24.667 16.9113H33.3374V19.7113L24.667 19.7109V16.9113ZM24.667 13.4056H33.3374V15.7808H24.667V13.4056ZM14.1667 6.37622L23.5353 1.49818V29.081H14.1667V6.37622ZM6.23588 24.5635C6.23588 23.3895 7.16603 22.4341 8.30959 22.4341C9.45314 22.4341 10.3837 23.3891 10.3837 24.5635V29.0817H6.23588V24.5635ZM3.43952 17.3916H13.0358V29.0815H11.515V24.5633C11.515 22.7657 10.0776 21.303 8.30959 21.303C6.54236 21.303 5.10495 22.7653 5.10495 24.5633V29.0815H3.43952V17.3916Z" fill="#103E13"/>
</svg>
