<svg width="19" height="17" viewBox="0 0 19 17" fill="none" xmlns="http://www.w3.org/2000/svg">
<rect x="0.863281" y="0.893921" width="16.0256" height="16.0256" rx="2.67093" fill="#F5F7FA"/>
<g clip-path="url(#clip0_212_1616)">
<path d="M4.98424 5.51691C4.30625 5.51691 3.65603 5.78624 3.17662 6.26565L1.61202 7.83025C1.13261 8.30966 0.863281 8.95987 0.863281 9.63787C0.863281 11.0497 2.00781 12.1942 3.41965 12.1942C4.09765 12.1942 4.74786 11.9249 5.22727 11.4455L6.30951 10.3632C6.30951 10.3632 6.30954 10.3633 6.30951 10.3632L9.46279 7.20997C9.69176 6.981 10.0023 6.85237 10.3261 6.85237C10.8682 6.85237 11.3278 7.2057 11.4872 7.69462L12.4823 6.69945C12.0283 5.9884 11.2323 5.51691 10.3261 5.51691C9.64811 5.51691 8.9979 5.78624 8.51849 6.26565L4.28297 10.5012C4.054 10.7301 3.74346 10.8588 3.41965 10.8588C2.74536 10.8588 2.19875 10.3122 2.19875 9.63787C2.19875 9.31406 2.32738 9.00352 2.55634 8.77455L4.12093 7.20997C4.34989 6.981 4.66043 6.85237 4.98424 6.85237C5.52637 6.85237 5.98595 7.20571 6.1453 7.69465L7.14048 6.69948C6.68649 5.98842 5.89044 5.51691 4.98424 5.51691Z" fill="#394149"/>
<path d="M9.62491 10.5012C9.39595 10.7301 9.08541 10.8588 8.7616 10.8588C8.21956 10.8588 7.76 10.5055 7.60061 10.0167L6.60547 11.0118C7.05948 11.7228 7.85549 12.1942 8.7616 12.1942C9.43959 12.1942 10.0898 11.9249 10.5692 11.4455L14.8047 7.20997C15.0337 6.981 15.3442 6.85237 15.6681 6.85237C16.3424 6.85237 16.889 7.39899 16.889 8.07328C16.889 8.39708 16.7603 8.70762 16.5314 8.93659L14.9668 10.5012C14.7378 10.7301 14.4273 10.8588 14.1035 10.8588C13.5614 10.8588 13.1018 10.5055 12.9424 10.0166L11.9473 11.0117C12.4013 11.7228 13.1973 12.1942 14.1035 12.1942C14.7815 12.1942 15.4317 11.9249 15.9111 11.4455L17.4757 9.8809C17.9551 9.40149 18.2244 8.75127 18.2244 8.07328C18.2244 6.66143 17.0799 5.51691 15.6681 5.51691C14.9901 5.51691 14.3398 5.78624 13.8604 6.26565L9.62491 10.5012Z" fill="#394149"/>
</g>
<defs>
<clipPath id="clip0_212_1616">
<rect width="17.3611" height="6.67733" fill="white" transform="translate(0.863281 5.51691)"/>
</clipPath>
</defs>
</svg>
