<svg width="17" height="17" viewBox="0 0 17 17" fill="none" xmlns="http://www.w3.org/2000/svg">
<rect x="0.435059" y="0.893921" width="16.0256" height="16.0256" rx="2.67093" fill="#F5F7FA"/>
<g clip-path="url(#clip0_212_1596)">
<path d="M15.124 5.37156C15.124 5.38285 15.124 5.39696 15.121 5.40543C15.1063 5.5155 15.1063 5.62557 15.1151 5.73846C15.121 5.76669 15.1269 5.79491 15.1504 5.81749C15.1887 5.85982 15.2475 5.85136 15.271 5.80055C15.2828 5.77515 15.2828 5.74975 15.2769 5.72435C15.2475 5.6171 15.2416 5.50421 15.2387 5.39414C15.2387 5.38849 15.2387 5.38003 15.2387 5.37156C15.271 5.36874 15.3004 5.36591 15.3269 5.36591C15.3475 5.36309 15.3651 5.36027 15.3798 5.3518C15.4239 5.32922 15.4239 5.28125 15.3769 5.25867C15.3592 5.2502 15.3357 5.24738 15.3151 5.24738C15.2416 5.2502 15.1681 5.2502 15.0946 5.2502C15.0681 5.2502 15.0416 5.25302 15.0152 5.25584C15.0005 5.25867 14.9828 5.25867 14.9711 5.26713C14.9505 5.2756 14.9387 5.28971 14.9387 5.30947C14.9417 5.32922 14.9505 5.34051 14.9711 5.34898C14.9828 5.35745 14.9975 5.36027 15.0122 5.36027C15.0475 5.36309 15.0858 5.36874 15.124 5.37156ZM15.9326 5.50139C15.9326 5.50421 15.9356 5.50703 15.9356 5.50703C15.9473 5.58323 15.9591 5.65661 15.9679 5.72999C15.9709 5.75539 15.9738 5.77797 15.9915 5.79773C16.0297 5.84571 16.0885 5.84006 16.115 5.78926C16.1267 5.76386 16.1297 5.73846 16.1238 5.71024C16.1061 5.62557 16.0973 5.5409 16.0797 5.45905C16.0679 5.40825 16.0532 5.36027 16.0385 5.31511C16.0297 5.28689 16.0091 5.26713 15.9738 5.26431C15.9385 5.25867 15.9121 5.2756 15.8974 5.301C15.8797 5.32358 15.865 5.34616 15.8532 5.37156C15.8327 5.41672 15.815 5.46187 15.7915 5.50421C15.7885 5.5155 15.7856 5.52397 15.7797 5.53243C15.7768 5.52679 15.7739 5.52397 15.7739 5.52397C15.7356 5.45341 15.7003 5.38285 15.6621 5.31511C15.6562 5.30947 15.6533 5.30382 15.6503 5.29818C15.6327 5.27278 15.6121 5.25867 15.5798 5.25867C15.5504 5.26149 15.5268 5.27842 15.5121 5.30382C15.5062 5.31511 15.5062 5.32358 15.5033 5.33487C15.4915 5.42518 15.4768 5.5155 15.4651 5.60581C15.4592 5.65661 15.4563 5.70742 15.4563 5.75822C15.4533 5.76951 15.4563 5.78362 15.4621 5.79491C15.468 5.81749 15.4857 5.8316 15.5092 5.83442C15.5386 5.83724 15.5592 5.82878 15.568 5.8062C15.5768 5.78926 15.5798 5.77515 15.5827 5.76104C15.5945 5.71024 15.6033 5.66226 15.6121 5.61428C15.618 5.58606 15.6209 5.56348 15.6298 5.53243C15.6356 5.54372 15.6415 5.55219 15.6474 5.56065C15.6739 5.59452 15.7003 5.62839 15.7327 5.65661C15.765 5.67919 15.7915 5.67637 15.8179 5.65097C15.8238 5.64532 15.8268 5.6425 15.8327 5.63686C15.8591 5.59734 15.8915 5.55783 15.9179 5.51832C15.9238 5.51267 15.9268 5.50703 15.9326 5.50139Z" fill="#3A3B7B"/>
<path d="M9.15711 5.42697C9.13667 5.48061 9.13277 5.51925 9.1422 5.55137C9.15263 5.59504 9.17968 5.60934 9.2164 5.59823C9.5618 5.51626 10.3192 5.74894 10.5996 5.81379C10.6657 5.82741 10.7195 5.74547 10.6744 5.67201C10.6086 5.60087 9.85149 5.29628 9.56263 5.27968C9.4494 5.27353 9.24698 5.24567 9.15711 5.42697Z" fill="#3A3B7B"/>
<path d="M12.1172 4.441C12.154 4.46139 12.1746 4.48084 12.1848 4.50257C12.1999 4.53108 12.1919 4.55081 12.1665 4.56087C11.9382 4.66782 11.6344 5.12825 11.5117 5.28705C11.482 5.32358 11.4134 5.30235 11.4031 5.24228C11.4052 5.17436 11.6745 4.67469 11.8248 4.53859C11.8839 4.48546 11.9815 4.3812 12.1172 4.441Z" fill="#3A3B7B"/>
<path d="M10.2989 4.21436C10.3432 4.18237 10.3891 4.17116 10.4126 4.19195C10.7571 4.4747 10.9398 4.92246 11.0529 5.33238C11.0571 5.34193 11.0574 5.35563 11.054 5.36993C11.0526 5.38215 11.0433 5.39505 11.0285 5.40504C11.0127 5.41607 10.9991 5.41943 10.9927 5.40992C10.8418 5.21283 9.97947 4.44599 10.2989 4.21436Z" fill="#3A3B7B"/>
<path d="M3.00424 9.11655C3.0868 9.05755 3.17656 9.00844 3.27154 8.97033C3.37091 8.94306 3.47683 8.94757 3.57329 8.98322C3.66973 9.01887 3.75148 9.08367 3.80614 9.16786C3.85503 9.25183 3.87415 9.34879 3.86065 9.44411C3.84716 9.53942 3.80176 9.62794 3.73129 9.69635C3.67666 9.75181 3.61463 9.80011 3.54686 9.84002C3.24482 10.0273 2.94009 10.2043 2.63537 10.3916C2.57302 10.4385 2.50687 10.4805 2.43757 10.5173C2.33215 10.5678 2.21167 10.5813 2.09697 10.5555C1.98226 10.5298 1.88055 10.4663 1.80941 10.3762C1.75623 10.3124 1.71135 10.2426 1.67576 10.1684C1.38708 9.58604 1.0877 9.00624 0.809712 8.4136C0.681408 8.15707 0.577161 7.86203 0.475588 7.57727C0.431642 7.49453 0.423061 7.39861 0.45167 7.30988C0.48028 7.22116 0.543824 7.14665 0.628784 7.1022C0.713746 7.05775 0.81342 7.04688 0.906611 7.07188C0.999802 7.09688 1.07916 7.15578 1.1278 7.23606C1.27731 7.42675 1.40965 7.62931 1.5234 7.84152C1.81208 8.35461 2.0874 8.8677 2.36539 9.3654C2.38158 9.39291 2.39943 9.41945 2.41885 9.44493C2.62809 9.36049 2.82489 9.2501 3.00424 9.11655Z" fill="#3A3B7B"/>
<path d="M5.98902 8.93756C5.3288 9.67897 4.22217 9.49168 3.66619 8.53733C3.27058 7.86005 3.20109 6.7415 4.0618 6.03599C4.2456 5.88829 4.46537 5.78767 4.70064 5.74353C4.98909 5.70384 5.28325 5.75268 5.54104 5.88308C5.79883 6.01347 6.00708 6.21874 6.13605 6.46956C6.60649 7.29052 6.53966 8.33722 5.98902 8.93756ZM5.72172 7.20842C5.65158 7.00668 5.51087 6.83445 5.32344 6.72097C5.21739 6.64842 5.08851 6.61314 4.95854 6.62109C4.82854 6.62903 4.70539 6.67971 4.60976 6.76458C4.22753 7.09041 4.14732 7.86262 4.42531 8.32184C4.46075 8.39672 4.51278 8.46327 4.57781 8.51683C4.64284 8.57039 4.71929 8.60966 4.80178 8.63189C4.88427 8.65414 4.97082 8.6588 5.0554 8.64558C5.13998 8.63233 5.2205 8.60152 5.29138 8.55529C5.49858 8.4011 5.65059 8.1888 5.72627 7.94789C5.80197 7.70696 5.79758 7.44939 5.71372 7.21099L5.72172 7.20842Z" fill="#3A3B7B"/>
<path d="M8.68345 7.53167C8.61586 7.54563 8.54603 7.54646 8.47808 7.53412C8.41016 7.52177 8.34547 7.49653 8.28786 7.45985C8.23744 7.43217 8.19404 7.39412 8.16078 7.34842C8.12753 7.30271 8.10525 7.25052 8.09554 7.19555C8.08581 7.1406 8.08893 7.08427 8.1046 7.0306C8.12029 6.97693 8.1482 6.92727 8.18629 6.88517C8.25264 6.80059 8.34683 6.74003 8.45358 6.71329C8.73229 6.63566 9.0192 6.58833 9.30894 6.5722C9.3726 6.56509 9.4371 6.57026 9.49863 6.5874C9.56019 6.60457 9.61753 6.63333 9.66734 6.67206C9.71713 6.71076 9.75837 6.75864 9.78864 6.81286C9.81888 6.86708 9.83755 6.92656 9.84353 6.9878C9.92706 7.28861 9.93621 7.604 9.87026 7.90882C9.6297 8.89395 8.80107 9.23258 7.87086 8.91703C7.60975 8.83267 7.38081 8.67546 7.21331 8.46552C6.9899 8.21268 6.83151 7.91304 6.75087 7.59069C6.68555 7.30364 6.6927 7.00578 6.77177 6.72194C6.85081 6.4381 6.99945 6.17652 7.20528 5.95904C7.40062 5.72267 7.65416 5.53665 7.94304 5.41773C8.12558 5.32116 8.33919 5.2937 8.54179 5.34076C8.58775 5.35297 8.62947 5.37676 8.66262 5.40966C8.69577 5.44256 8.71915 5.48337 8.73034 5.52787C8.74153 5.57236 8.74009 5.61892 8.72622 5.66271C8.71232 5.70649 8.68649 5.74592 8.65139 5.77689C8.58463 5.83489 8.51211 5.88645 8.43487 5.93082C8.19723 6.07607 7.99043 6.26323 7.82542 6.4824C7.71726 6.62422 7.64277 6.78707 7.60722 6.95948C7.57164 7.13189 7.57588 7.30969 7.61961 7.48038C7.68023 7.7131 7.81475 7.922 8.00451 8.07812C8.59257 8.59123 9.35705 8.09608 9.2234 7.39571C9.02828 7.44189 8.8572 7.49064 8.68345 7.53167Z" fill="#3A3B7B"/>
<path d="M12.2759 8.9786C11.4072 9.49171 10.4182 8.9786 10.2017 7.90112C10.044 7.13147 10.3433 6.05397 11.3912 5.64349C11.6141 5.55804 11.8559 5.52803 12.0941 5.55626C12.3804 5.60656 12.643 5.7418 12.8449 5.94294C13.0467 6.14408 13.1778 6.40096 13.2195 6.67738C13.3959 7.59325 12.9949 8.5707 12.2759 8.9786ZM12.578 7.25204C12.5777 7.03892 12.4991 6.83269 12.3561 6.66968C12.2796 6.56885 12.1691 6.49661 12.0433 6.46526C11.9176 6.43392 11.7844 6.44541 11.6665 6.4978C11.196 6.69276 10.8646 7.40084 10.9849 7.92165C10.994 8.00337 11.0217 8.08219 11.0659 8.15259C11.1102 8.22298 11.1699 8.28325 11.2409 8.3292C11.3119 8.37512 11.3926 8.40562 11.4771 8.41854C11.5617 8.43143 11.6483 8.42646 11.7306 8.40395C11.9793 8.32057 12.1946 8.16476 12.3465 7.95824C12.4984 7.75172 12.5793 7.50483 12.578 7.25204Z" fill="#3A3B7B"/>
<path d="M14.0981 9.19412C14.085 9.28802 14.0336 9.37307 13.9551 9.43057C13.8766 9.48804 13.7776 9.51328 13.6798 9.50069C13.5819 9.48811 13.4933 9.43873 13.4334 9.36343C13.3735 9.28815 13.3472 9.19309 13.3604 9.09919C13.3735 9.0053 13.4249 8.92025 13.5034 8.86275C13.5818 8.80525 13.6808 8.78004 13.7787 8.79262C13.8765 8.80521 13.9651 8.85457 14.025 8.92987C14.0849 9.00517 14.1112 9.10023 14.0981 9.19412ZM13.8655 5.73328C13.9164 5.65876 13.991 5.60202 14.0782 5.5715C14.1653 5.54099 14.2605 5.53834 14.3494 5.56396C14.4397 5.58566 14.5195 5.6365 14.5755 5.70795C14.6315 5.77941 14.6601 5.86715 14.6568 5.95648C14.645 6.09977 14.6226 6.24208 14.5899 6.38234C14.5017 6.85697 14.4162 7.33157 14.3226 7.80106C14.2799 7.98835 14.2237 8.16793 14.1622 8.35776C14.1409 8.41711 14.1051 8.47074 14.058 8.51426C14.0287 8.54701 13.9913 8.57211 13.9492 8.58727C13.9071 8.60246 13.8617 8.60719 13.8172 8.60105C13.7727 8.59491 13.7305 8.5781 13.6946 8.55218C13.6587 8.52623 13.6301 8.49202 13.6116 8.45269C13.5798 8.38214 13.5626 8.30634 13.5608 8.2295C13.5608 7.91137 13.5608 7.5907 13.5822 7.27C13.6186 6.81234 13.69 6.35787 13.796 5.9103C13.8085 5.85034 13.8321 5.793 13.8655 5.74098V5.73328Z" fill="#3A3B7B"/>
<path fill-rule="evenodd" clip-rule="evenodd" d="M1.87489 11.2557C1.84333 11.3233 1.83468 11.3987 1.8501 11.4713C1.86036 11.5669 1.8829 11.661 1.91719 11.7513C1.96001 11.862 2.00793 11.9714 2.06701 12.1062C2.0806 12.1373 2.0948 12.1696 2.10965 12.2037C2.18933 12.3864 2.2893 12.6199 2.42264 12.9578C2.46039 13.0538 2.4939 13.1505 2.52765 13.248C2.54129 13.2873 2.55497 13.3268 2.56898 13.3664C2.61918 13.5072 2.70557 13.6336 2.82007 13.7338C2.86869 13.7889 2.93318 13.829 3.0055 13.8491C3.07923 13.8696 3.15764 13.8683 3.23059 13.8454C3.30353 13.8225 3.3676 13.779 3.41447 13.7207C3.46043 13.6635 3.48775 13.5946 3.49307 13.5226C3.52288 13.3823 3.5127 13.2369 3.46357 13.1017C3.38558 12.8772 3.29674 12.6523 3.1943 12.4324L3.19382 12.4314C3.0253 12.0874 2.85399 11.7457 2.67457 11.4039L2.67323 11.4015C2.62071 11.3124 2.55245 11.2328 2.47153 11.1662C2.41899 11.1068 2.34652 11.0667 2.2665 11.0529C2.18476 11.0387 2.10047 11.053 2.02866 11.093C1.96072 11.1302 1.90687 11.1872 1.87489 11.2557Z" fill="#3A3B7B"/>
<path fill-rule="evenodd" clip-rule="evenodd" d="M4.4489 10.4085C4.18465 10.3428 3.90868 10.3332 3.64022 10.3804C3.43228 10.4001 3.22777 10.4461 3.08576 10.5373C3.01353 10.5837 2.95514 10.6433 2.92266 10.7191C2.89 10.7952 2.88583 10.8823 2.91259 10.9794C2.96146 11.1571 3.02492 11.3299 3.08816 11.5022L3.0984 11.5301L3.09865 11.5307C3.28906 12.0312 3.48128 12.53 3.67525 13.0271C3.69787 13.1054 3.72986 13.181 3.77057 13.2522L3.77133 13.2536C3.82511 13.3421 3.89409 13.4213 3.97535 13.4878C4.01599 13.5244 4.06625 13.5497 4.12074 13.561C4.17578 13.5724 4.23301 13.5691 4.2862 13.5514C4.33942 13.5337 4.38654 13.5024 4.42245 13.4608C4.45778 13.4198 4.48091 13.3705 4.48941 13.318C4.52447 13.1753 4.51324 13.0258 4.4572 12.8895C4.43971 12.8436 4.42599 12.7967 4.41153 12.7473C4.40671 12.7309 4.40183 12.7141 4.39667 12.6971C4.84068 12.5305 5.31311 12.3065 5.47924 11.7854C5.5443 11.6054 5.54972 11.4104 5.49475 11.2272C5.43974 11.0439 5.32688 10.8813 5.17171 10.762C4.96052 10.595 4.71382 10.4743 4.4489 10.4085ZM3.71643 11.0476C3.72518 11.0452 3.73399 11.0429 3.74282 11.0409C4.03188 10.9972 4.32763 11.0554 4.5756 11.2045C4.68488 11.2774 4.72965 11.3585 4.73734 11.4364C4.74527 11.5167 4.71485 11.6037 4.65375 11.6874C4.53828 11.8454 4.32756 11.9718 4.13722 11.9954C3.99846 11.6887 3.85755 11.3696 3.71643 11.0476Z" fill="#3A3B7B"/>
<path d="M6.21067 9.84711C6.52536 9.70762 6.91516 9.68353 7.22019 9.7816C7.29701 9.80308 7.36366 9.84953 7.40874 9.91302C7.45352 9.9761 7.47419 10.0521 7.46729 10.1281C7.46684 10.1775 7.45422 10.226 7.43048 10.2698C7.40632 10.3144 7.37132 10.3527 7.32846 10.3816C7.2856 10.4104 7.23613 10.429 7.18423 10.4356C7.13231 10.4423 7.07952 10.4368 7.03027 10.4197L7.02653 10.4184L7.02301 10.4166C6.99781 10.404 6.97105 10.3944 6.94336 10.3882L6.94162 10.3879C6.72704 10.3332 6.52464 10.4238 6.45071 10.5352C6.41545 10.5883 6.41108 10.6419 6.44044 10.6906C6.4719 10.7428 6.54903 10.8014 6.70512 10.8432C6.74805 10.8545 6.79205 10.8654 6.83668 10.8765C6.96011 10.9072 7.08838 10.9391 7.21241 10.9832L7.21288 10.9834C7.78509 11.1924 7.99816 11.6251 7.92522 12.0322C7.85306 12.4347 7.5028 12.801 6.97607 12.8875C6.78441 12.9282 6.58494 12.9203 6.39743 12.8644C6.20944 12.8084 6.03999 12.7061 5.90592 12.5677L5.90242 12.5641C5.8601 12.512 5.83163 12.4508 5.81901 12.3858C5.8074 12.3271 5.81351 12.2665 5.8366 12.2111C5.85956 12.156 5.89838 12.1083 5.94849 12.0736C6.00141 12.0342 6.06521 12.0106 6.13199 12.0056C6.19855 12.0007 6.26515 12.0146 6.32359 12.0455C6.38196 12.0726 6.43625 12.1071 6.48499 12.1482L6.48591 12.1489C6.57212 12.2246 6.67643 12.2443 6.77645 12.2261C6.87793 12.2075 6.97336 12.1499 7.03474 12.0735C7.09571 11.9975 7.12019 11.9072 7.09114 11.8196C7.0619 11.7313 6.97401 11.6324 6.78089 11.5498C6.73041 11.5292 6.67806 11.5126 6.62361 11.4964C6.60893 11.4921 6.594 11.4877 6.57889 11.4833C6.53863 11.4716 6.4972 11.4595 6.45658 11.4462C6.42861 11.4371 6.40086 11.4284 6.37337 11.4198C6.29825 11.3963 6.22502 11.3734 6.15454 11.3427C6.00114 11.2926 5.86862 11.1964 5.77668 11.0682C5.68437 10.9396 5.63792 10.7857 5.64425 10.6297C5.64474 10.2494 5.89431 9.98737 6.21067 9.84711Z" fill="#3A3B7B"/>
<path d="M10.2003 9.80657C10.1393 9.77797 10.0718 9.76439 10.004 9.76705C9.9361 9.76974 9.87002 9.78857 9.81167 9.82191C9.75367 9.85501 9.70512 9.90135 9.67033 9.95682C9.63843 10.0035 9.61635 10.0558 9.60534 10.1106C9.59434 10.1654 9.59461 10.2218 9.60611 10.2765C9.61747 10.3467 9.63007 10.4151 9.64251 10.4825C9.66311 10.594 9.68315 10.7031 9.69638 10.8142L9.69687 10.8171C9.72698 10.9914 9.74274 11.1677 9.74415 11.3444L9.74428 11.3469C9.75457 11.5378 9.68683 11.7249 9.55558 11.8686L9.55349 11.8711C9.51079 11.9236 9.45369 11.9637 9.38857 11.9869C9.32347 12.0101 9.25295 12.0154 9.18487 12.0023C9.11679 11.9892 9.05387 11.9581 9.00312 11.9127C8.95237 11.8672 8.91576 11.8089 8.89749 11.7446C8.85848 11.6091 8.83591 11.4697 8.83017 11.3293L8.89679 10.3113C8.89778 10.298 8.8989 10.2844 8.90004 10.2706C8.90258 10.2397 8.90518 10.2082 8.90625 10.1788C8.90782 10.1356 8.90648 10.0911 8.89599 10.0491C8.88525 10.0061 8.86483 9.96516 8.8286 9.93033C8.79274 9.89585 8.74432 9.87041 8.68339 9.85309C8.57321 9.82248 8.48004 9.82345 8.40241 9.85507C8.32474 9.88669 8.27152 9.9454 8.23386 10.0132C8.19649 10.0805 8.17249 10.1601 8.15433 10.2398C8.14086 10.299 8.13003 10.3611 8.11974 10.4202C8.11618 10.4406 8.1127 10.4606 8.10918 10.4801L8.10909 10.4806C8.05404 10.8049 8.03765 11.1341 8.06025 11.462C8.06446 11.6391 8.10295 11.814 8.17379 11.9776C8.2537 12.1888 8.39845 12.3717 8.58892 12.5023C8.7798 12.6332 9.00758 12.7053 9.2421 12.7091C9.47663 12.7129 9.70682 12.6483 9.90221 12.5237C10.0973 12.3993 10.2485 12.221 10.3357 12.0124C10.4579 11.7467 10.5152 11.4577 10.5034 11.1675C10.4962 10.9557 10.4842 10.7422 10.4722 10.5298C10.4663 10.4256 10.4605 10.3216 10.4553 10.2183C10.4526 10.1147 10.417 10.0143 10.3532 9.93066C10.3137 9.87778 10.2612 9.83513 10.2003 9.80657Z" fill="#3A3B7B"/>
<path d="M12.3599 11.4028C12.3537 11.4104 12.3472 11.4182 12.3403 11.4263C12.2907 11.1515 12.2447 10.8768 12.1986 10.6017C12.1821 10.503 12.1655 10.4038 12.1488 10.305L12.1469 10.2939L12.1408 10.2844C12.1293 10.2665 12.1282 10.2489 12.1282 10.2114V10.2071L12.1275 10.2028C12.115 10.1253 12.0785 10.0533 12.0228 9.99603C11.9672 9.93892 11.895 9.89918 11.8156 9.88193C11.7363 9.86316 11.653 9.8673 11.5761 9.89384C11.4994 9.92031 11.4326 9.96788 11.384 10.0306C11.3435 10.0787 11.3104 10.1321 11.2855 10.1891C11.2291 10.312 11.1723 10.4352 11.1152 10.5587L11.1143 10.5608C10.9719 10.8692 10.8286 11.1796 10.6894 11.4925L10.689 11.4935C10.6035 11.6964 10.533 11.9101 10.4627 12.1232C10.4487 12.1657 10.4347 12.2083 10.4205 12.2507C10.3952 12.3179 10.3841 12.3893 10.3879 12.4607C10.3832 12.5247 10.3992 12.5884 10.4336 12.6434C10.4686 12.6995 10.5212 12.7437 10.5837 12.7697C10.65 12.7976 10.7242 12.8035 10.7944 12.7865C10.8645 12.7695 10.9267 12.7307 10.9713 12.6762C11.0282 12.6089 11.0772 12.5356 11.1172 12.4579C11.235 12.2265 11.3477 11.9922 11.4599 11.759C11.5033 11.6687 11.5454 11.5879 11.5934 11.4999C11.5967 11.5108 11.6001 11.5214 11.6035 11.532C11.6538 11.7444 11.7387 11.9479 11.855 12.135C11.877 12.1747 11.9077 12.2093 11.9449 12.2366C11.9825 12.2642 12.026 12.2835 12.0723 12.2934C12.1185 12.3032 12.1664 12.3032 12.2127 12.2935C12.2589 12.2838 12.3025 12.2644 12.3402 12.2369L12.4148 12.1833L12.9936 11.7154L12.9594 11.9247C12.9124 12.2125 12.8658 12.4979 12.8162 12.7834C12.7838 12.9099 12.7839 13.0421 12.8164 13.1686C12.8305 13.2398 12.8663 13.3053 12.9194 13.3568C12.9729 13.4088 13.0415 13.4441 13.1162 13.4582C13.1909 13.4722 13.2683 13.4644 13.3383 13.4358C13.4073 13.4075 13.466 13.3603 13.507 13.3001C13.6024 13.1865 13.6618 13.0489 13.6782 12.9037C13.7027 12.6987 13.7305 12.4909 13.7582 12.2832C13.7902 12.0438 13.8222 11.8044 13.8492 11.5696L13.8493 11.5689C13.8753 11.3119 13.8879 11.0538 13.887 10.7956C13.8927 10.714 13.8716 10.6328 13.8265 10.5633C13.7812 10.4936 13.7142 10.4394 13.635 10.4084C13.5526 10.3724 13.4603 10.3628 13.3718 10.381C13.2838 10.399 13.2042 10.4435 13.1445 10.508C13.0377 10.6027 12.9376 10.7042 12.8447 10.8116L12.844 10.8123C12.7426 10.9336 12.6419 11.0573 12.5418 11.1802C12.4809 11.2549 12.4202 11.3294 12.3599 11.4028Z" fill="#3A3B7B"/>
</g>
<defs>
<clipPath id="clip0_212_1596">
<rect width="15.6917" height="9.68213" fill="white" transform="translate(0.435059 4.1814)"/>
</clipPath>
</defs>
</svg>
