<svg width="20" height="11" viewBox="0 0 20 11" fill="none" xmlns="http://www.w3.org/2000/svg">
<path d="M19.0822 4.40977C19.0841 4.39585 19.0841 4.38178 19.0822 4.36786C19.084 4.35651 19.084 4.34494 19.0822 4.33358L18.9461 3.35446C18.9265 3.23732 18.874 3.12784 18.7946 3.03825L18.7713 3.01158L18.7285 2.96967L16.3736 0.980972L16.4396 1.04574C16.3856 0.982348 16.3178 0.93164 16.2411 0.897354C16.1644 0.863069 16.0809 0.846078 15.9966 0.847634H15.2816C15.1653 0.845375 15.0517 0.881617 14.959 0.950499C14.8618 0.882032 14.7446 0.845975 14.6248 0.847634H13.9098C13.816 0.846142 13.7235 0.86896 13.6416 0.913783C13.5597 0.958606 13.4914 1.02384 13.4435 1.10289C13.3696 1.21578 13.3419 1.35181 13.3658 1.48387L13.4551 2.10105C13.3959 2.06814 13.3289 2.05106 13.2608 2.05152H9.79835C9.67412 2.05229 9.55275 2.08799 9.44859 2.15438C9.34788 2.21619 9.26703 2.30468 9.21544 2.40964L8.94729 2.18486C8.84176 2.08913 8.70246 2.03724 8.55869 2.04009H3.12597C3.0013 2.04232 2.8794 2.07646 2.77234 2.13915C2.62589 2.22319 2.51855 2.35983 2.47311 2.52012L0.747696 8.17764C0.715457 8.27086 0.712285 8.3714 0.738588 8.4664C0.76489 8.56138 0.819474 8.64656 0.895368 8.71102C0.915143 8.72744 0.935908 8.74272 0.957546 8.75672C0.957546 8.75672 0.922566 8.73385 0.903136 8.71482L3.2581 10.7073C3.35772 10.7972 3.48797 10.8475 3.62337 10.8483H9.09886C9.2239 10.8451 9.34589 10.8096 9.45249 10.7454C9.51278 10.7131 9.56672 10.6705 9.61182 10.6197L9.63125 10.593L9.66234 10.5549L9.68565 10.513L9.94214 10.7302C10.0403 10.8165 10.1677 10.864 10.2997 10.8635H15.7868C15.9117 10.8594 16.0334 10.824 16.1404 10.7607C16.1993 10.7264 16.253 10.684 16.2998 10.6349L16.3192 10.6083L16.3502 10.5702C16.3668 10.5461 16.3811 10.5206 16.393 10.494C16.4057 10.4709 16.4161 10.4466 16.4241 10.4216L17.9979 5.25555V5.20983C17.9999 5.1921 17.9999 5.17422 17.9979 5.15649V5.12221C17.9998 5.11084 17.9998 5.09927 17.9979 5.08791C17.9997 5.06382 17.9997 5.03963 17.9979 5.01552H18.5031C18.5471 5.01947 18.5913 5.01947 18.6353 5.01552H18.6702C18.6987 5.0072 18.7261 4.99568 18.7519 4.98124H18.7907L18.8607 4.9279L18.8917 4.90504L18.9461 4.83645V4.81362L18.985 4.74884C18.9828 4.73624 18.9828 4.72335 18.985 4.71075C18.9829 4.70457 18.9829 4.69788 18.985 4.6917C18.9933 4.66936 18.9998 4.64643 19.0044 4.62311C19.0026 4.6156 19.0026 4.60776 19.0044 4.60025C19.0026 4.58891 19.0026 4.57732 19.0044 4.56597C19.0044 4.56597 19.0822 4.41739 19.0822 4.40977Z" fill="black"/>
</svg>
