<svg width="62" height="5" viewBox="0 0 62 5" fill="none" xmlns="http://www.w3.org/2000/svg">
<path d="M0.722637 0.0504364H1.79917L3.24086 3.56931H3.29777L4.73947 0.0504364H5.816V4.90668H4.97185V1.57038H4.92679L3.58469 4.89245H2.95395L1.61184 1.56327H1.56679V4.90668H0.722637V0.0504364ZM8.34845 4.97781C7.98329 4.97781 7.66791 4.90193 7.40234 4.75018C7.13834 4.59684 6.93521 4.38027 6.79294 4.10047C6.65067 3.81908 6.57953 3.4879 6.57953 3.10693C6.57953 2.73228 6.65067 2.40347 6.79294 2.1205C6.93679 1.83596 7.13755 1.61465 7.39523 1.45656C7.6529 1.2969 7.95562 1.21707 8.3034 1.21707C8.52787 1.21707 8.7397 1.25343 8.93888 1.32615C9.13965 1.39728 9.3167 1.50794 9.47004 1.65812C9.62495 1.80829 9.74668 1.99957 9.8352 2.23195C9.92373 2.46275 9.96799 2.73781 9.96799 3.05713V3.32034H6.98263V2.74176H9.14518C9.1436 2.57736 9.10803 2.43113 9.03847 2.30309C8.96892 2.17346 8.8717 2.0715 8.74682 1.9972C8.62351 1.9229 8.47966 1.88575 8.31526 1.88575C8.13979 1.88575 7.98566 1.92844 7.85287 2.0138C7.72008 2.09758 7.61654 2.20824 7.54224 2.34577C7.46952 2.48172 7.43237 2.6311 7.43079 2.79393V3.299C7.43079 3.51082 7.46952 3.69262 7.54698 3.84437C7.62444 3.99455 7.73273 4.10995 7.87184 4.19057C8.01095 4.26961 8.17377 4.30913 8.36031 4.30913C8.48519 4.30913 8.59822 4.29174 8.69939 4.25697C8.80056 4.22061 8.8883 4.16765 8.9626 4.09809C9.03689 4.02854 9.09301 3.94238 9.13095 3.83963L9.93242 3.92974C9.88184 4.14157 9.78541 4.32652 9.64313 4.4846C9.50244 4.6411 9.32223 4.76282 9.1025 4.84977C8.88277 4.93513 8.63142 4.97781 8.34845 4.97781ZM12.3066 4.97781C11.9414 4.97781 11.6261 4.90193 11.3605 4.75018C11.0965 4.59684 10.8934 4.38027 10.7511 4.10047C10.6088 3.81908 10.5377 3.4879 10.5377 3.10693C10.5377 2.73228 10.6088 2.40347 10.7511 2.1205C10.8949 1.83596 11.0957 1.61465 11.3534 1.45656C11.611 1.2969 11.9138 1.21707 12.2615 1.21707C12.486 1.21707 12.6978 1.25343 12.897 1.32615C13.0978 1.39728 13.2748 1.50794 13.4282 1.65812C13.5831 1.80829 13.7048 1.99957 13.7933 2.23195C13.8819 2.46275 13.9261 2.73781 13.9261 3.05713V3.32034H10.9408V2.74176H13.1033C13.1017 2.57736 13.0662 2.43113 12.9966 2.30309C12.9271 2.17346 12.8298 2.0715 12.705 1.9972C12.5817 1.9229 12.4378 1.88575 12.2734 1.88575C12.0979 1.88575 11.9438 1.92844 11.811 2.0138C11.6782 2.09758 11.5747 2.20824 11.5004 2.34577C11.4277 2.48172 11.3905 2.6311 11.3889 2.79393V3.299C11.3889 3.51082 11.4277 3.69262 11.5051 3.84437C11.5826 3.99455 11.6909 4.10995 11.83 4.19057C11.9691 4.26961 12.1319 4.30913 12.3185 4.30913C12.4433 4.30913 12.5564 4.29174 12.6575 4.25697C12.7587 4.22061 12.8464 4.16765 12.9207 4.09809C12.995 4.02854 13.0512 3.94238 13.0891 3.83963L13.8906 3.92974C13.84 4.14157 13.7436 4.32652 13.6013 4.4846C13.4606 4.6411 13.2804 4.76282 13.0606 4.84977C12.8409 4.93513 12.5896 4.97781 12.3066 4.97781ZM16.471 1.2645V1.92844H14.3773V1.2645H16.471ZM14.8942 0.391891H15.7526V3.81118C15.7526 3.92658 15.7699 4.0151 15.8047 4.07675C15.8411 4.13682 15.8885 4.17792 15.947 4.20006C16.0055 4.22219 16.0703 4.23325 16.1414 4.23325C16.1952 4.23325 16.2442 4.2293 16.2885 4.2214C16.3343 4.21349 16.3691 4.20638 16.3928 4.20006L16.5374 4.87111C16.4916 4.88692 16.426 4.90431 16.3406 4.92328C16.2568 4.94225 16.1541 4.95331 16.0324 4.95647C15.8174 4.9628 15.6237 4.93039 15.4514 4.85925C15.2791 4.78654 15.1424 4.6743 15.0412 4.52254C14.9416 4.37078 14.8926 4.18109 14.8942 3.95345V0.391891ZM19.8933 4.98018C19.6625 4.98018 19.4546 4.93908 19.2697 4.85688C19.0863 4.7731 18.9409 4.6498 18.8334 4.48697C18.7274 4.32415 18.6745 4.12339 18.6745 3.88469C18.6745 3.67918 18.7124 3.50924 18.7883 3.37487C18.8642 3.24051 18.9677 3.13301 19.0989 3.05239C19.2301 2.97177 19.3779 2.91091 19.5423 2.86981C19.7083 2.82712 19.8799 2.7963 20.0569 2.77733C20.2703 2.7552 20.4434 2.73544 20.5762 2.71805C20.709 2.69908 20.8054 2.67062 20.8655 2.63269C20.9271 2.59317 20.958 2.5323 20.958 2.4501V2.43588C20.958 2.25724 20.905 2.11892 20.7991 2.02091C20.6932 1.9229 20.5406 1.8739 20.3414 1.8739C20.1312 1.8739 19.9644 1.91974 19.8411 2.01143C19.7194 2.10311 19.6372 2.2114 19.5945 2.33628L18.793 2.22247C18.8563 2.00115 18.9606 1.8162 19.106 1.6676C19.2515 1.51743 19.4293 1.40519 19.6396 1.33089C19.8498 1.25501 20.0822 1.21707 20.3367 1.21707C20.5122 1.21707 20.6869 1.23762 20.8607 1.27872C21.0346 1.31982 21.1935 1.3878 21.3374 1.48265C21.4812 1.57592 21.5966 1.70317 21.6836 1.86441C21.7721 2.02566 21.8163 2.22721 21.8163 2.46907V4.90668H20.9912V4.40635H20.9627C20.9105 4.50752 20.837 4.60237 20.7422 4.6909C20.6489 4.77784 20.5311 4.84819 20.3889 4.90193C20.2482 4.9541 20.083 4.98018 19.8933 4.98018ZM20.1162 4.34944C20.2885 4.34944 20.4379 4.31546 20.5643 4.24748C20.6908 4.17792 20.788 4.08624 20.856 3.97242C20.9256 3.8586 20.9603 3.73451 20.9603 3.60014V3.17095C20.9335 3.19308 20.8876 3.21363 20.8228 3.2326C20.7596 3.25157 20.6884 3.26817 20.6094 3.2824C20.5304 3.29662 20.4521 3.30927 20.3746 3.32034C20.2972 3.3314 20.23 3.34089 20.1731 3.34879C20.045 3.36618 19.9304 3.39463 19.8293 3.43415C19.7281 3.47368 19.6483 3.529 19.5898 3.60014C19.5313 3.6697 19.502 3.7598 19.502 3.87046C19.502 4.02854 19.5597 4.14789 19.6751 4.22851C19.7905 4.30913 19.9376 4.34944 20.1162 4.34944ZM23.5378 0.0504364V4.90668H22.6795V0.0504364H23.5378ZM25.2789 0.0504364V4.90668H24.4205V0.0504364H25.2789ZM29.4066 4.97781C29.043 4.97781 28.7308 4.89798 28.47 4.73832C28.2107 4.57866 28.0107 4.35814 27.87 4.07675C27.7309 3.79379 27.6614 3.46814 27.6614 3.09981C27.6614 2.72991 27.7325 2.40347 27.8748 2.1205C28.0171 1.83596 28.2178 1.61465 28.4771 1.45656C28.7379 1.2969 29.0462 1.21707 29.4018 1.21707C29.6975 1.21707 29.9591 1.27161 30.1867 1.38069C30.4159 1.48818 30.5985 1.64073 30.7345 1.83833C30.8704 2.03435 30.9479 2.26357 30.9668 2.52598H30.1464C30.1132 2.35051 30.0342 2.20429 29.9093 2.08731C29.786 1.96875 29.6208 1.90947 29.4137 1.90947C29.2382 1.90947 29.0841 1.95689 28.9513 2.05174C28.8185 2.14501 28.715 2.27938 28.6407 2.45484C28.568 2.63031 28.5316 2.84056 28.5316 3.08559C28.5316 3.33377 28.568 3.54718 28.6407 3.72581C28.7134 3.90286 28.8154 4.0396 28.9466 4.13603C29.0794 4.23088 29.2351 4.27831 29.4137 4.27831C29.5402 4.27831 29.6532 4.25459 29.7528 4.20717C29.854 4.15816 29.9385 4.08782 30.0065 3.99613C30.0745 3.90445 30.1211 3.793 30.1464 3.66179H30.9668C30.9463 3.91946 30.8704 4.14789 30.7392 4.34707C30.608 4.54467 30.4294 4.69959 30.2033 4.81183C29.9773 4.92249 29.7117 4.97781 29.4066 4.97781ZM33.9931 3.37487V1.2645H34.8515V4.90668H34.0192V4.25934H33.9812C33.899 4.46326 33.7639 4.63004 33.5758 4.75966C33.3892 4.88929 33.1592 4.9541 32.8857 4.9541C32.647 4.9541 32.436 4.90114 32.2526 4.79523C32.0708 4.68774 31.9286 4.53203 31.8258 4.3281C31.7231 4.1226 31.6717 3.87441 31.6717 3.58354V1.2645H32.5301V3.45075C32.5301 3.68155 32.5933 3.86493 32.7198 4.00087C32.8462 4.13682 33.0122 4.2048 33.2177 4.2048C33.3442 4.2048 33.4667 4.17397 33.5853 4.11232C33.7038 4.05067 33.801 3.95898 33.8769 3.83726C33.9544 3.71396 33.9931 3.55983 33.9931 3.37487ZM38.6128 2.22721L37.8303 2.31257C37.8082 2.23353 37.7695 2.15923 37.7141 2.08968C37.6604 2.02012 37.5877 1.964 37.496 1.92132C37.4043 1.87864 37.292 1.8573 37.1593 1.8573C36.9806 1.8573 36.8305 1.89603 36.7087 1.97349C36.5886 2.05095 36.5293 2.15133 36.5309 2.27463C36.5293 2.38055 36.568 2.4667 36.6471 2.53309C36.7277 2.59949 36.8605 2.65403 37.0454 2.69671L37.6667 2.8295C38.0113 2.90379 38.2674 3.02156 38.435 3.18281C38.6041 3.34405 38.6895 3.55509 38.6911 3.81592C38.6895 4.04514 38.6223 4.24748 38.4895 4.42295C38.3583 4.59684 38.1757 4.73279 37.9418 4.8308C37.7078 4.92881 37.4391 4.97781 37.1355 4.97781C36.6898 4.97781 36.3309 4.88455 36.059 4.69801C35.7871 4.50989 35.6251 4.24827 35.5729 3.91314L36.41 3.83252C36.4479 3.99692 36.5285 4.12102 36.6518 4.2048C36.7751 4.28858 36.9356 4.33047 37.1332 4.33047C37.3371 4.33047 37.5007 4.28858 37.624 4.2048C37.7489 4.12102 37.8113 4.01747 37.8113 3.89417C37.8113 3.78984 37.771 3.70368 37.6904 3.63571C37.6114 3.56773 37.4881 3.51557 37.3205 3.47921L36.6992 3.34879C36.3499 3.27607 36.0914 3.15356 35.9239 2.98125C35.7563 2.80736 35.6733 2.58763 35.6749 2.32206C35.6733 2.09758 35.7342 1.90314 35.8575 1.73874C35.9823 1.57275 36.1554 1.44471 36.3768 1.3546C36.5997 1.26292 36.8565 1.21707 37.1474 1.21707C37.5742 1.21707 37.9101 1.30797 38.1552 1.48976C38.4018 1.67155 38.5543 1.91737 38.6128 2.22721ZM41.2176 1.2645V1.92844H39.1238V1.2645H41.2176ZM39.6407 0.391891H40.4991V3.81118C40.4991 3.92658 40.5165 4.0151 40.5513 4.07675C40.5876 4.13682 40.6351 4.17792 40.6936 4.20006C40.752 4.22219 40.8169 4.23325 40.888 4.23325C40.9417 4.23325 40.9907 4.2293 41.035 4.2214C41.0808 4.21349 41.1156 4.20638 41.1393 4.20006L41.284 4.87111C41.2381 4.88692 41.1725 4.90431 41.0872 4.92328C41.0034 4.94225 40.9006 4.95331 40.7789 4.95647C40.5639 4.9628 40.3703 4.93039 40.198 4.85925C40.0257 4.78654 39.8889 4.6743 39.7877 4.52254C39.6882 4.37078 39.6392 4.18109 39.6407 3.95345V0.391891ZM43.4851 4.97781C43.1294 4.97781 42.8211 4.89956 42.5603 4.74306C42.2995 4.58656 42.0971 4.36762 41.9533 4.08624C41.811 3.80485 41.7398 3.47605 41.7398 3.09981C41.7398 2.72358 41.811 2.39398 41.9533 2.11102C42.0971 1.82805 42.2995 1.60832 42.5603 1.45182C42.8211 1.29532 43.1294 1.21707 43.4851 1.21707C43.8407 1.21707 44.149 1.29532 44.4098 1.45182C44.6707 1.60832 44.8722 1.82805 45.0145 2.11102C45.1583 2.39398 45.2303 2.72358 45.2303 3.09981C45.2303 3.47605 45.1583 3.80485 45.0145 4.08624C44.8722 4.36762 44.6707 4.58656 44.4098 4.74306C44.149 4.89956 43.8407 4.97781 43.4851 4.97781ZM43.4898 4.29016C43.6827 4.29016 43.8439 4.23721 43.9735 4.13129C44.1032 4.0238 44.1996 3.87994 44.2628 3.69973C44.3276 3.51952 44.36 3.31876 44.36 3.09744C44.36 2.87455 44.3276 2.673 44.2628 2.49278C44.1996 2.31099 44.1032 2.16635 43.9735 2.05885C43.8439 1.95136 43.6827 1.89761 43.4898 1.89761C43.2922 1.89761 43.1278 1.95136 42.9966 2.05885C42.867 2.16635 42.7697 2.31099 42.7049 2.49278C42.6417 2.673 42.6101 2.87455 42.6101 3.09744C42.6101 3.31876 42.6417 3.51952 42.7049 3.69973C42.7697 3.87994 42.867 4.0238 42.9966 4.13129C43.1278 4.23721 43.2922 4.29016 43.4898 4.29016ZM45.9588 4.90668V1.2645H46.7793V1.88338H46.8219C46.8978 1.67472 47.0235 1.51189 47.199 1.39491C47.3744 1.27635 47.5839 1.21707 47.8273 1.21707C48.0739 1.21707 48.2818 1.27714 48.451 1.39728C48.6217 1.51584 48.7418 1.67788 48.8114 1.88338H48.8493C48.93 1.68104 49.0659 1.5198 49.2572 1.39966C49.45 1.27793 49.6785 1.21707 49.9425 1.21707C50.2776 1.21707 50.5511 1.32299 50.7629 1.53481C50.9747 1.74664 51.0806 2.05569 51.0806 2.46196V4.90668H50.2199V2.59475C50.2199 2.36869 50.1598 2.2035 50.0397 2.09916C49.9195 1.99325 49.7725 1.94029 49.5986 1.94029C49.3915 1.94029 49.2295 2.0051 49.1125 2.13473C48.9971 2.26278 48.9394 2.42955 48.9394 2.63506V4.90668H48.0977V2.55918C48.0977 2.37106 48.0407 2.22089 47.9269 2.10865C47.8147 1.99641 47.6677 1.94029 47.4859 1.94029C47.3626 1.94029 47.2503 1.97191 47.1492 2.03514C47.048 2.09679 46.9674 2.18453 46.9073 2.29834C46.8472 2.41058 46.8172 2.54179 46.8172 2.69197V4.90668H45.9588ZM53.5639 4.97781C53.1987 4.97781 52.8834 4.90193 52.6178 4.75018C52.3538 4.59684 52.1507 4.38027 52.0084 4.10047C51.8661 3.81908 51.795 3.4879 51.795 3.10693C51.795 2.73228 51.8661 2.40347 52.0084 2.1205C52.1522 1.83596 52.353 1.61465 52.6107 1.45656C52.8683 1.2969 53.1711 1.21707 53.5188 1.21707C53.7433 1.21707 53.9551 1.25343 54.1543 1.32615C54.3551 1.39728 54.5321 1.50794 54.6855 1.65812C54.8404 1.80829 54.9621 1.99957 55.0506 2.23195C55.1392 2.46275 55.1834 2.73781 55.1834 3.05713V3.32034H52.1981V2.74176H54.3606C54.359 2.57736 54.3235 2.43113 54.2539 2.30309C54.1844 2.17346 54.0871 2.0715 53.9623 1.9972C53.839 1.9229 53.6951 1.88575 53.5307 1.88575C53.3552 1.88575 53.2011 1.92844 53.0683 2.0138C52.9355 2.09758 52.832 2.20824 52.7577 2.34577C52.685 2.48172 52.6478 2.6311 52.6462 2.79393V3.299C52.6462 3.51082 52.685 3.69262 52.7624 3.84437C52.8399 3.99455 52.9482 4.10995 53.0873 4.19057C53.2264 4.26961 53.3892 4.30913 53.5758 4.30913C53.7006 4.30913 53.8137 4.29174 53.9148 4.25697C54.016 4.22061 54.1037 4.16765 54.178 4.09809C54.2523 4.02854 54.3085 3.94238 54.3464 3.83963L55.1479 3.92974C55.0973 4.14157 55.0008 4.32652 54.8586 4.4846C54.7179 4.6411 54.5377 4.76282 54.3179 4.84977C54.0982 4.93513 53.8469 4.97781 53.5639 4.97781ZM55.9096 4.90668V1.2645H56.7419V1.87153H56.7799C56.8462 1.66128 56.9601 1.49925 57.1213 1.38543C57.2841 1.27003 57.4699 1.21233 57.6785 1.21233C57.726 1.21233 57.7789 1.2147 57.8374 1.21944C57.8975 1.22261 57.9473 1.22814 57.9868 1.23604V2.02566C57.9504 2.01301 57.8927 2.00194 57.8137 1.99246C57.7362 1.98139 57.6612 1.97586 57.5884 1.97586C57.4319 1.97586 57.2912 2.00985 57.1664 2.07782C57.0431 2.14422 56.9458 2.23669 56.8747 2.35525C56.8036 2.47381 56.768 2.61055 56.768 2.76547V4.90668H55.9096ZM61.4357 2.22721L60.6532 2.31257C60.6311 2.23353 60.5924 2.15923 60.537 2.08968C60.4833 2.02012 60.4106 1.964 60.3189 1.92132C60.2272 1.87864 60.115 1.8573 59.9822 1.8573C59.8035 1.8573 59.6534 1.89603 59.5316 1.97349C59.4115 2.05095 59.3522 2.15133 59.3538 2.27463C59.3522 2.38055 59.3909 2.4667 59.47 2.53309C59.5506 2.59949 59.6834 2.65403 59.8684 2.69671L60.4896 2.8295C60.8342 2.90379 61.0903 3.02156 61.2579 3.18281C61.427 3.34405 61.5124 3.55509 61.514 3.81592C61.5124 4.04514 61.4452 4.24748 61.3124 4.42295C61.1812 4.59684 60.9986 4.73279 60.7647 4.8308C60.5307 4.92881 60.262 4.97781 59.9585 4.97781C59.5127 4.97781 59.1538 4.88455 58.8819 4.69801C58.61 4.50989 58.448 4.24827 58.3958 3.91314L59.2329 3.83252C59.2708 3.99692 59.3514 4.12102 59.4747 4.2048C59.598 4.28858 59.7585 4.33047 59.9561 4.33047C60.16 4.33047 60.3236 4.28858 60.4469 4.2048C60.5718 4.12102 60.6343 4.01747 60.6343 3.89417C60.6343 3.78984 60.5939 3.70368 60.5133 3.63571C60.4343 3.56773 60.311 3.51557 60.1434 3.47921L59.5222 3.34879C59.1728 3.27607 58.9143 3.15356 58.7468 2.98125C58.5792 2.80736 58.4962 2.58763 58.4978 2.32206C58.4962 2.09758 58.5571 1.90314 58.6804 1.73874C58.8053 1.57275 58.9784 1.44471 59.1997 1.3546C59.4226 1.26292 59.6794 1.21707 59.9703 1.21707C60.3971 1.21707 60.7331 1.30797 60.9781 1.48976C61.2247 1.67155 61.3772 1.91737 61.4357 2.22721Z" fill="#4CAF4F"/>
</svg>
