<svg width="350" height="209" viewBox="0 0 350 209" fill="none" xmlns="http://www.w3.org/2000/svg">
<g filter="url(#filter0_d_22_883)">
<rect x="16.5" y="8.39905" width="317" height="176" rx="8" fill="#F5F7FA" shape-rendering="crispEdges"/>
<path d="M41.1417 45.399V30.8536H46.5962C47.7137 30.8536 48.6512 31.0477 49.4087 31.436C50.171 31.8242 50.7463 32.3687 51.1346 33.0695C51.5276 33.7655 51.7241 34.5776 51.7241 35.5056C51.7241 36.4383 51.5252 37.248 51.1275 37.9346C50.7345 38.6164 50.1545 39.1443 49.3874 39.5184C48.6204 39.8877 47.6781 40.0723 46.5607 40.0723H42.6758V37.8848H46.2056C46.859 37.8848 47.3941 37.7949 47.8107 37.615C48.2274 37.4303 48.5352 37.1628 48.734 36.8124C48.9376 36.4573 49.0394 36.0217 49.0394 35.5056C49.0394 34.9895 48.9376 34.5491 48.734 34.1846C48.5304 33.8152 48.2203 33.5359 47.8036 33.3465C47.387 33.1524 46.8496 33.0553 46.1914 33.0553H43.7766V45.399H41.1417ZM48.6559 38.8081L52.2567 45.399H49.3164L45.7795 38.8081H48.6559ZM58.7092 45.6121C57.6154 45.6121 56.6708 45.3848 55.8754 44.9303C55.0846 44.471 54.4762 43.8223 54.0501 42.9843C53.6239 42.1415 53.4109 41.1495 53.4109 40.0084C53.4109 38.8863 53.6239 37.9014 54.0501 37.0539C54.4809 36.2016 55.0823 35.5387 55.854 35.0652C56.6258 34.587 57.5326 34.3479 58.5742 34.3479C59.2466 34.3479 59.881 34.4568 60.4776 34.6746C61.079 34.8877 61.6093 35.2191 62.0685 35.6689C62.5326 36.1187 62.8971 36.6917 63.1623 37.3877C63.4274 38.079 63.56 38.9028 63.56 39.8593V40.6476H54.6183V38.9147H61.0955C61.0908 38.4222 60.9843 37.9843 60.7759 37.6008C60.5676 37.2125 60.2764 36.9071 59.9023 36.6846C59.533 36.462 59.1022 36.3508 58.6097 36.3508C58.0842 36.3508 57.6225 36.4786 57.2248 36.7343C56.8271 36.9852 56.5169 37.3167 56.2944 37.7286C56.0766 38.1358 55.9653 38.5832 55.9606 39.0709V40.5837C55.9606 41.2182 56.0766 41.7627 56.3086 42.2172C56.5406 42.667 56.8649 43.0127 57.2816 43.2542C57.6983 43.4909 58.186 43.6093 58.7447 43.6093C59.1187 43.6093 59.4573 43.5572 59.7603 43.453C60.0633 43.3441 60.3261 43.1855 60.5487 42.9772C60.7712 42.7688 60.9393 42.5108 61.0529 42.203L63.4535 42.4729C63.302 43.1074 63.0131 43.6614 62.587 44.1348C62.1656 44.6036 61.6258 44.9682 60.9677 45.2286C60.3095 45.4843 59.5567 45.6121 58.7092 45.6121ZM75.1669 34.49L71.282 45.399H68.4411L64.5561 34.49H67.2976L69.8047 42.5937H69.9183L72.4325 34.49H75.1669ZM79.7727 45.6192C79.0814 45.6192 78.4588 45.4961 77.9048 45.2499C77.3556 44.999 76.92 44.6296 76.598 44.1419C76.2808 43.6543 76.1222 43.0529 76.1222 42.338C76.1222 41.7224 76.2358 41.2134 76.4631 40.811C76.6903 40.4085 77.0005 40.0865 77.3935 39.8451C77.7865 39.6036 78.2292 39.4213 78.7216 39.2982C79.2188 39.1704 79.7325 39.078 80.2628 39.0212C80.902 38.9549 81.4205 38.8957 81.8182 38.8436C82.2159 38.7868 82.5047 38.7016 82.6847 38.588C82.8693 38.4696 82.9616 38.2873 82.9616 38.0411V37.9985C82.9616 37.4634 82.803 37.0491 82.4858 36.7556C82.1686 36.462 81.7116 36.3152 81.1151 36.3152C80.4853 36.3152 79.9858 36.4526 79.6165 36.7272C79.2519 37.0018 79.0057 37.3261 78.8778 37.7002L76.4773 37.3593C76.6667 36.6964 76.9792 36.1424 77.4148 35.6973C77.8504 35.2475 78.383 34.9114 79.0128 34.6888C79.6425 34.4615 80.3385 34.3479 81.1009 34.3479C81.6264 34.3479 82.1496 34.4095 82.6705 34.5326C83.1913 34.6557 83.6671 34.8593 84.098 35.1434C84.5289 35.4227 84.8745 35.8039 85.1349 36.2868C85.4001 36.7698 85.5327 37.3735 85.5327 38.0979V45.399H83.0611V43.9005H82.9759C82.8196 44.2035 82.5994 44.4876 82.3153 44.7527C82.036 45.0132 81.6832 45.2239 81.2571 45.3848C80.8357 45.5411 80.3409 45.6192 79.7727 45.6192ZM80.4403 43.73C80.9564 43.73 81.4039 43.6282 81.7827 43.4246C82.1615 43.2163 82.4527 42.9417 82.6562 42.6008C82.8646 42.2598 82.9688 41.8882 82.9688 41.4857V40.2002C82.8883 40.2665 82.7509 40.328 82.5568 40.3848C82.3674 40.4417 82.1544 40.4914 81.9176 40.534C81.6809 40.5766 81.4465 40.6145 81.2145 40.6476C80.9825 40.6808 80.7813 40.7092 80.6108 40.7329C80.2273 40.7849 79.884 40.8702 79.581 40.9885C79.2779 41.1069 79.0388 41.2726 78.8636 41.4857C78.6884 41.694 78.6009 41.9639 78.6009 42.2954C78.6009 42.7688 78.7737 43.1263 79.1193 43.3678C79.465 43.6093 79.9053 43.73 80.4403 43.73ZM88.1179 45.399V34.49H90.5753V36.3436H90.7031C90.9304 35.7186 91.3068 35.231 91.8324 34.8806C92.358 34.5255 92.9853 34.3479 93.7145 34.3479C94.4531 34.3479 95.0758 34.5278 95.5824 34.8877C96.0938 35.2428 96.4536 35.7281 96.6619 36.3436H96.7756C97.017 35.7376 97.4242 35.2546 97.9972 34.8948C98.5748 34.5302 99.259 34.3479 100.05 34.3479C101.054 34.3479 101.873 34.6651 102.507 35.2996C103.142 35.9341 103.459 36.8597 103.459 38.0766V45.399H100.881V38.4743C100.881 37.7972 100.701 37.3025 100.341 36.99C99.9811 36.6727 99.5407 36.5141 99.0199 36.5141C98.3996 36.5141 97.9143 36.7082 97.5639 37.0965C97.2183 37.48 97.0455 37.9795 97.0455 38.5951V45.399H94.5241V38.3678C94.5241 37.8044 94.3537 37.3545 94.0128 37.0184C93.6766 36.6822 93.2363 36.5141 92.6918 36.5141C92.3224 36.5141 91.9863 36.6088 91.6832 36.7982C91.3802 36.9829 91.1387 37.2456 90.9588 37.5865C90.7789 37.9227 90.6889 38.3157 90.6889 38.7655V45.399H88.1179ZM106.067 49.49V34.49H108.596V36.2939H108.745C108.877 36.0288 109.064 35.7471 109.306 35.4488C109.547 35.1457 109.874 34.8877 110.286 34.6746C110.698 34.4568 111.223 34.3479 111.863 34.3479C112.705 34.3479 113.465 34.5633 114.142 34.9942C114.824 35.4204 115.364 36.0525 115.762 36.8905C116.164 37.7239 116.365 38.7466 116.365 39.9587C116.365 41.1566 116.169 42.1746 115.776 43.0127C115.383 43.8508 114.848 44.49 114.171 44.9303C113.494 45.3706 112.727 45.5908 111.87 45.5908C111.245 45.5908 110.726 45.4866 110.314 45.2783C109.902 45.07 109.571 44.819 109.32 44.5255C109.074 44.2272 108.882 43.9454 108.745 43.6803H108.638V49.49H106.067ZM108.588 39.9445C108.588 40.65 108.688 41.2679 108.887 41.7982C109.09 42.3285 109.382 42.7428 109.76 43.0411C110.144 43.3347 110.608 43.4814 111.152 43.4814C111.721 43.4814 112.196 43.3299 112.58 43.0269C112.963 42.7191 113.252 42.3001 113.446 41.7698C113.645 41.2347 113.745 40.6263 113.745 39.9445C113.745 39.2674 113.648 38.6661 113.453 38.1405C113.259 37.615 112.971 37.203 112.587 36.9047C112.203 36.6064 111.725 36.4573 111.152 36.4573C110.603 36.4573 110.137 36.6017 109.753 36.8905C109.37 37.1794 109.078 37.5842 108.88 38.105C108.685 38.6258 108.588 39.239 108.588 39.9445ZM118.567 45.399V34.49H121.138V45.399H118.567ZM119.86 32.9417C119.453 32.9417 119.102 32.8067 118.809 32.5368C118.515 32.2622 118.368 31.9331 118.368 31.5496C118.368 31.1614 118.515 30.8323 118.809 30.5624C119.102 30.2878 119.453 30.1505 119.86 30.1505C120.272 30.1505 120.622 30.2878 120.911 30.5624C121.204 30.8323 121.351 31.1614 121.351 31.5496C121.351 31.9331 121.204 32.2622 120.911 32.5368C120.622 32.8067 120.272 32.9417 119.86 32.9417ZM126.353 39.007V45.399H123.782V34.49H126.239V36.3436H126.367C126.618 35.7329 127.018 35.2475 127.567 34.8877C128.121 34.5278 128.806 34.3479 129.62 34.3479C130.373 34.3479 131.029 34.5089 131.587 34.8309C132.151 35.1528 132.586 35.6192 132.894 36.23C133.207 36.8408 133.361 37.5818 133.356 38.453V45.399H130.785V38.8508C130.785 38.1216 130.595 37.551 130.217 37.1391C129.843 36.7272 129.324 36.5212 128.661 36.5212C128.211 36.5212 127.811 36.6206 127.461 36.8195C127.115 37.0136 126.843 37.2954 126.644 37.6647C126.45 38.034 126.353 38.4814 126.353 39.007ZM140.714 49.7172C139.79 49.7172 138.997 49.5918 138.335 49.3408C137.672 49.0946 137.139 48.7632 136.737 48.3465C136.334 47.9298 136.055 47.4682 135.898 46.9615L138.214 46.4005C138.318 46.6135 138.469 46.8242 138.668 47.0326C138.867 47.2456 139.135 47.4208 139.471 47.5581C139.812 47.7002 140.24 47.7712 140.756 47.7712C141.486 47.7712 142.089 47.5937 142.567 47.2385C143.046 46.8882 143.285 46.3105 143.285 45.5056V43.4388H143.157C143.024 43.704 142.83 43.9762 142.575 44.2556C142.324 44.5349 141.99 44.7693 141.573 44.9587C141.161 45.1481 140.643 45.2428 140.018 45.2428C139.18 45.2428 138.42 45.0463 137.738 44.6533C137.061 44.2556 136.521 43.6637 136.119 42.8777C135.721 42.087 135.522 41.0974 135.522 39.909C135.522 38.7111 135.721 37.7002 136.119 36.8763C136.521 36.0477 137.063 35.4204 137.745 34.9942C138.427 34.5633 139.187 34.3479 140.025 34.3479C140.664 34.3479 141.19 34.4568 141.602 34.6746C142.018 34.8877 142.35 35.1457 142.596 35.4488C142.842 35.7471 143.029 36.0288 143.157 36.2939H143.299V34.49H145.835V45.5766C145.835 46.5094 145.612 47.2812 145.167 47.8919C144.722 48.5027 144.113 48.9597 143.342 49.2627C142.57 49.5657 141.694 49.7172 140.714 49.7172ZM140.735 43.2258C141.28 43.2258 141.744 43.0932 142.127 42.828C142.511 42.5629 142.802 42.1817 143.001 41.6846C143.2 41.1874 143.299 40.5908 143.299 39.8948C143.299 39.2082 143.2 38.6069 143.001 38.0908C142.807 37.5747 142.518 37.1746 142.134 36.8905C141.755 36.6017 141.289 36.4573 140.735 36.4573C140.162 36.4573 139.684 36.6064 139.3 36.9047C138.917 37.203 138.628 37.6126 138.434 38.1334C138.24 38.6495 138.143 39.2366 138.143 39.8948C138.143 40.5624 138.24 41.1472 138.434 41.649C138.633 42.1462 138.924 42.5345 139.308 42.8138C139.696 43.0884 140.172 43.2258 140.735 43.2258ZM158.878 34.49V36.4786H152.607V34.49H158.878ZM154.155 31.8763H156.726V42.1178C156.726 42.4634 156.778 42.7286 156.882 42.9133C156.991 43.0932 157.133 43.2163 157.308 43.2826C157.483 43.3489 157.678 43.382 157.891 43.382C158.052 43.382 158.198 43.3702 158.331 43.3465C158.468 43.3228 158.572 43.3015 158.643 43.2826L159.077 45.2925C158.939 45.3399 158.743 45.3919 158.487 45.4488C158.236 45.5056 157.929 45.5387 157.564 45.5482C156.92 45.5671 156.34 45.4701 155.824 45.257C155.308 45.0392 154.898 44.703 154.595 44.2485C154.297 43.7939 154.15 43.2258 154.155 42.5439V31.8763ZM163.833 39.007V45.399H161.262V30.8536H163.777V36.3436H163.904C164.16 35.7281 164.556 35.2428 165.091 34.8877C165.63 34.5278 166.317 34.3479 167.15 34.3479C167.908 34.3479 168.568 34.5065 169.132 34.8238C169.695 35.141 170.131 35.605 170.439 36.2158C170.751 36.8266 170.907 37.5723 170.907 38.453V45.399H168.336V38.8508C168.336 38.1169 168.147 37.5463 167.768 37.1391C167.394 36.7272 166.868 36.5212 166.191 36.5212C165.737 36.5212 165.33 36.6206 164.97 36.8195C164.615 37.0136 164.335 37.2954 164.132 37.6647C163.933 38.034 163.833 38.4814 163.833 39.007ZM178.358 45.6121C177.264 45.6121 176.319 45.3848 175.524 44.9303C174.733 44.471 174.125 43.8223 173.699 42.9843C173.272 42.1415 173.059 41.1495 173.059 40.0084C173.059 38.8863 173.272 37.9014 173.699 37.0539C174.129 36.2016 174.731 35.5387 175.502 35.0652C176.274 34.587 177.181 34.3479 178.223 34.3479C178.895 34.3479 179.529 34.4568 180.126 34.6746C180.727 34.8877 181.258 35.2191 181.717 35.6689C182.181 36.1187 182.546 36.6917 182.811 37.3877C183.076 38.079 183.208 38.9028 183.208 39.8593V40.6476H174.267V38.9147H180.744C180.739 38.4222 180.633 37.9843 180.424 37.6008C180.216 37.2125 179.925 36.9071 179.551 36.6846C179.181 36.462 178.751 36.3508 178.258 36.3508C177.733 36.3508 177.271 36.4786 176.873 36.7343C176.475 36.9852 176.165 37.3167 175.943 37.7286C175.725 38.1358 175.614 38.5832 175.609 39.0709V40.5837C175.609 41.2182 175.725 41.7627 175.957 42.2172C176.189 42.667 176.513 43.0127 176.93 43.2542C177.347 43.4909 177.834 43.6093 178.393 43.6093C178.767 43.6093 179.106 43.5572 179.409 43.453C179.712 43.3441 179.975 43.1855 180.197 42.9772C180.42 42.7688 180.588 42.5108 180.701 42.203L183.102 42.4729C182.95 43.1074 182.662 43.6614 182.235 44.1348C181.814 44.6036 181.274 44.9682 180.616 45.2286C179.958 45.4843 179.205 45.6121 178.358 45.6121ZM190.458 30.8536H193.683L198.001 41.3934H198.171L202.489 30.8536H205.714V45.399H203.185V35.4061H203.05L199.031 45.3564H197.141L193.121 35.3848H192.987V45.399H190.458V30.8536ZM213.299 45.6121C212.205 45.6121 211.261 45.3848 210.465 44.9303C209.674 44.471 209.066 43.8223 208.64 42.9843C208.214 42.1415 208.001 41.1495 208.001 40.0084C208.001 38.8863 208.214 37.9014 208.64 37.0539C209.071 36.2016 209.672 35.5387 210.444 35.0652C211.216 34.587 212.122 34.3479 213.164 34.3479C213.836 34.3479 214.471 34.4568 215.067 34.6746C215.669 34.8877 216.199 35.2191 216.658 35.6689C217.122 36.1187 217.487 36.6917 217.752 37.3877C218.017 38.079 218.15 38.9028 218.15 39.8593V40.6476H209.208V38.9147H215.685C215.681 38.4222 215.574 37.9843 215.366 37.6008C215.157 37.2125 214.866 36.9071 214.492 36.6846C214.123 36.462 213.692 36.3508 213.2 36.3508C212.674 36.3508 212.212 36.4786 211.815 36.7343C211.417 36.9852 211.107 37.3167 210.884 37.7286C210.666 38.1358 210.555 38.5832 210.55 39.0709V40.5837C210.55 41.2182 210.666 41.7627 210.898 42.2172C211.13 42.667 211.455 43.0127 211.871 43.2542C212.288 43.4909 212.776 43.6093 213.335 43.6093C213.709 43.6093 214.047 43.5572 214.35 43.453C214.653 43.3441 214.916 43.1855 215.138 42.9772C215.361 42.7688 215.529 42.5108 215.643 42.203L218.043 42.4729C217.892 43.1074 217.603 43.6614 217.177 44.1348C216.755 44.6036 216.216 44.9682 215.558 45.2286C214.899 45.4843 214.147 45.6121 213.299 45.6121ZM220.325 45.399V34.49H222.782V36.3436H222.91C223.137 35.7186 223.514 35.231 224.039 34.8806C224.565 34.5255 225.192 34.3479 225.922 34.3479C226.66 34.3479 227.283 34.5278 227.789 34.8877C228.301 35.2428 228.661 35.7281 228.869 36.3436H228.983C229.224 35.7376 229.631 35.2546 230.204 34.8948C230.782 34.5302 231.466 34.3479 232.257 34.3479C233.261 34.3479 234.08 34.6651 234.714 35.2996C235.349 35.9341 235.666 36.8597 235.666 38.0766V45.399H233.088V38.4743C233.088 37.7972 232.908 37.3025 232.548 36.99C232.188 36.6727 231.748 36.5141 231.227 36.5141C230.607 36.5141 230.121 36.7082 229.771 37.0965C229.425 37.48 229.252 37.9795 229.252 38.5951V45.399H226.731V38.3678C226.731 37.8044 226.561 37.3545 226.22 37.0184C225.884 36.6822 225.443 36.5141 224.899 36.5141C224.529 36.5141 224.193 36.6088 223.89 36.7982C223.587 36.9829 223.346 37.2456 223.166 37.5865C222.986 37.9227 222.896 38.3157 222.896 38.7655V45.399H220.325ZM238.388 45.399V30.8536H240.959V36.2939H241.065C241.198 36.0288 241.385 35.7471 241.626 35.4488C241.868 35.1457 242.195 34.8877 242.607 34.6746C243.018 34.4568 243.544 34.3479 244.183 34.3479C245.026 34.3479 245.786 34.5633 246.463 34.9942C247.145 35.4204 247.685 36.0525 248.082 36.8905C248.485 37.7239 248.686 38.7466 248.686 39.9587C248.686 41.1566 248.49 42.1746 248.097 43.0127C247.704 43.8508 247.169 44.49 246.491 44.9303C245.814 45.3706 245.047 45.5908 244.19 45.5908C243.565 45.5908 243.047 45.4866 242.635 45.2783C242.223 45.07 241.892 44.819 241.641 44.5255C241.394 44.2272 241.203 43.9454 241.065 43.6803H240.916V45.399H238.388ZM240.909 39.9445C240.909 40.65 241.009 41.2679 241.207 41.7982C241.411 42.3285 241.702 42.7428 242.081 43.0411C242.464 43.3347 242.929 43.4814 243.473 43.4814C244.041 43.4814 244.517 43.3299 244.901 43.0269C245.284 42.7191 245.573 42.3001 245.767 41.7698C245.966 41.2347 246.065 40.6263 246.065 39.9445C246.065 39.2674 245.968 38.6661 245.774 38.1405C245.58 37.615 245.291 37.203 244.908 36.9047C244.524 36.6064 244.046 36.4573 243.473 36.4573C242.924 36.4573 242.457 36.6017 242.074 36.8905C241.69 37.1794 241.399 37.5842 241.2 38.105C241.006 38.6258 240.909 39.239 240.909 39.9445ZM255.701 45.6121C254.608 45.6121 253.663 45.3848 252.868 44.9303C252.077 44.471 251.468 43.8223 251.042 42.9843C250.616 42.1415 250.403 41.1495 250.403 40.0084C250.403 38.8863 250.616 37.9014 251.042 37.0539C251.473 36.2016 252.074 35.5387 252.846 35.0652C253.618 34.587 254.525 34.3479 255.566 34.3479C256.239 34.3479 256.873 34.4568 257.47 34.6746C258.071 34.8877 258.601 35.2191 259.061 35.6689C259.525 36.1187 259.889 36.6917 260.154 37.3877C260.42 38.079 260.552 38.9028 260.552 39.8593V40.6476H251.61V38.9147H258.088C258.083 38.4222 257.976 37.9843 257.768 37.6008C257.56 37.2125 257.269 36.9071 256.895 36.6846C256.525 36.462 256.094 36.3508 255.602 36.3508C255.076 36.3508 254.615 36.4786 254.217 36.7343C253.819 36.9852 253.509 37.3167 253.287 37.7286C253.069 38.1358 252.958 38.5832 252.953 39.0709V40.5837C252.953 41.2182 253.069 41.7627 253.301 42.2172C253.533 42.667 253.857 43.0127 254.274 43.2542C254.69 43.4909 255.178 43.6093 255.737 43.6093C256.111 43.6093 256.449 43.5572 256.752 43.453C257.056 43.3441 257.318 43.1855 257.541 42.9772C257.763 42.7688 257.931 42.5108 258.045 42.203L260.446 42.4729C260.294 43.1074 260.005 43.6614 259.579 44.1348C259.158 44.6036 258.618 44.9682 257.96 45.2286C257.302 45.4843 256.549 45.6121 255.701 45.6121ZM262.727 45.399V34.49H265.22V36.3081H265.334C265.533 35.6784 265.874 35.1931 266.357 34.8522C266.844 34.5065 267.401 34.3337 268.026 34.3337C268.168 34.3337 268.326 34.3408 268.501 34.355C268.681 34.3645 268.83 34.3811 268.949 34.4047V36.7698C268.84 36.7319 268.667 36.6988 268.43 36.6704C268.198 36.6372 267.973 36.6206 267.756 36.6206C267.287 36.6206 266.866 36.7224 266.491 36.926C266.122 37.1249 265.831 37.4019 265.618 37.757C265.405 38.1121 265.298 38.5217 265.298 38.9857V45.399H262.727ZM279.279 37.3735L276.935 37.6292C276.869 37.3924 276.753 37.1699 276.587 36.9615C276.426 36.7532 276.209 36.5851 275.934 36.4573C275.659 36.3294 275.323 36.2655 274.925 36.2655C274.39 36.2655 273.941 36.3815 273.576 36.6135C273.216 36.8455 273.039 37.1462 273.043 37.5155C273.039 37.8328 273.155 38.0908 273.391 38.2897C273.633 38.4885 274.031 38.6519 274.585 38.7797L276.445 39.1775C277.478 39.4 278.245 39.7527 278.746 40.2357C279.253 40.7186 279.509 41.3508 279.513 42.132C279.509 42.8186 279.308 43.4246 278.91 43.9502C278.517 44.471 277.97 44.8782 277.269 45.1718C276.568 45.4653 275.763 45.6121 274.854 45.6121C273.519 45.6121 272.444 45.3328 271.63 44.774C270.816 44.2106 270.33 43.427 270.174 42.4232L272.681 42.1817C272.795 42.6741 273.036 43.0458 273.406 43.2968C273.775 43.5477 274.255 43.6732 274.847 43.6732C275.458 43.6732 275.948 43.5477 276.317 43.2968C276.692 43.0458 276.879 42.7357 276.879 42.3664C276.879 42.0539 276.758 41.7958 276.516 41.5922C276.28 41.3886 275.91 41.2324 275.408 41.1235L273.548 40.7329C272.501 40.5151 271.727 40.1481 271.225 39.632C270.723 39.1112 270.475 38.453 270.479 37.6576C270.475 36.9852 270.657 36.4028 271.026 35.9104C271.4 35.4133 271.919 35.0297 272.582 34.7598C273.249 34.4852 274.019 34.3479 274.89 34.3479C276.168 34.3479 277.174 34.6202 277.908 35.1647C278.647 35.7092 279.104 36.4454 279.279 37.3735ZM284.205 39.007V45.399H281.634V30.8536H284.148V36.3436H284.276C284.531 35.7281 284.927 35.2428 285.462 34.8877C286.001 34.5278 286.688 34.3479 287.521 34.3479C288.279 34.3479 288.939 34.5065 289.503 34.8238C290.066 35.141 290.502 35.605 290.81 36.2158C291.122 36.8266 291.278 37.5723 291.278 38.453V45.399H288.707V38.8508C288.707 38.1169 288.518 37.5463 288.139 37.1391C287.765 36.7272 287.24 36.5212 286.562 36.5212C286.108 36.5212 285.701 36.6206 285.341 36.8195C284.986 37.0136 284.706 37.2954 284.503 37.6647C284.304 38.034 284.205 38.4814 284.205 39.007ZM293.899 45.399V34.49H296.47V45.399H293.899ZM295.192 32.9417C294.785 32.9417 294.434 32.8067 294.141 32.5368C293.847 32.2622 293.7 31.9331 293.7 31.5496C293.7 31.1614 293.847 30.8323 294.141 30.5624C294.434 30.2878 294.785 30.1505 295.192 30.1505C295.604 30.1505 295.954 30.2878 296.243 30.5624C296.536 30.8323 296.683 31.1614 296.683 31.5496C296.683 31.9331 296.536 32.2622 296.243 32.5368C295.954 32.8067 295.604 32.9417 295.192 32.9417ZM299.114 49.49V34.49H301.642V36.2939H301.792C301.924 36.0288 302.111 35.7471 302.353 35.4488C302.594 35.1457 302.921 34.8877 303.333 34.6746C303.745 34.4568 304.27 34.3479 304.909 34.3479C305.752 34.3479 306.512 34.5633 307.189 34.9942C307.871 35.4204 308.411 36.0525 308.809 36.8905C309.211 37.7239 309.412 38.7466 309.412 39.9587C309.412 41.1566 309.216 42.1746 308.823 43.0127C308.43 43.8508 307.895 44.49 307.218 44.9303C306.541 45.3706 305.774 45.5908 304.917 45.5908C304.292 45.5908 303.773 45.4866 303.361 45.2783C302.949 45.07 302.618 44.819 302.367 44.5255C302.121 44.2272 301.929 43.9454 301.792 43.6803H301.685V49.49H299.114ZM301.635 39.9445C301.635 40.65 301.735 41.2679 301.934 41.7982C302.137 42.3285 302.428 42.7428 302.807 43.0411C303.191 43.3347 303.655 43.4814 304.199 43.4814C304.767 43.4814 305.243 43.3299 305.627 43.0269C306.01 42.7191 306.299 42.3001 306.493 41.7698C306.692 41.2347 306.792 40.6263 306.792 39.9445C306.792 39.2674 306.694 38.6661 306.5 38.1405C306.306 37.615 306.017 37.203 305.634 36.9047C305.25 36.6064 304.772 36.4573 304.199 36.4573C303.65 36.4573 303.184 36.6017 302.8 36.8905C302.417 37.1794 302.125 37.5842 301.926 38.105C301.732 38.6258 301.635 39.239 301.635 39.9445ZM77.2843 58.8536H80.5087L84.8269 69.3934H84.9973L89.3155 58.8536H92.54V73.399H90.0115V63.4061H89.8766L85.8567 73.3564H83.9675L79.9476 63.3848H79.8127V73.399H77.2843V58.8536ZM100.054 73.6121C98.9888 73.6121 98.0655 73.3777 97.2843 72.909C96.503 72.4402 95.897 71.7845 95.4661 70.9417C95.04 70.0989 94.8269 69.114 94.8269 67.9871C94.8269 66.8602 95.04 65.873 95.4661 65.0255C95.897 64.1779 96.503 63.5198 97.2843 63.051C98.0655 62.5823 98.9888 62.3479 100.054 62.3479C101.119 62.3479 102.043 62.5823 102.824 63.051C103.605 63.5198 104.209 64.1779 104.635 65.0255C105.066 65.873 105.281 66.8602 105.281 67.9871C105.281 69.114 105.066 70.0989 104.635 70.9417C104.209 71.7845 103.605 72.4402 102.824 72.909C102.043 73.3777 101.119 73.6121 100.054 73.6121ZM100.068 71.5525C100.646 71.5525 101.129 71.3938 101.517 71.0766C101.905 70.7546 102.194 70.3238 102.384 69.784C102.578 69.2442 102.675 68.6429 102.675 67.98C102.675 67.3124 102.578 66.7087 102.384 66.1689C102.194 65.6244 101.905 65.1912 101.517 64.8692C101.129 64.5472 100.646 64.3863 100.068 64.3863C99.4765 64.3863 98.9841 64.5472 98.5911 64.8692C98.2028 65.1912 97.9116 65.6244 97.7175 66.1689C97.5281 66.7087 97.4334 67.3124 97.4334 67.98C97.4334 68.6429 97.5281 69.2442 97.7175 69.784C97.9116 70.3238 98.2028 70.7546 98.5911 71.0766C98.9841 71.3938 99.4765 71.5525 100.068 71.5525ZM111.512 73.5908C110.655 73.5908 109.888 73.3706 109.211 72.9303C108.534 72.49 107.999 71.8508 107.606 71.0127C107.213 70.1746 107.016 69.1566 107.016 67.9587C107.016 66.7466 107.215 65.7239 107.613 64.8905C108.015 64.0525 108.557 63.4204 109.239 62.9942C109.921 62.5633 110.681 62.3479 111.519 62.3479C112.158 62.3479 112.684 62.4568 113.096 62.6746C113.508 62.8877 113.834 63.1457 114.076 63.4488C114.317 63.7471 114.504 64.0288 114.637 64.2939H114.743V58.8536H117.322V73.399H114.793V71.6803H114.637C114.504 71.9454 114.313 72.2272 114.062 72.5255C113.811 72.819 113.479 73.07 113.067 73.2783C112.655 73.4866 112.137 73.5908 111.512 73.5908ZM112.229 71.4814C112.774 71.4814 113.238 71.3347 113.621 71.0411C114.005 70.7428 114.296 70.3285 114.495 69.7982C114.694 69.2679 114.793 68.65 114.793 67.9445C114.793 67.239 114.694 66.6258 114.495 66.105C114.301 65.5842 114.012 65.1794 113.628 64.8905C113.25 64.6017 112.783 64.4573 112.229 64.4573C111.656 64.4573 111.178 64.6064 110.795 64.9047C110.411 65.203 110.122 65.615 109.928 66.1405C109.734 66.6661 109.637 67.2674 109.637 67.9445C109.637 68.6263 109.734 69.2347 109.928 69.7698C110.127 70.3001 110.418 70.7191 110.802 71.0269C111.19 71.3299 111.666 71.4814 112.229 71.4814ZM124.891 73.6121C123.797 73.6121 122.852 73.3848 122.057 72.9303C121.266 72.471 120.658 71.8223 120.232 70.9843C119.806 70.1415 119.593 69.1495 119.593 68.0084C119.593 66.8863 119.806 65.9014 120.232 65.0539C120.663 64.2016 121.264 63.5387 122.036 63.0652C122.807 62.587 123.714 62.3479 124.756 62.3479C125.428 62.3479 126.063 62.4568 126.659 62.6746C127.261 62.8877 127.791 63.2191 128.25 63.6689C128.714 64.1187 129.079 64.6917 129.344 65.3877C129.609 66.079 129.742 66.9028 129.742 67.8593V68.6476H120.8V66.9147H127.277C127.272 66.4222 127.166 65.9843 126.958 65.6008C126.749 65.2125 126.458 64.9071 126.084 64.6846C125.715 64.462 125.284 64.3508 124.791 64.3508C124.266 64.3508 123.804 64.4786 123.406 64.7343C123.009 64.9852 122.699 65.3167 122.476 65.7286C122.258 66.1358 122.147 66.5832 122.142 67.0709V68.5837C122.142 69.2182 122.258 69.7627 122.49 70.2172C122.722 70.667 123.047 71.0127 123.463 71.2542C123.88 71.4909 124.368 71.6093 124.926 71.6093C125.3 71.6093 125.639 71.5572 125.942 71.453C126.245 71.3441 126.508 71.1855 126.73 70.9772C126.953 70.7688 127.121 70.5108 127.235 70.203L129.635 70.4729C129.484 71.1074 129.195 71.6614 128.769 72.1348C128.347 72.6036 127.807 72.9682 127.149 73.2286C126.491 73.4843 125.738 73.6121 124.891 73.6121ZM134.488 58.8536V73.399H131.917V58.8536H134.488ZM144.344 73.399L141.262 62.49H143.882L145.8 70.1604H145.899L147.86 62.49H150.452L152.412 70.1178H152.519L154.408 62.49H157.036L153.946 73.399H151.269L149.223 66.0269H149.074L147.029 73.399H144.344ZM158.831 73.399V62.49H161.402V73.399H158.831ZM160.123 60.9417C159.716 60.9417 159.366 60.8067 159.072 60.5368C158.779 60.2622 158.632 59.9331 158.632 59.5496C158.632 59.1614 158.779 58.8323 159.072 58.5624C159.366 58.2878 159.716 58.1505 160.123 58.1505C160.535 58.1505 160.886 58.2878 161.175 58.5624C161.468 58.8323 161.615 59.1614 161.615 59.5496C161.615 59.9331 161.468 60.2622 161.175 60.5368C160.886 60.8067 160.535 60.9417 160.123 60.9417ZM169.493 62.49V64.4786H163.222V62.49H169.493ZM164.77 59.8763H167.341V70.1178C167.341 70.4634 167.393 70.7286 167.497 70.9133C167.606 71.0932 167.748 71.2163 167.923 71.2826C168.099 71.3489 168.293 71.382 168.506 71.382C168.667 71.382 168.814 71.3702 168.946 71.3465C169.084 71.3228 169.188 71.3015 169.259 71.2826L169.692 73.2925C169.555 73.3399 169.358 73.3919 169.102 73.4488C168.852 73.5056 168.544 73.5387 168.179 73.5482C167.535 73.5671 166.955 73.4701 166.439 73.257C165.923 73.0392 165.513 72.703 165.21 72.2485C164.912 71.7939 164.765 71.2258 164.77 70.5439V59.8763ZM174.449 67.007V73.399H171.878V58.8536H174.392V64.3436H174.52C174.775 63.7281 175.171 63.2428 175.706 62.8877C176.246 62.5278 176.932 62.3479 177.765 62.3479C178.523 62.3479 179.184 62.5065 179.747 62.8238C180.31 63.141 180.746 63.605 181.054 64.2158C181.366 64.8266 181.523 65.5723 181.523 66.453V73.399H178.952V66.8508C178.952 66.1169 178.762 65.5463 178.383 65.1391C178.009 64.7272 177.484 64.5212 176.807 64.5212C176.352 64.5212 175.945 64.6206 175.585 64.8195C175.23 65.0136 174.951 65.2954 174.747 65.6647C174.548 66.034 174.449 66.4814 174.449 67.007ZM188.579 61.0624V58.8536H200.184V61.0624H195.688V73.399H193.074V61.0624H188.579ZM201.175 73.399V62.49H203.667V64.3081H203.781C203.98 63.6784 204.321 63.1931 204.804 62.8522C205.291 62.5065 205.848 62.3337 206.473 62.3337C206.615 62.3337 206.773 62.3408 206.949 62.355C207.129 62.3645 207.278 62.3811 207.396 62.4047V64.7698C207.287 64.7319 207.114 64.6988 206.878 64.6704C206.646 64.6372 206.421 64.6206 206.203 64.6206C205.734 64.6206 205.313 64.7224 204.939 64.926C204.569 65.1249 204.278 65.4019 204.065 65.757C203.852 66.1121 203.746 66.5217 203.746 66.9857V73.399H201.175ZM209.104 73.399V62.49H211.675V73.399H209.104ZM210.397 60.9417C209.99 60.9417 209.639 60.8067 209.346 60.5368C209.052 60.2622 208.905 59.9331 208.905 59.5496C208.905 59.1614 209.052 58.8323 209.346 58.5624C209.639 58.2878 209.99 58.1505 210.397 58.1505C210.809 58.1505 211.159 58.2878 211.448 58.5624C211.742 58.8323 211.888 59.1614 211.888 59.5496C211.888 59.9331 211.742 60.2622 211.448 60.5368C211.159 60.8067 210.809 60.9417 210.397 60.9417ZM217.458 73.6192C216.767 73.6192 216.144 73.4961 215.59 73.2499C215.041 72.999 214.606 72.6296 214.284 72.1419C213.966 71.6543 213.808 71.0529 213.808 70.338C213.808 69.7224 213.921 69.2134 214.149 68.811C214.376 68.4085 214.686 68.0865 215.079 67.8451C215.472 67.6036 215.915 67.4213 216.407 67.2982C216.904 67.1704 217.418 67.078 217.948 67.0212C218.588 66.9549 219.106 66.8957 219.504 66.8436C219.901 66.7868 220.19 66.7016 220.37 66.588C220.555 66.4696 220.647 66.2873 220.647 66.0411V65.9985C220.647 65.4634 220.489 65.0491 220.171 64.7556C219.854 64.462 219.397 64.3152 218.801 64.3152C218.171 64.3152 217.671 64.4526 217.302 64.7272C216.937 65.0018 216.691 65.3261 216.563 65.7002L214.163 65.3593C214.352 64.6964 214.665 64.1424 215.1 63.6973C215.536 63.2475 216.069 62.9114 216.698 62.6888C217.328 62.4615 218.024 62.3479 218.786 62.3479C219.312 62.3479 219.835 62.4095 220.356 62.5326C220.877 62.6557 221.353 62.8593 221.784 63.1434C222.214 63.4227 222.56 63.8039 222.82 64.2868C223.086 64.7698 223.218 65.3735 223.218 66.0979V73.399H220.747V71.9005H220.661C220.505 72.2035 220.285 72.4876 220.001 72.7527C219.722 73.0132 219.369 73.2239 218.943 73.3848C218.521 73.5411 218.026 73.6192 217.458 73.6192ZM218.126 71.73C218.642 71.73 219.089 71.6282 219.468 71.4246C219.847 71.2163 220.138 70.9417 220.342 70.6008C220.55 70.2598 220.654 69.8882 220.654 69.4857V68.2002C220.574 68.2665 220.436 68.328 220.242 68.3848C220.053 68.4417 219.84 68.4914 219.603 68.534C219.366 68.5766 219.132 68.6145 218.9 68.6476C218.668 68.6808 218.467 68.7092 218.296 68.7329C217.913 68.7849 217.57 68.8702 217.267 68.9885C216.963 69.1069 216.724 69.2726 216.549 69.4857C216.374 69.694 216.286 69.9639 216.286 70.2954C216.286 70.7688 216.459 71.1263 216.805 71.3678C217.151 71.6093 217.591 71.73 218.126 71.73ZM231.251 62.49V64.4786H224.98V62.49H231.251ZM226.528 59.8763H229.099V70.1178C229.099 70.4634 229.151 70.7286 229.255 70.9133C229.364 71.0932 229.506 71.2163 229.681 71.2826C229.856 71.3489 230.051 71.382 230.264 71.382C230.425 71.382 230.571 71.3702 230.704 71.3465C230.841 71.3228 230.945 71.3015 231.017 71.2826L231.45 73.2925C231.312 73.3399 231.116 73.3919 230.86 73.4488C230.609 73.5056 230.302 73.5387 229.937 73.5482C229.293 73.5671 228.713 73.4701 228.197 73.257C227.681 73.0392 227.271 72.703 226.968 72.2485C226.67 71.7939 226.523 71.2258 226.528 70.5439V59.8763ZM236.206 67.007V73.399H233.635V58.8536H236.15V64.3436H236.278C236.533 63.7281 236.929 63.2428 237.464 62.8877C238.003 62.5278 238.69 62.3479 239.523 62.3479C240.281 62.3479 240.941 62.5065 241.505 62.8238C242.068 63.141 242.504 63.605 242.812 64.2158C243.124 64.8266 243.28 65.5723 243.28 66.453V73.399H240.709V66.8508C240.709 66.1169 240.52 65.5463 240.141 65.1391C239.767 64.7272 239.242 64.5212 238.564 64.5212C238.11 64.5212 237.703 64.6206 237.343 64.8195C236.988 65.0136 236.708 65.2954 236.505 65.6647C236.306 66.034 236.206 66.4814 236.206 67.007ZM248.472 58.8536V73.399H245.901V58.8536H248.472ZM255.874 73.6121C254.809 73.6121 253.886 73.3777 253.105 72.909C252.323 72.4402 251.717 71.7845 251.286 70.9417C250.86 70.0989 250.647 69.114 250.647 67.9871C250.647 66.8602 250.86 65.873 251.286 65.0255C251.717 64.1779 252.323 63.5198 253.105 63.051C253.886 62.5823 254.809 62.3479 255.874 62.3479C256.94 62.3479 257.863 62.5823 258.644 63.051C259.426 63.5198 260.029 64.1779 260.455 65.0255C260.886 65.873 261.102 66.8602 261.102 67.9871C261.102 69.114 260.886 70.0989 260.455 70.9417C260.029 71.7845 259.426 72.4402 258.644 72.909C257.863 73.3777 256.94 73.6121 255.874 73.6121ZM255.889 71.5525C256.466 71.5525 256.949 71.3938 257.338 71.0766C257.726 70.7546 258.015 70.3238 258.204 69.784C258.398 69.2442 258.495 68.6429 258.495 67.98C258.495 67.3124 258.398 66.7087 258.204 66.1689C258.015 65.6244 257.726 65.1912 257.338 64.8692C256.949 64.5472 256.466 64.3863 255.889 64.3863C255.297 64.3863 254.804 64.5472 254.411 64.8692C254.023 65.1912 253.732 65.6244 253.538 66.1689C253.348 66.7087 253.254 67.3124 253.254 67.98C253.254 68.6429 253.348 69.2442 253.538 69.784C253.732 70.3238 254.023 70.7546 254.411 71.0766C254.804 71.3938 255.297 71.5525 255.889 71.5525ZM265.855 67.007V73.399H263.284V62.49H265.741V64.3436H265.869C266.12 63.7329 266.52 63.2475 267.069 62.8877C267.623 62.5278 268.308 62.3479 269.122 62.3479C269.875 62.3479 270.531 62.5089 271.089 62.8309C271.653 63.1528 272.088 63.6192 272.396 64.23C272.709 64.8408 272.863 65.5818 272.858 66.453V73.399H270.287V66.8508C270.287 66.1216 270.097 65.551 269.719 65.1391C269.345 64.7272 268.826 64.5212 268.163 64.5212C267.713 64.5212 267.313 64.6206 266.963 64.8195C266.617 65.0136 266.345 65.2954 266.146 65.6647C265.952 66.034 265.855 66.4814 265.855 67.007ZM135.129 101.399H132.316L137.437 86.8536H140.69L145.818 101.399H143.005L139.12 89.8365H139.007L135.129 101.399ZM135.221 95.6959H142.892V97.8124H135.221V95.6959ZM154.573 96.811V90.49H157.144V101.399H154.651V99.4601H154.537C154.291 100.071 153.886 100.57 153.323 100.959C152.764 101.347 152.075 101.541 151.256 101.541C150.541 101.541 149.909 101.382 149.36 101.065C148.815 100.743 148.389 100.277 148.081 99.6661C147.774 99.0506 147.62 98.3072 147.62 97.436V90.49H150.191V97.0383C150.191 97.7295 150.38 98.2788 150.759 98.686C151.138 99.0932 151.635 99.2968 152.251 99.2968C152.629 99.2968 152.996 99.2044 153.351 99.0198C153.706 98.8351 153.998 98.5605 154.225 98.1959C154.457 97.8266 154.573 97.365 154.573 96.811ZM168.41 93.3735L166.066 93.6292C166 93.3924 165.884 93.1699 165.718 92.9615C165.557 92.7532 165.339 92.5851 165.065 92.4573C164.79 92.3294 164.454 92.2655 164.056 92.2655C163.521 92.2655 163.071 92.3815 162.707 92.6135C162.347 92.8455 162.169 93.1462 162.174 93.5155C162.169 93.8328 162.285 94.0908 162.522 94.2897C162.764 94.4885 163.161 94.6519 163.715 94.7797L165.576 95.1775C166.608 95.4 167.375 95.7527 167.877 96.2357C168.384 96.7186 168.64 97.3508 168.644 98.132C168.64 98.8186 168.438 99.4246 168.041 99.9502C167.648 100.471 167.101 100.878 166.4 101.172C165.699 101.465 164.894 101.612 163.985 101.612C162.65 101.612 161.575 101.333 160.761 100.774C159.946 100.211 159.461 99.427 159.305 98.4232L161.812 98.1817C161.926 98.6741 162.167 99.0458 162.536 99.2968C162.906 99.5477 163.386 99.6732 163.978 99.6732C164.589 99.6732 165.079 99.5477 165.448 99.2968C165.822 99.0458 166.009 98.7357 166.009 98.3664C166.009 98.0539 165.889 97.7958 165.647 97.5922C165.41 97.3886 165.041 97.2324 164.539 97.1235L162.678 96.7329C161.632 96.5151 160.858 96.1481 160.356 95.632C159.854 95.1112 159.606 94.453 159.61 93.6576C159.606 92.9852 159.788 92.4028 160.157 91.9104C160.531 91.4133 161.05 91.0297 161.713 90.7598C162.38 90.4852 163.15 90.3479 164.021 90.3479C165.299 90.3479 166.305 90.6202 167.039 91.1647C167.778 91.7092 168.235 92.4454 168.41 93.3735ZM176.212 90.49V92.4786H169.941V90.49H176.212ZM171.489 87.8763H174.06V98.1178C174.06 98.4634 174.112 98.7286 174.216 98.9133C174.325 99.0932 174.467 99.2163 174.642 99.2826C174.817 99.3489 175.012 99.382 175.225 99.382C175.386 99.382 175.532 99.3702 175.665 99.3465C175.802 99.3228 175.906 99.3015 175.977 99.2826L176.411 101.293C176.273 101.34 176.077 101.392 175.821 101.449C175.57 101.506 175.262 101.539 174.898 101.548C174.254 101.567 173.674 101.47 173.158 101.257C172.642 101.039 172.232 100.703 171.929 100.248C171.631 99.7939 171.484 99.2258 171.489 98.5439V87.8763ZM178.362 101.399V90.49H180.855V92.3081H180.969C181.167 91.6784 181.508 91.1931 181.991 90.8522C182.479 90.5065 183.035 90.3337 183.66 90.3337C183.802 90.3337 183.961 90.3408 184.136 90.355C184.316 90.3645 184.465 90.3811 184.584 90.4047V92.7698C184.475 92.7319 184.302 92.6988 184.065 92.6704C183.833 92.6372 183.608 92.6206 183.39 92.6206C182.922 92.6206 182.5 92.7224 182.126 92.926C181.757 93.1249 181.466 93.4019 181.253 93.757C181.04 94.1121 180.933 94.5217 180.933 94.9857V101.399H178.362ZM189.236 101.619C188.544 101.619 187.922 101.496 187.368 101.25C186.818 100.999 186.383 100.63 186.061 100.142C185.744 99.6543 185.585 99.0529 185.585 98.338C185.585 97.7224 185.699 97.2134 185.926 96.811C186.153 96.4085 186.463 96.0865 186.856 95.8451C187.249 95.6036 187.692 95.4213 188.184 95.2982C188.682 95.1704 189.195 95.078 189.726 95.0212C190.365 94.9549 190.883 94.8957 191.281 94.8436C191.679 94.7868 191.968 94.7016 192.148 94.588C192.332 94.4696 192.425 94.2873 192.425 94.0411V93.9985C192.425 93.4634 192.266 93.0491 191.949 92.7556C191.631 92.462 191.175 92.3152 190.578 92.3152C189.948 92.3152 189.449 92.4526 189.079 92.7272C188.715 93.0018 188.469 93.3261 188.341 93.7002L185.94 93.3593C186.13 92.6964 186.442 92.1424 186.878 91.6973C187.313 91.2475 187.846 90.9114 188.476 90.6888C189.105 90.4615 189.801 90.3479 190.564 90.3479C191.089 90.3479 191.613 90.4095 192.133 90.5326C192.654 90.6557 193.13 90.8593 193.561 91.1434C193.992 91.4227 194.337 91.8039 194.598 92.2868C194.863 92.7698 194.996 93.3735 194.996 94.0979V101.399H192.524V99.9005H192.439C192.282 100.203 192.062 100.488 191.778 100.753C191.499 101.013 191.146 101.224 190.72 101.385C190.299 101.541 189.804 101.619 189.236 101.619ZM189.903 99.73C190.419 99.73 190.867 99.6282 191.246 99.4246C191.624 99.2163 191.916 98.9417 192.119 98.6008C192.327 98.2598 192.432 97.8882 192.432 97.4857V96.2002C192.351 96.2665 192.214 96.328 192.02 96.3848C191.83 96.4417 191.617 96.4914 191.381 96.534C191.144 96.5766 190.909 96.6145 190.677 96.6476C190.445 96.6808 190.244 96.7092 190.074 96.7329C189.69 96.7849 189.347 96.8702 189.044 96.9885C188.741 97.1069 188.502 97.2726 188.327 97.4857C188.151 97.694 188.064 97.9639 188.064 98.2954C188.064 98.7688 188.237 99.1263 188.582 99.3678C188.928 99.6093 189.368 99.73 189.903 99.73ZM200.152 86.8536V101.399H197.581V86.8536H200.152ZM202.796 101.399V90.49H205.367V101.399H202.796ZM204.088 88.9417C203.681 88.9417 203.331 88.8067 203.037 88.5368C202.744 88.2622 202.597 87.9331 202.597 87.5496C202.597 87.1614 202.744 86.8323 203.037 86.5624C203.331 86.2878 203.681 86.1505 204.088 86.1505C204.5 86.1505 204.851 86.2878 205.139 86.5624C205.433 86.8323 205.58 87.1614 205.58 87.5496C205.58 87.9331 205.433 88.2622 205.139 88.5368C204.851 88.8067 204.5 88.9417 204.088 88.9417ZM211.15 101.619C210.458 101.619 209.836 101.496 209.282 101.25C208.733 100.999 208.297 100.63 207.975 100.142C207.658 99.6543 207.499 99.0529 207.499 98.338C207.499 97.7224 207.613 97.2134 207.84 96.811C208.067 96.4085 208.377 96.0865 208.77 95.8451C209.163 95.6036 209.606 95.4213 210.099 95.2982C210.596 95.1704 211.109 95.078 211.64 95.0212C212.279 94.9549 212.797 94.8957 213.195 94.8436C213.593 94.7868 213.882 94.7016 214.062 94.588C214.246 94.4696 214.339 94.2873 214.339 94.0411V93.9985C214.339 93.4634 214.18 93.0491 213.863 92.7556C213.546 92.462 213.089 92.3152 212.492 92.3152C211.862 92.3152 211.363 92.4526 210.993 92.7272C210.629 93.0018 210.383 93.3261 210.255 93.7002L207.854 93.3593C208.044 92.6964 208.356 92.1424 208.792 91.6973C209.227 91.2475 209.76 90.9114 210.39 90.6888C211.019 90.4615 211.715 90.3479 212.478 90.3479C213.003 90.3479 213.527 90.4095 214.047 90.5326C214.568 90.6557 215.044 90.8593 215.475 91.1434C215.906 91.4227 216.251 91.8039 216.512 92.2868C216.777 92.7698 216.91 93.3735 216.91 94.0979V101.399H214.438V99.9005H214.353C214.197 100.203 213.976 100.488 213.692 100.753C213.413 101.013 213.06 101.224 212.634 101.385C212.213 101.541 211.718 101.619 211.15 101.619ZM211.817 99.73C212.333 99.73 212.781 99.6282 213.16 99.4246C213.538 99.2163 213.83 98.9417 214.033 98.6008C214.242 98.2598 214.346 97.8882 214.346 97.4857V96.2002C214.265 96.2665 214.128 96.328 213.934 96.3848C213.744 96.4417 213.531 96.4914 213.295 96.534C213.058 96.5766 212.823 96.6145 212.591 96.6476C212.359 96.6808 212.158 96.7092 211.988 96.7329C211.604 96.7849 211.261 96.8702 210.958 96.9885C210.655 97.1069 210.416 97.2726 210.241 97.4857C210.065 97.694 209.978 97.9639 209.978 98.2954C209.978 98.7688 210.151 99.1263 210.496 99.3678C210.842 99.6093 211.282 99.73 211.817 99.73Z" fill="#717171"/>
<path d="M110.935 153.399V138.854H116.389C117.507 138.854 118.444 139.048 119.202 139.436C119.964 139.824 120.539 140.369 120.928 141.07C121.321 141.766 121.517 142.578 121.517 143.506C121.517 144.438 121.318 145.248 120.92 145.935C120.527 146.616 119.947 147.144 119.18 147.518C118.413 147.888 117.471 148.072 116.354 148.072H112.469V145.885H115.999C116.652 145.885 117.187 145.795 117.604 145.615C118.02 145.43 118.328 145.163 118.527 144.812C118.731 144.457 118.832 144.022 118.832 143.506C118.832 142.989 118.731 142.549 118.527 142.185C118.323 141.815 118.013 141.536 117.597 141.346C117.18 141.152 116.643 141.055 115.984 141.055H113.57V153.399H110.935ZM118.449 146.808L122.05 153.399H119.109L115.572 146.808H118.449ZM128.502 153.612C127.408 153.612 126.464 153.385 125.668 152.93C124.878 152.471 124.269 151.822 123.843 150.984C123.417 150.141 123.204 149.15 123.204 148.008C123.204 146.886 123.417 145.901 123.843 145.054C124.274 144.202 124.875 143.539 125.647 143.065C126.419 142.587 127.326 142.348 128.367 142.348C129.04 142.348 129.674 142.457 130.271 142.675C130.872 142.888 131.402 143.219 131.862 143.669C132.326 144.119 132.69 144.692 132.955 145.388C133.22 146.079 133.353 146.903 133.353 147.859V148.648H124.411V146.915H130.888C130.884 146.422 130.777 145.984 130.569 145.601C130.361 145.212 130.069 144.907 129.695 144.685C129.326 144.462 128.895 144.351 128.403 144.351C127.877 144.351 127.415 144.479 127.018 144.734C126.62 144.985 126.31 145.317 126.087 145.729C125.87 146.136 125.758 146.583 125.754 147.071V148.584C125.754 149.218 125.87 149.763 126.102 150.217C126.334 150.667 126.658 151.013 127.075 151.254C127.491 151.491 127.979 151.609 128.538 151.609C128.912 151.609 129.25 151.557 129.553 151.453C129.856 151.344 130.119 151.186 130.342 150.977C130.564 150.769 130.732 150.511 130.846 150.203L133.246 150.473C133.095 151.107 132.806 151.661 132.38 152.135C131.959 152.604 131.419 152.968 130.761 153.229C130.103 153.484 129.35 153.612 128.502 153.612ZM138.667 153.619C137.976 153.619 137.353 153.496 136.799 153.25C136.25 152.999 135.815 152.63 135.493 152.142C135.175 151.654 135.017 151.053 135.017 150.338C135.017 149.722 135.13 149.213 135.358 148.811C135.585 148.409 135.895 148.087 136.288 147.845C136.681 147.604 137.124 147.421 137.616 147.298C138.113 147.17 138.627 147.078 139.157 147.021C139.797 146.955 140.315 146.896 140.713 146.844C141.11 146.787 141.399 146.702 141.579 146.588C141.764 146.47 141.856 146.287 141.856 146.041V145.998C141.856 145.463 141.698 145.049 141.38 144.756C141.063 144.462 140.606 144.315 140.01 144.315C139.38 144.315 138.88 144.453 138.511 144.727C138.146 145.002 137.9 145.326 137.772 145.7L135.372 145.359C135.561 144.696 135.874 144.142 136.309 143.697C136.745 143.248 137.278 142.911 137.907 142.689C138.537 142.462 139.233 142.348 139.995 142.348C140.521 142.348 141.044 142.409 141.565 142.533C142.086 142.656 142.562 142.859 142.993 143.143C143.423 143.423 143.769 143.804 144.029 144.287C144.295 144.77 144.427 145.373 144.427 146.098V153.399H141.956V151.9H141.87C141.714 152.203 141.494 152.488 141.21 152.753C140.931 153.013 140.578 153.224 140.152 153.385C139.73 153.541 139.235 153.619 138.667 153.619ZM139.335 151.73C139.851 151.73 140.298 151.628 140.677 151.425C141.056 151.216 141.347 150.942 141.551 150.601C141.759 150.26 141.863 149.888 141.863 149.486V148.2C141.783 148.266 141.645 148.328 141.451 148.385C141.262 148.442 141.049 148.491 140.812 148.534C140.575 148.577 140.341 148.614 140.109 148.648C139.877 148.681 139.676 148.709 139.505 148.733C139.122 148.785 138.779 148.87 138.475 148.989C138.172 149.107 137.933 149.273 137.758 149.486C137.583 149.694 137.495 149.964 137.495 150.295C137.495 150.769 137.668 151.126 138.014 151.368C138.359 151.609 138.8 151.73 139.335 151.73ZM151.061 153.591C150.204 153.591 149.437 153.371 148.76 152.93C148.083 152.49 147.547 151.851 147.154 151.013C146.761 150.175 146.565 149.157 146.565 147.959C146.565 146.747 146.764 145.724 147.162 144.891C147.564 144.052 148.106 143.42 148.788 142.994C149.47 142.563 150.23 142.348 151.068 142.348C151.707 142.348 152.233 142.457 152.645 142.675C153.056 142.888 153.383 143.146 153.625 143.449C153.866 143.747 154.053 144.029 154.186 144.294H154.292V138.854H156.87V153.399H154.342V151.68H154.186C154.053 151.945 153.861 152.227 153.61 152.525C153.359 152.819 153.028 153.07 152.616 153.278C152.204 153.487 151.686 153.591 151.061 153.591ZM151.778 151.481C152.323 151.481 152.787 151.335 153.17 151.041C153.554 150.743 153.845 150.328 154.044 149.798C154.243 149.268 154.342 148.65 154.342 147.945C154.342 147.239 154.243 146.626 154.044 146.105C153.85 145.584 153.561 145.179 153.177 144.891C152.798 144.602 152.332 144.457 151.778 144.457C151.205 144.457 150.727 144.606 150.343 144.905C149.96 145.203 149.671 145.615 149.477 146.141C149.283 146.666 149.186 147.267 149.186 147.945C149.186 148.626 149.283 149.235 149.477 149.77C149.676 150.3 149.967 150.719 150.35 151.027C150.739 151.33 151.215 151.481 151.778 151.481ZM159.61 153.399V142.49H162.067V144.344H162.195C162.423 143.719 162.799 143.231 163.325 142.881C163.85 142.525 164.478 142.348 165.207 142.348C165.945 142.348 166.568 142.528 167.075 142.888C167.586 143.243 167.946 143.728 168.154 144.344H168.268C168.509 143.738 168.916 143.255 169.489 142.895C170.067 142.53 170.751 142.348 171.542 142.348C172.546 142.348 173.365 142.665 173.999 143.3C174.634 143.934 174.951 144.86 174.951 146.077V153.399H172.373V146.474C172.373 145.797 172.193 145.302 171.833 144.99C171.473 144.673 171.033 144.514 170.512 144.514C169.892 144.514 169.406 144.708 169.056 145.096C168.71 145.48 168.538 145.98 168.538 146.595V153.399H166.016V146.368C166.016 145.804 165.846 145.355 165.505 145.018C165.169 144.682 164.728 144.514 164.184 144.514C163.815 144.514 163.478 144.609 163.175 144.798C162.872 144.983 162.631 145.246 162.451 145.587C162.271 145.923 162.181 146.316 162.181 146.766V153.399H159.61ZM182.318 153.612C181.252 153.612 180.329 153.378 179.548 152.909C178.767 152.44 178.161 151.784 177.73 150.942C177.304 150.099 177.091 149.114 177.091 147.987C177.091 146.86 177.304 145.873 177.73 145.025C178.161 144.178 178.767 143.52 179.548 143.051C180.329 142.582 181.252 142.348 182.318 142.348C183.383 142.348 184.306 142.582 185.088 143.051C185.869 143.52 186.473 144.178 186.899 145.025C187.33 145.873 187.545 146.86 187.545 147.987C187.545 149.114 187.33 150.099 186.899 150.942C186.473 151.784 185.869 152.44 185.088 152.909C184.306 153.378 183.383 153.612 182.318 153.612ZM182.332 151.552C182.91 151.552 183.393 151.394 183.781 151.077C184.169 150.755 184.458 150.324 184.647 149.784C184.842 149.244 184.939 148.643 184.939 147.98C184.939 147.312 184.842 146.709 184.647 146.169C184.458 145.624 184.169 145.191 183.781 144.869C183.393 144.547 182.91 144.386 182.332 144.386C181.74 144.386 181.248 144.547 180.855 144.869C180.467 145.191 180.175 145.624 179.981 146.169C179.792 146.709 179.697 147.312 179.697 147.98C179.697 148.643 179.792 149.244 179.981 149.784C180.175 150.324 180.467 150.755 180.855 151.077C181.248 151.394 181.74 151.552 182.332 151.552ZM189.727 153.399V142.49H192.22V144.308H192.334C192.533 143.678 192.874 143.193 193.357 142.852C193.844 142.507 194.401 142.334 195.026 142.334C195.168 142.334 195.326 142.341 195.501 142.355C195.681 142.364 195.83 142.381 195.949 142.405V144.77C195.84 144.732 195.667 144.699 195.43 144.67C195.198 144.637 194.973 144.621 194.756 144.621C194.287 144.621 193.866 144.722 193.491 144.926C193.122 145.125 192.831 145.402 192.618 145.757C192.405 146.112 192.298 146.522 192.298 146.986V153.399H189.727ZM202.037 153.612C200.944 153.612 199.999 153.385 199.203 152.93C198.413 152.471 197.804 151.822 197.378 150.984C196.952 150.141 196.739 149.15 196.739 148.008C196.739 146.886 196.952 145.901 197.378 145.054C197.809 144.202 198.41 143.539 199.182 143.065C199.954 142.587 200.861 142.348 201.902 142.348C202.575 142.348 203.209 142.457 203.806 142.675C204.407 142.888 204.937 143.219 205.397 143.669C205.861 144.119 206.225 144.692 206.49 145.388C206.756 146.079 206.888 146.903 206.888 147.859V148.648H197.946V146.915H204.424C204.419 146.422 204.312 145.984 204.104 145.601C203.896 145.212 203.605 144.907 203.23 144.685C202.861 144.462 202.43 144.351 201.938 144.351C201.412 144.351 200.951 144.479 200.553 144.734C200.155 144.985 199.845 145.317 199.623 145.729C199.405 146.136 199.293 146.583 199.289 147.071V148.584C199.289 149.218 199.405 149.763 199.637 150.217C199.869 150.667 200.193 151.013 200.61 151.254C201.026 151.491 201.514 151.609 202.073 151.609C202.447 151.609 202.785 151.557 203.088 151.453C203.391 151.344 203.654 151.186 203.877 150.977C204.099 150.769 204.267 150.511 204.381 150.203L206.782 150.473C206.63 151.107 206.341 151.661 205.915 152.135C205.494 152.604 204.954 152.968 204.296 153.229C203.638 153.484 202.885 153.612 202.037 153.612Z" fill="#4CAF4F"/>
<path d="M232.5 150.399L235.793 147.106C236.183 146.716 236.183 146.082 235.793 145.692L232.5 142.399M235.5 146.399L221.5 146.399" stroke="#4CAF4F" stroke-width="1.5" stroke-linecap="round"/>
</g>
<defs>
<filter id="filter0_d_22_883" x="0.5" y="0.399048" width="349" height="208" filterUnits="userSpaceOnUse" color-interpolation-filters="sRGB">
<feFlood flood-opacity="0" result="BackgroundImageFix"/>
<feColorMatrix in="SourceAlpha" type="matrix" values="0 0 0 0 0 0 0 0 0 0 0 0 0 0 0 0 0 0 127 0" result="hardAlpha"/>
<feOffset dy="8"/>
<feGaussianBlur stdDeviation="8"/>
<feComposite in2="hardAlpha" operator="out"/>
<feColorMatrix type="matrix" values="0 0 0 0 0.670588 0 0 0 0 0.745098 0 0 0 0 0.819608 0 0 0 0.4 0"/>
<feBlend mode="normal" in2="BackgroundImageFix" result="effect1_dropShadow_22_883"/>
<feBlend mode="normal" in="SourceGraphic" in2="effect1_dropShadow_22_883" result="shape"/>
</filter>
</defs>
</svg>
