<svg width="350" height="209" viewBox="0 0 350 209" fill="none" xmlns="http://www.w3.org/2000/svg">
<g filter="url(#filter0_d_22_892)">
<rect x="16.5" y="8.39905" width="317" height="176" rx="8" fill="#F5F7FA" shape-rendering="crispEdges"/>
<path d="M45.4039 45.399L41.2988 30.8536H44.1326L46.7534 41.5425H46.8883L49.6866 30.8536H52.2647L55.0701 41.5496H55.198L57.8187 30.8536H60.6525L56.5474 45.399H53.948L51.036 35.1931H50.9224L48.0034 45.399H45.4039ZM64.937 39.007V45.399H62.3659V30.8536H64.8801V36.3436H65.008C65.2637 35.7281 65.659 35.2428 66.1941 34.8877C66.7338 34.5278 67.4204 34.3479 68.2537 34.3479C69.0113 34.3479 69.6718 34.5065 70.2353 34.8238C70.7987 35.141 71.2343 35.605 71.5421 36.2158C71.8546 36.8266 72.0108 37.5723 72.0108 38.453V45.399H69.4398V38.8508C69.4398 38.1169 69.2504 37.5463 68.8716 37.1391C68.4976 36.7272 67.972 36.5212 67.2949 36.5212C66.8404 36.5212 66.4332 36.6206 66.0733 36.8195C65.7182 37.0136 65.4389 37.2954 65.2353 37.6647C65.0364 38.034 64.937 38.4814 64.937 39.007ZM77.7708 45.6192C77.0795 45.6192 76.4569 45.4961 75.9029 45.2499C75.3536 44.999 74.918 44.6296 74.5961 44.1419C74.2788 43.6543 74.1202 43.0529 74.1202 42.338C74.1202 41.7224 74.2338 41.2134 74.4611 40.811C74.6884 40.4085 74.9985 40.0865 75.3915 39.8451C75.7845 39.6036 76.2272 39.4213 76.7196 39.2982C77.2168 39.1704 77.7305 39.078 78.2608 39.0212C78.9 38.9549 79.4185 38.8957 79.8162 38.8436C80.214 38.7868 80.5028 38.7016 80.6827 38.588C80.8674 38.4696 80.9597 38.2873 80.9597 38.0411V37.9985C80.9597 37.4634 80.8011 37.0491 80.4838 36.7556C80.1666 36.462 79.7097 36.3152 79.1131 36.3152C78.4834 36.3152 77.9838 36.4526 77.6145 36.7272C77.2499 37.0018 77.0037 37.3261 76.8759 37.7002L74.4753 37.3593C74.6647 36.6964 74.9772 36.1424 75.4128 35.6973C75.8484 35.2475 76.3811 34.9114 77.0108 34.6888C77.6406 34.4615 78.3366 34.3479 79.0989 34.3479C79.6245 34.3479 80.1477 34.4095 80.6685 34.5326C81.1893 34.6557 81.6652 34.8593 82.0961 35.1434C82.5269 35.4227 82.8726 35.8039 83.133 36.2868C83.3981 36.7698 83.5307 37.3735 83.5307 38.0979V45.399H81.0591V43.9005H80.9739C80.8176 44.2035 80.5975 44.4876 80.3134 44.7527C80.034 45.0132 79.6813 45.2239 79.2551 45.3848C78.8337 45.5411 78.339 45.6192 77.7708 45.6192ZM78.4384 43.73C78.9545 43.73 79.4019 43.6282 79.7807 43.4246C80.1595 43.2163 80.4507 42.9417 80.6543 42.6008C80.8626 42.2598 80.9668 41.8882 80.9668 41.4857V40.2002C80.8863 40.2665 80.749 40.328 80.5549 40.3848C80.3655 40.4417 80.1524 40.4914 79.9157 40.534C79.6789 40.5766 79.4445 40.6145 79.2125 40.6476C78.9805 40.6808 78.7793 40.7092 78.6088 40.7329C78.2253 40.7849 77.882 40.8702 77.579 40.9885C77.276 41.1069 77.0369 41.2726 76.8617 41.4857C76.6865 41.694 76.5989 41.9639 76.5989 42.2954C76.5989 42.7688 76.7717 43.1263 77.1174 43.3678C77.463 43.6093 77.9034 43.73 78.4384 43.73ZM91.5634 34.49V36.4786H85.2921V34.49H91.5634ZM86.8404 31.8763H89.4114V42.1178C89.4114 42.4634 89.4635 42.7286 89.5676 42.9133C89.6766 43.0932 89.8186 43.2163 89.9938 43.2826C90.169 43.3489 90.3631 43.382 90.5762 43.382C90.7372 43.382 90.8839 43.3702 91.0165 43.3465C91.1538 43.3228 91.258 43.3015 91.329 43.2826L91.7623 45.2925C91.6249 45.3399 91.4284 45.3919 91.1728 45.4488C90.9218 45.5056 90.6141 45.5387 90.2495 45.5482C89.6055 45.5671 89.0255 45.4701 88.5094 45.257C87.9933 45.0392 87.5837 44.703 87.2807 44.2485C86.9824 43.7939 86.8356 43.2258 86.8404 42.5439V31.8763ZM101.814 45.6192C101.122 45.6192 100.5 45.4961 99.9458 45.2499C99.3966 44.999 98.961 44.6296 98.639 44.1419C98.3218 43.6543 98.1632 43.0529 98.1632 42.338C98.1632 41.7224 98.2768 41.2134 98.5041 40.811C98.7314 40.4085 99.0415 40.0865 99.4345 39.8451C99.8275 39.6036 100.27 39.4213 100.763 39.2982C101.26 39.1704 101.773 39.078 102.304 39.0212C102.943 38.9549 103.461 38.8957 103.859 38.8436C104.257 38.7868 104.546 38.7016 104.726 38.588C104.91 38.4696 105.003 38.2873 105.003 38.0411V37.9985C105.003 37.4634 104.844 37.0491 104.527 36.7556C104.21 36.462 103.753 36.3152 103.156 36.3152C102.526 36.3152 102.027 36.4526 101.657 36.7272C101.293 37.0018 101.047 37.3261 100.919 37.7002L98.5183 37.3593C98.7077 36.6964 99.0202 36.1424 99.4558 35.6973C99.8914 35.2475 100.424 34.9114 101.054 34.6888C101.684 34.4615 102.38 34.3479 103.142 34.3479C103.667 34.3479 104.191 34.4095 104.711 34.5326C105.232 34.6557 105.708 34.8593 106.139 35.1434C106.57 35.4227 106.916 35.8039 107.176 36.2868C107.441 36.7698 107.574 37.3735 107.574 38.0979V45.399H105.102V43.9005H105.017C104.861 44.2035 104.64 44.4876 104.356 44.7527C104.077 45.0132 103.724 45.2239 103.298 45.3848C102.877 45.5411 102.382 45.6192 101.814 45.6192ZM102.481 43.73C102.997 43.73 103.445 43.6282 103.824 43.4246C104.202 43.2163 104.494 42.9417 104.697 42.6008C104.906 42.2598 105.01 41.8882 105.01 41.4857V40.2002C104.929 40.2665 104.792 40.328 104.598 40.3848C104.408 40.4417 104.195 40.4914 103.959 40.534C103.722 40.5766 103.488 40.6145 103.256 40.6476C103.023 40.6808 102.822 40.7092 102.652 40.7329C102.268 40.7849 101.925 40.8702 101.622 40.9885C101.319 41.1069 101.08 41.2726 100.905 41.4857C100.729 41.694 100.642 41.9639 100.642 42.2954C100.642 42.7688 100.815 43.1263 101.16 43.3678C101.506 43.6093 101.946 43.73 102.481 43.73ZM110.159 45.399V34.49H112.652V36.3081H112.765C112.964 35.6784 113.305 35.1931 113.788 34.8522C114.276 34.5065 114.832 34.3337 115.457 34.3337C115.599 34.3337 115.758 34.3408 115.933 34.355C116.113 34.3645 116.262 34.3811 116.381 34.4047V36.7698C116.272 36.7319 116.099 36.6988 115.862 36.6704C115.63 36.6372 115.405 36.6206 115.187 36.6206C114.719 36.6206 114.297 36.7224 113.923 36.926C113.554 37.1249 113.263 37.4019 113.05 37.757C112.836 38.1121 112.73 38.5217 112.73 38.9857V45.399H110.159ZM122.469 45.6121C121.375 45.6121 120.431 45.3848 119.635 44.9303C118.844 44.471 118.236 43.8223 117.81 42.9843C117.384 42.1415 117.171 41.1495 117.171 40.0084C117.171 38.8863 117.384 37.9014 117.81 37.0539C118.241 36.2016 118.842 35.5387 119.614 35.0652C120.386 34.587 121.292 34.3479 122.334 34.3479C123.006 34.3479 123.641 34.4568 124.237 34.6746C124.839 34.8877 125.369 35.2191 125.828 35.6689C126.292 36.1187 126.657 36.6917 126.922 37.3877C127.187 38.079 127.32 38.9028 127.32 39.8593V40.6476H118.378V38.9147H124.855C124.851 38.4222 124.744 37.9843 124.536 37.6008C124.327 37.2125 124.036 36.9071 123.662 36.6846C123.293 36.462 122.862 36.3508 122.369 36.3508C121.844 36.3508 121.382 36.4786 120.985 36.7343C120.587 36.9852 120.277 37.3167 120.054 37.7286C119.836 38.1358 119.725 38.5832 119.72 39.0709V40.5837C119.72 41.2182 119.836 41.7627 120.068 42.2172C120.3 42.667 120.625 43.0127 121.041 43.2542C121.458 43.4909 121.946 43.6093 122.504 43.6093C122.878 43.6093 123.217 43.5572 123.52 43.453C123.823 43.3441 124.086 43.1855 124.308 42.9772C124.531 42.7688 124.699 42.5108 124.813 42.203L127.213 42.4729C127.062 43.1074 126.773 43.6614 126.347 44.1348C125.925 44.6036 125.386 44.9682 124.727 45.2286C124.069 45.4843 123.316 45.6121 122.469 45.6121ZM136.054 49.49C135.703 49.49 135.379 49.4615 135.081 49.4047C134.787 49.3526 134.553 49.2911 134.378 49.2201L134.974 47.2172C135.348 47.3261 135.682 47.3782 135.976 47.3735C136.269 47.3687 136.527 47.2764 136.75 47.0965C136.977 46.9213 137.169 46.6277 137.325 46.2158L137.545 45.6263L133.589 34.49H136.317L138.831 42.7286H138.944L141.466 34.49H144.2L139.832 46.7201C139.629 47.2977 139.359 47.7925 139.023 48.2044C138.686 48.6211 138.274 48.9383 137.787 49.1562C137.304 49.3787 136.726 49.49 136.054 49.49ZM150.367 45.6121C149.301 45.6121 148.378 45.3777 147.597 44.909C146.816 44.4402 146.209 43.7845 145.779 42.9417C145.352 42.0989 145.139 41.114 145.139 39.9871C145.139 38.8602 145.352 37.873 145.779 37.0255C146.209 36.1779 146.816 35.5198 147.597 35.051C148.378 34.5823 149.301 34.3479 150.367 34.3479C151.432 34.3479 152.355 34.5823 153.137 35.051C153.918 35.5198 154.521 36.1779 154.948 37.0255C155.378 37.873 155.594 38.8602 155.594 39.9871C155.594 41.114 155.378 42.0989 154.948 42.9417C154.521 43.7845 153.918 44.4402 153.137 44.909C152.355 45.3777 151.432 45.6121 150.367 45.6121ZM150.381 43.5525C150.959 43.5525 151.441 43.3938 151.83 43.0766C152.218 42.7546 152.507 42.3238 152.696 41.784C152.89 41.2442 152.987 40.6429 152.987 39.98C152.987 39.3124 152.89 38.7087 152.696 38.1689C152.507 37.6244 152.218 37.1912 151.83 36.8692C151.441 36.5472 150.959 36.3863 150.381 36.3863C149.789 36.3863 149.297 36.5472 148.904 36.8692C148.515 37.1912 148.224 37.6244 148.03 38.1689C147.841 38.7087 147.746 39.3124 147.746 39.98C147.746 40.6429 147.841 41.2442 148.03 41.784C148.224 42.3238 148.515 42.7546 148.904 43.0766C149.297 43.3938 149.789 43.5525 150.381 43.5525ZM164.729 40.811V34.49H167.3V45.399H164.807V43.4601H164.694C164.448 44.0709 164.043 44.5704 163.479 44.9587C162.921 45.347 162.232 45.5411 161.412 45.5411C160.698 45.5411 160.065 45.3825 159.516 45.0652C158.972 44.7433 158.546 44.2769 158.238 43.6661C157.93 43.0506 157.776 42.3072 157.776 41.436V34.49H160.347V41.0383C160.347 41.7295 160.537 42.2788 160.915 42.686C161.294 43.0932 161.791 43.2968 162.407 43.2968C162.786 43.2968 163.153 43.2044 163.508 43.0198C163.863 42.8351 164.154 42.5605 164.381 42.1959C164.613 41.8266 164.729 41.365 164.729 40.811ZM169.944 45.399V34.49H172.437V36.3081H172.551C172.749 35.6784 173.09 35.1931 173.573 34.8522C174.061 34.5065 174.617 34.3337 175.242 34.3337C175.384 34.3337 175.543 34.3408 175.718 34.355C175.898 34.3645 176.047 34.3811 176.166 34.4047V36.7698C176.057 36.7319 175.884 36.6988 175.647 36.6704C175.415 36.6372 175.19 36.6206 174.972 36.6206C174.504 36.6206 174.082 36.7224 173.708 36.926C173.339 37.1249 173.048 37.4019 172.835 37.757C172.622 38.1121 172.515 38.5217 172.515 38.9857V45.399H169.944ZM191.457 37.3735L189.113 37.6292C189.047 37.3924 188.931 37.1699 188.765 36.9615C188.604 36.7532 188.386 36.5851 188.112 36.4573C187.837 36.3294 187.501 36.2655 187.103 36.2655C186.568 36.2655 186.118 36.3815 185.754 36.6135C185.394 36.8455 185.216 37.1462 185.221 37.5155C185.216 37.8328 185.332 38.0908 185.569 38.2897C185.811 38.4885 186.208 38.6519 186.762 38.7797L188.623 39.1775C189.655 39.4 190.422 39.7527 190.924 40.2357C191.431 40.7186 191.686 41.3508 191.691 42.132C191.686 42.8186 191.485 43.4246 191.088 43.9502C190.695 44.471 190.148 44.8782 189.447 45.1718C188.746 45.4653 187.941 45.6121 187.032 45.6121C185.697 45.6121 184.622 45.3328 183.808 44.774C182.993 44.2106 182.508 43.427 182.352 42.4232L184.859 42.1817C184.972 42.6741 185.214 43.0458 185.583 43.2968C185.953 43.5477 186.433 43.6732 187.025 43.6732C187.636 43.6732 188.126 43.5477 188.495 43.2968C188.869 43.0458 189.056 42.7357 189.056 42.3664C189.056 42.0539 188.936 41.7958 188.694 41.5922C188.457 41.3886 188.088 41.2324 187.586 41.1235L185.725 40.7329C184.679 40.5151 183.905 40.1481 183.403 39.632C182.901 39.1112 182.652 38.453 182.657 37.6576C182.652 36.9852 182.835 36.4028 183.204 35.9104C183.578 35.4133 184.097 35.0297 184.759 34.7598C185.427 34.4852 186.196 34.3479 187.068 34.3479C188.346 34.3479 189.352 34.6202 190.086 35.1647C190.825 35.7092 191.282 36.4454 191.457 37.3735ZM196.95 45.6192C196.259 45.6192 195.637 45.4961 195.083 45.2499C194.533 44.999 194.098 44.6296 193.776 44.1419C193.459 43.6543 193.3 43.0529 193.3 42.338C193.3 41.7224 193.414 41.2134 193.641 40.811C193.868 40.4085 194.178 40.0865 194.571 39.8451C194.964 39.6036 195.407 39.4213 195.899 39.2982C196.396 39.1704 196.91 39.078 197.441 39.0212C198.08 38.9549 198.598 38.8957 198.996 38.8436C199.394 38.7868 199.682 38.7016 199.862 38.588C200.047 38.4696 200.139 38.2873 200.139 38.0411V37.9985C200.139 37.4634 199.981 37.0491 199.664 36.7556C199.346 36.462 198.889 36.3152 198.293 36.3152C197.663 36.3152 197.164 36.4526 196.794 36.7272C196.43 37.0018 196.183 37.3261 196.056 37.7002L193.655 37.3593C193.844 36.6964 194.157 36.1424 194.593 35.6973C195.028 35.2475 195.561 34.9114 196.191 34.6888C196.82 34.4615 197.516 34.3479 198.279 34.3479C198.804 34.3479 199.327 34.4095 199.848 34.5326C200.369 34.6557 200.845 34.8593 201.276 35.1434C201.707 35.4227 202.052 35.8039 202.313 36.2868C202.578 36.7698 202.71 37.3735 202.71 38.0979V45.399H200.239V43.9005H200.154C199.997 44.2035 199.777 44.4876 199.493 44.7527C199.214 45.0132 198.861 45.2239 198.435 45.3848C198.013 45.5411 197.519 45.6192 196.95 45.6192ZM197.618 43.73C198.134 43.73 198.582 43.6282 198.96 43.4246C199.339 43.2163 199.63 42.9417 199.834 42.6008C200.042 42.2598 200.146 41.8882 200.146 41.4857V40.2002C200.066 40.2665 199.929 40.328 199.735 40.3848C199.545 40.4417 199.332 40.4914 199.095 40.534C198.859 40.5766 198.624 40.6145 198.392 40.6476C198.16 40.6808 197.959 40.7092 197.789 40.7329C197.405 40.7849 197.062 40.8702 196.759 40.9885C196.456 41.1069 196.217 41.2726 196.041 41.4857C195.866 41.694 195.779 41.9639 195.779 42.2954C195.779 42.7688 195.951 43.1263 196.297 43.3678C196.643 43.6093 197.083 43.73 197.618 43.73ZM210.821 34.49V36.4786H204.372V34.49H210.821ZM205.985 45.399V33.4601C205.985 32.7262 206.136 32.1154 206.439 31.6277C206.747 31.1401 207.159 30.7755 207.675 30.534C208.191 30.2925 208.764 30.1718 209.394 30.1718C209.839 30.1718 210.234 30.2073 210.58 30.2783C210.925 30.3493 211.181 30.4133 211.347 30.4701L210.835 32.4587C210.727 32.4256 210.589 32.3924 210.423 32.3593C210.258 32.3214 210.073 32.3025 209.869 32.3025C209.391 32.3025 209.053 32.4185 208.854 32.6505C208.66 32.8777 208.563 33.2044 208.563 33.6306V45.399H205.985ZM217.254 45.6121C216.16 45.6121 215.216 45.3848 214.42 44.9303C213.63 44.471 213.021 43.8223 212.595 42.9843C212.169 42.1415 211.956 41.1495 211.956 40.0084C211.956 38.8863 212.169 37.9014 212.595 37.0539C213.026 36.2016 213.627 35.5387 214.399 35.0652C215.171 34.587 216.077 34.3479 217.119 34.3479C217.791 34.3479 218.426 34.4568 219.023 34.6746C219.624 34.8877 220.154 35.2191 220.613 35.6689C221.077 36.1187 221.442 36.6917 221.707 37.3877C221.972 38.079 222.105 38.9028 222.105 39.8593V40.6476H213.163V38.9147H219.64C219.636 38.4222 219.529 37.9843 219.321 37.6008C219.113 37.2125 218.821 36.9071 218.447 36.6846C218.078 36.462 217.647 36.3508 217.155 36.3508C216.629 36.3508 216.167 36.4786 215.77 36.7343C215.372 36.9852 215.062 37.3167 214.839 37.7286C214.622 38.1358 214.51 38.5832 214.506 39.0709V40.5837C214.506 41.2182 214.622 41.7627 214.854 42.2172C215.086 42.667 215.41 43.0127 215.827 43.2542C216.243 43.4909 216.731 43.6093 217.29 43.6093C217.664 43.6093 218.002 43.5572 218.305 43.453C218.608 43.3441 218.871 43.1855 219.094 42.9772C219.316 42.7688 219.484 42.5108 219.598 42.203L221.998 42.4729C221.847 43.1074 221.558 43.6614 221.132 44.1348C220.711 44.6036 220.171 44.9682 219.513 45.2286C218.854 45.4843 218.102 45.6121 217.254 45.6121ZM229.024 49.7172C228.101 49.7172 227.308 49.5918 226.645 49.3408C225.982 49.0946 225.45 48.7632 225.047 48.3465C224.645 47.9298 224.365 47.4682 224.209 46.9615L226.524 46.4005C226.628 46.6135 226.78 46.8242 226.979 47.0326C227.178 47.2456 227.445 47.4208 227.781 47.5581C228.122 47.7002 228.551 47.7712 229.067 47.7712C229.796 47.7712 230.4 47.5937 230.878 47.2385C231.356 46.8882 231.595 46.3105 231.595 45.5056V43.4388H231.468C231.335 43.704 231.141 43.9762 230.885 44.2556C230.634 44.5349 230.3 44.7693 229.884 44.9587C229.472 45.1481 228.953 45.2428 228.328 45.2428C227.49 45.2428 226.73 45.0463 226.048 44.6533C225.371 44.2556 224.832 43.6637 224.429 42.8777C224.031 42.087 223.833 41.0974 223.833 39.909C223.833 38.7111 224.031 37.7002 224.429 36.8763C224.832 36.0477 225.374 35.4204 226.056 34.9942C226.737 34.5633 227.497 34.3479 228.335 34.3479C228.975 34.3479 229.5 34.4568 229.912 34.6746C230.329 34.8877 230.66 35.1457 230.906 35.4488C231.153 35.7471 231.34 36.0288 231.468 36.2939H231.61V34.49H234.145V45.5766C234.145 46.5094 233.923 47.2812 233.477 47.8919C233.032 48.5027 232.424 48.9597 231.652 49.2627C230.88 49.5657 230.004 49.7172 229.024 49.7172ZM229.046 43.2258C229.59 43.2258 230.054 43.0932 230.438 42.828C230.821 42.5629 231.112 42.1817 231.311 41.6846C231.51 41.1874 231.61 40.5908 231.61 39.8948C231.61 39.2082 231.51 38.6069 231.311 38.0908C231.117 37.5747 230.828 37.1746 230.445 36.8905C230.066 36.6017 229.6 36.4573 229.046 36.4573C228.473 36.4573 227.994 36.6064 227.611 36.9047C227.227 37.203 226.939 37.6126 226.744 38.1334C226.55 38.6495 226.453 39.2366 226.453 39.8948C226.453 40.5624 226.55 41.1472 226.744 41.649C226.943 42.1462 227.235 42.5345 227.618 42.8138C228.006 43.0884 228.482 43.2258 229.046 43.2258ZM243.733 40.811V34.49H246.304V45.399H243.811V43.4601H243.698C243.451 44.0709 243.047 44.5704 242.483 44.9587C241.924 45.347 241.235 45.5411 240.416 45.5411C239.701 45.5411 239.069 45.3825 238.52 45.0652C237.976 44.7433 237.549 44.2769 237.242 43.6661C236.934 43.0506 236.78 42.3072 236.78 41.436V34.49H239.351V41.0383C239.351 41.7295 239.54 42.2788 239.919 42.686C240.298 43.0932 240.795 43.2968 241.411 43.2968C241.789 43.2968 242.156 43.2044 242.512 43.0198C242.867 42.8351 243.158 42.5605 243.385 42.1959C243.617 41.8266 243.733 41.365 243.733 40.811ZM252.087 45.6192C251.396 45.6192 250.773 45.4961 250.219 45.2499C249.67 44.999 249.234 44.6296 248.912 44.1419C248.595 43.6543 248.437 43.0529 248.437 42.338C248.437 41.7224 248.55 41.2134 248.778 40.811C249.005 40.4085 249.315 40.0865 249.708 39.8451C250.101 39.6036 250.544 39.4213 251.036 39.2982C251.533 39.1704 252.047 39.078 252.577 39.0212C253.216 38.9549 253.735 38.8957 254.133 38.8436C254.53 38.7868 254.819 38.7016 254.999 38.588C255.184 38.4696 255.276 38.2873 255.276 38.0411V37.9985C255.276 37.4634 255.117 37.0491 254.8 36.7556C254.483 36.462 254.026 36.3152 253.43 36.3152C252.8 36.3152 252.3 36.4526 251.931 36.7272C251.566 37.0018 251.32 37.3261 251.192 37.7002L248.792 37.3593C248.981 36.6964 249.294 36.1424 249.729 35.6973C250.165 35.2475 250.698 34.9114 251.327 34.6888C251.957 34.4615 252.653 34.3479 253.415 34.3479C253.941 34.3479 254.464 34.4095 254.985 34.5326C255.506 34.6557 255.982 34.8593 256.412 35.1434C256.843 35.4227 257.189 35.8039 257.449 36.2868C257.715 36.7698 257.847 37.3735 257.847 38.0979V45.399H255.376V43.9005H255.29C255.134 44.2035 254.914 44.4876 254.63 44.7527C254.35 45.0132 253.998 45.2239 253.572 45.3848C253.15 45.5411 252.655 45.6192 252.087 45.6192ZM252.755 43.73C253.271 43.73 253.718 43.6282 254.097 43.4246C254.476 43.2163 254.767 42.9417 254.971 42.6008C255.179 42.2598 255.283 41.8882 255.283 41.4857V40.2002C255.203 40.2665 255.065 40.328 254.871 40.3848C254.682 40.4417 254.469 40.4914 254.232 40.534C253.995 40.5766 253.761 40.6145 253.529 40.6476C253.297 40.6808 253.096 40.7092 252.925 40.7329C252.542 40.7849 252.198 40.8702 251.895 40.9885C251.592 41.1069 251.353 41.2726 251.178 41.4857C251.003 41.694 250.915 41.9639 250.915 42.2954C250.915 42.7688 251.088 43.1263 251.434 43.3678C251.779 43.6093 252.22 43.73 252.755 43.73ZM260.432 45.399V34.49H262.925V36.3081H263.039C263.238 35.6784 263.579 35.1931 264.062 34.8522C264.549 34.5065 265.106 34.3337 265.731 34.3337C265.873 34.3337 266.031 34.3408 266.206 34.355C266.386 34.3645 266.536 34.3811 266.654 34.4047V36.7698C266.545 36.7319 266.372 36.6988 266.135 36.6704C265.903 36.6372 265.679 36.6206 265.461 36.6206C264.992 36.6206 264.571 36.7224 264.197 36.926C263.827 37.1249 263.536 37.4019 263.323 37.757C263.11 38.1121 263.003 38.5217 263.003 38.9857V45.399H260.432ZM271.961 45.5908C271.104 45.5908 270.337 45.3706 269.66 44.9303C268.983 44.49 268.448 43.8508 268.055 43.0127C267.662 42.1746 267.465 41.1566 267.465 39.9587C267.465 38.7466 267.664 37.7239 268.062 36.8905C268.464 36.0525 269.007 35.4204 269.688 34.9942C270.37 34.5633 271.13 34.3479 271.968 34.3479C272.607 34.3479 273.133 34.4568 273.545 34.6746C273.957 34.8877 274.284 35.1457 274.525 35.4488C274.767 35.7471 274.954 36.0288 275.086 36.2939H275.193V30.8536H277.771V45.399H275.242V43.6803H275.086C274.954 43.9454 274.762 44.2272 274.511 44.5255C274.26 44.819 273.928 45.07 273.517 45.2783C273.105 45.4866 272.586 45.5908 271.961 45.5908ZM272.678 43.4814C273.223 43.4814 273.687 43.3347 274.07 43.0411C274.454 42.7428 274.745 42.3285 274.944 41.7982C275.143 41.2679 275.242 40.65 275.242 39.9445C275.242 39.239 275.143 38.6258 274.944 38.105C274.75 37.5842 274.461 37.1794 274.078 36.8905C273.699 36.6017 273.232 36.4573 272.678 36.4573C272.106 36.4573 271.627 36.6064 271.244 36.9047C270.86 37.203 270.571 37.615 270.377 38.1405C270.183 38.6661 270.086 39.2674 270.086 39.9445C270.086 40.6263 270.183 41.2347 270.377 41.7698C270.576 42.3001 270.867 42.7191 271.251 43.0269C271.639 43.3299 272.115 43.4814 272.678 43.4814ZM280.51 45.399V34.49H283.081V45.399H280.51ZM281.803 32.9417C281.396 32.9417 281.046 32.8067 280.752 32.5368C280.458 32.2622 280.312 31.9331 280.312 31.5496C280.312 31.1614 280.458 30.8323 280.752 30.5624C281.046 30.2878 281.396 30.1505 281.803 30.1505C282.215 30.1505 282.565 30.2878 282.854 30.5624C283.148 30.8323 283.295 31.1614 283.295 31.5496C283.295 31.9331 283.148 32.2622 282.854 32.5368C282.565 32.8067 282.215 32.9417 281.803 32.9417ZM288.296 39.007V45.399H285.725V34.49H288.183V36.3436H288.311C288.561 35.7329 288.962 35.2475 289.511 34.8877C290.065 34.5278 290.749 34.3479 291.563 34.3479C292.316 34.3479 292.972 34.5089 293.531 34.8309C294.094 35.1528 294.53 35.6192 294.838 36.23C295.15 36.8408 295.304 37.5818 295.299 38.453V45.399H292.728V38.8508C292.728 38.1216 292.539 37.551 292.16 37.1391C291.786 36.7272 291.267 36.5212 290.605 36.5212C290.155 36.5212 289.755 36.6206 289.404 36.8195C289.059 37.0136 288.786 37.2954 288.588 37.6647C288.393 38.034 288.296 38.4814 288.296 39.007ZM302.657 49.7172C301.734 49.7172 300.941 49.5918 300.278 49.3408C299.615 49.0946 299.082 48.7632 298.68 48.3465C298.277 47.9298 297.998 47.4682 297.842 46.9615L300.157 46.4005C300.261 46.6135 300.413 46.8242 300.612 47.0326C300.811 47.2456 301.078 47.4208 301.414 47.5581C301.755 47.7002 302.184 47.7712 302.7 47.7712C303.429 47.7712 304.033 47.5937 304.511 47.2385C304.989 46.8882 305.228 46.3105 305.228 45.5056V43.4388H305.1C304.968 43.704 304.774 43.9762 304.518 44.2556C304.267 44.5349 303.933 44.7693 303.517 44.9587C303.105 45.1481 302.586 45.2428 301.961 45.2428C301.123 45.2428 300.363 45.0463 299.681 44.6533C299.004 44.2556 298.464 43.6637 298.062 42.8777C297.664 42.087 297.465 41.0974 297.465 39.909C297.465 38.7111 297.664 37.7002 298.062 36.8763C298.464 36.0477 299.007 35.4204 299.688 34.9942C300.37 34.5633 301.13 34.3479 301.968 34.3479C302.607 34.3479 303.133 34.4568 303.545 34.6746C303.962 34.8877 304.293 35.1457 304.539 35.4488C304.785 35.7471 304.972 36.0288 305.1 36.2939H305.242V34.49H307.778V45.5766C307.778 46.5094 307.555 47.2812 307.11 47.8919C306.665 48.5027 306.057 48.9597 305.285 49.2627C304.513 49.5657 303.637 49.7172 302.657 49.7172ZM302.678 43.2258C303.223 43.2258 303.687 43.0932 304.07 42.828C304.454 42.5629 304.745 42.1817 304.944 41.6846C305.143 41.1874 305.242 40.5908 305.242 39.8948C305.242 39.2082 305.143 38.6069 304.944 38.0908C304.75 37.5747 304.461 37.1746 304.078 36.8905C303.699 36.6017 303.232 36.4573 302.678 36.4573C302.106 36.4573 301.627 36.6064 301.244 36.9047C300.86 37.203 300.571 37.6126 300.377 38.1334C300.183 38.6495 300.086 39.2366 300.086 39.8948C300.086 40.5624 300.183 41.1472 300.377 41.649C300.576 42.1462 300.867 42.5345 301.251 42.8138C301.639 43.0884 302.115 43.2258 302.678 43.2258ZM39.0847 73.399V62.49H41.5776V64.3081H41.6912C41.8901 63.6784 42.231 63.1931 42.714 62.8522C43.2016 62.5065 43.758 62.3337 44.383 62.3337C44.525 62.3337 44.6837 62.3408 44.8588 62.355C45.0388 62.3645 45.1879 62.3811 45.3063 62.4047V64.7698C45.1974 64.7319 45.0246 64.6988 44.7878 64.6704C44.5558 64.6372 44.3309 64.6206 44.1131 64.6206C43.6444 64.6206 43.223 64.7224 42.8489 64.926C42.4796 65.1249 42.1884 65.4019 41.9753 65.757C41.7623 66.1121 41.6557 66.5217 41.6557 66.9857V73.399H39.0847ZM51.3947 73.6121C50.301 73.6121 49.3564 73.3848 48.5609 72.9303C47.7702 72.471 47.1618 71.8223 46.7356 70.9843C46.3095 70.1415 46.0964 69.1495 46.0964 68.0084C46.0964 66.8863 46.3095 65.9014 46.7356 65.0539C47.1665 64.2016 47.7678 63.5387 48.5396 63.0652C49.3114 62.587 50.2181 62.3479 51.2598 62.3479C51.9321 62.3479 52.5666 62.4568 53.1632 62.6746C53.7645 62.8877 54.2948 63.2191 54.7541 63.6689C55.2181 64.1187 55.5827 64.6917 55.8478 65.3877C56.113 66.079 56.2456 66.9028 56.2456 67.8593V68.6476H47.3038V66.9147H53.7811C53.7763 66.4222 53.6698 65.9843 53.4615 65.6008C53.2531 65.2125 52.9619 64.9071 52.5879 64.6846C52.2186 64.462 51.7877 64.3508 51.2953 64.3508C50.7697 64.3508 50.3081 64.4786 49.9103 64.7343C49.5126 64.9852 49.2025 65.3167 48.9799 65.7286C48.7621 66.1358 48.6509 66.5832 48.6461 67.0709V68.5837C48.6461 69.2182 48.7621 69.7627 48.9941 70.2172C49.2261 70.667 49.5505 71.0127 49.9672 71.2542C50.3838 71.4909 50.8715 71.6093 51.4302 71.6093C51.8043 71.6093 52.1428 71.5572 52.4458 71.453C52.7489 71.3441 53.0117 71.1855 53.2342 70.9772C53.4567 70.7688 53.6248 70.5108 53.7385 70.203L56.139 70.4729C55.9875 71.1074 55.6987 71.6614 55.2726 72.1348C54.8511 72.6036 54.3114 72.9682 53.6532 73.2286C52.9951 73.4843 52.2422 73.6121 51.3947 73.6121ZM67.0428 65.3735L64.699 65.6292C64.6328 65.3924 64.5167 65.1699 64.351 64.9615C64.19 64.7532 63.9722 64.5851 63.6976 64.4573C63.423 64.3294 63.0868 64.2655 62.6891 64.2655C62.1541 64.2655 61.7042 64.3815 61.3397 64.6135C60.9798 64.8455 60.8023 65.1462 60.807 65.5155C60.8023 65.8328 60.9183 66.0908 61.155 66.2897C61.3965 66.4885 61.7942 66.6519 62.3482 66.7797L64.209 67.1775C65.2412 67.4 66.0082 67.7527 66.5101 68.2357C67.0167 68.7186 67.2724 69.3508 67.2772 70.132C67.2724 70.8186 67.0712 71.4246 66.6735 71.9502C66.2805 72.471 65.7336 72.8782 65.0328 73.1718C64.3321 73.4653 63.5272 73.6121 62.6181 73.6121C61.2828 73.6121 60.208 73.3328 59.3936 72.774C58.5792 72.2106 58.0939 71.427 57.9377 70.4232L60.4448 70.1817C60.5584 70.6741 60.7999 71.0458 61.1692 71.2968C61.5385 71.5477 62.0191 71.6732 62.611 71.6732C63.2218 71.6732 63.7118 71.5477 64.0811 71.2968C64.4552 71.0458 64.6422 70.7357 64.6422 70.3664C64.6422 70.0539 64.5215 69.7958 64.28 69.5922C64.0433 69.3886 63.6739 69.2324 63.1721 69.1235L61.3113 68.7329C60.2649 68.5151 59.4907 68.1481 58.9888 67.632C58.4869 67.1112 58.2383 66.453 58.2431 65.6576C58.2383 64.9852 58.4206 64.4028 58.79 63.9104C59.164 63.4133 59.6825 63.0297 60.3453 62.7598C61.013 62.4852 61.7824 62.3479 62.6536 62.3479C63.932 62.3479 64.9382 62.6202 65.6721 63.1647C66.4107 63.7092 66.8676 64.4454 67.0428 65.3735ZM69.3972 77.49V62.49H71.9256V64.2939H72.0748C72.2073 64.0288 72.3944 63.7471 72.6358 63.4488C72.8773 63.1457 73.204 62.8877 73.6159 62.6746C74.0279 62.4568 74.5534 62.3479 75.1926 62.3479C76.0355 62.3479 76.7954 62.5633 77.4725 62.9942C78.1543 63.4204 78.6941 64.0525 79.0918 64.8905C79.4943 65.7239 79.6955 66.7466 79.6955 67.9587C79.6955 69.1566 79.499 70.1746 79.106 71.0127C78.713 71.8508 78.178 72.49 77.5009 72.9303C76.8238 73.3706 76.0568 73.5908 75.1998 73.5908C74.5748 73.5908 74.0563 73.4866 73.6444 73.2783C73.2324 73.07 72.901 72.819 72.65 72.5255C72.4038 72.2272 72.2121 71.9454 72.0748 71.6803H71.9682V77.49H69.3972ZM71.9185 67.9445C71.9185 68.65 72.0179 69.2679 72.2168 69.7982C72.4204 70.3285 72.7116 70.7428 73.0904 71.0411C73.4739 71.3347 73.9379 71.4814 74.4824 71.4814C75.0506 71.4814 75.5265 71.3299 75.91 71.0269C76.2935 70.7191 76.5823 70.3001 76.7765 69.7698C76.9753 69.2347 77.0748 68.6263 77.0748 67.9445C77.0748 67.2674 76.9777 66.6661 76.7836 66.1405C76.5894 65.615 76.3006 65.203 75.9171 64.9047C75.5336 64.6064 75.0553 64.4573 74.4824 64.4573C73.9332 64.4573 73.4668 64.6017 73.0833 64.8905C72.6998 65.1794 72.4086 65.5842 72.2097 66.105C72.0156 66.6258 71.9185 67.239 71.9185 67.9445ZM86.6557 73.6121C85.5904 73.6121 84.6671 73.3777 83.8858 72.909C83.1046 72.4402 82.4985 71.7845 82.0676 70.9417C81.6415 70.0989 81.4284 69.114 81.4284 67.9871C81.4284 66.8602 81.6415 65.873 82.0676 65.0255C82.4985 64.1779 83.1046 63.5198 83.8858 63.051C84.6671 62.5823 85.5904 62.3479 86.6557 62.3479C87.7211 62.3479 88.6444 62.5823 89.4256 63.051C90.2069 63.5198 90.8105 64.1779 91.2367 65.0255C91.6676 65.873 91.883 66.8602 91.883 67.9871C91.883 69.114 91.6676 70.0989 91.2367 70.9417C90.8105 71.7845 90.2069 72.4402 89.4256 72.909C88.6444 73.3777 87.7211 73.6121 86.6557 73.6121ZM86.6699 71.5525C87.2476 71.5525 87.7305 71.3938 88.1188 71.0766C88.507 70.7546 88.7959 70.3238 88.9853 69.784C89.1794 69.2442 89.2765 68.6429 89.2765 67.98C89.2765 67.3124 89.1794 66.7087 88.9853 66.1689C88.7959 65.6244 88.507 65.1912 88.1188 64.8692C87.7305 64.5472 87.2476 64.3863 86.6699 64.3863C86.0781 64.3863 85.5856 64.5472 85.1926 64.8692C84.8044 65.1912 84.5132 65.6244 84.3191 66.1689C84.1297 66.7087 84.035 67.3124 84.035 67.98C84.035 68.6429 84.1297 69.2442 84.3191 69.784C84.5132 70.3238 84.8044 70.7546 85.1926 71.0766C85.5856 71.3938 86.0781 71.5525 86.6699 71.5525ZM96.6362 67.007V73.399H94.0652V62.49H96.5225V64.3436H96.6504C96.9013 63.7329 97.3014 63.2475 97.8507 62.8877C98.4047 62.5278 99.0888 62.3479 99.9032 62.3479C100.656 62.3479 101.312 62.5089 101.871 62.8309C102.434 63.1528 102.87 63.6192 103.177 64.23C103.49 64.8408 103.644 65.5818 103.639 66.453V73.399H101.068V66.8508C101.068 66.1216 100.879 65.551 100.5 65.1391C100.126 64.7272 99.6073 64.5212 98.9444 64.5212C98.4946 64.5212 98.0945 64.6206 97.7441 64.8195C97.3985 65.0136 97.1262 65.2954 96.9274 65.6647C96.7333 66.034 96.6362 66.4814 96.6362 67.007ZM114.875 65.3735L112.531 65.6292C112.465 65.3924 112.349 65.1699 112.183 64.9615C112.022 64.7532 111.804 64.5851 111.53 64.4573C111.255 64.3294 110.919 64.2655 110.521 64.2655C109.986 64.2655 109.536 64.3815 109.172 64.6135C108.812 64.8455 108.634 65.1462 108.639 65.5155C108.634 65.8328 108.75 66.0908 108.987 66.2897C109.229 66.4885 109.626 66.6519 110.18 66.7797L112.041 67.1775C113.073 67.4 113.84 67.7527 114.342 68.2357C114.849 68.7186 115.104 69.3508 115.109 70.132C115.104 70.8186 114.903 71.4246 114.506 71.9502C114.113 72.471 113.566 72.8782 112.865 73.1718C112.164 73.4653 111.359 73.6121 110.45 73.6121C109.115 73.6121 108.04 73.3328 107.226 72.774C106.411 72.2106 105.926 71.427 105.77 70.4232L108.277 70.1817C108.39 70.6741 108.632 71.0458 109.001 71.2968C109.371 71.5477 109.851 71.6732 110.443 71.6732C111.054 71.6732 111.544 71.5477 111.913 71.2968C112.287 71.0458 112.474 70.7357 112.474 70.3664C112.474 70.0539 112.354 69.7958 112.112 69.5922C111.875 69.3886 111.506 69.2324 111.004 69.1235L109.143 68.7329C108.097 68.5151 107.323 68.1481 106.821 67.632C106.319 67.1112 106.07 66.453 106.075 65.6576C106.07 64.9852 106.253 64.4028 106.622 63.9104C106.996 63.4133 107.515 63.0297 108.177 62.7598C108.845 62.4852 109.614 62.3479 110.486 62.3479C111.764 62.3479 112.77 62.6202 113.504 63.1647C114.243 63.7092 114.7 64.4454 114.875 65.3735ZM117.229 73.399V62.49H119.8V73.399H117.229ZM118.522 60.9417C118.115 60.9417 117.764 60.8067 117.471 60.5368C117.177 60.2622 117.03 59.9331 117.03 59.5496C117.03 59.1614 117.177 58.8323 117.471 58.5624C117.764 58.2878 118.115 58.1505 118.522 58.1505C118.934 58.1505 119.284 58.2878 119.573 58.5624C119.867 58.8323 120.013 59.1614 120.013 59.5496C120.013 59.9331 119.867 60.2622 119.573 60.5368C119.284 60.8067 118.934 60.9417 118.522 60.9417ZM122.558 73.399V58.8536H125.129V64.2939H125.235C125.368 64.0288 125.555 63.7471 125.796 63.4488C126.038 63.1457 126.365 62.8877 126.776 62.6746C127.188 62.4568 127.714 62.3479 128.353 62.3479C129.196 62.3479 129.956 62.5633 130.633 62.9942C131.315 63.4204 131.855 64.0525 132.252 64.8905C132.655 65.7239 132.856 66.7466 132.856 67.9587C132.856 69.1566 132.66 70.1746 132.267 71.0127C131.874 71.8508 131.338 72.49 130.661 72.9303C129.984 73.3706 129.217 73.5908 128.36 73.5908C127.735 73.5908 127.217 73.4866 126.805 73.2783C126.393 73.07 126.061 72.819 125.811 72.5255C125.564 72.2272 125.373 71.9454 125.235 71.6803H125.086V73.399H122.558ZM125.079 67.9445C125.079 68.65 125.178 69.2679 125.377 69.7982C125.581 70.3285 125.872 70.7428 126.251 71.0411C126.634 71.3347 127.098 71.4814 127.643 71.4814C128.211 71.4814 128.687 71.3299 129.07 71.0269C129.454 70.7191 129.743 70.3001 129.937 69.7698C130.136 69.2347 130.235 68.6263 130.235 67.9445C130.235 67.2674 130.138 66.6661 129.944 66.1405C129.75 65.615 129.461 65.203 129.078 64.9047C128.694 64.6064 128.216 64.4573 127.643 64.4573C127.094 64.4573 126.627 64.6017 126.244 64.8905C125.86 65.1794 125.569 65.5842 125.37 66.105C125.176 66.6258 125.079 67.239 125.079 67.9445ZM135.042 73.399V62.49H137.613V73.399H135.042ZM136.334 60.9417C135.927 60.9417 135.577 60.8067 135.283 60.5368C134.99 60.2622 134.843 59.9331 134.843 59.5496C134.843 59.1614 134.99 58.8323 135.283 58.5624C135.577 58.2878 135.927 58.1505 136.334 58.1505C136.746 58.1505 137.097 58.2878 137.385 58.5624C137.679 58.8323 137.826 59.1614 137.826 59.5496C137.826 59.9331 137.679 60.2622 137.385 60.5368C137.097 60.8067 136.746 60.9417 136.334 60.9417ZM142.828 58.8536V73.399H140.257V58.8536H142.828ZM145.471 73.399V62.49H148.042V73.399H145.471ZM146.764 60.9417C146.357 60.9417 146.006 60.8067 145.713 60.5368C145.419 60.2622 145.273 59.9331 145.273 59.5496C145.273 59.1614 145.419 58.8323 145.713 58.5624C146.006 58.2878 146.357 58.1505 146.764 58.1505C147.176 58.1505 147.526 58.2878 147.815 58.5624C148.109 58.8323 148.256 59.1614 148.256 59.5496C148.256 59.9331 148.109 60.2622 147.815 60.5368C147.526 60.8067 147.176 60.9417 146.764 60.9417ZM156.134 62.49V64.4786H149.862V62.49H156.134ZM151.411 59.8763H153.982V70.1178C153.982 70.4634 154.034 70.7286 154.138 70.9133C154.247 71.0932 154.389 71.2163 154.564 71.2826C154.739 71.3489 154.933 71.382 155.146 71.382C155.307 71.382 155.454 71.3702 155.587 71.3465C155.724 71.3228 155.828 71.3015 155.899 71.2826L156.333 73.2925C156.195 73.3399 155.999 73.3919 155.743 73.4488C155.492 73.5056 155.184 73.5387 154.82 73.5482C154.176 73.5671 153.596 73.4701 153.08 73.257C152.564 73.0392 152.154 72.703 151.851 72.2485C151.553 71.7939 151.406 71.2258 151.411 70.5439V59.8763ZM158.284 73.399V62.49H160.855V73.399H158.284ZM159.577 60.9417C159.169 60.9417 158.819 60.8067 158.525 60.5368C158.232 60.2622 158.085 59.9331 158.085 59.5496C158.085 59.1614 158.232 58.8323 158.525 58.5624C158.819 58.2878 159.169 58.1505 159.577 58.1505C159.988 58.1505 160.339 58.2878 160.628 58.5624C160.921 58.8323 161.068 59.1614 161.068 59.5496C161.068 59.9331 160.921 60.2622 160.628 60.5368C160.339 60.8067 159.988 60.9417 159.577 60.9417ZM168.328 73.6121C167.235 73.6121 166.29 73.3848 165.494 72.9303C164.704 72.471 164.095 71.8223 163.669 70.9843C163.243 70.1415 163.03 69.1495 163.03 68.0084C163.03 66.8863 163.243 65.9014 163.669 65.0539C164.1 64.2016 164.701 63.5387 165.473 63.0652C166.245 62.587 167.152 62.3479 168.193 62.3479C168.866 62.3479 169.5 62.4568 170.097 62.6746C170.698 62.8877 171.228 63.2191 171.688 63.6689C172.152 64.1187 172.516 64.6917 172.781 65.3877C173.047 66.079 173.179 66.9028 173.179 67.8593V68.6476H164.237V66.9147H170.715C170.71 66.4222 170.603 65.9843 170.395 65.6008C170.187 65.2125 169.896 64.9071 169.521 64.6846C169.152 64.462 168.721 64.3508 168.229 64.3508C167.703 64.3508 167.242 64.4786 166.844 64.7343C166.446 64.9852 166.136 65.3167 165.914 65.7286C165.696 66.1358 165.584 66.5832 165.58 67.0709V68.5837C165.58 69.2182 165.696 69.7627 165.928 70.2172C166.16 70.667 166.484 71.0127 166.901 71.2542C167.317 71.4909 167.805 71.6093 168.364 71.6093C168.738 71.6093 169.076 71.5572 169.379 71.453C169.682 71.3441 169.945 71.1855 170.168 70.9772C170.39 70.7688 170.558 70.5108 170.672 70.203L173.073 70.4729C172.921 71.1074 172.632 71.6614 172.206 72.1348C171.785 72.6036 171.245 72.9682 170.587 73.2286C169.929 73.4843 169.176 73.6121 168.328 73.6121ZM183.976 65.3735L181.633 65.6292C181.566 65.3924 181.45 65.1699 181.285 64.9615C181.124 64.7532 180.906 64.5851 180.631 64.4573C180.357 64.3294 180.02 64.2655 179.623 64.2655C179.088 64.2655 178.638 64.3815 178.273 64.6135C177.913 64.8455 177.736 65.1462 177.741 65.5155C177.736 65.8328 177.852 66.0908 178.089 66.2897C178.33 66.4885 178.728 66.6519 179.282 66.7797L181.143 67.1775C182.175 67.4 182.942 67.7527 183.444 68.2357C183.95 68.7186 184.206 69.3508 184.211 70.132C184.206 70.8186 184.005 71.4246 183.607 71.9502C183.214 72.471 182.667 72.8782 181.966 73.1718C181.266 73.4653 180.461 73.6121 179.552 73.6121C178.216 73.6121 177.142 73.3328 176.327 72.774C175.513 72.2106 175.028 71.427 174.871 70.4232L177.378 70.1817C177.492 70.6741 177.733 71.0458 178.103 71.2968C178.472 71.5477 178.953 71.6732 179.545 71.6732C180.155 71.6732 180.645 71.5477 181.015 71.2968C181.389 71.0458 181.576 70.7357 181.576 70.3664C181.576 70.0539 181.455 69.7958 181.214 69.5922C180.977 69.3886 180.608 69.2324 180.106 69.1235L178.245 68.7329C177.198 68.5151 176.424 68.1481 175.922 67.632C175.421 67.1112 175.172 66.453 175.177 65.6576C175.172 64.9852 175.354 64.4028 175.724 63.9104C176.098 63.4133 176.616 63.0297 177.279 62.7598C177.947 62.4852 178.716 62.3479 179.587 62.3479C180.866 62.3479 181.872 62.6202 182.606 63.1647C183.344 63.7092 183.801 64.4454 183.976 65.3735ZM194.431 73.6192C193.74 73.6192 193.117 73.4961 192.563 73.2499C192.014 72.999 191.578 72.6296 191.256 72.1419C190.939 71.6543 190.78 71.0529 190.78 70.338C190.78 69.7224 190.894 69.2134 191.121 68.811C191.349 68.4085 191.659 68.0865 192.052 67.8451C192.445 67.6036 192.887 67.4213 193.38 67.2982C193.877 67.1704 194.391 67.078 194.921 67.0212C195.56 66.9549 196.079 66.8957 196.476 66.8436C196.874 66.7868 197.163 66.7016 197.343 66.588C197.528 66.4696 197.62 66.2873 197.62 66.0411V65.9985C197.62 65.4634 197.461 65.0491 197.144 64.7556C196.827 64.462 196.37 64.3152 195.773 64.3152C195.144 64.3152 194.644 64.4526 194.275 64.7272C193.91 65.0018 193.664 65.3261 193.536 65.7002L191.135 65.3593C191.325 64.6964 191.637 64.1424 192.073 63.6973C192.509 63.2475 193.041 62.9114 193.671 62.6888C194.301 62.4615 194.997 62.3479 195.759 62.3479C196.285 62.3479 196.808 62.4095 197.329 62.5326C197.849 62.6557 198.325 62.8593 198.756 63.1434C199.187 63.4227 199.533 63.8039 199.793 64.2868C200.058 64.7698 200.191 65.3735 200.191 66.0979V73.399H197.719V71.9005H197.634C197.478 72.2035 197.258 72.4876 196.974 72.7527C196.694 73.0132 196.341 73.2239 195.915 73.3848C195.494 73.5411 194.999 73.6192 194.431 73.6192ZM195.099 71.73C195.615 71.73 196.062 71.6282 196.441 71.4246C196.82 71.2163 197.111 70.9417 197.314 70.6008C197.523 70.2598 197.627 69.8882 197.627 69.4857V68.2002C197.546 68.2665 197.409 68.328 197.215 68.3848C197.026 68.4417 196.813 68.4914 196.576 68.534C196.339 68.5766 196.105 68.6145 195.873 68.6476C195.641 68.6808 195.439 68.7092 195.269 68.7329C194.885 68.7849 194.542 68.8702 194.239 68.9885C193.936 69.1069 193.697 69.2726 193.522 69.4857C193.347 69.694 193.259 69.9639 193.259 70.2954C193.259 70.7688 193.432 71.1263 193.778 71.3678C194.123 71.6093 194.564 71.73 195.099 71.73ZM205.347 67.007V73.399H202.776V62.49H205.233V64.3436H205.361C205.612 63.7329 206.012 63.2475 206.562 62.8877C207.116 62.5278 207.8 62.3479 208.614 62.3479C209.367 62.3479 210.023 62.5089 210.581 62.8309C211.145 63.1528 211.581 63.6192 211.888 64.23C212.201 64.8408 212.355 65.5818 212.35 66.453V73.399H209.779V66.8508C209.779 66.1216 209.59 65.551 209.211 65.1391C208.837 64.7272 208.318 64.5212 207.655 64.5212C207.206 64.5212 206.805 64.6206 206.455 64.8195C206.109 65.0136 205.837 65.2954 205.638 65.6647C205.444 66.034 205.347 66.4814 205.347 67.007ZM219.012 73.5908C218.155 73.5908 217.388 73.3706 216.711 72.9303C216.034 72.49 215.499 71.8508 215.106 71.0127C214.713 70.1746 214.516 69.1566 214.516 67.9587C214.516 66.7466 214.715 65.7239 215.113 64.8905C215.515 64.0525 216.057 63.4204 216.739 62.9942C217.421 62.5633 218.181 62.3479 219.019 62.3479C219.658 62.3479 220.184 62.4568 220.596 62.6746C221.008 62.8877 221.334 63.1457 221.576 63.4488C221.817 63.7471 222.004 64.0288 222.137 64.2939H222.243V58.8536H224.822V73.399H222.293V71.6803H222.137C222.004 71.9454 221.813 72.2272 221.562 72.5255C221.311 72.819 220.979 73.07 220.567 73.2783C220.155 73.4866 219.637 73.5908 219.012 73.5908ZM219.729 71.4814C220.274 71.4814 220.738 71.3347 221.121 71.0411C221.505 70.7428 221.796 70.3285 221.995 69.7982C222.194 69.2679 222.293 68.65 222.293 67.9445C222.293 67.239 222.194 66.6258 221.995 66.105C221.801 65.5842 221.512 65.1794 221.128 64.8905C220.75 64.6017 220.283 64.4573 219.729 64.4573C219.156 64.4573 218.678 64.6064 218.295 64.9047C217.911 65.203 217.622 65.615 217.428 66.1405C217.234 66.6661 217.137 67.2674 217.137 67.9445C217.137 68.6263 217.234 69.2347 217.428 69.7698C217.627 70.3001 217.918 70.7191 218.302 71.0269C218.69 71.3299 219.166 71.4814 219.729 71.4814ZM235.093 67.007V73.399H232.522V58.8536H235.036V64.3436H235.164C235.42 63.7281 235.815 63.2428 236.35 62.8877C236.89 62.5278 237.577 62.3479 238.41 62.3479C239.168 62.3479 239.828 62.5065 240.392 62.8238C240.955 63.141 241.391 63.605 241.698 64.2158C242.011 64.8266 242.167 65.5723 242.167 66.453V73.399H239.596V66.8508C239.596 66.1169 239.407 65.5463 239.028 65.1391C238.654 64.7272 238.128 64.5212 237.451 64.5212C236.997 64.5212 236.589 64.6206 236.23 64.8195C235.874 65.0136 235.595 65.2954 235.392 65.6647C235.193 66.034 235.093 66.4814 235.093 67.007ZM249.546 73.6121C248.481 73.6121 247.558 73.3777 246.776 72.909C245.995 72.4402 245.389 71.7845 244.958 70.9417C244.532 70.0989 244.319 69.114 244.319 67.9871C244.319 66.8602 244.532 65.873 244.958 65.0255C245.389 64.1779 245.995 63.5198 246.776 63.051C247.558 62.5823 248.481 62.3479 249.546 62.3479C250.612 62.3479 251.535 62.5823 252.316 63.051C253.097 63.5198 253.701 64.1779 254.127 65.0255C254.558 65.873 254.774 66.8602 254.774 67.9871C254.774 69.114 254.558 70.0989 254.127 70.9417C253.701 71.7845 253.097 72.4402 252.316 72.909C251.535 73.3777 250.612 73.6121 249.546 73.6121ZM249.561 71.5525C250.138 71.5525 250.621 71.3938 251.009 71.0766C251.398 70.7546 251.686 70.3238 251.876 69.784C252.07 69.2442 252.167 68.6429 252.167 67.98C252.167 67.3124 252.07 66.7087 251.876 66.1689C251.686 65.6244 251.398 65.1912 251.009 64.8692C250.621 64.5472 250.138 64.3863 249.561 64.3863C248.969 64.3863 248.476 64.5472 248.083 64.8692C247.695 65.1912 247.404 65.6244 247.21 66.1689C247.02 66.7087 246.926 67.3124 246.926 67.98C246.926 68.6429 247.02 69.2442 247.21 69.784C247.404 70.3238 247.695 70.7546 248.083 71.0766C248.476 71.3938 248.969 71.5525 249.561 71.5525ZM258.895 73.399L255.812 62.49H258.433L260.351 70.1604H260.45L262.41 62.49H265.003L266.963 70.1178H267.069L268.959 62.49H271.586L268.497 73.399H265.819L263.774 66.0269H263.625L261.579 73.399H258.895ZM283.101 73.6121C282.012 73.6121 281.077 73.373 280.296 72.8948C279.519 72.4166 278.92 71.7561 278.499 70.9133C278.082 70.0657 277.874 69.0903 277.874 67.9871C277.874 66.8792 278.087 65.9014 278.513 65.0539C278.939 64.2016 279.54 63.5387 280.317 63.0652C281.098 62.587 282.021 62.3479 283.087 62.3479C283.972 62.3479 284.756 62.5113 285.438 62.838C286.124 63.1599 286.671 63.6169 287.078 64.2087C287.485 64.7958 287.718 65.4824 287.774 66.2684H285.317C285.218 65.7428 284.981 65.3048 284.607 64.9544C284.237 64.5993 283.743 64.4218 283.122 64.4218C282.597 64.4218 282.135 64.5638 281.737 64.8479C281.34 65.1273 281.03 65.5297 280.807 66.0553C280.589 66.5809 280.48 67.2106 280.48 67.9445C280.48 68.6879 280.589 69.3271 280.807 69.8621C281.025 70.3924 281.33 70.802 281.723 71.0908C282.121 71.3749 282.587 71.5169 283.122 71.5169C283.501 71.5169 283.84 71.4459 284.138 71.3039C284.441 71.1571 284.694 70.9464 284.898 70.6718C285.102 70.3972 285.241 70.0633 285.317 69.6704H287.774C287.713 70.4421 287.485 71.1263 287.093 71.7229C286.7 72.3148 286.164 72.7788 285.487 73.115C284.81 73.4464 284.015 73.6121 283.101 73.6121ZM293.025 73.6192C292.333 73.6192 291.711 73.4961 291.157 73.2499C290.608 72.999 290.172 72.6296 289.85 72.1419C289.533 71.6543 289.374 71.0529 289.374 70.338C289.374 69.7224 289.488 69.2134 289.715 68.811C289.942 68.4085 290.252 68.0865 290.645 67.8451C291.038 67.6036 291.481 67.4213 291.974 67.2982C292.471 67.1704 292.984 67.078 293.515 67.0212C294.154 66.9549 294.672 66.8957 295.07 66.8436C295.468 66.7868 295.757 66.7016 295.937 66.588C296.121 66.4696 296.214 66.2873 296.214 66.0411V65.9985C296.214 65.4634 296.055 65.0491 295.738 64.7556C295.421 64.462 294.964 64.3152 294.367 64.3152C293.737 64.3152 293.238 64.4526 292.868 64.7272C292.504 65.0018 292.258 65.3261 292.13 65.7002L289.729 65.3593C289.919 64.6964 290.231 64.1424 290.667 63.6973C291.102 63.2475 291.635 62.9114 292.265 62.6888C292.894 62.4615 293.59 62.3479 294.353 62.3479C294.878 62.3479 295.402 62.4095 295.922 62.5326C296.443 62.6557 296.919 62.8593 297.35 63.1434C297.781 63.4227 298.126 63.8039 298.387 64.2868C298.652 64.7698 298.785 65.3735 298.785 66.0979V73.399H296.313V71.9005H296.228C296.072 72.2035 295.851 72.4876 295.567 72.7527C295.288 73.0132 294.935 73.2239 294.509 73.3848C294.088 73.5411 293.593 73.6192 293.025 73.6192ZM293.692 71.73C294.208 71.73 294.656 71.6282 295.035 71.4246C295.413 71.2163 295.705 70.9417 295.908 70.6008C296.117 70.2598 296.221 69.8882 296.221 69.4857V68.2002C296.14 68.2665 296.003 68.328 295.809 68.3848C295.619 68.4417 295.406 68.4914 295.17 68.534C294.933 68.5766 294.698 68.6145 294.466 68.6476C294.234 68.6808 294.033 68.7092 293.863 68.7329C293.479 68.7849 293.136 68.8702 292.833 68.9885C292.53 69.1069 292.291 69.2726 292.116 69.4857C291.94 69.694 291.853 69.9639 291.853 70.2954C291.853 70.7688 292.026 71.1263 292.371 71.3678C292.717 71.6093 293.157 71.73 293.692 71.73ZM303.941 67.007V73.399H301.37V62.49H303.827V64.3436H303.955C304.206 63.7329 304.606 63.2475 305.155 62.8877C305.709 62.5278 306.394 62.3479 307.208 62.3479C307.961 62.3479 308.617 62.5089 309.175 62.8309C309.739 63.1528 310.174 63.6192 310.482 64.23C310.795 64.8408 310.948 65.5818 310.944 66.453V73.399H308.373V66.8508C308.373 66.1216 308.183 65.551 307.805 65.1391C307.43 64.7272 306.912 64.5212 306.249 64.5212C305.799 64.5212 305.399 64.6206 305.049 64.8195C304.703 65.0136 304.431 65.2954 304.232 65.6647C304.038 66.034 303.941 66.4814 303.941 67.007ZM86.0929 105.49C85.7425 105.49 85.4181 105.462 85.1199 105.405C84.8263 105.353 84.5919 105.291 84.4167 105.22L85.0133 103.217C85.3874 103.326 85.7212 103.378 86.0147 103.373C86.3083 103.369 86.5663 103.276 86.7889 103.096C87.0162 102.921 87.2079 102.628 87.3642 102.216L87.5843 101.626L83.6284 90.49H86.3556L88.8699 98.7286H88.9835L91.5048 90.49H94.2392L89.8713 102.72C89.6677 103.298 89.3978 103.793 89.0616 104.204C88.7254 104.621 88.3135 104.938 87.8258 105.156C87.3429 105.379 86.7652 105.49 86.0929 105.49ZM100.406 101.612C99.3404 101.612 98.4171 101.378 97.6358 100.909C96.8546 100.44 96.2485 99.7845 95.8176 98.9417C95.3915 98.0989 95.1784 97.114 95.1784 95.9871C95.1784 94.8602 95.3915 93.873 95.8176 93.0255C96.2485 92.1779 96.8546 91.5198 97.6358 91.051C98.4171 90.5823 99.3404 90.3479 100.406 90.3479C101.471 90.3479 102.394 90.5823 103.176 91.051C103.957 91.5198 104.561 92.1779 104.987 93.0255C105.418 93.873 105.633 94.8602 105.633 95.9871C105.633 97.114 105.418 98.0989 104.987 98.9417C104.561 99.7845 103.957 100.44 103.176 100.909C102.394 101.378 101.471 101.612 100.406 101.612ZM100.42 99.5525C100.998 99.5525 101.481 99.3938 101.869 99.0766C102.257 98.7546 102.546 98.3238 102.735 97.784C102.929 97.2442 103.026 96.6429 103.026 95.98C103.026 95.3124 102.929 94.7087 102.735 94.1689C102.546 93.6244 102.257 93.1912 101.869 92.8692C101.481 92.5472 100.998 92.3863 100.42 92.3863C99.8281 92.3863 99.3356 92.5472 98.9426 92.8692C98.5544 93.1912 98.2632 93.6244 98.0691 94.1689C97.8797 94.7087 97.785 95.3124 97.785 95.98C97.785 96.6429 97.8797 97.2442 98.0691 97.784C98.2632 98.3238 98.5544 98.7546 98.9426 99.0766C99.3356 99.3938 99.8281 99.5525 100.42 99.5525ZM114.768 96.811V90.49H117.339V101.399H114.846V99.4601H114.733C114.487 100.071 114.082 100.57 113.518 100.959C112.96 101.347 112.271 101.541 111.452 101.541C110.737 101.541 110.104 101.382 109.555 101.065C109.011 100.743 108.585 100.277 108.277 99.6661C107.969 99.0506 107.815 98.3072 107.815 97.436V90.49H110.386V97.0383C110.386 97.7295 110.576 98.2788 110.954 98.686C111.333 99.0932 111.83 99.2968 112.446 99.2968C112.825 99.2968 113.192 99.2044 113.547 99.0198C113.902 98.8351 114.193 98.5605 114.42 98.1959C114.652 97.8266 114.768 97.365 114.768 96.811ZM124.944 101.399V90.49H127.401V92.3436H127.529C127.757 91.7186 128.133 91.231 128.659 90.8806C129.184 90.5255 129.811 90.3479 130.541 90.3479C131.279 90.3479 131.902 90.5278 132.409 90.8877C132.92 91.2428 133.28 91.7281 133.488 92.3436H133.602C133.843 91.7376 134.25 91.2546 134.823 90.8948C135.401 90.5302 136.085 90.3479 136.876 90.3479C137.88 90.3479 138.699 90.6651 139.333 91.2996C139.968 91.9341 140.285 92.8597 140.285 94.0766V101.399H137.707V94.4743C137.707 93.7972 137.527 93.3025 137.167 92.99C136.807 92.6727 136.367 92.5141 135.846 92.5141C135.226 92.5141 134.74 92.7082 134.39 93.0965C134.044 93.48 133.872 93.9795 133.872 94.5951V101.399H131.35V94.3678C131.35 93.8044 131.18 93.3545 130.839 93.0184C130.503 92.6822 130.062 92.5141 129.518 92.5141C129.149 92.5141 128.812 92.6088 128.509 92.7982C128.206 92.9829 127.965 93.2456 127.785 93.5865C127.605 93.9227 127.515 94.3157 127.515 94.7655V101.399H124.944ZM146.032 101.619C145.341 101.619 144.719 101.496 144.165 101.25C143.615 100.999 143.18 100.63 142.858 100.142C142.541 99.6543 142.382 99.0529 142.382 98.338C142.382 97.7224 142.496 97.2134 142.723 96.811C142.95 96.4085 143.26 96.0865 143.653 95.8451C144.046 95.6036 144.489 95.4213 144.981 95.2982C145.479 95.1704 145.992 95.078 146.523 95.0212C147.162 94.9549 147.68 94.8957 148.078 94.8436C148.476 94.7868 148.765 94.7016 148.944 94.588C149.129 94.4696 149.221 94.2873 149.221 94.0411V93.9985C149.221 93.4634 149.063 93.0491 148.746 92.7556C148.428 92.462 147.971 92.3152 147.375 92.3152C146.745 92.3152 146.246 92.4526 145.876 92.7272C145.512 93.0018 145.265 93.3261 145.138 93.7002L142.737 93.3593C142.926 92.6964 143.239 92.1424 143.675 91.6973C144.11 91.2475 144.643 90.9114 145.273 90.6888C145.902 90.4615 146.598 90.3479 147.361 90.3479C147.886 90.3479 148.409 90.4095 148.93 90.5326C149.451 90.6557 149.927 90.8593 150.358 91.1434C150.789 91.4227 151.134 91.8039 151.395 92.2868C151.66 92.7698 151.792 93.3735 151.792 94.0979V101.399H149.321V99.9005H149.236C149.079 100.203 148.859 100.488 148.575 100.753C148.296 101.013 147.943 101.224 147.517 101.385C147.095 101.541 146.601 101.619 146.032 101.619ZM146.7 99.73C147.216 99.73 147.664 99.6282 148.042 99.4246C148.421 99.2163 148.712 98.9417 148.916 98.6008C149.124 98.2598 149.229 97.8882 149.229 97.4857V96.2002C149.148 96.2665 149.011 96.328 148.817 96.3848C148.627 96.4417 148.414 96.4914 148.177 96.534C147.941 96.5766 147.706 96.6145 147.474 96.6476C147.242 96.6808 147.041 96.7092 146.871 96.7329C146.487 96.7849 146.144 96.8702 145.841 96.9885C145.538 97.1069 145.299 97.2726 145.123 97.4857C144.948 97.694 144.861 97.9639 144.861 98.2954C144.861 98.7688 145.033 99.1263 145.379 99.3678C145.725 99.6093 146.165 99.73 146.7 99.73ZM156.949 95.007V101.399H154.378V90.49H156.835V92.3436H156.963C157.214 91.7329 157.614 91.2475 158.163 90.8877C158.717 90.5278 159.401 90.3479 160.216 90.3479C160.969 90.3479 161.624 90.5089 162.183 90.8309C162.747 91.1528 163.182 91.6192 163.49 92.23C163.802 92.8408 163.956 93.5818 163.952 94.453V101.399H161.381V94.8508C161.381 94.1216 161.191 93.551 160.812 93.1391C160.438 92.7272 159.92 92.5212 159.257 92.5212C158.807 92.5212 158.407 92.6206 158.057 92.8195C157.711 93.0136 157.439 93.2954 157.24 93.6647C157.046 94.034 156.949 94.4814 156.949 95.007ZM169.704 101.619C169.013 101.619 168.39 101.496 167.836 101.25C167.287 100.999 166.852 100.63 166.53 100.142C166.212 99.6543 166.054 99.0529 166.054 98.338C166.054 97.7224 166.167 97.2134 166.395 96.811C166.622 96.4085 166.932 96.0865 167.325 95.8451C167.718 95.6036 168.161 95.4213 168.653 95.2982C169.15 95.1704 169.664 95.078 170.194 95.0212C170.834 94.9549 171.352 94.8957 171.75 94.8436C172.148 94.7868 172.436 94.7016 172.616 94.588C172.801 94.4696 172.893 94.2873 172.893 94.0411V93.9985C172.893 93.4634 172.735 93.0491 172.417 92.7556C172.1 92.462 171.643 92.3152 171.047 92.3152C170.417 92.3152 169.917 92.4526 169.548 92.7272C169.184 93.0018 168.937 93.3261 168.809 93.7002L166.409 93.3593C166.598 92.6964 166.911 92.1424 167.346 91.6973C167.782 91.2475 168.315 90.9114 168.944 90.6888C169.574 90.4615 170.27 90.3479 171.032 90.3479C171.558 90.3479 172.081 90.4095 172.602 90.5326C173.123 90.6557 173.599 90.8593 174.03 91.1434C174.461 91.4227 174.806 91.8039 175.067 92.2868C175.332 92.7698 175.464 93.3735 175.464 94.0979V101.399H172.993V99.9005H172.907C172.751 100.203 172.531 100.488 172.247 100.753C171.968 101.013 171.615 101.224 171.189 101.385C170.767 101.541 170.273 101.619 169.704 101.619ZM170.372 99.73C170.888 99.73 171.336 99.6282 171.714 99.4246C172.093 99.2163 172.384 98.9417 172.588 98.6008C172.796 98.2598 172.9 97.8882 172.9 97.4857V96.2002C172.82 96.2665 172.683 96.328 172.488 96.3848C172.299 96.4417 172.086 96.4914 171.849 96.534C171.613 96.5766 171.378 96.6145 171.146 96.6476C170.914 96.6808 170.713 96.7092 170.542 96.7329C170.159 96.7849 169.816 96.8702 169.513 96.9885C169.21 97.1069 168.97 97.2726 168.795 97.4857C168.62 97.694 168.532 97.9639 168.532 98.2954C168.532 98.7688 168.705 99.1263 169.051 99.3678C169.397 99.6093 169.837 99.73 170.372 99.73ZM182.794 105.717C181.871 105.717 181.077 105.592 180.415 105.341C179.752 105.095 179.219 104.763 178.817 104.346C178.414 103.93 178.135 103.468 177.979 102.962L180.294 102.4C180.398 102.614 180.55 102.824 180.748 103.033C180.947 103.246 181.215 103.421 181.551 103.558C181.892 103.7 182.32 103.771 182.836 103.771C183.566 103.771 184.169 103.594 184.648 103.239C185.126 102.888 185.365 102.311 185.365 101.506V99.4388H185.237C185.104 99.704 184.91 99.9762 184.655 100.256C184.404 100.535 184.07 100.769 183.653 100.959C183.241 101.148 182.723 101.243 182.098 101.243C181.26 101.243 180.5 101.046 179.818 100.653C179.141 100.256 178.601 99.6637 178.199 98.8777C177.801 98.087 177.602 97.0974 177.602 95.909C177.602 94.7111 177.801 93.7002 178.199 92.8763C178.601 92.0477 179.143 91.4204 179.825 90.9942C180.507 90.5633 181.267 90.3479 182.105 90.3479C182.744 90.3479 183.27 90.4568 183.682 90.6746C184.098 90.8877 184.43 91.1457 184.676 91.4488C184.922 91.7471 185.109 92.0288 185.237 92.2939H185.379V90.49H187.915V101.577C187.915 102.509 187.692 103.281 187.247 103.892C186.802 104.503 186.193 104.96 185.422 105.263C184.65 105.566 183.774 105.717 182.794 105.717ZM182.815 99.2258C183.36 99.2258 183.824 99.0932 184.207 98.828C184.591 98.5629 184.882 98.1817 185.081 97.6846C185.28 97.1874 185.379 96.5908 185.379 95.8948C185.379 95.2082 185.28 94.6069 185.081 94.0908C184.887 93.5747 184.598 93.1746 184.214 92.8905C183.836 92.6017 183.369 92.4573 182.815 92.4573C182.242 92.4573 181.764 92.6064 181.381 92.9047C180.997 93.203 180.708 93.6126 180.514 94.1334C180.32 94.6495 180.223 95.2366 180.223 95.8948C180.223 96.5624 180.32 97.1472 180.514 97.649C180.713 98.1462 181.004 98.5345 181.388 98.8138C181.776 99.0884 182.252 99.2258 182.815 99.2258ZM195.379 101.612C194.285 101.612 193.341 101.385 192.545 100.93C191.755 100.471 191.146 99.8223 190.72 98.9843C190.294 98.1415 190.081 97.1495 190.081 96.0084C190.081 94.8863 190.294 93.9014 190.72 93.0539C191.151 92.2016 191.752 91.5387 192.524 91.0652C193.296 90.587 194.202 90.3479 195.244 90.3479C195.916 90.3479 196.551 90.4568 197.148 90.6746C197.749 90.8877 198.279 91.2191 198.738 91.6689C199.202 92.1187 199.567 92.6917 199.832 93.3877C200.097 94.079 200.23 94.9028 200.23 95.8593V96.6476H191.288V94.9147H197.765C197.761 94.4222 197.654 93.9843 197.446 93.6008C197.238 93.2125 196.946 92.9071 196.572 92.6846C196.203 92.462 195.772 92.3508 195.28 92.3508C194.754 92.3508 194.292 92.4786 193.895 92.7343C193.497 92.9852 193.187 93.3167 192.964 93.7286C192.747 94.1358 192.635 94.5832 192.631 95.0709V96.5837C192.631 97.2182 192.747 97.7627 192.979 98.2172C193.211 98.667 193.535 99.0127 193.952 99.2542C194.368 99.4909 194.856 99.6093 195.415 99.6093C195.789 99.6093 196.127 99.5572 196.43 99.453C196.733 99.3441 196.996 99.1855 197.219 98.9772C197.441 98.7688 197.609 98.5108 197.723 98.203L200.123 98.4729C199.972 99.1074 199.683 99.6614 199.257 100.135C198.836 100.604 198.296 100.968 197.638 101.229C196.979 101.484 196.227 101.612 195.379 101.612ZM212.813 90.49V92.4786H206.542V90.49H212.813ZM208.09 87.8763H210.661V98.1178C210.661 98.4634 210.713 98.7286 210.818 98.9133C210.927 99.0932 211.069 99.2163 211.244 99.2826C211.419 99.3489 211.613 99.382 211.826 99.382C211.987 99.382 212.134 99.3702 212.267 99.3465C212.404 99.3228 212.508 99.3015 212.579 99.2826L213.012 101.293C212.875 101.34 212.678 101.392 212.423 101.449C212.172 101.506 211.864 101.539 211.499 101.548C210.856 101.567 210.276 101.47 209.759 101.257C209.243 101.039 208.834 100.703 208.531 100.248C208.232 99.7939 208.086 99.2258 208.09 98.5439V87.8763ZM217.769 95.007V101.399H215.198V86.8536H217.712V92.3436H217.84C218.096 91.7281 218.491 91.2428 219.026 90.8877C219.566 90.5278 220.252 90.3479 221.086 90.3479C221.843 90.3479 222.504 90.5065 223.067 90.8238C223.631 91.141 224.066 91.605 224.374 92.2158C224.687 92.8266 224.843 93.5723 224.843 94.453V101.399H222.272V94.8508C222.272 94.1169 222.082 93.5463 221.704 93.1391C221.33 92.7272 220.804 92.5212 220.127 92.5212C219.672 92.5212 219.265 92.6206 218.905 92.8195C218.55 93.0136 218.271 93.2954 218.067 93.6647C217.868 94.034 217.769 94.4814 217.769 95.007ZM232.293 101.612C231.199 101.612 230.255 101.385 229.459 100.93C228.669 100.471 228.06 99.8223 227.634 98.9843C227.208 98.1415 226.995 97.1495 226.995 96.0084C226.995 94.8863 227.208 93.9014 227.634 93.0539C228.065 92.2016 228.666 91.5387 229.438 91.0652C230.21 90.587 231.117 90.3479 232.158 90.3479C232.831 90.3479 233.465 90.4568 234.062 90.6746C234.663 90.8877 235.193 91.2191 235.653 91.6689C236.117 92.1187 236.481 92.6917 236.746 93.3877C237.011 94.079 237.144 94.9028 237.144 95.8593V96.6476H228.202V94.9147H234.68C234.675 94.4222 234.568 93.9843 234.36 93.6008C234.152 93.2125 233.86 92.9071 233.486 92.6846C233.117 92.462 232.686 92.3508 232.194 92.3508C231.668 92.3508 231.206 92.4786 230.809 92.7343C230.411 92.9852 230.101 93.3167 229.878 93.7286C229.661 94.1358 229.549 94.5832 229.545 95.0709V96.5837C229.545 97.2182 229.661 97.7627 229.893 98.2172C230.125 98.667 230.449 99.0127 230.866 99.2542C231.282 99.4909 231.77 99.6093 232.329 99.6093C232.703 99.6093 233.041 99.5572 233.344 99.453C233.647 99.3441 233.91 99.1855 234.133 98.9772C234.355 98.7688 234.523 98.5108 234.637 98.203L237.037 98.4729C236.886 99.1074 236.597 99.6614 236.171 100.135C235.75 100.604 235.21 100.968 234.552 101.229C233.894 101.484 233.141 101.612 232.293 101.612ZM239.319 101.399V90.49H241.776V92.3436H241.904C242.132 91.7186 242.508 91.231 243.034 90.8806C243.559 90.5255 244.186 90.3479 244.916 90.3479C245.654 90.3479 246.277 90.5278 246.784 90.8877C247.295 91.2428 247.655 91.7281 247.863 92.3436H247.977C248.218 91.7376 248.625 91.2546 249.198 90.8948C249.776 90.5302 250.46 90.3479 251.251 90.3479C252.255 90.3479 253.074 90.6651 253.708 91.2996C254.343 91.9341 254.66 92.8597 254.66 94.0766V101.399H252.082V94.4743C252.082 93.7972 251.902 93.3025 251.542 92.99C251.182 92.6727 250.742 92.5141 250.221 92.5141C249.601 92.5141 249.115 92.7082 248.765 93.0965C248.419 93.48 248.247 93.9795 248.247 94.5951V101.399H245.725V94.3678C245.725 93.8044 245.555 93.3545 245.214 93.0184C244.878 92.6822 244.437 92.5141 243.893 92.5141C243.524 92.5141 243.187 92.6088 242.884 92.7982C242.581 92.9829 242.34 93.2456 242.16 93.5865C241.98 93.9227 241.89 94.3157 241.89 94.7655V101.399H239.319ZM259.726 97.1235V96.9388C259.73 96.0818 259.811 95.4 259.967 94.8934C260.128 94.3867 260.355 93.9795 260.649 93.6718C260.943 93.3593 261.3 93.0728 261.721 92.8124C262.01 92.6325 262.268 92.436 262.496 92.2229C262.728 92.0051 262.91 91.7636 263.042 91.4985C263.175 91.2286 263.241 90.9279 263.241 90.5965C263.241 90.2224 263.154 89.8981 262.979 89.6235C262.803 89.3489 262.567 89.1358 262.268 88.9843C261.975 88.8328 261.646 88.757 261.281 88.757C260.945 88.757 260.625 88.8304 260.322 88.9772C260.024 89.1192 259.775 89.337 259.577 89.6306C259.382 89.9194 259.273 90.2864 259.25 90.7314H256.721C256.745 89.8318 256.963 89.079 257.375 88.4729C257.791 87.8669 258.341 87.4123 259.023 87.1093C259.709 86.8062 260.467 86.6547 261.295 86.6547C262.2 86.6547 262.995 86.8133 263.682 87.1306C264.373 87.4478 264.91 87.9 265.294 88.4871C265.682 89.0695 265.876 89.7608 265.876 90.561C265.876 91.1008 265.789 91.5837 265.613 92.0098C265.443 92.436 265.199 92.8148 264.882 93.1462C264.565 93.4776 264.188 93.7736 263.753 94.034C263.369 94.2707 263.054 94.5169 262.808 94.7726C262.567 95.0283 262.387 95.329 262.268 95.6746C262.155 96.0155 262.095 96.4369 262.091 96.9388V97.1235H259.726ZM260.961 101.555C260.535 101.555 260.168 101.404 259.861 101.101C259.553 100.798 259.399 100.428 259.399 99.9928C259.399 99.5667 259.553 99.2021 259.861 98.899C260.168 98.596 260.535 98.4445 260.961 98.4445C261.383 98.4445 261.747 98.596 262.055 98.899C262.368 99.2021 262.524 99.5667 262.524 99.9928C262.524 100.282 262.451 100.544 262.304 100.781C262.162 101.018 261.972 101.207 261.736 101.349C261.504 101.487 261.246 101.555 260.961 101.555Z" fill="#717171"/>
<path d="M110.935 153.399V138.854H116.389C117.507 138.854 118.444 139.048 119.202 139.436C119.964 139.824 120.539 140.369 120.928 141.07C121.321 141.766 121.517 142.578 121.517 143.506C121.517 144.438 121.318 145.248 120.92 145.935C120.527 146.616 119.947 147.144 119.18 147.518C118.413 147.888 117.471 148.072 116.354 148.072H112.469V145.885H115.999C116.652 145.885 117.187 145.795 117.604 145.615C118.02 145.43 118.328 145.163 118.527 144.812C118.731 144.457 118.832 144.022 118.832 143.506C118.832 142.989 118.731 142.549 118.527 142.185C118.323 141.815 118.013 141.536 117.597 141.346C117.18 141.152 116.643 141.055 115.984 141.055H113.57V153.399H110.935ZM118.449 146.808L122.05 153.399H119.109L115.572 146.808H118.449ZM128.502 153.612C127.408 153.612 126.464 153.385 125.668 152.93C124.878 152.471 124.269 151.822 123.843 150.984C123.417 150.141 123.204 149.15 123.204 148.008C123.204 146.886 123.417 145.901 123.843 145.054C124.274 144.202 124.875 143.539 125.647 143.065C126.419 142.587 127.326 142.348 128.367 142.348C129.04 142.348 129.674 142.457 130.271 142.675C130.872 142.888 131.402 143.219 131.862 143.669C132.326 144.119 132.69 144.692 132.955 145.388C133.22 146.079 133.353 146.903 133.353 147.859V148.648H124.411V146.915H130.888C130.884 146.422 130.777 145.984 130.569 145.601C130.361 145.212 130.069 144.907 129.695 144.685C129.326 144.462 128.895 144.351 128.403 144.351C127.877 144.351 127.415 144.479 127.018 144.734C126.62 144.985 126.31 145.317 126.087 145.729C125.87 146.136 125.758 146.583 125.754 147.071V148.584C125.754 149.218 125.87 149.763 126.102 150.217C126.334 150.667 126.658 151.013 127.075 151.254C127.491 151.491 127.979 151.609 128.538 151.609C128.912 151.609 129.25 151.557 129.553 151.453C129.856 151.344 130.119 151.186 130.342 150.977C130.564 150.769 130.732 150.511 130.846 150.203L133.246 150.473C133.095 151.107 132.806 151.661 132.38 152.135C131.959 152.604 131.419 152.968 130.761 153.229C130.103 153.484 129.35 153.612 128.502 153.612ZM138.667 153.619C137.976 153.619 137.353 153.496 136.799 153.25C136.25 152.999 135.815 152.63 135.493 152.142C135.175 151.654 135.017 151.053 135.017 150.338C135.017 149.722 135.13 149.213 135.358 148.811C135.585 148.409 135.895 148.087 136.288 147.845C136.681 147.604 137.124 147.421 137.616 147.298C138.113 147.17 138.627 147.078 139.157 147.021C139.797 146.955 140.315 146.896 140.713 146.844C141.11 146.787 141.399 146.702 141.579 146.588C141.764 146.47 141.856 146.287 141.856 146.041V145.998C141.856 145.463 141.698 145.049 141.38 144.756C141.063 144.462 140.606 144.315 140.01 144.315C139.38 144.315 138.88 144.453 138.511 144.727C138.146 145.002 137.9 145.326 137.772 145.7L135.372 145.359C135.561 144.696 135.874 144.142 136.309 143.697C136.745 143.248 137.278 142.911 137.907 142.689C138.537 142.462 139.233 142.348 139.995 142.348C140.521 142.348 141.044 142.409 141.565 142.533C142.086 142.656 142.562 142.859 142.993 143.143C143.423 143.423 143.769 143.804 144.029 144.287C144.295 144.77 144.427 145.373 144.427 146.098V153.399H141.956V151.9H141.87C141.714 152.203 141.494 152.488 141.21 152.753C140.931 153.013 140.578 153.224 140.152 153.385C139.73 153.541 139.235 153.619 138.667 153.619ZM139.335 151.73C139.851 151.73 140.298 151.628 140.677 151.425C141.056 151.216 141.347 150.942 141.551 150.601C141.759 150.26 141.863 149.888 141.863 149.486V148.2C141.783 148.266 141.645 148.328 141.451 148.385C141.262 148.442 141.049 148.491 140.812 148.534C140.575 148.577 140.341 148.614 140.109 148.648C139.877 148.681 139.676 148.709 139.505 148.733C139.122 148.785 138.779 148.87 138.475 148.989C138.172 149.107 137.933 149.273 137.758 149.486C137.583 149.694 137.495 149.964 137.495 150.295C137.495 150.769 137.668 151.126 138.014 151.368C138.359 151.609 138.8 151.73 139.335 151.73ZM151.061 153.591C150.204 153.591 149.437 153.371 148.76 152.93C148.083 152.49 147.547 151.851 147.154 151.013C146.761 150.175 146.565 149.157 146.565 147.959C146.565 146.747 146.764 145.724 147.162 144.891C147.564 144.052 148.106 143.42 148.788 142.994C149.47 142.563 150.23 142.348 151.068 142.348C151.707 142.348 152.233 142.457 152.645 142.675C153.056 142.888 153.383 143.146 153.625 143.449C153.866 143.747 154.053 144.029 154.186 144.294H154.292V138.854H156.87V153.399H154.342V151.68H154.186C154.053 151.945 153.861 152.227 153.61 152.525C153.359 152.819 153.028 153.07 152.616 153.278C152.204 153.487 151.686 153.591 151.061 153.591ZM151.778 151.481C152.323 151.481 152.787 151.335 153.17 151.041C153.554 150.743 153.845 150.328 154.044 149.798C154.243 149.268 154.342 148.65 154.342 147.945C154.342 147.239 154.243 146.626 154.044 146.105C153.85 145.584 153.561 145.179 153.177 144.891C152.798 144.602 152.332 144.457 151.778 144.457C151.205 144.457 150.727 144.606 150.343 144.905C149.96 145.203 149.671 145.615 149.477 146.141C149.283 146.666 149.186 147.267 149.186 147.945C149.186 148.626 149.283 149.235 149.477 149.77C149.676 150.3 149.967 150.719 150.35 151.027C150.739 151.33 151.215 151.481 151.778 151.481ZM159.61 153.399V142.49H162.067V144.344H162.195C162.423 143.719 162.799 143.231 163.325 142.881C163.85 142.525 164.478 142.348 165.207 142.348C165.945 142.348 166.568 142.528 167.075 142.888C167.586 143.243 167.946 143.728 168.154 144.344H168.268C168.509 143.738 168.916 143.255 169.489 142.895C170.067 142.53 170.751 142.348 171.542 142.348C172.546 142.348 173.365 142.665 173.999 143.3C174.634 143.934 174.951 144.86 174.951 146.077V153.399H172.373V146.474C172.373 145.797 172.193 145.302 171.833 144.99C171.473 144.673 171.033 144.514 170.512 144.514C169.892 144.514 169.406 144.708 169.056 145.096C168.71 145.48 168.538 145.98 168.538 146.595V153.399H166.016V146.368C166.016 145.804 165.846 145.355 165.505 145.018C165.169 144.682 164.728 144.514 164.184 144.514C163.815 144.514 163.478 144.609 163.175 144.798C162.872 144.983 162.631 145.246 162.451 145.587C162.271 145.923 162.181 146.316 162.181 146.766V153.399H159.61ZM182.318 153.612C181.252 153.612 180.329 153.378 179.548 152.909C178.767 152.44 178.161 151.784 177.73 150.942C177.304 150.099 177.091 149.114 177.091 147.987C177.091 146.86 177.304 145.873 177.73 145.025C178.161 144.178 178.767 143.52 179.548 143.051C180.329 142.582 181.252 142.348 182.318 142.348C183.383 142.348 184.306 142.582 185.088 143.051C185.869 143.52 186.473 144.178 186.899 145.025C187.33 145.873 187.545 146.86 187.545 147.987C187.545 149.114 187.33 150.099 186.899 150.942C186.473 151.784 185.869 152.44 185.088 152.909C184.306 153.378 183.383 153.612 182.318 153.612ZM182.332 151.552C182.91 151.552 183.393 151.394 183.781 151.077C184.169 150.755 184.458 150.324 184.647 149.784C184.842 149.244 184.939 148.643 184.939 147.98C184.939 147.312 184.842 146.709 184.647 146.169C184.458 145.624 184.169 145.191 183.781 144.869C183.393 144.547 182.91 144.386 182.332 144.386C181.74 144.386 181.248 144.547 180.855 144.869C180.467 145.191 180.175 145.624 179.981 146.169C179.792 146.709 179.697 147.312 179.697 147.98C179.697 148.643 179.792 149.244 179.981 149.784C180.175 150.324 180.467 150.755 180.855 151.077C181.248 151.394 181.74 151.552 182.332 151.552ZM189.727 153.399V142.49H192.22V144.308H192.334C192.533 143.678 192.874 143.193 193.357 142.852C193.844 142.507 194.401 142.334 195.026 142.334C195.168 142.334 195.326 142.341 195.501 142.355C195.681 142.364 195.83 142.381 195.949 142.405V144.77C195.84 144.732 195.667 144.699 195.43 144.67C195.198 144.637 194.973 144.621 194.756 144.621C194.287 144.621 193.866 144.722 193.491 144.926C193.122 145.125 192.831 145.402 192.618 145.757C192.405 146.112 192.298 146.522 192.298 146.986V153.399H189.727ZM202.037 153.612C200.944 153.612 199.999 153.385 199.203 152.93C198.413 152.471 197.804 151.822 197.378 150.984C196.952 150.141 196.739 149.15 196.739 148.008C196.739 146.886 196.952 145.901 197.378 145.054C197.809 144.202 198.41 143.539 199.182 143.065C199.954 142.587 200.861 142.348 201.902 142.348C202.575 142.348 203.209 142.457 203.806 142.675C204.407 142.888 204.937 143.219 205.397 143.669C205.861 144.119 206.225 144.692 206.49 145.388C206.756 146.079 206.888 146.903 206.888 147.859V148.648H197.946V146.915H204.424C204.419 146.422 204.312 145.984 204.104 145.601C203.896 145.212 203.605 144.907 203.23 144.685C202.861 144.462 202.43 144.351 201.938 144.351C201.412 144.351 200.951 144.479 200.553 144.734C200.155 144.985 199.845 145.317 199.623 145.729C199.405 146.136 199.293 146.583 199.289 147.071V148.584C199.289 149.218 199.405 149.763 199.637 150.217C199.869 150.667 200.193 151.013 200.61 151.254C201.026 151.491 201.514 151.609 202.073 151.609C202.447 151.609 202.785 151.557 203.088 151.453C203.391 151.344 203.654 151.186 203.877 150.977C204.099 150.769 204.267 150.511 204.381 150.203L206.782 150.473C206.63 151.107 206.341 151.661 205.915 152.135C205.494 152.604 204.954 152.968 204.296 153.229C203.638 153.484 202.885 153.612 202.037 153.612Z" fill="#4CAF4F"/>
<path d="M232.5 150.399L235.793 147.106C236.183 146.716 236.183 146.082 235.793 145.692L232.5 142.399M235.5 146.399L221.5 146.399" stroke="#4CAF4F" stroke-width="1.5" stroke-linecap="round"/>
</g>
<defs>
<filter id="filter0_d_22_892" x="0.5" y="0.399048" width="349" height="208" filterUnits="userSpaceOnUse" color-interpolation-filters="sRGB">
<feFlood flood-opacity="0" result="BackgroundImageFix"/>
<feColorMatrix in="SourceAlpha" type="matrix" values="0 0 0 0 0 0 0 0 0 0 0 0 0 0 0 0 0 0 127 0" result="hardAlpha"/>
<feOffset dy="8"/>
<feGaussianBlur stdDeviation="8"/>
<feComposite in2="hardAlpha" operator="out"/>
<feColorMatrix type="matrix" values="0 0 0 0 0.670588 0 0 0 0 0.745098 0 0 0 0 0.819608 0 0 0 0.4 0"/>
<feBlend mode="normal" in2="BackgroundImageFix" result="effect1_dropShadow_22_892"/>
<feBlend mode="normal" in="SourceGraphic" in2="effect1_dropShadow_22_892" result="shape"/>
</filter>
</defs>
</svg>
