<svg width="540" height="120" viewBox="0 0 540 120" fill="none" xmlns="http://www.w3.org/2000/svg">
<g clip-path="url(#clip0_16_1447)">
<g clip-path="url(#clip1_16_1447)">
<path d="M2.58239 35V8.81818H7.32528V19.902H19.4574V8.81818H24.2131V35H19.4574V23.8778H7.32528V35H2.58239ZM37.8601 35.3835C35.8913 35.3835 34.1911 34.9744 32.7592 34.1562C31.3359 33.3295 30.2408 32.1619 29.4737 30.6534C28.7067 29.1364 28.3232 27.3509 28.3232 25.2969C28.3232 23.277 28.7067 21.5043 29.4737 19.9787C30.2493 18.4446 31.3317 17.2514 32.7209 16.3991C34.1101 15.5384 35.7422 15.108 37.6172 15.108C38.8274 15.108 39.9695 15.304 41.0433 15.696C42.1257 16.0795 43.0803 16.6761 43.907 17.4858C44.7422 18.2955 45.3984 19.3267 45.8757 20.5795C46.353 21.8239 46.5916 23.3068 46.5916 25.0284V26.4474H30.4964V23.3281H42.1555C42.147 22.4418 41.9553 21.6534 41.5803 20.9631C41.2053 20.2642 40.6811 19.7145 40.0078 19.3139C39.343 18.9134 38.5675 18.7131 37.6811 18.7131C36.7351 18.7131 35.9041 18.9432 35.1882 19.4034C34.4723 19.8551 33.9141 20.4517 33.5135 21.1932C33.1214 21.9261 32.9212 22.7315 32.9126 23.6094V26.3324C32.9126 27.4744 33.1214 28.4545 33.5391 29.2727C33.9567 30.0824 34.5405 30.7045 35.2905 31.1392C36.0405 31.5653 36.9183 31.7784 37.924 31.7784C38.5973 31.7784 39.2067 31.6847 39.7521 31.4972C40.2976 31.3011 40.7706 31.0156 41.1712 30.6406C41.5717 30.2656 41.8743 29.8011 42.0788 29.2472L46.3999 29.733C46.1271 30.875 45.6072 31.8722 44.8402 32.7244C44.0817 33.5682 43.1101 34.2244 41.9254 34.6932C40.7408 35.1534 39.3857 35.3835 37.8601 35.3835ZM55.1346 8.81818V35H50.5067V8.81818H55.1346ZM59.8935 42.3636V15.3636H64.4446V18.6108H64.7131C64.9517 18.1335 65.2884 17.6264 65.723 17.0895C66.1577 16.544 66.7457 16.0795 67.4872 15.696C68.2287 15.304 69.1747 15.108 70.3253 15.108C71.8423 15.108 73.2102 15.4957 74.429 16.2713C75.6563 17.0384 76.6278 18.1761 77.3438 19.6847C78.0682 21.1847 78.4304 23.0256 78.4304 25.2074C78.4304 27.3636 78.0767 29.196 77.3693 30.7045C76.6619 32.2131 75.6989 33.3636 74.4801 34.1562C73.2614 34.9489 71.8807 35.3452 70.3381 35.3452C69.2131 35.3452 68.2798 35.1577 67.5384 34.7827C66.7969 34.4077 66.2003 33.956 65.7486 33.4276C65.3054 32.8906 64.9602 32.3835 64.7131 31.9062H64.5213V42.3636H59.8935ZM64.4318 25.1818C64.4318 26.4517 64.6108 27.5639 64.9688 28.5185C65.3352 29.473 65.8594 30.2187 66.5412 30.7557C67.2315 31.2841 68.0668 31.5483 69.0469 31.5483C70.0696 31.5483 70.9261 31.2756 71.6165 30.7301C72.3068 30.1761 72.8267 29.4219 73.1761 28.4673C73.5341 27.5043 73.7131 26.4091 73.7131 25.1818C73.7131 23.9631 73.5384 22.8807 73.1889 21.9347C72.8395 20.9886 72.3196 20.2472 71.6293 19.7102C70.9389 19.1733 70.0781 18.9048 69.0469 18.9048C68.0582 18.9048 67.2188 19.1648 66.5284 19.6847C65.8381 20.2045 65.3139 20.9332 64.956 21.8707C64.6065 22.8082 64.4318 23.9119 64.4318 25.1818ZM82.3935 35V15.3636H87.0213V35H82.3935ZM84.7202 12.5767C83.9872 12.5767 83.3565 12.3338 82.8281 11.848C82.2997 11.3537 82.0355 10.7614 82.0355 10.071C82.0355 9.37216 82.2997 8.77983 82.8281 8.29403C83.3565 7.79971 83.9872 7.55256 84.7202 7.55256C85.4616 7.55256 86.0923 7.79971 86.6122 8.29403C87.1406 8.77983 87.4048 9.37216 87.4048 10.071C87.4048 10.7614 87.1406 11.3537 86.6122 11.848C86.0923 12.3338 85.4616 12.5767 84.7202 12.5767ZM96.408 23.4943V35H91.7802V15.3636H96.2035V18.7003H96.4336C96.8853 17.6009 97.6055 16.7273 98.5941 16.0795C99.5913 15.4318 100.823 15.108 102.289 15.108C103.644 15.108 104.824 15.3977 105.83 15.9773C106.844 16.5568 107.628 17.3963 108.182 18.4957C108.745 19.5952 109.022 20.929 109.013 22.4972V35H104.385V23.2131C104.385 21.9006 104.044 20.8736 103.363 20.1321C102.689 19.3906 101.756 19.0199 100.563 19.0199C99.7532 19.0199 99.033 19.1989 98.4023 19.5568C97.7802 19.9062 97.2901 20.4134 96.9322 21.0781C96.5827 21.7429 96.408 22.5483 96.408 23.4943ZM122.257 42.7727C120.596 42.7727 119.168 42.5469 117.975 42.0952C116.782 41.652 115.823 41.0554 115.098 40.3054C114.374 39.5554 113.871 38.7244 113.59 37.8125L117.757 36.8026C117.945 37.1861 118.218 37.5653 118.576 37.9403C118.934 38.3239 119.415 38.6392 120.02 38.8864C120.634 39.142 121.405 39.2699 122.334 39.2699C123.647 39.2699 124.733 38.9503 125.594 38.3111C126.455 37.6804 126.885 36.6406 126.885 35.1918V31.4716H126.655C126.417 31.9489 126.067 32.4389 125.607 32.9418C125.155 33.4446 124.554 33.8665 123.804 34.2074C123.063 34.5483 122.13 34.7188 121.005 34.7188C119.496 34.7188 118.128 34.3651 116.901 33.6577C115.682 32.9418 114.711 31.8764 113.986 30.4616C113.27 29.0384 112.912 27.2571 112.912 25.1179C112.912 22.9616 113.27 21.142 113.986 19.6591C114.711 18.1676 115.686 17.0384 116.914 16.2713C118.141 15.4957 119.509 15.108 121.017 15.108C122.168 15.108 123.114 15.304 123.855 15.696C124.605 16.0795 125.202 16.544 125.645 17.0895C126.088 17.6264 126.425 18.1335 126.655 18.6108H126.911V15.3636H131.475V35.3196C131.475 36.9986 131.074 38.3878 130.273 39.4872C129.472 40.5866 128.377 41.4091 126.988 41.9545C125.598 42.5 124.022 42.7727 122.257 42.7727ZM122.296 31.0881C123.276 31.0881 124.111 30.8494 124.801 30.3722C125.492 29.8949 126.016 29.2088 126.374 28.3139C126.732 27.419 126.911 26.3452 126.911 25.0923C126.911 23.8565 126.732 22.7741 126.374 21.8452C126.025 20.9162 125.505 20.196 124.814 19.6847C124.132 19.1648 123.293 18.9048 122.296 18.9048C121.265 18.9048 120.404 19.1733 119.713 19.7102C119.023 20.2472 118.503 20.9844 118.154 21.9219C117.804 22.8509 117.63 23.9077 117.63 25.0923C117.63 26.294 117.804 27.3466 118.154 28.25C118.512 29.1449 119.036 29.8437 119.726 30.3466C120.425 30.8409 121.282 31.0881 122.296 31.0881ZM150.798 35.3963C149.554 35.3963 148.433 35.1747 147.436 34.7315C146.447 34.2798 145.663 33.6151 145.083 32.7372C144.512 31.8594 144.227 30.777 144.227 29.4901C144.227 28.3821 144.431 27.4659 144.841 26.7415C145.25 26.017 145.808 25.4375 146.515 25.0028C147.223 24.5682 148.02 24.2401 148.906 24.0185C149.801 23.7884 150.725 23.6222 151.68 23.5199C152.831 23.4006 153.764 23.294 154.48 23.2003C155.196 23.098 155.716 22.9446 156.039 22.7401C156.372 22.527 156.538 22.1989 156.538 21.7557V21.679C156.538 20.7159 156.252 19.9702 155.681 19.4418C155.11 18.9134 154.288 18.6491 153.214 18.6491C152.081 18.6491 151.181 18.8963 150.517 19.3906C149.86 19.8849 149.417 20.4687 149.187 21.142L144.866 20.5284C145.207 19.3352 145.77 18.3381 146.554 17.5369C147.338 16.7273 148.297 16.1222 149.43 15.7216C150.564 15.3125 151.816 15.108 153.189 15.108C154.135 15.108 155.076 15.2188 156.014 15.4403C156.951 15.6619 157.808 16.0284 158.583 16.5398C159.359 17.0426 159.981 17.7287 160.45 18.598C160.927 19.4673 161.166 20.554 161.166 21.858V35H156.717V32.3026H156.564C156.282 32.848 155.886 33.3594 155.375 33.8366C154.872 34.3054 154.237 34.6847 153.47 34.9744C152.711 35.2557 151.821 35.3963 150.798 35.3963ZM152 31.9957C152.929 31.9957 153.734 31.8125 154.416 31.446C155.098 31.071 155.622 30.5767 155.988 29.9631C156.363 29.3494 156.551 28.6804 156.551 27.956V25.642C156.406 25.7614 156.159 25.8722 155.809 25.9744C155.468 26.0767 155.085 26.1662 154.659 26.2429C154.233 26.3196 153.811 26.3878 153.393 26.4474C152.975 26.5071 152.613 26.5582 152.306 26.6009C151.616 26.6946 150.998 26.848 150.453 27.0611C149.907 27.2741 149.477 27.5724 149.162 27.956C148.846 28.331 148.689 28.8168 148.689 29.4134C148.689 30.2656 149 30.9091 149.622 31.3438C150.244 31.7784 151.037 31.9957 152 31.9957ZM179.377 8.81818V35H174.749V8.81818H179.377ZM192.701 35.3835C190.783 35.3835 189.121 34.9616 187.715 34.1179C186.309 33.2741 185.218 32.0937 184.442 30.5767C183.675 29.0597 183.292 27.2869 183.292 25.2585C183.292 23.2301 183.675 21.4531 184.442 19.9276C185.218 18.402 186.309 17.2173 187.715 16.3736C189.121 15.5298 190.783 15.108 192.701 15.108C194.619 15.108 196.281 15.5298 197.687 16.3736C199.093 17.2173 200.18 18.402 200.947 19.9276C201.722 21.4531 202.11 23.2301 202.11 25.2585C202.11 27.2869 201.722 29.0597 200.947 30.5767C200.18 32.0937 199.093 33.2741 197.687 34.1179C196.281 34.9616 194.619 35.3835 192.701 35.3835ZM192.727 31.6761C193.766 31.6761 194.636 31.3906 195.335 30.8196C196.033 30.2401 196.553 29.4645 196.894 28.4929C197.244 27.5213 197.418 26.4389 197.418 25.2457C197.418 24.044 197.244 22.9574 196.894 21.9858C196.553 21.0057 196.033 20.2259 195.335 19.6463C194.636 19.0668 193.766 18.777 192.727 18.777C191.661 18.777 190.775 19.0668 190.067 19.6463C189.369 20.2259 188.844 21.0057 188.495 21.9858C188.154 22.9574 187.984 24.044 187.984 25.2457C187.984 26.4389 188.154 27.5213 188.495 28.4929C188.844 29.4645 189.369 30.2401 190.067 30.8196C190.775 31.3906 191.661 31.6761 192.727 31.6761ZM214.603 35.3835C212.643 35.3835 210.96 34.9531 209.554 34.0923C208.156 33.2315 207.078 32.0426 206.319 30.5256C205.569 29 205.194 27.2443 205.194 25.2585C205.194 23.2642 205.578 21.5043 206.345 19.9787C207.112 18.4446 208.194 17.2514 209.592 16.3991C210.998 15.5384 212.66 15.108 214.578 15.108C216.172 15.108 217.582 15.402 218.809 15.9901C220.045 16.5696 221.029 17.392 221.762 18.4574C222.495 19.5142 222.913 20.75 223.015 22.1648H218.592C218.413 21.2187 217.987 20.4304 217.314 19.7997C216.649 19.1605 215.758 18.8409 214.642 18.8409C213.696 18.8409 212.865 19.0966 212.149 19.608C211.433 20.1108 210.875 20.8352 210.474 21.7812C210.082 22.7273 209.886 23.8608 209.886 25.1818C209.886 26.5199 210.082 27.6705 210.474 28.6335C210.866 29.5881 211.416 30.3253 212.123 30.8452C212.839 31.3565 213.679 31.6122 214.642 31.6122C215.324 31.6122 215.933 31.4844 216.47 31.2287C217.015 30.9645 217.471 30.5852 217.838 30.0909C218.204 29.5966 218.456 28.9957 218.592 28.2884H223.015C222.904 29.6776 222.495 30.9091 221.788 31.983C221.081 33.0483 220.118 33.8835 218.899 34.4886C217.68 35.0852 216.248 35.3835 214.603 35.3835ZM232.466 35.3963C231.222 35.3963 230.101 35.1747 229.104 34.7315C228.115 34.2798 227.331 33.6151 226.751 32.7372C226.18 31.8594 225.895 30.777 225.895 29.4901C225.895 28.3821 226.099 27.4659 226.509 26.7415C226.918 26.017 227.476 25.4375 228.183 25.0028C228.891 24.5682 229.688 24.2401 230.574 24.0185C231.469 23.7884 232.393 23.6222 233.348 23.5199C234.499 23.4006 235.432 23.294 236.148 23.2003C236.864 23.098 237.384 22.9446 237.707 22.7401C238.04 22.527 238.206 22.1989 238.206 21.7557V21.679C238.206 20.7159 237.92 19.9702 237.349 19.4418C236.778 18.9134 235.956 18.6491 234.882 18.6491C233.749 18.6491 232.849 18.8963 232.185 19.3906C231.528 19.8849 231.085 20.4687 230.855 21.142L226.534 20.5284C226.875 19.3352 227.438 18.3381 228.222 17.5369C229.006 16.7273 229.964 16.1222 231.098 15.7216C232.232 15.3125 233.484 15.108 234.857 15.108C235.803 15.108 236.744 15.2188 237.682 15.4403C238.619 15.6619 239.476 16.0284 240.251 16.5398C241.027 17.0426 241.649 17.7287 242.118 18.598C242.595 19.4673 242.834 20.554 242.834 21.858V35H238.385V32.3026H238.232C237.95 32.848 237.554 33.3594 237.043 33.8366C236.54 34.3054 235.905 34.6847 235.138 34.9744C234.379 35.2557 233.489 35.3963 232.466 35.3963ZM233.668 31.9957C234.597 31.9957 235.402 31.8125 236.084 31.446C236.766 31.071 237.29 30.5767 237.656 29.9631C238.031 29.3494 238.219 28.6804 238.219 27.956V25.642C238.074 25.7614 237.827 25.8722 237.477 25.9744C237.136 26.0767 236.753 26.1662 236.327 26.2429C235.901 26.3196 235.479 26.3878 235.061 26.4474C234.643 26.5071 234.281 26.5582 233.974 26.6009C233.284 26.6946 232.666 26.848 232.121 27.0611C231.575 27.2741 231.145 27.5724 230.83 27.956C230.514 28.331 230.357 28.8168 230.357 29.4134C230.357 30.2656 230.668 30.9091 231.29 31.3438C231.912 31.7784 232.705 31.9957 233.668 31.9957ZM252.115 8.81818V35H247.487V8.81818H252.115Z" fill="#4D4D4D"/>
<path d="M2.58239 79V52.8182H7.21023V62.6108H7.40199C7.64063 62.1335 7.97727 61.6264 8.41193 61.0895C8.84659 60.544 9.43466 60.0795 10.1761 59.696C10.9176 59.304 11.8636 59.108 13.0142 59.108C14.5313 59.108 15.8991 59.4957 17.1179 60.2713C18.3452 61.0384 19.3168 62.1761 20.0327 63.6847C20.7571 65.1847 21.1193 67.0256 21.1193 69.2074C21.1193 71.3636 20.7656 73.196 20.0582 74.7045C19.3509 76.2131 18.3878 77.3636 17.169 78.1562C15.9503 78.9489 14.5696 79.3452 13.027 79.3452C11.902 79.3452 10.9688 79.1577 10.2273 78.7827C9.4858 78.4077 8.8892 77.956 8.4375 77.4276C7.99432 76.8906 7.64915 76.3835 7.40199 75.9062H7.13352V79H2.58239ZM7.12074 69.1818C7.12074 70.4517 7.29972 71.5639 7.65767 72.5185C8.02415 73.473 8.5483 74.2187 9.23011 74.7557C9.92045 75.2841 10.7557 75.5483 11.7358 75.5483C12.7585 75.5483 13.6151 75.2756 14.3054 74.7301C14.9957 74.1761 15.5156 73.4219 15.8651 72.4673C16.223 71.5043 16.402 70.4091 16.402 69.1818C16.402 67.9631 16.2273 66.8807 15.8778 65.9347C15.5284 64.9886 15.0085 64.2472 14.3182 63.7102C13.6278 63.1733 12.767 62.9048 11.7358 62.9048C10.7472 62.9048 9.90767 63.1648 9.21733 63.6847C8.52699 64.2045 8.00284 64.9332 7.64489 65.8707C7.29545 66.8082 7.12074 67.9119 7.12074 69.1818ZM37.5692 70.7415V59.3636H42.1971V79H37.7099V75.5099H37.5053C37.0621 76.6094 36.3335 77.5085 35.3192 78.2074C34.3136 78.9062 33.0735 79.2557 31.5991 79.2557C30.3121 79.2557 29.1744 78.9702 28.1857 78.3991C27.2056 77.8196 26.4386 76.9801 25.8846 75.8807C25.3306 74.7727 25.0536 73.4347 25.0536 71.8665V59.3636H29.6815V71.1506C29.6815 72.3949 30.0224 73.3835 30.7042 74.1165C31.386 74.8494 32.2809 75.2159 33.3889 75.2159C34.0707 75.2159 34.7312 75.0497 35.3704 74.7173C36.0096 74.3849 36.5337 73.8906 36.9428 73.2344C37.3604 72.5696 37.5692 71.7386 37.5692 70.7415ZM62.4759 64.554L58.2571 65.0142C58.1378 64.5881 57.929 64.1875 57.6307 63.8125C57.3409 63.4375 56.9489 63.1349 56.4545 62.9048C55.9602 62.6747 55.3551 62.5597 54.6392 62.5597C53.6761 62.5597 52.8665 62.7685 52.2102 63.1861C51.5625 63.6037 51.2429 64.1449 51.2514 64.8097C51.2429 65.3807 51.4517 65.8452 51.8778 66.2031C52.3125 66.5611 53.0284 66.8551 54.0256 67.0852L57.375 67.8011C59.233 68.2017 60.6136 68.8366 61.517 69.706C62.429 70.5753 62.8892 71.7131 62.8977 73.1193C62.8892 74.3551 62.527 75.446 61.8111 76.392C61.1037 77.3295 60.1193 78.0625 58.858 78.5909C57.5966 79.1193 56.1477 79.3835 54.5114 79.3835C52.108 79.3835 50.1733 78.8807 48.7074 77.875C47.2415 76.8608 46.3679 75.4503 46.0866 73.6435L50.5994 73.2088C50.804 74.0952 51.2386 74.7642 51.9034 75.2159C52.5682 75.6676 53.4332 75.8935 54.4986 75.8935C55.598 75.8935 56.4801 75.6676 57.1449 75.2159C57.8182 74.7642 58.1548 74.206 58.1548 73.5412C58.1548 72.9787 57.9375 72.5142 57.5028 72.1477C57.0767 71.7812 56.4119 71.5 55.5085 71.304L52.1591 70.6009C50.2756 70.2088 48.8821 69.5483 47.9787 68.6193C47.0753 67.6818 46.6278 66.4972 46.6364 65.0653C46.6278 63.8551 46.956 62.8068 47.6207 61.9205C48.294 61.0256 49.2273 60.3352 50.4205 59.8494C51.6222 59.3551 53.0071 59.108 54.5753 59.108C56.8764 59.108 58.6875 59.598 60.0085 60.5781C61.3381 61.5582 62.1605 62.8835 62.4759 64.554ZM66.7138 79V59.3636H71.3416V79H66.7138ZM69.0405 56.5767C68.3075 56.5767 67.6768 56.3338 67.1484 55.848C66.62 55.3537 66.3558 54.7614 66.3558 54.071C66.3558 53.3722 66.62 52.7798 67.1484 52.294C67.6768 51.7997 68.3075 51.5526 69.0405 51.5526C69.782 51.5526 70.4126 51.7997 70.9325 52.294C71.4609 52.7798 71.7251 53.3722 71.7251 54.071C71.7251 54.7614 71.4609 55.3537 70.9325 55.848C70.4126 56.3338 69.782 56.5767 69.0405 56.5767ZM80.7283 67.4943V79H76.1005V59.3636H80.5238V62.7003H80.7539C81.2056 61.6009 81.9258 60.7273 82.9144 60.0795C83.9116 59.4318 85.1431 59.108 86.609 59.108C87.9641 59.108 89.1445 59.3977 90.1502 59.9773C91.1644 60.5568 91.9485 61.3963 92.5025 62.4957C93.065 63.5952 93.342 64.929 93.3335 66.4972V79H88.7056V67.2131C88.7056 65.9006 88.3647 64.8736 87.6829 64.1321C87.0096 63.3906 86.0763 63.0199 84.8832 63.0199C84.0735 63.0199 83.3533 63.1989 82.7227 63.5568C82.1005 63.9062 81.6104 64.4134 81.2525 65.0781C80.9031 65.7429 80.7283 66.5483 80.7283 67.4943ZM106.731 79.3835C104.762 79.3835 103.062 78.9744 101.63 78.1562C100.207 77.3295 99.1119 76.1619 98.3448 74.6534C97.5778 73.1364 97.1942 71.3509 97.1942 69.2969C97.1942 67.277 97.5778 65.5043 98.3448 63.9787C99.1204 62.4446 100.203 61.2514 101.592 60.3991C102.981 59.5384 104.613 59.108 106.488 59.108C107.699 59.108 108.841 59.304 109.914 59.696C110.997 60.0795 111.951 60.6761 112.778 61.4858C113.613 62.2955 114.27 63.3267 114.747 64.5795C115.224 65.8239 115.463 67.3068 115.463 69.0284V70.4474H99.3675V67.3281H111.027C111.018 66.4418 110.826 65.6534 110.451 64.9631C110.076 64.2642 109.552 63.7145 108.879 63.3139C108.214 62.9134 107.439 62.7131 106.552 62.7131C105.606 62.7131 104.775 62.9432 104.059 63.4034C103.343 63.8551 102.785 64.4517 102.385 65.1932C101.993 65.9261 101.792 66.7315 101.784 67.6094V70.3324C101.784 71.4744 101.993 72.4545 102.41 73.2727C102.828 74.0824 103.412 74.7045 104.162 75.1392C104.912 75.5653 105.789 75.7784 106.795 75.7784C107.468 75.7784 108.078 75.6847 108.623 75.4972C109.169 75.3011 109.642 75.0156 110.042 74.6406C110.443 74.2656 110.745 73.8011 110.95 73.2472L115.271 73.733C114.998 74.875 114.478 75.8722 113.711 76.7244C112.953 77.5682 111.981 78.2244 110.797 78.6932C109.612 79.1534 108.257 79.3835 106.731 79.3835ZM134.898 64.554L130.679 65.0142C130.56 64.5881 130.351 64.1875 130.053 63.8125C129.763 63.4375 129.371 63.1349 128.876 62.9048C128.382 62.6747 127.777 62.5597 127.061 62.5597C126.098 62.5597 125.288 62.7685 124.632 63.1861C123.984 63.6037 123.665 64.1449 123.673 64.8097C123.665 65.3807 123.874 65.8452 124.3 66.2031C124.734 66.5611 125.45 66.8551 126.447 67.0852L129.797 67.8011C131.655 68.2017 133.036 68.8366 133.939 69.706C134.851 70.5753 135.311 71.7131 135.32 73.1193C135.311 74.3551 134.949 75.446 134.233 76.392C133.526 77.3295 132.541 78.0625 131.28 78.5909C130.018 79.1193 128.57 79.3835 126.933 79.3835C124.53 79.3835 122.595 78.8807 121.129 77.875C119.663 76.8608 118.79 75.4503 118.509 73.6435L123.021 73.2088C123.226 74.0952 123.661 74.7642 124.325 75.2159C124.99 75.6676 125.855 75.8935 126.92 75.8935C128.02 75.8935 128.902 75.6676 129.567 75.2159C130.24 74.7642 130.577 74.206 130.577 73.5412C130.577 72.9787 130.359 72.5142 129.925 72.1477C129.499 71.7812 128.834 71.5 127.93 71.304L124.581 70.6009C122.697 70.2088 121.304 69.5483 120.401 68.6193C119.497 67.6818 119.05 66.4972 119.058 65.0653C119.05 63.8551 119.378 62.8068 120.043 61.9205C120.716 61.0256 121.649 60.3352 122.842 59.8494C124.044 59.3551 125.429 59.108 126.997 59.108C129.298 59.108 131.109 59.598 132.43 60.5781C133.76 61.5582 134.582 62.8835 134.898 64.554ZM154.656 64.554L150.437 65.0142C150.317 64.5881 150.109 64.1875 149.81 63.8125C149.521 63.4375 149.129 63.1349 148.634 62.9048C148.14 62.6747 147.535 62.5597 146.819 62.5597C145.856 62.5597 145.046 62.7685 144.39 63.1861C143.742 63.6037 143.423 64.1449 143.431 64.8097C143.423 65.3807 143.631 65.8452 144.058 66.2031C144.492 66.5611 145.208 66.8551 146.205 67.0852L149.555 67.8011C151.413 68.2017 152.793 68.8366 153.697 69.706C154.609 70.5753 155.069 71.7131 155.077 73.1193C155.069 74.3551 154.707 75.446 153.991 76.392C153.283 77.3295 152.299 78.0625 151.038 78.5909C149.776 79.1193 148.327 79.3835 146.691 79.3835C144.288 79.3835 142.353 78.8807 140.887 77.875C139.421 76.8608 138.548 75.4503 138.266 73.6435L142.779 73.2088C142.984 74.0952 143.418 74.7642 144.083 75.2159C144.748 75.6676 145.613 75.8935 146.678 75.8935C147.778 75.8935 148.66 75.6676 149.325 75.2159C149.998 74.7642 150.335 74.206 150.335 73.5412C150.335 72.9787 150.117 72.5142 149.683 72.1477C149.256 71.7812 148.592 71.5 147.688 71.304L144.339 70.6009C142.455 70.2088 141.062 69.5483 140.158 68.6193C139.255 67.6818 138.808 66.4972 138.816 65.0653C138.808 63.8551 139.136 62.8068 139.8 61.9205C140.474 61.0256 141.407 60.3352 142.6 59.8494C143.802 59.3551 145.187 59.108 146.755 59.108C149.056 59.108 150.867 59.598 152.188 60.5781C153.518 61.5582 154.34 62.8835 154.656 64.554ZM167.823 79V59.3636H172.31V62.6364H172.515C172.873 61.5028 173.487 60.6293 174.356 60.0156C175.234 59.3935 176.235 59.0824 177.36 59.0824C177.616 59.0824 177.901 59.0952 178.217 59.1207C178.54 59.1378 178.809 59.1676 179.022 59.2102V63.4673C178.826 63.3991 178.515 63.3395 178.089 63.2884C177.671 63.2287 177.266 63.1989 176.874 63.1989C176.031 63.1989 175.272 63.3821 174.599 63.7486C173.934 64.1065 173.41 64.6051 173.026 65.2443C172.643 65.8835 172.451 66.6207 172.451 67.456V79H167.823ZM189.981 79.3835C188.012 79.3835 186.312 78.9744 184.88 78.1562C183.457 77.3295 182.362 76.1619 181.595 74.6534C180.828 73.1364 180.444 71.3509 180.444 69.2969C180.444 67.277 180.828 65.5043 181.595 63.9787C182.37 62.4446 183.453 61.2514 184.842 60.3991C186.231 59.5384 187.863 59.108 189.738 59.108C190.949 59.108 192.091 59.304 193.164 59.696C194.247 60.0795 195.201 60.6761 196.028 61.4858C196.863 62.2955 197.52 63.3267 197.997 64.5795C198.474 65.8239 198.713 67.3068 198.713 69.0284V70.4474H182.618V67.3281H194.277C194.268 66.4418 194.076 65.6534 193.701 64.9631C193.326 64.2642 192.802 63.7145 192.129 63.3139C191.464 62.9134 190.689 62.7131 189.802 62.7131C188.856 62.7131 188.025 62.9432 187.309 63.4034C186.593 63.8551 186.035 64.4517 185.635 65.1932C185.243 65.9261 185.042 66.7315 185.034 67.6094V70.3324C185.034 71.4744 185.243 72.4545 185.66 73.2727C186.078 74.0824 186.662 74.7045 187.412 75.1392C188.162 75.5653 189.039 75.7784 190.045 75.7784C190.718 75.7784 191.328 75.6847 191.873 75.4972C192.419 75.3011 192.892 75.0156 193.292 74.6406C193.693 74.2656 193.995 73.8011 194.2 73.2472L198.521 73.733C198.248 74.875 197.728 75.8722 196.961 76.7244C196.203 77.5682 195.231 78.2244 194.047 78.6932C192.862 79.1534 191.507 79.3835 189.981 79.3835ZM202.628 79V59.3636H207.256V79H202.628ZM204.955 56.5767C204.222 56.5767 203.591 56.3338 203.062 55.848C202.534 55.3537 202.27 54.7614 202.27 54.071C202.27 53.3722 202.534 52.7798 203.062 52.294C203.591 51.7997 204.222 51.5526 204.955 51.5526C205.696 51.5526 206.327 51.7997 206.847 52.294C207.375 52.7798 207.639 53.3722 207.639 54.071C207.639 54.7614 207.375 55.3537 206.847 55.848C206.327 56.3338 205.696 56.5767 204.955 56.5767ZM216.642 67.4943V79H212.015V59.3636H216.438V62.7003H216.668C217.12 61.6009 217.84 60.7273 218.828 60.0795C219.826 59.4318 221.057 59.108 222.523 59.108C223.878 59.108 225.059 59.3977 226.064 59.9773C227.078 60.5568 227.863 61.3963 228.417 62.4957C228.979 63.5952 229.256 64.929 229.248 66.4972V79H224.62V67.2131C224.62 65.9006 224.279 64.8736 223.597 64.1321C222.924 63.3906 221.99 63.0199 220.797 63.0199C219.988 63.0199 219.267 63.1989 218.637 63.5568C218.015 63.9062 217.525 64.4134 217.167 65.0781C216.817 65.7429 216.642 66.5483 216.642 67.4943ZM250.789 59.3636L243.796 79H238.682L231.689 59.3636H236.624L241.137 73.9503H241.341L245.867 59.3636H250.789ZM262.016 79.3835C260.048 79.3835 258.347 78.9744 256.915 78.1562C255.492 77.3295 254.397 76.1619 253.63 74.6534C252.863 73.1364 252.479 71.3509 252.479 69.2969C252.479 67.277 252.863 65.5043 253.63 63.9787C254.406 62.4446 255.488 61.2514 256.877 60.3991C258.266 59.5384 259.898 59.108 261.773 59.108C262.984 59.108 264.126 59.304 265.2 59.696C266.282 60.0795 267.237 60.6761 268.063 61.4858C268.898 62.2955 269.555 63.3267 270.032 64.5795C270.509 65.8239 270.748 67.3068 270.748 69.0284V70.4474H254.653V67.3281H266.312C266.303 66.4418 266.112 65.6534 265.737 64.9631C265.362 64.2642 264.837 63.7145 264.164 63.3139C263.499 62.9134 262.724 62.7131 261.837 62.7131C260.891 62.7131 260.06 62.9432 259.344 63.4034C258.629 63.8551 258.07 64.4517 257.67 65.1932C257.278 65.9261 257.077 66.7315 257.069 67.6094V70.3324C257.069 71.4744 257.278 72.4545 257.695 73.2727C258.113 74.0824 258.697 74.7045 259.447 75.1392C260.197 75.5653 261.075 75.7784 262.08 75.7784C262.754 75.7784 263.363 75.6847 263.908 75.4972C264.454 75.3011 264.927 75.0156 265.327 74.6406C265.728 74.2656 266.031 73.8011 266.235 73.2472L270.556 73.733C270.283 74.875 269.763 75.8722 268.996 76.7244C268.238 77.5682 267.266 78.2244 266.082 78.6932C264.897 79.1534 263.542 79.3835 262.016 79.3835ZM279.291 67.4943V79H274.663V59.3636H279.086V62.7003H279.316C279.768 61.6009 280.488 60.7273 281.477 60.0795C282.474 59.4318 283.706 59.108 285.172 59.108C286.527 59.108 287.707 59.3977 288.713 59.9773C289.727 60.5568 290.511 61.3963 291.065 62.4957C291.627 63.5952 291.904 64.929 291.896 66.4972V79H287.268V67.2131C287.268 65.9006 286.927 64.8736 286.245 64.1321C285.572 63.3906 284.639 63.0199 283.446 63.0199C282.636 63.0199 281.916 63.1989 281.285 63.5568C280.663 63.9062 280.173 64.4134 279.815 65.0781C279.466 65.7429 279.291 66.5483 279.291 67.4943ZM306.406 59.3636V62.9432H295.118V59.3636H306.406ZM297.904 54.6591H302.532V73.0938C302.532 73.7159 302.626 74.1932 302.814 74.5256C303.01 74.8494 303.265 75.071 303.581 75.1903C303.896 75.3097 304.245 75.3693 304.629 75.3693C304.919 75.3693 305.183 75.348 305.422 75.3054C305.669 75.2628 305.856 75.2244 305.984 75.1903L306.764 78.8082C306.517 78.8935 306.163 78.9872 305.703 79.0895C305.251 79.1918 304.697 79.2514 304.041 79.2685C302.882 79.3026 301.838 79.1278 300.909 78.7443C299.98 78.3523 299.243 77.7472 298.697 76.929C298.16 76.1108 297.896 75.0881 297.904 73.8608V54.6591ZM319.206 79V59.3636H323.834V79H319.206ZM321.533 56.5767C320.8 56.5767 320.169 56.3338 319.641 55.848C319.112 55.3537 318.848 54.7614 318.848 54.071C318.848 53.3722 319.112 52.7798 319.641 52.294C320.169 51.7997 320.8 51.5526 321.533 51.5526C322.274 51.5526 322.905 51.7997 323.425 52.294C323.953 52.7798 324.217 53.3722 324.217 54.071C324.217 54.7614 323.953 55.3537 323.425 55.848C322.905 56.3338 322.274 56.5767 321.533 56.5767ZM338.398 59.3636V62.9432H327.11V59.3636H338.398ZM329.897 54.6591H334.525V73.0938C334.525 73.7159 334.618 74.1932 334.806 74.5256C335.002 74.8494 335.257 75.071 335.573 75.1903C335.888 75.3097 336.238 75.3693 336.621 75.3693C336.911 75.3693 337.175 75.348 337.414 75.3054C337.661 75.2628 337.848 75.2244 337.976 75.1903L338.756 78.8082C338.509 78.8935 338.155 78.9872 337.695 79.0895C337.243 79.1918 336.689 79.2514 336.033 79.2685C334.874 79.3026 333.83 79.1278 332.901 78.7443C331.972 78.3523 331.235 77.7472 330.689 76.929C330.152 76.1108 329.888 75.0881 329.897 73.8608V54.6591ZM357.507 64.554L353.288 65.0142C353.169 64.5881 352.96 64.1875 352.662 63.8125C352.372 63.4375 351.98 63.1349 351.486 62.9048C350.991 62.6747 350.386 62.5597 349.67 62.5597C348.707 62.5597 347.898 62.7685 347.241 63.1861C346.594 63.6037 346.274 64.1449 346.283 64.8097C346.274 65.3807 346.483 65.8452 346.909 66.2031C347.344 66.5611 348.06 66.8551 349.057 67.0852L352.406 67.8011C354.264 68.2017 355.645 68.8366 356.548 69.706C357.46 70.5753 357.92 71.7131 357.929 73.1193C357.92 74.3551 357.558 75.446 356.842 76.392C356.135 77.3295 355.151 78.0625 353.889 78.5909C352.628 79.1193 351.179 79.3835 349.543 79.3835C347.139 79.3835 345.205 78.8807 343.739 77.875C342.273 76.8608 341.399 75.4503 341.118 73.6435L345.631 73.2088C345.835 74.0952 346.27 74.7642 346.935 75.2159C347.599 75.6676 348.464 75.8935 349.53 75.8935C350.629 75.8935 351.511 75.6676 352.176 75.2159C352.849 74.7642 353.186 74.206 353.186 73.5412C353.186 72.9787 352.969 72.5142 352.534 72.1477C352.108 71.7812 351.443 71.5 350.54 71.304L347.19 70.6009C345.307 70.2088 343.913 69.5483 343.01 68.6193C342.107 67.6818 341.659 66.4972 341.668 65.0653C341.659 63.8551 341.987 62.8068 342.652 61.9205C343.325 61.0256 344.259 60.3352 345.452 59.8494C346.653 59.3551 348.038 59.108 349.607 59.108C351.908 59.108 353.719 59.598 355.04 60.5781C356.369 61.5582 357.192 62.8835 357.507 64.554ZM370.438 79.3835C368.469 79.3835 366.769 78.9744 365.337 78.1562C363.914 77.3295 362.819 76.1619 362.052 74.6534C361.285 73.1364 360.901 71.3509 360.901 69.2969C360.901 67.277 361.285 65.5043 362.052 63.9787C362.827 62.4446 363.91 61.2514 365.299 60.3991C366.688 59.5384 368.32 59.108 370.195 59.108C371.406 59.108 372.548 59.304 373.621 59.696C374.704 60.0795 375.658 60.6761 376.485 61.4858C377.32 62.2955 377.977 63.3267 378.454 64.5795C378.931 65.8239 379.17 67.3068 379.17 69.0284V70.4474H363.075V67.3281H374.734C374.725 66.4418 374.533 65.6534 374.158 64.9631C373.783 64.2642 373.259 63.7145 372.586 63.3139C371.921 62.9134 371.146 62.7131 370.259 62.7131C369.313 62.7131 368.482 62.9432 367.766 63.4034C367.05 63.8551 366.492 64.4517 366.092 65.1932C365.7 65.9261 365.499 66.7315 365.491 67.6094V70.3324C365.491 71.4744 365.7 72.4545 366.117 73.2727C366.535 74.0824 367.119 74.7045 367.869 75.1392C368.619 75.5653 369.496 75.7784 370.502 75.7784C371.175 75.7784 371.785 75.6847 372.33 75.4972C372.876 75.3011 373.349 75.0156 373.749 74.6406C374.15 74.2656 374.452 73.8011 374.657 73.2472L378.978 73.733C378.705 74.875 378.185 75.8722 377.418 76.7244C376.66 77.5682 375.688 78.2244 374.504 78.6932C373.319 79.1534 371.964 79.3835 370.438 79.3835ZM387.713 52.8182V79H383.085V52.8182H387.713ZM402.418 59.3636V62.9432H390.81V59.3636H402.418ZM393.712 79V57.5099C393.712 56.1889 393.984 55.0895 394.53 54.2116C395.084 53.3338 395.825 52.6776 396.754 52.2429C397.683 51.8082 398.714 51.5909 399.848 51.5909C400.649 51.5909 401.361 51.6548 401.983 51.7827C402.605 51.9105 403.065 52.0256 403.364 52.1278L402.443 55.7074C402.247 55.6477 402 55.5881 401.702 55.5284C401.403 55.4602 401.071 55.4261 400.705 55.4261C399.844 55.4261 399.234 55.6349 398.876 56.0526C398.527 56.4616 398.352 57.0497 398.352 57.8168V79H393.712Z" fill="#4CAF4F"/>
</g>
<path d="M3.52273 114L0.340909 102.364H1.77273L4.20455 111.841H4.31818L6.79545 102.364H8.38636L10.8636 111.841H10.9773L13.4091 102.364H14.8409L11.6591 114H10.2045L7.63636 104.727H7.54545L4.97727 114H3.52273ZM19.2614 114.182C18.4205 114.182 17.6951 113.996 17.0852 113.625C16.4792 113.25 16.0114 112.727 15.6818 112.057C15.3561 111.383 15.1932 110.598 15.1932 109.705C15.1932 108.811 15.3561 108.023 15.6818 107.341C16.0114 106.655 16.4697 106.121 17.0568 105.739C17.6477 105.352 18.3371 105.159 19.125 105.159C19.5795 105.159 20.0284 105.235 20.4716 105.386C20.9148 105.538 21.3182 105.784 21.6818 106.125C22.0455 106.462 22.3352 106.909 22.5511 107.466C22.767 108.023 22.875 108.708 22.875 109.523V110.091H16.1477V108.932H21.5114C21.5114 108.439 21.4129 108 21.2159 107.614C21.0227 107.227 20.7462 106.922 20.3864 106.699C20.0303 106.475 19.6098 106.364 19.125 106.364C18.5909 106.364 18.1288 106.496 17.7386 106.761C17.3523 107.023 17.0549 107.364 16.8466 107.784C16.6383 108.205 16.5341 108.655 16.5341 109.136V109.909C16.5341 110.568 16.6477 111.127 16.875 111.585C17.1061 112.04 17.4261 112.386 17.8352 112.625C18.2443 112.86 18.7197 112.977 19.2614 112.977C19.6136 112.977 19.9318 112.928 20.2159 112.83C20.5038 112.727 20.7519 112.576 20.9602 112.375C21.1686 112.17 21.3295 111.917 21.4432 111.614L22.7386 111.977C22.6023 112.417 22.3731 112.803 22.0511 113.136C21.7292 113.466 21.3314 113.723 20.858 113.909C20.3845 114.091 19.8523 114.182 19.2614 114.182ZM29.4148 114V105.273H30.7102V106.591H30.8011C30.9602 106.159 31.2481 105.809 31.6648 105.54C32.0814 105.271 32.5511 105.136 33.0739 105.136C33.1723 105.136 33.2955 105.138 33.4432 105.142C33.5909 105.146 33.7027 105.152 33.7784 105.159V106.523C33.733 106.511 33.6288 106.494 33.4659 106.472C33.3068 106.445 33.1383 106.432 32.9602 106.432C32.536 106.432 32.1572 106.521 31.8239 106.699C31.4943 106.873 31.233 107.116 31.0398 107.426C30.8504 107.733 30.7557 108.083 30.7557 108.477V114H29.4148ZM38.7614 114.182C37.9205 114.182 37.1951 113.996 36.5852 113.625C35.9792 113.25 35.5114 112.727 35.1818 112.057C34.8561 111.383 34.6932 110.598 34.6932 109.705C34.6932 108.811 34.8561 108.023 35.1818 107.341C35.5114 106.655 35.9697 106.121 36.5568 105.739C37.1477 105.352 37.8371 105.159 38.625 105.159C39.0795 105.159 39.5284 105.235 39.9716 105.386C40.4148 105.538 40.8182 105.784 41.1818 106.125C41.5455 106.462 41.8352 106.909 42.0511 107.466C42.267 108.023 42.375 108.708 42.375 109.523V110.091H35.6477V108.932H41.0114C41.0114 108.439 40.9129 108 40.7159 107.614C40.5227 107.227 40.2462 106.922 39.8864 106.699C39.5303 106.475 39.1098 106.364 38.625 106.364C38.0909 106.364 37.6288 106.496 37.2386 106.761C36.8523 107.023 36.5549 107.364 36.3466 107.784C36.1383 108.205 36.0341 108.655 36.0341 109.136V109.909C36.0341 110.568 36.1477 111.127 36.375 111.585C36.6061 112.04 36.9261 112.386 37.3352 112.625C37.7443 112.86 38.2197 112.977 38.7614 112.977C39.1136 112.977 39.4318 112.928 39.7159 112.83C40.0038 112.727 40.2519 112.576 40.4602 112.375C40.6686 112.17 40.8295 111.917 40.9432 111.614L42.2386 111.977C42.1023 112.417 41.8731 112.803 41.5511 113.136C41.2292 113.466 40.8314 113.723 40.358 113.909C39.8845 114.091 39.3523 114.182 38.7614 114.182ZM46.983 114.205C46.4299 114.205 45.928 114.1 45.4773 113.892C45.0265 113.68 44.6686 113.375 44.4034 112.977C44.1383 112.576 44.0057 112.091 44.0057 111.523C44.0057 111.023 44.1042 110.617 44.3011 110.307C44.4981 109.992 44.7614 109.746 45.0909 109.568C45.4205 109.39 45.7841 109.258 46.1818 109.17C46.5833 109.08 46.9867 109.008 47.392 108.955C47.9223 108.886 48.3523 108.835 48.6818 108.801C49.0152 108.763 49.2576 108.701 49.4091 108.614C49.5644 108.527 49.642 108.375 49.642 108.159V108.114C49.642 107.553 49.4886 107.117 49.1818 106.807C48.8788 106.496 48.4186 106.341 47.8011 106.341C47.161 106.341 46.6591 106.481 46.2955 106.761C45.9318 107.042 45.6761 107.341 45.5284 107.659L44.2557 107.205C44.483 106.674 44.786 106.261 45.1648 105.966C45.5473 105.667 45.964 105.458 46.4148 105.341C46.8693 105.22 47.3163 105.159 47.7557 105.159C48.036 105.159 48.358 105.193 48.7216 105.261C49.089 105.326 49.4432 105.46 49.7841 105.665C50.1288 105.869 50.4148 106.178 50.642 106.591C50.8693 107.004 50.983 107.557 50.983 108.25V114H49.642V112.818H49.5739C49.483 113.008 49.3314 113.21 49.1193 113.426C48.9072 113.642 48.625 113.826 48.2727 113.977C47.9205 114.129 47.4905 114.205 46.983 114.205ZM47.1875 113C47.7178 113 48.1648 112.896 48.5284 112.688C48.8958 112.479 49.1723 112.21 49.358 111.881C49.5473 111.551 49.642 111.205 49.642 110.841V109.614C49.5852 109.682 49.4602 109.744 49.267 109.801C49.0777 109.854 48.858 109.902 48.608 109.943C48.3617 109.981 48.1212 110.015 47.8864 110.045C47.6553 110.072 47.4678 110.095 47.3239 110.114C46.9754 110.159 46.6496 110.233 46.3466 110.335C46.0473 110.434 45.8049 110.583 45.6193 110.784C45.4375 110.981 45.3466 111.25 45.3466 111.591C45.3466 112.057 45.5189 112.409 45.8636 112.648C46.2121 112.883 46.6534 113 47.1875 113ZM56.9759 114.182C56.1577 114.182 55.4531 113.989 54.8622 113.602C54.2713 113.216 53.8168 112.684 53.4986 112.006C53.1804 111.328 53.0213 110.553 53.0213 109.682C53.0213 108.795 53.1842 108.013 53.5099 107.335C53.8395 106.653 54.2978 106.121 54.8849 105.739C55.4759 105.352 56.1652 105.159 56.9531 105.159C57.5668 105.159 58.1198 105.273 58.6122 105.5C59.1046 105.727 59.508 106.045 59.8224 106.455C60.1368 106.864 60.3319 107.341 60.4077 107.886H59.0668C58.9645 107.489 58.7372 107.136 58.3849 106.83C58.0365 106.519 57.5668 106.364 56.9759 106.364C56.4531 106.364 55.9948 106.5 55.6009 106.773C55.2107 107.042 54.9058 107.422 54.6861 107.915C54.4702 108.403 54.3622 108.977 54.3622 109.636C54.3622 110.311 54.4683 110.898 54.6804 111.398C54.8963 111.898 55.1993 112.286 55.5895 112.562C55.9834 112.839 56.4455 112.977 56.9759 112.977C57.3243 112.977 57.6406 112.917 57.9247 112.795C58.2088 112.674 58.4493 112.5 58.6463 112.273C58.8433 112.045 58.9834 111.773 59.0668 111.455H60.4077C60.3319 111.97 60.1444 112.434 59.8452 112.847C59.5497 113.256 59.1577 113.581 58.669 113.824C58.1842 114.062 57.6198 114.182 56.9759 114.182ZM63.7088 108.75V114H62.3679V102.364H63.7088V106.636H63.8224C64.027 106.186 64.3338 105.828 64.7429 105.562C65.1558 105.294 65.705 105.159 66.3906 105.159C66.9853 105.159 67.5062 105.278 67.9531 105.517C68.4001 105.752 68.7467 106.114 68.9929 106.602C69.2429 107.087 69.3679 107.705 69.3679 108.455V114H68.027V108.545C68.027 107.852 67.8471 107.316 67.4872 106.938C67.1312 106.555 66.6368 106.364 66.0043 106.364C65.5649 106.364 65.1709 106.456 64.8224 106.642C64.4777 106.828 64.205 107.098 64.0043 107.455C63.8073 107.811 63.7088 108.242 63.7088 108.75ZM75.4801 114.182C74.6392 114.182 73.9138 113.996 73.304 113.625C72.6979 113.25 72.2301 112.727 71.9006 112.057C71.5748 111.383 71.4119 110.598 71.4119 109.705C71.4119 108.811 71.5748 108.023 71.9006 107.341C72.2301 106.655 72.6884 106.121 73.2756 105.739C73.8665 105.352 74.5559 105.159 75.3438 105.159C75.7983 105.159 76.2472 105.235 76.6903 105.386C77.1335 105.538 77.5369 105.784 77.9006 106.125C78.2642 106.462 78.554 106.909 78.7699 107.466C78.9858 108.023 79.0938 108.708 79.0938 109.523V110.091H72.3665V108.932H77.7301C77.7301 108.439 77.6316 108 77.4347 107.614C77.2415 107.227 76.965 106.922 76.6051 106.699C76.2491 106.475 75.8286 106.364 75.3438 106.364C74.8097 106.364 74.3475 106.496 73.9574 106.761C73.571 107.023 73.2737 107.364 73.0653 107.784C72.857 108.205 72.7528 108.655 72.7528 109.136V109.909C72.7528 110.568 72.8665 111.127 73.0938 111.585C73.3248 112.04 73.6449 112.386 74.054 112.625C74.4631 112.86 74.9384 112.977 75.4801 112.977C75.8324 112.977 76.1506 112.928 76.4347 112.83C76.7225 112.727 76.9706 112.576 77.179 112.375C77.3873 112.17 77.5483 111.917 77.6619 111.614L78.9574 111.977C78.821 112.417 78.5919 112.803 78.2699 113.136C77.9479 113.466 77.5502 113.723 77.0767 113.909C76.6032 114.091 76.071 114.182 75.4801 114.182ZM84.429 114.182C83.7017 114.182 83.0597 113.998 82.5028 113.631C81.946 113.259 81.5104 112.737 81.196 112.062C80.8816 111.384 80.7244 110.583 80.7244 109.659C80.7244 108.742 80.8816 107.947 81.196 107.273C81.5104 106.598 81.9479 106.078 82.5085 105.71C83.0691 105.343 83.7169 105.159 84.4517 105.159C85.0199 105.159 85.4688 105.254 85.7983 105.443C86.1316 105.629 86.3854 105.841 86.5597 106.08C86.7377 106.314 86.8759 106.508 86.9744 106.659H87.0881V102.364H88.429V114H87.1335V112.659H86.9744C86.8759 112.818 86.7358 113.019 86.554 113.261C86.3722 113.5 86.1127 113.714 85.7756 113.903C85.4384 114.089 84.9896 114.182 84.429 114.182ZM84.6108 112.977C85.1487 112.977 85.6032 112.837 85.9744 112.557C86.3456 112.273 86.6278 111.881 86.821 111.381C87.0142 110.877 87.1108 110.295 87.1108 109.636C87.1108 108.985 87.0161 108.415 86.8267 107.926C86.6373 107.434 86.357 107.051 85.9858 106.778C85.6146 106.502 85.1563 106.364 84.6108 106.364C84.0426 106.364 83.5691 106.509 83.1903 106.801C82.8153 107.089 82.5331 107.481 82.3438 107.977C82.1581 108.47 82.0653 109.023 82.0653 109.636C82.0653 110.258 82.16 110.822 82.3494 111.33C82.5426 111.833 82.8267 112.235 83.2017 112.534C83.5805 112.83 84.0502 112.977 84.6108 112.977ZM96.9119 108.75V114H95.571V102.364H96.9119V106.636H97.0256C97.2301 106.186 97.5369 105.828 97.946 105.562C98.3589 105.294 98.9081 105.159 99.5938 105.159C100.188 105.159 100.709 105.278 101.156 105.517C101.603 105.752 101.95 106.114 102.196 106.602C102.446 107.087 102.571 107.705 102.571 108.455V114H101.23V108.545C101.23 107.852 101.05 107.316 100.69 106.938C100.334 106.555 99.84 106.364 99.2074 106.364C98.768 106.364 98.3741 106.456 98.0256 106.642C97.6809 106.828 97.4081 107.098 97.2074 107.455C97.0104 107.811 96.9119 108.242 96.9119 108.75ZM108.683 114.182C107.842 114.182 107.117 113.996 106.507 113.625C105.901 113.25 105.433 112.727 105.104 112.057C104.778 111.383 104.615 110.598 104.615 109.705C104.615 108.811 104.778 108.023 105.104 107.341C105.433 106.655 105.892 106.121 106.479 105.739C107.07 105.352 107.759 105.159 108.547 105.159C109.001 105.159 109.45 105.235 109.893 105.386C110.337 105.538 110.74 105.784 111.104 106.125C111.467 106.462 111.757 106.909 111.973 107.466C112.189 108.023 112.297 108.708 112.297 109.523V110.091H105.57V108.932H110.933C110.933 108.439 110.835 108 110.638 107.614C110.445 107.227 110.168 106.922 109.808 106.699C109.452 106.475 109.032 106.364 108.547 106.364C108.013 106.364 107.551 106.496 107.161 106.761C106.774 107.023 106.477 107.364 106.268 107.784C106.06 108.205 105.956 108.655 105.956 109.136V109.909C105.956 110.568 106.07 111.127 106.297 111.585C106.528 112.04 106.848 112.386 107.257 112.625C107.666 112.86 108.142 112.977 108.683 112.977C109.036 112.977 109.354 112.928 109.638 112.83C109.926 112.727 110.174 112.576 110.382 112.375C110.59 112.17 110.751 111.917 110.865 111.614L112.161 111.977C112.024 112.417 111.795 112.803 111.473 113.136C111.151 113.466 110.753 113.723 110.28 113.909C109.806 114.091 109.274 114.182 108.683 114.182ZM114.337 114V105.273H115.632V106.591H115.723C115.882 106.159 116.17 105.809 116.587 105.54C117.003 105.271 117.473 105.136 117.996 105.136C118.094 105.136 118.217 105.138 118.365 105.142C118.513 105.146 118.625 105.152 118.7 105.159V106.523C118.655 106.511 118.551 106.494 118.388 106.472C118.229 106.445 118.06 106.432 117.882 106.432C117.458 106.432 117.079 106.521 116.746 106.699C116.416 106.873 116.155 107.116 115.962 107.426C115.772 107.733 115.678 108.083 115.678 108.477V114H114.337ZM123.683 114.182C122.842 114.182 122.117 113.996 121.507 113.625C120.901 113.25 120.433 112.727 120.104 112.057C119.778 111.383 119.615 110.598 119.615 109.705C119.615 108.811 119.778 108.023 120.104 107.341C120.433 106.655 120.892 106.121 121.479 105.739C122.07 105.352 122.759 105.159 123.547 105.159C124.001 105.159 124.45 105.235 124.893 105.386C125.337 105.538 125.74 105.784 126.104 106.125C126.467 106.462 126.757 106.909 126.973 107.466C127.189 108.023 127.297 108.708 127.297 109.523V110.091H120.57V108.932H125.933C125.933 108.439 125.835 108 125.638 107.614C125.445 107.227 125.168 106.922 124.808 106.699C124.452 106.475 124.032 106.364 123.547 106.364C123.013 106.364 122.551 106.496 122.161 106.761C121.774 107.023 121.477 107.364 121.268 107.784C121.06 108.205 120.956 108.655 120.956 109.136V109.909C120.956 110.568 121.07 111.127 121.297 111.585C121.528 112.04 121.848 112.386 122.257 112.625C122.666 112.86 123.142 112.977 123.683 112.977C124.036 112.977 124.354 112.928 124.638 112.83C124.926 112.727 125.174 112.576 125.382 112.375C125.59 112.17 125.751 111.917 125.865 111.614L127.161 111.977C127.024 112.417 126.795 112.803 126.473 113.136C126.151 113.466 125.753 113.723 125.28 113.909C124.806 114.091 124.274 114.182 123.683 114.182ZM135.814 114L133.155 105.273H134.564L136.45 111.955H136.541L138.405 105.273H139.837L141.678 111.932H141.768L143.655 105.273H145.064L142.405 114H141.087L139.178 107.295H139.041L137.132 114H135.814ZM146.837 114V105.273H148.178V114H146.837ZM147.518 103.818C147.257 103.818 147.032 103.729 146.842 103.551C146.657 103.373 146.564 103.159 146.564 102.909C146.564 102.659 146.657 102.445 146.842 102.267C147.032 102.089 147.257 102 147.518 102C147.78 102 148.003 102.089 148.189 102.267C148.378 102.445 148.473 102.659 148.473 102.909C148.473 103.159 148.378 103.373 148.189 103.551C148.003 103.729 147.78 103.818 147.518 103.818ZM154.429 105.273V106.409H149.906V105.273H154.429ZM151.224 103.182H152.565V111.5C152.565 111.879 152.62 112.163 152.73 112.352C152.844 112.538 152.988 112.663 153.162 112.727C153.34 112.788 153.527 112.818 153.724 112.818C153.872 112.818 153.993 112.811 154.088 112.795C154.183 112.777 154.259 112.761 154.315 112.75L154.588 113.955C154.497 113.989 154.37 114.023 154.207 114.057C154.045 114.095 153.838 114.114 153.588 114.114C153.209 114.114 152.838 114.032 152.474 113.869C152.115 113.706 151.815 113.458 151.577 113.125C151.342 112.792 151.224 112.371 151.224 111.864V103.182ZM157.974 108.75V114H156.634V102.364H157.974V106.636H158.088C158.293 106.186 158.599 105.828 159.009 105.562C159.421 105.294 159.971 105.159 160.656 105.159C161.251 105.159 161.772 105.278 162.219 105.517C162.666 105.752 163.012 106.114 163.259 106.602C163.509 107.087 163.634 107.705 163.634 108.455V114H162.293V108.545C162.293 107.852 162.113 107.316 161.753 106.938C161.397 106.555 160.902 106.364 160.27 106.364C159.83 106.364 159.437 106.456 159.088 106.642C158.743 106.828 158.471 107.098 158.27 107.455C158.073 107.811 157.974 108.242 157.974 108.75ZM174.132 114.182C173.344 114.182 172.653 113.994 172.058 113.619C171.467 113.244 171.005 112.72 170.672 112.045C170.342 111.371 170.178 110.583 170.178 109.682C170.178 108.773 170.342 107.979 170.672 107.301C171.005 106.623 171.467 106.097 172.058 105.722C172.653 105.347 173.344 105.159 174.132 105.159C174.92 105.159 175.609 105.347 176.2 105.722C176.795 106.097 177.257 106.623 177.587 107.301C177.92 107.979 178.087 108.773 178.087 109.682C178.087 110.583 177.92 111.371 177.587 112.045C177.257 112.72 176.795 113.244 176.2 113.619C175.609 113.994 174.92 114.182 174.132 114.182ZM174.132 112.977C174.731 112.977 175.223 112.824 175.609 112.517C175.996 112.21 176.282 111.807 176.467 111.307C176.653 110.807 176.746 110.265 176.746 109.682C176.746 109.098 176.653 108.555 176.467 108.051C176.282 107.547 175.996 107.14 175.609 106.83C175.223 106.519 174.731 106.364 174.132 106.364C173.534 106.364 173.041 106.519 172.655 106.83C172.268 107.14 171.982 107.547 171.797 108.051C171.611 108.555 171.518 109.098 171.518 109.682C171.518 110.265 171.611 110.807 171.797 111.307C171.982 111.807 172.268 112.21 172.655 112.517C173.041 112.824 173.534 112.977 174.132 112.977ZM185.634 110.432V105.273H186.974V114H185.634V112.523H185.543C185.338 112.966 185.02 113.343 184.588 113.653C184.156 113.96 183.611 114.114 182.952 114.114C182.406 114.114 181.921 113.994 181.497 113.756C181.073 113.513 180.74 113.15 180.497 112.665C180.255 112.176 180.134 111.561 180.134 110.818V105.273H181.474V110.727C181.474 111.364 181.652 111.871 182.009 112.25C182.368 112.629 182.827 112.818 183.384 112.818C183.717 112.818 184.056 112.733 184.401 112.562C184.749 112.392 185.041 112.131 185.276 111.778C185.514 111.426 185.634 110.977 185.634 110.432ZM189.43 114V105.273H190.726V106.591H190.817C190.976 106.159 191.264 105.809 191.68 105.54C192.097 105.271 192.567 105.136 193.089 105.136C193.188 105.136 193.311 105.138 193.459 105.142C193.607 105.146 193.718 105.152 193.794 105.159V106.523C193.749 106.511 193.644 106.494 193.482 106.472C193.322 106.445 193.154 106.432 192.976 106.432C192.552 106.432 192.173 106.521 191.839 106.699C191.51 106.873 191.249 107.116 191.055 107.426C190.866 107.733 190.771 108.083 190.771 108.477V114H189.43ZM201.224 108.75V114H199.884V102.364H201.224V106.636H201.338C201.543 106.186 201.849 105.828 202.259 105.562C202.671 105.294 203.221 105.159 203.906 105.159C204.501 105.159 205.022 105.278 205.469 105.517C205.916 105.752 206.262 106.114 206.509 106.602C206.759 107.087 206.884 107.705 206.884 108.455V114H205.543V108.545C205.543 107.852 205.363 107.316 205.003 106.938C204.647 106.555 204.152 106.364 203.52 106.364C203.08 106.364 202.687 106.456 202.338 106.642C201.993 106.828 201.721 107.098 201.52 107.455C201.323 107.811 201.224 108.242 201.224 108.75ZM211.905 114.205C211.352 114.205 210.85 114.1 210.399 113.892C209.948 113.68 209.59 113.375 209.325 112.977C209.06 112.576 208.928 112.091 208.928 111.523C208.928 111.023 209.026 110.617 209.223 110.307C209.42 109.992 209.683 109.746 210.013 109.568C210.342 109.39 210.706 109.258 211.104 109.17C211.505 109.08 211.909 109.008 212.314 108.955C212.844 108.886 213.274 108.835 213.604 108.801C213.937 108.763 214.179 108.701 214.331 108.614C214.486 108.527 214.564 108.375 214.564 108.159V108.114C214.564 107.553 214.411 107.117 214.104 106.807C213.801 106.496 213.34 106.341 212.723 106.341C212.083 106.341 211.581 106.481 211.217 106.761C210.854 107.042 210.598 107.341 210.45 107.659L209.178 107.205C209.405 106.674 209.708 106.261 210.087 105.966C210.469 105.667 210.886 105.458 211.337 105.341C211.791 105.22 212.238 105.159 212.678 105.159C212.958 105.159 213.28 105.193 213.643 105.261C214.011 105.326 214.365 105.46 214.706 105.665C215.051 105.869 215.337 106.178 215.564 106.591C215.791 107.004 215.905 107.557 215.905 108.25V114H214.564V112.818H214.496C214.405 113.008 214.253 113.21 214.041 113.426C213.829 113.642 213.547 113.826 213.195 113.977C212.842 114.129 212.412 114.205 211.905 114.205ZM212.109 113C212.64 113 213.087 112.896 213.45 112.688C213.818 112.479 214.094 112.21 214.28 111.881C214.469 111.551 214.564 111.205 214.564 110.841V109.614C214.507 109.682 214.382 109.744 214.189 109.801C214 109.854 213.78 109.902 213.53 109.943C213.284 109.981 213.043 110.015 212.808 110.045C212.577 110.072 212.39 110.095 212.246 110.114C211.897 110.159 211.571 110.233 211.268 110.335C210.969 110.434 210.727 110.583 210.541 110.784C210.359 110.981 210.268 111.25 210.268 111.591C210.268 112.057 210.441 112.409 210.786 112.648C211.134 112.883 211.575 113 212.109 113ZM218.352 114V105.273H219.648V106.591H219.739C219.898 106.159 220.186 105.809 220.602 105.54C221.019 105.271 221.489 105.136 222.011 105.136C222.11 105.136 222.233 105.138 222.381 105.142C222.528 105.146 222.64 105.152 222.716 105.159V106.523C222.67 106.511 222.566 106.494 222.403 106.472C222.244 106.445 222.076 106.432 221.898 106.432C221.473 106.432 221.095 106.521 220.761 106.699C220.432 106.873 220.17 107.116 219.977 107.426C219.788 107.733 219.693 108.083 219.693 108.477V114H218.352ZM227.335 114.182C226.608 114.182 225.966 113.998 225.409 113.631C224.852 113.259 224.417 112.737 224.102 112.062C223.788 111.384 223.631 110.583 223.631 109.659C223.631 108.742 223.788 107.947 224.102 107.273C224.417 106.598 224.854 106.078 225.415 105.71C225.975 105.343 226.623 105.159 227.358 105.159C227.926 105.159 228.375 105.254 228.705 105.443C229.038 105.629 229.292 105.841 229.466 106.08C229.644 106.314 229.782 106.508 229.881 106.659H229.994V102.364H231.335V114H230.04V112.659H229.881C229.782 112.818 229.642 113.019 229.46 113.261C229.278 113.5 229.019 113.714 228.682 113.903C228.345 114.089 227.896 114.182 227.335 114.182ZM227.517 112.977C228.055 112.977 228.509 112.837 228.881 112.557C229.252 112.273 229.534 111.881 229.727 111.381C229.92 110.877 230.017 110.295 230.017 109.636C230.017 108.985 229.922 108.415 229.733 107.926C229.544 107.434 229.263 107.051 228.892 106.778C228.521 106.502 228.063 106.364 227.517 106.364C226.949 106.364 226.475 106.509 226.097 106.801C225.722 107.089 225.439 107.481 225.25 107.977C225.064 108.47 224.972 109.023 224.972 109.636C224.972 110.258 225.066 110.822 225.256 111.33C225.449 111.833 225.733 112.235 226.108 112.534C226.487 112.83 226.956 112.977 227.517 112.977ZM240.455 114L237.795 105.273H239.205L241.091 111.955H241.182L243.045 105.273H244.477L246.318 111.932H246.409L248.295 105.273H249.705L247.045 114H245.727L243.818 107.295H243.682L241.773 114H240.455ZM254.726 114.182C253.938 114.182 253.247 113.994 252.652 113.619C252.061 113.244 251.599 112.72 251.266 112.045C250.936 111.371 250.771 110.583 250.771 109.682C250.771 108.773 250.936 107.979 251.266 107.301C251.599 106.623 252.061 106.097 252.652 105.722C253.247 105.347 253.938 105.159 254.726 105.159C255.514 105.159 256.203 105.347 256.794 105.722C257.389 106.097 257.851 106.623 258.18 107.301C258.514 107.979 258.68 108.773 258.68 109.682C258.68 110.583 258.514 111.371 258.18 112.045C257.851 112.72 257.389 113.244 256.794 113.619C256.203 113.994 255.514 114.182 254.726 114.182ZM254.726 112.977C255.324 112.977 255.817 112.824 256.203 112.517C256.589 112.21 256.875 111.807 257.061 111.307C257.247 110.807 257.339 110.265 257.339 109.682C257.339 109.098 257.247 108.555 257.061 108.051C256.875 107.547 256.589 107.14 256.203 106.83C255.817 106.519 255.324 106.364 254.726 106.364C254.127 106.364 253.635 106.519 253.249 106.83C252.862 107.14 252.576 107.547 252.391 108.051C252.205 108.555 252.112 109.098 252.112 109.682C252.112 110.265 252.205 110.807 252.391 111.307C252.576 111.807 252.862 112.21 253.249 112.517C253.635 112.824 254.127 112.977 254.726 112.977ZM260.727 114V105.273H262.023V106.591H262.114C262.273 106.159 262.561 105.809 262.977 105.54C263.394 105.271 263.864 105.136 264.386 105.136C264.485 105.136 264.608 105.138 264.756 105.142C264.903 105.146 265.015 105.152 265.091 105.159V106.523C265.045 106.511 264.941 106.494 264.778 106.472C264.619 106.445 264.451 106.432 264.273 106.432C263.848 106.432 263.47 106.521 263.136 106.699C262.807 106.873 262.545 107.116 262.352 107.426C262.163 107.733 262.068 108.083 262.068 108.477V114H260.727ZM267.93 110.818L267.908 109.159H268.18L271.999 105.273H273.658L269.589 109.386H269.476L267.93 110.818ZM266.68 114V102.364H268.021V114H266.68ZM272.226 114L268.817 109.682L269.771 108.75L273.93 114H272.226ZM282.452 114.205C281.899 114.205 281.397 114.1 280.946 113.892C280.495 113.68 280.137 113.375 279.872 112.977C279.607 112.576 279.474 112.091 279.474 111.523C279.474 111.023 279.573 110.617 279.77 110.307C279.967 109.992 280.23 109.746 280.56 109.568C280.889 109.39 281.253 109.258 281.651 109.17C282.052 109.08 282.455 109.008 282.861 108.955C283.391 108.886 283.821 108.835 284.151 108.801C284.484 108.763 284.726 108.701 284.878 108.614C285.033 108.527 285.111 108.375 285.111 108.159V108.114C285.111 107.553 284.957 107.117 284.651 106.807C284.348 106.496 283.887 106.341 283.27 106.341C282.63 106.341 282.128 106.481 281.764 106.761C281.401 107.042 281.145 107.341 280.997 107.659L279.724 107.205C279.952 106.674 280.255 106.261 280.634 105.966C281.016 105.667 281.433 105.458 281.884 105.341C282.338 105.22 282.785 105.159 283.224 105.159C283.505 105.159 283.827 105.193 284.19 105.261C284.558 105.326 284.912 105.46 285.253 105.665C285.598 105.869 285.884 106.178 286.111 106.591C286.338 107.004 286.452 107.557 286.452 108.25V114H285.111V112.818H285.043C284.952 113.008 284.8 113.21 284.588 113.426C284.376 113.642 284.094 113.826 283.741 113.977C283.389 114.129 282.959 114.205 282.452 114.205ZM282.656 113C283.187 113 283.634 112.896 283.997 112.688C284.365 112.479 284.641 112.21 284.827 111.881C285.016 111.551 285.111 111.205 285.111 110.841V109.614C285.054 109.682 284.929 109.744 284.736 109.801C284.546 109.854 284.327 109.902 284.077 109.943C283.83 109.981 283.59 110.015 283.355 110.045C283.124 110.072 282.937 110.095 282.793 110.114C282.444 110.159 282.118 110.233 281.815 110.335C281.516 110.434 281.274 110.583 281.088 110.784C280.906 110.981 280.815 111.25 280.815 111.591C280.815 112.057 280.988 112.409 281.332 112.648C281.681 112.883 282.122 113 282.656 113ZM290.24 108.75V114H288.899V105.273H290.195V106.636H290.308C290.513 106.193 290.823 105.837 291.24 105.568C291.657 105.295 292.195 105.159 292.854 105.159C293.445 105.159 293.962 105.28 294.405 105.523C294.848 105.761 295.193 106.125 295.439 106.614C295.685 107.098 295.808 107.712 295.808 108.455V114H294.467V108.545C294.467 107.86 294.289 107.326 293.933 106.943C293.577 106.557 293.089 106.364 292.467 106.364C292.039 106.364 291.657 106.456 291.32 106.642C290.986 106.828 290.723 107.098 290.53 107.455C290.337 107.811 290.24 108.242 290.24 108.75ZM301.554 114.182C300.827 114.182 300.185 113.998 299.628 113.631C299.071 113.259 298.635 112.737 298.321 112.062C298.007 111.384 297.849 110.583 297.849 109.659C297.849 108.742 298.007 107.947 298.321 107.273C298.635 106.598 299.073 106.078 299.634 105.71C300.194 105.343 300.842 105.159 301.577 105.159C302.145 105.159 302.594 105.254 302.923 105.443C303.257 105.629 303.51 105.841 303.685 106.08C303.863 106.314 304.001 106.508 304.099 106.659H304.213V102.364H305.554V114H304.259V112.659H304.099C304.001 112.818 303.861 113.019 303.679 113.261C303.497 113.5 303.238 113.714 302.901 113.903C302.563 114.089 302.115 114.182 301.554 114.182ZM301.736 112.977C302.274 112.977 302.728 112.837 303.099 112.557C303.471 112.273 303.753 111.881 303.946 111.381C304.139 110.877 304.236 110.295 304.236 109.636C304.236 108.985 304.141 108.415 303.952 107.926C303.762 107.434 303.482 107.051 303.111 106.778C302.74 106.502 302.281 106.364 301.736 106.364C301.168 106.364 300.694 106.509 300.315 106.801C299.94 107.089 299.658 107.481 299.469 107.977C299.283 108.47 299.19 109.023 299.19 109.636C299.19 110.258 299.285 110.822 299.474 111.33C299.668 111.833 299.952 112.235 300.327 112.534C300.705 112.83 301.175 112.977 301.736 112.977ZM315.991 114.182C315.264 114.182 314.622 113.998 314.065 113.631C313.509 113.259 313.073 112.737 312.759 112.062C312.444 111.384 312.287 110.583 312.287 109.659C312.287 108.742 312.444 107.947 312.759 107.273C313.073 106.598 313.51 106.078 314.071 105.71C314.632 105.343 315.279 105.159 316.014 105.159C316.582 105.159 317.031 105.254 317.361 105.443C317.694 105.629 317.948 105.841 318.122 106.08C318.3 106.314 318.438 106.508 318.537 106.659H318.651V102.364H319.991V114H318.696V112.659H318.537C318.438 112.818 318.298 113.019 318.116 113.261C317.935 113.5 317.675 113.714 317.338 113.903C317.001 114.089 316.552 114.182 315.991 114.182ZM316.173 112.977C316.711 112.977 317.166 112.837 317.537 112.557C317.908 112.273 318.19 111.881 318.384 111.381C318.577 110.877 318.673 110.295 318.673 109.636C318.673 108.985 318.579 108.415 318.389 107.926C318.2 107.434 317.92 107.051 317.548 106.778C317.177 106.502 316.719 106.364 316.173 106.364C315.605 106.364 315.132 106.509 314.753 106.801C314.378 107.089 314.096 107.481 313.906 107.977C313.721 108.47 313.628 109.023 313.628 109.636C313.628 110.258 313.723 110.822 313.912 111.33C314.105 111.833 314.389 112.235 314.764 112.534C315.143 112.83 315.613 112.977 316.173 112.977ZM326.293 114.182C325.452 114.182 324.726 113.996 324.116 113.625C323.51 113.25 323.043 112.727 322.713 112.057C322.387 111.383 322.224 110.598 322.224 109.705C322.224 108.811 322.387 108.023 322.713 107.341C323.043 106.655 323.501 106.121 324.088 105.739C324.679 105.352 325.368 105.159 326.156 105.159C326.611 105.159 327.06 105.235 327.503 105.386C327.946 105.538 328.349 105.784 328.713 106.125C329.077 106.462 329.366 106.909 329.582 107.466C329.798 108.023 329.906 108.708 329.906 109.523V110.091H323.179V108.932H328.543C328.543 108.439 328.444 108 328.247 107.614C328.054 107.227 327.777 106.922 327.418 106.699C327.062 106.475 326.641 106.364 326.156 106.364C325.622 106.364 325.16 106.496 324.77 106.761C324.384 107.023 324.086 107.364 323.878 107.784C323.67 108.205 323.565 108.655 323.565 109.136V109.909C323.565 110.568 323.679 111.127 323.906 111.585C324.137 112.04 324.457 112.386 324.866 112.625C325.276 112.86 325.751 112.977 326.293 112.977C326.645 112.977 326.963 112.928 327.247 112.83C327.535 112.727 327.783 112.576 327.991 112.375C328.2 112.17 328.361 111.917 328.474 111.614L329.77 111.977C329.634 112.417 329.404 112.803 329.082 113.136C328.76 113.466 328.363 113.723 327.889 113.909C327.416 114.091 326.884 114.182 326.293 114.182ZM335.241 114.182C334.514 114.182 333.872 113.998 333.315 113.631C332.759 113.259 332.323 112.737 332.009 112.062C331.694 111.384 331.537 110.583 331.537 109.659C331.537 108.742 331.694 107.947 332.009 107.273C332.323 106.598 332.76 106.078 333.321 105.71C333.882 105.343 334.529 105.159 335.264 105.159C335.832 105.159 336.281 105.254 336.611 105.443C336.944 105.629 337.198 105.841 337.372 106.08C337.55 106.314 337.688 106.508 337.787 106.659H337.901V102.364H339.241V114H337.946V112.659H337.787C337.688 112.818 337.548 113.019 337.366 113.261C337.185 113.5 336.925 113.714 336.588 113.903C336.251 114.089 335.802 114.182 335.241 114.182ZM335.423 112.977C335.961 112.977 336.416 112.837 336.787 112.557C337.158 112.273 337.44 111.881 337.634 111.381C337.827 110.877 337.923 110.295 337.923 109.636C337.923 108.985 337.829 108.415 337.639 107.926C337.45 107.434 337.17 107.051 336.798 106.778C336.427 106.502 335.969 106.364 335.423 106.364C334.855 106.364 334.382 106.509 334.003 106.801C333.628 107.089 333.346 107.481 333.156 107.977C332.971 108.47 332.878 109.023 332.878 109.636C332.878 110.258 332.973 110.822 333.162 111.33C333.355 111.833 333.639 112.235 334.014 112.534C334.393 112.83 334.863 112.977 335.423 112.977ZM341.884 114V105.273H343.224V114H341.884ZM342.565 103.818C342.304 103.818 342.079 103.729 341.889 103.551C341.704 103.373 341.611 103.159 341.611 102.909C341.611 102.659 341.704 102.445 341.889 102.267C342.079 102.089 342.304 102 342.565 102C342.827 102 343.05 102.089 343.236 102.267C343.425 102.445 343.52 102.659 343.52 102.909C343.52 103.159 343.425 103.373 343.236 103.551C343.05 103.729 342.827 103.818 342.565 103.818ZM349.226 114.182C348.408 114.182 347.703 113.989 347.112 113.602C346.521 113.216 346.067 112.684 345.749 112.006C345.43 111.328 345.271 110.553 345.271 109.682C345.271 108.795 345.434 108.013 345.76 107.335C346.089 106.653 346.548 106.121 347.135 105.739C347.726 105.352 348.415 105.159 349.203 105.159C349.817 105.159 350.37 105.273 350.862 105.5C351.355 105.727 351.758 106.045 352.072 106.455C352.387 106.864 352.582 107.341 352.658 107.886H351.317C351.214 107.489 350.987 107.136 350.635 106.83C350.286 106.519 349.817 106.364 349.226 106.364C348.703 106.364 348.245 106.5 347.851 106.773C347.461 107.042 347.156 107.422 346.936 107.915C346.72 108.403 346.612 108.977 346.612 109.636C346.612 110.311 346.718 110.898 346.93 111.398C347.146 111.898 347.449 112.286 347.839 112.562C348.233 112.839 348.696 112.977 349.226 112.977C349.574 112.977 349.891 112.917 350.175 112.795C350.459 112.674 350.699 112.5 350.896 112.273C351.093 112.045 351.233 111.773 351.317 111.455H352.658C352.582 111.97 352.394 112.434 352.095 112.847C351.8 113.256 351.408 113.581 350.919 113.824C350.434 114.062 349.87 114.182 349.226 114.182ZM357.186 114.205C356.633 114.205 356.131 114.1 355.68 113.892C355.23 113.68 354.872 113.375 354.607 112.977C354.341 112.576 354.209 112.091 354.209 111.523C354.209 111.023 354.307 110.617 354.504 110.307C354.701 109.992 354.964 109.746 355.294 109.568C355.624 109.39 355.987 109.258 356.385 109.17C356.786 109.08 357.19 109.008 357.595 108.955C358.125 108.886 358.555 108.835 358.885 108.801C359.218 108.763 359.461 108.701 359.612 108.614C359.768 108.527 359.845 108.375 359.845 108.159V108.114C359.845 107.553 359.692 107.117 359.385 106.807C359.082 106.496 358.622 106.341 358.004 106.341C357.364 106.341 356.862 106.481 356.499 106.761C356.135 107.042 355.879 107.341 355.732 107.659L354.459 107.205C354.686 106.674 354.989 106.261 355.368 105.966C355.75 105.667 356.167 105.458 356.618 105.341C357.072 105.22 357.519 105.159 357.959 105.159C358.239 105.159 358.561 105.193 358.925 105.261C359.292 105.326 359.646 105.46 359.987 105.665C360.332 105.869 360.618 106.178 360.845 106.591C361.072 107.004 361.186 107.557 361.186 108.25V114H359.845V112.818H359.777C359.686 113.008 359.535 113.21 359.322 113.426C359.11 113.642 358.828 113.826 358.476 113.977C358.124 114.129 357.694 114.205 357.186 114.205ZM357.391 113C357.921 113 358.368 112.896 358.732 112.688C359.099 112.479 359.375 112.21 359.561 111.881C359.75 111.551 359.845 111.205 359.845 110.841V109.614C359.788 109.682 359.663 109.744 359.47 109.801C359.281 109.854 359.061 109.902 358.811 109.943C358.565 109.981 358.324 110.015 358.089 110.045C357.858 110.072 357.671 110.095 357.527 110.114C357.179 110.159 356.853 110.233 356.55 110.335C356.25 110.434 356.008 110.583 355.822 110.784C355.641 110.981 355.55 111.25 355.55 111.591C355.55 112.057 355.722 112.409 356.067 112.648C356.415 112.883 356.857 113 357.391 113ZM367.429 105.273V106.409H362.906V105.273H367.429ZM364.224 103.182H365.565V111.5C365.565 111.879 365.62 112.163 365.73 112.352C365.844 112.538 365.988 112.663 366.162 112.727C366.34 112.788 366.527 112.818 366.724 112.818C366.872 112.818 366.993 112.811 367.088 112.795C367.183 112.777 367.259 112.761 367.315 112.75L367.588 113.955C367.497 113.989 367.37 114.023 367.207 114.057C367.045 114.095 366.838 114.114 366.588 114.114C366.209 114.114 365.838 114.032 365.474 113.869C365.115 113.706 364.815 113.458 364.577 113.125C364.342 112.792 364.224 112.371 364.224 111.864V103.182ZM369.446 114V105.273H370.787V114H369.446ZM370.128 103.818C369.866 103.818 369.641 103.729 369.452 103.551C369.266 103.373 369.173 103.159 369.173 102.909C369.173 102.659 369.266 102.445 369.452 102.267C369.641 102.089 369.866 102 370.128 102C370.389 102 370.613 102.089 370.798 102.267C370.988 102.445 371.082 102.659 371.082 102.909C371.082 103.159 370.988 103.373 370.798 103.551C370.613 103.729 370.389 103.818 370.128 103.818ZM376.788 114.182C376 114.182 375.309 113.994 374.714 113.619C374.124 113.244 373.661 112.72 373.328 112.045C372.999 111.371 372.834 110.583 372.834 109.682C372.834 108.773 372.999 107.979 373.328 107.301C373.661 106.623 374.124 106.097 374.714 105.722C375.309 105.347 376 105.159 376.788 105.159C377.576 105.159 378.266 105.347 378.857 105.722C379.451 106.097 379.913 106.623 380.243 107.301C380.576 107.979 380.743 108.773 380.743 109.682C380.743 110.583 380.576 111.371 380.243 112.045C379.913 112.72 379.451 113.244 378.857 113.619C378.266 113.994 377.576 114.182 376.788 114.182ZM376.788 112.977C377.387 112.977 377.879 112.824 378.266 112.517C378.652 112.21 378.938 111.807 379.124 111.307C379.309 110.807 379.402 110.265 379.402 109.682C379.402 109.098 379.309 108.555 379.124 108.051C378.938 107.547 378.652 107.14 378.266 106.83C377.879 106.519 377.387 106.364 376.788 106.364C376.19 106.364 375.697 106.519 375.311 106.83C374.925 107.14 374.639 107.547 374.453 108.051C374.268 108.555 374.175 109.098 374.175 109.682C374.175 110.265 374.268 110.807 374.453 111.307C374.639 111.807 374.925 112.21 375.311 112.517C375.697 112.824 376.19 112.977 376.788 112.977ZM384.131 108.75V114H382.79V105.273H384.085V106.636H384.199C384.403 106.193 384.714 105.837 385.131 105.568C385.547 105.295 386.085 105.159 386.744 105.159C387.335 105.159 387.852 105.28 388.295 105.523C388.739 105.761 389.083 106.125 389.33 106.614C389.576 107.098 389.699 107.712 389.699 108.455V114H388.358V108.545C388.358 107.86 388.18 107.326 387.824 106.943C387.468 106.557 386.979 106.364 386.358 106.364C385.93 106.364 385.547 106.456 385.21 106.642C384.877 106.828 384.614 107.098 384.42 107.455C384.227 107.811 384.131 108.242 384.131 108.75Z" fill="#18191F"/>
</g>
<defs>
<clipPath id="clip0_16_1447">
<rect width="540" height="120" fill="white"/>
</clipPath>
<clipPath id="clip1_16_1447">
<rect width="408" height="88" fill="white"/>
</clipPath>
</defs>
</svg>
